G04 #@! TF.GenerationSoftware,KiCad,Pcbnew,(5.1.9)-1*
G04 #@! TF.CreationDate,2021-08-04T02:24:10+02:00*
G04 #@! TF.ProjectId,sequswit-panel,73657175-7377-4697-942d-70616e656c2e,rev?*
G04 #@! TF.SameCoordinates,Original*
G04 #@! TF.FileFunction,Copper,L1,Top*
G04 #@! TF.FilePolarity,Positive*
%FSLAX46Y46*%
G04 Gerber Fmt 4.6, Leading zero omitted, Abs format (unit mm)*
G04 Created by KiCad (PCBNEW (5.1.9)-1) date 2021-08-04 02:24:10*
%MOMM*%
%LPD*%
G01*
G04 APERTURE LIST*
G04 #@! TA.AperFunction,EtchedComponent*
%ADD10C,0.010000*%
G04 #@! TD*
G04 APERTURE END LIST*
D10*
G04 #@! TO.C,Ref\u002A\u002A*
G36*
X229711250Y-148790212D02*
G01*
X227167241Y-150178731D01*
X224623231Y-151567250D01*
X224705727Y-151637863D01*
X224762095Y-151698832D01*
X224820275Y-151782337D01*
X224857903Y-151849906D01*
X224892934Y-151926366D01*
X224914795Y-151992608D01*
X224927174Y-152064810D01*
X224933760Y-152159152D01*
X224934920Y-152187738D01*
X224930172Y-152350110D01*
X224901982Y-152504854D01*
X224848177Y-152655230D01*
X224766587Y-152804503D01*
X224655039Y-152955932D01*
X224511360Y-153112781D01*
X224333379Y-153278312D01*
X224118923Y-153455787D01*
X224059705Y-153502132D01*
X224048896Y-153510724D01*
X224042104Y-153516884D01*
X224040940Y-153519744D01*
X224047013Y-153518438D01*
X224061934Y-153512099D01*
X224087312Y-153499860D01*
X224124757Y-153480855D01*
X224175880Y-153454216D01*
X224242289Y-153419077D01*
X224325595Y-153374571D01*
X224427408Y-153319831D01*
X224549338Y-153253991D01*
X224692994Y-153176183D01*
X224859986Y-153085541D01*
X225051925Y-152981198D01*
X225270419Y-152862287D01*
X225517080Y-152727942D01*
X225793517Y-152577295D01*
X226101339Y-152409480D01*
X226442157Y-152223630D01*
X226817580Y-152018878D01*
X227054834Y-151889474D01*
X229711250Y-150440574D01*
X229716605Y-153913435D01*
X229717159Y-154293456D01*
X229717633Y-154661900D01*
X229718027Y-155016551D01*
X229718342Y-155355194D01*
X229718576Y-155675612D01*
X229718731Y-155975589D01*
X229718806Y-156252911D01*
X229718801Y-156505362D01*
X229718717Y-156730725D01*
X229718552Y-156926785D01*
X229718308Y-157091327D01*
X229717984Y-157222135D01*
X229717581Y-157316992D01*
X229717097Y-157373684D01*
X229716605Y-157390243D01*
X229695338Y-157390021D01*
X229634888Y-157388489D01*
X229538379Y-157385748D01*
X229408938Y-157381899D01*
X229249691Y-157377043D01*
X229063764Y-157371280D01*
X228854282Y-157364712D01*
X228624372Y-157357439D01*
X228377160Y-157349563D01*
X228115770Y-157341183D01*
X227843330Y-157332401D01*
X227562966Y-157323319D01*
X227277802Y-157314035D01*
X226990966Y-157304653D01*
X226705582Y-157295271D01*
X226424777Y-157285992D01*
X226151677Y-157276916D01*
X225889408Y-157268143D01*
X225641095Y-157259776D01*
X225409865Y-157251914D01*
X225198843Y-157244659D01*
X225123375Y-157242039D01*
X224705334Y-157227483D01*
X224705334Y-158120200D01*
X225128667Y-158120200D01*
X225128667Y-158670533D01*
X224954042Y-158673425D01*
X224929503Y-158674316D01*
X224928761Y-158675830D01*
X224953134Y-158678014D01*
X225003938Y-158680918D01*
X225082490Y-158684591D01*
X225190107Y-158689079D01*
X225328106Y-158694434D01*
X225497804Y-158700701D01*
X225700517Y-158707932D01*
X225937563Y-158716173D01*
X226210259Y-158725474D01*
X226519921Y-158735884D01*
X226867866Y-158747449D01*
X227255412Y-158760221D01*
X227683874Y-158774246D01*
X227711000Y-158775131D01*
X227955775Y-158783158D01*
X228197311Y-158791154D01*
X228430675Y-158798949D01*
X228650933Y-158806377D01*
X228853149Y-158813269D01*
X229032390Y-158819456D01*
X229183721Y-158824772D01*
X229302207Y-158829047D01*
X229377875Y-158831914D01*
X229721833Y-158845526D01*
X229721834Y-162187029D01*
X229721785Y-162559621D01*
X229721642Y-162920550D01*
X229721411Y-163267561D01*
X229721096Y-163598398D01*
X229720703Y-163910806D01*
X229720238Y-164202530D01*
X229719705Y-164471314D01*
X229719109Y-164714902D01*
X229718457Y-164931040D01*
X229717753Y-165117472D01*
X229717003Y-165271942D01*
X229716211Y-165392195D01*
X229715384Y-165475976D01*
X229714527Y-165521029D01*
X229714001Y-165528533D01*
X229694893Y-165517910D01*
X229643089Y-165487442D01*
X229562092Y-165439231D01*
X229455405Y-165375377D01*
X229326532Y-165297982D01*
X229178976Y-165209147D01*
X229016242Y-165110974D01*
X228841833Y-165005564D01*
X228819709Y-164992179D01*
X228441485Y-164763588D01*
X228072248Y-164540926D01*
X227713656Y-164325173D01*
X227367368Y-164117311D01*
X227035043Y-163918319D01*
X226718341Y-163729178D01*
X226418919Y-163550868D01*
X226138437Y-163384369D01*
X225878553Y-163230662D01*
X225640927Y-163090726D01*
X225427216Y-162965544D01*
X225239080Y-162856094D01*
X225078178Y-162763357D01*
X224946169Y-162688313D01*
X224844711Y-162631943D01*
X224775463Y-162595227D01*
X224740084Y-162579146D01*
X224735833Y-162578672D01*
X224706079Y-162601151D01*
X224655817Y-162639116D01*
X224618612Y-162667217D01*
X224546212Y-162713372D01*
X224468472Y-162750459D01*
X224435538Y-162761565D01*
X224381137Y-162778993D01*
X224349107Y-162794817D01*
X224345500Y-162799718D01*
X224364208Y-162811382D01*
X224411144Y-162823840D01*
X224432946Y-162827772D01*
X224554294Y-162861840D01*
X224681160Y-162921815D01*
X224795590Y-162998372D01*
X224843715Y-163041133D01*
X224919410Y-163130794D01*
X224968291Y-163226228D01*
X224993784Y-163337851D01*
X224999317Y-163476080D01*
X224998218Y-163510572D01*
X224976761Y-163686390D01*
X224925649Y-163837958D01*
X224840875Y-163974707D01*
X224763756Y-164062217D01*
X224712498Y-164116937D01*
X224677328Y-164159643D01*
X224664881Y-164182171D01*
X224665363Y-164183285D01*
X224684545Y-164195359D01*
X224737692Y-164227802D01*
X224822466Y-164279204D01*
X224936528Y-164348158D01*
X225077540Y-164433255D01*
X225243165Y-164533086D01*
X225431064Y-164646242D01*
X225638899Y-164771316D01*
X225864332Y-164906899D01*
X226105026Y-165051581D01*
X226358641Y-165203956D01*
X226622841Y-165362613D01*
X226664373Y-165387547D01*
X226942870Y-165554829D01*
X227219838Y-165721363D01*
X227492055Y-165885203D01*
X227756299Y-166044402D01*
X228009347Y-166197015D01*
X228247977Y-166341094D01*
X228468967Y-166474693D01*
X228669093Y-166595865D01*
X228845134Y-166702664D01*
X228993867Y-166793143D01*
X229112070Y-166865356D01*
X229182084Y-166908419D01*
X229711250Y-167235493D01*
X229716560Y-179685263D01*
X229721869Y-192135033D01*
X209719334Y-192135033D01*
X209719334Y-189070769D01*
X215632243Y-189070769D01*
X215642327Y-189320208D01*
X215692714Y-189568981D01*
X215724833Y-189668575D01*
X215830959Y-189903622D01*
X215970972Y-190115180D01*
X216141848Y-190300481D01*
X216340559Y-190456760D01*
X216564080Y-190581251D01*
X216809386Y-190671187D01*
X216826871Y-190676003D01*
X216969246Y-190702694D01*
X217135984Y-190715345D01*
X217311522Y-190713978D01*
X217480294Y-190698618D01*
X217605823Y-190674824D01*
X217809626Y-190610618D01*
X217991528Y-190523565D01*
X218161982Y-190407612D01*
X218331443Y-190256703D01*
X218336583Y-190251610D01*
X218426449Y-190160183D01*
X218492932Y-190085809D01*
X218544298Y-190017425D01*
X218588809Y-189943964D01*
X218634730Y-189854362D01*
X218637492Y-189848681D01*
X218684000Y-189744971D01*
X218726868Y-189635551D01*
X218759529Y-189537754D01*
X218769710Y-189499783D01*
X218795432Y-189337626D01*
X218804278Y-189154483D01*
X218796495Y-188968082D01*
X218772330Y-188796152D01*
X218759091Y-188739011D01*
X218675685Y-188498467D01*
X218560903Y-188282302D01*
X218418528Y-188091637D01*
X218252337Y-187927597D01*
X218066112Y-187791302D01*
X217863632Y-187683878D01*
X217648676Y-187606445D01*
X217425026Y-187560128D01*
X217196460Y-187546048D01*
X216966758Y-187565328D01*
X216739700Y-187619092D01*
X216519066Y-187708461D01*
X216308636Y-187834559D01*
X216149010Y-187963709D01*
X215973588Y-188152142D01*
X215833133Y-188361353D01*
X215728713Y-188587054D01*
X215661394Y-188824955D01*
X215632243Y-189070769D01*
X209719334Y-189070769D01*
X209719334Y-171056717D01*
X212576834Y-171056717D01*
X212576834Y-172132533D01*
X215709500Y-172132533D01*
X215709500Y-173508366D01*
X216915414Y-173508366D01*
X216926584Y-172143116D01*
X217439875Y-172137448D01*
X217953167Y-172131780D01*
X217953167Y-171053785D01*
X217439875Y-171048117D01*
X216926584Y-171042450D01*
X216924327Y-170149603D01*
X220588935Y-170149603D01*
X220594588Y-170353572D01*
X220609632Y-170544562D01*
X220633965Y-170709299D01*
X220637985Y-170728937D01*
X220733449Y-171080461D01*
X220864908Y-171412493D01*
X221030444Y-171722863D01*
X221228136Y-172009400D01*
X221456064Y-172269931D01*
X221712309Y-172502285D01*
X221994951Y-172704292D01*
X222302070Y-172873780D01*
X222631747Y-173008578D01*
X222662750Y-173019030D01*
X222823918Y-173069995D01*
X222965119Y-173108069D01*
X223097352Y-173134783D01*
X223231612Y-173151666D01*
X223378896Y-173160247D01*
X223550201Y-173162056D01*
X223678750Y-173160342D01*
X223887141Y-173153766D01*
X224055124Y-173142894D01*
X224184423Y-173127591D01*
X224239667Y-173117240D01*
X224586953Y-173021280D01*
X224908765Y-172892546D01*
X225208623Y-172729111D01*
X225490045Y-172529048D01*
X225756549Y-172290431D01*
X225764988Y-172282020D01*
X226009097Y-172009884D01*
X226214715Y-171720145D01*
X226381906Y-171412678D01*
X226510736Y-171087358D01*
X226601271Y-170744059D01*
X226619865Y-170644121D01*
X226637920Y-170501082D01*
X226649496Y-170331741D01*
X226654422Y-170150266D01*
X226652524Y-169970829D01*
X226643631Y-169807601D01*
X226631386Y-169698366D01*
X226558294Y-169348734D01*
X226447515Y-169015769D01*
X226301152Y-168701680D01*
X226121304Y-168408677D01*
X225910074Y-168138967D01*
X225669563Y-167894760D01*
X225401872Y-167678265D01*
X225109102Y-167491690D01*
X224793355Y-167337243D01*
X224456731Y-167217135D01*
X224211905Y-167155119D01*
X224050006Y-167129269D01*
X223860247Y-167112805D01*
X223656073Y-167105836D01*
X223450928Y-167108469D01*
X223258257Y-167120812D01*
X223091505Y-167142974D01*
X223075500Y-167145982D01*
X222721564Y-167234665D01*
X222390180Y-167358992D01*
X222079926Y-167519717D01*
X221789379Y-167717593D01*
X221517113Y-167953376D01*
X221476394Y-167993427D01*
X221234263Y-168263530D01*
X221030198Y-168551870D01*
X220863592Y-168859589D01*
X220733841Y-169187833D01*
X220640338Y-169537742D01*
X220629331Y-169592533D01*
X220606206Y-169755812D01*
X220592774Y-169945926D01*
X220588935Y-170149603D01*
X216924327Y-170149603D01*
X216921191Y-168909670D01*
X216915798Y-166776891D01*
X216055103Y-166782420D01*
X215194408Y-166787950D01*
X213885621Y-168922333D01*
X212576834Y-171056717D01*
X209719334Y-171056717D01*
X209719334Y-157347027D01*
X211929369Y-157347027D01*
X211937688Y-157539624D01*
X211954649Y-157711810D01*
X211971652Y-157813283D01*
X212064769Y-158165018D01*
X212193611Y-158494345D01*
X212359050Y-158802884D01*
X212561958Y-159092256D01*
X212803207Y-159364081D01*
X212809599Y-159370528D01*
X213080641Y-159616210D01*
X213365988Y-159822099D01*
X213666366Y-159988497D01*
X213982505Y-160115708D01*
X214315133Y-160204036D01*
X214664977Y-160253784D01*
X214958084Y-160266009D01*
X215322063Y-160246835D01*
X215669004Y-160189062D01*
X216000071Y-160092307D01*
X216316426Y-159956191D01*
X216619235Y-159780332D01*
X216771349Y-159673338D01*
X216891281Y-159583761D01*
X218274182Y-160399842D01*
X218535879Y-160554329D01*
X218811532Y-160717156D01*
X219098854Y-160886966D01*
X219395557Y-161062403D01*
X219699354Y-161242110D01*
X220007957Y-161424731D01*
X220319080Y-161608910D01*
X220630436Y-161793291D01*
X220939736Y-161976516D01*
X221244694Y-162157229D01*
X221543022Y-162334075D01*
X221832433Y-162505696D01*
X222110640Y-162670737D01*
X222375355Y-162827841D01*
X222624291Y-162975652D01*
X222855162Y-163112813D01*
X223065679Y-163237968D01*
X223253555Y-163349760D01*
X223416503Y-163446833D01*
X223552236Y-163527832D01*
X223658467Y-163591398D01*
X223732908Y-163636177D01*
X223773271Y-163660812D01*
X223774000Y-163661268D01*
X223843643Y-163702926D01*
X223901706Y-163733985D01*
X223937173Y-163748622D01*
X223940066Y-163749054D01*
X223975406Y-163738530D01*
X224024143Y-163710842D01*
X224030344Y-163706531D01*
X224101736Y-163635302D01*
X224142381Y-163542367D01*
X224155000Y-163424237D01*
X224151127Y-163348481D01*
X224135273Y-163295542D01*
X224101090Y-163246277D01*
X224092767Y-163236626D01*
X224049220Y-163194245D01*
X223998483Y-163162068D01*
X223933871Y-163138430D01*
X223848703Y-163121664D01*
X223736294Y-163110103D01*
X223589963Y-163102082D01*
X223546459Y-163100403D01*
X223223667Y-163088699D01*
X223223667Y-162571785D01*
X223514709Y-162558489D01*
X223693054Y-162546309D01*
X223833486Y-162526623D01*
X223940056Y-162497492D01*
X224016814Y-162456974D01*
X224067814Y-162403130D01*
X224097107Y-162334018D01*
X224106928Y-162274849D01*
X224116274Y-162173616D01*
X223939845Y-162067783D01*
X223763417Y-161961950D01*
X223551750Y-161963277D01*
X223297644Y-161984402D01*
X223046708Y-162045305D01*
X222825226Y-162132433D01*
X222738884Y-162172357D01*
X222676555Y-162197253D01*
X222634337Y-162202921D01*
X222608331Y-162185167D01*
X222594636Y-162139794D01*
X222589353Y-162062603D01*
X222588580Y-161949398D01*
X222588667Y-161877874D01*
X222588667Y-161550382D01*
X222710375Y-161516859D01*
X222782378Y-161496205D01*
X222841270Y-161477860D01*
X222867066Y-161468643D01*
X222859624Y-161458192D01*
X222824167Y-161431801D01*
X222759890Y-161388980D01*
X222665986Y-161329238D01*
X222541649Y-161252085D01*
X222386073Y-161157030D01*
X222198453Y-161043583D01*
X221977981Y-160911254D01*
X221723851Y-160759551D01*
X221435259Y-160587984D01*
X221111397Y-160396063D01*
X220860067Y-160247450D01*
X220578669Y-160081178D01*
X220299679Y-159916315D01*
X220026201Y-159754696D01*
X219761340Y-159598155D01*
X219508200Y-159448528D01*
X219269885Y-159307649D01*
X219049498Y-159177354D01*
X218850145Y-159059478D01*
X218674929Y-158955856D01*
X218526954Y-158868323D01*
X218409325Y-158798714D01*
X218327418Y-158750211D01*
X217836750Y-158459473D01*
X217953167Y-158459286D01*
X217995282Y-158459947D01*
X218075569Y-158461916D01*
X218189892Y-158465068D01*
X218334114Y-158469279D01*
X218504098Y-158474423D01*
X218695708Y-158480375D01*
X218904806Y-158487011D01*
X219127256Y-158494206D01*
X219329000Y-158500841D01*
X219583889Y-158509250D01*
X219848248Y-158517901D01*
X220115066Y-158526569D01*
X220377332Y-158535028D01*
X220628035Y-158543054D01*
X220860164Y-158550421D01*
X221066708Y-158556905D01*
X221240654Y-158562281D01*
X221297500Y-158564009D01*
X221476472Y-158569598D01*
X221650444Y-158575369D01*
X221812666Y-158581073D01*
X221956389Y-158586460D01*
X222074860Y-158591283D01*
X222161331Y-158595291D01*
X222191792Y-158596994D01*
X222377000Y-158608554D01*
X222377000Y-158107349D01*
X222387346Y-158095607D01*
X223049495Y-158095607D01*
X223052342Y-158104876D01*
X223070540Y-158111473D01*
X223109054Y-158115851D01*
X223172849Y-158118460D01*
X223266890Y-158119750D01*
X223396142Y-158120172D01*
X223464492Y-158120200D01*
X223901000Y-158120200D01*
X223901000Y-157665116D01*
X223900840Y-157515277D01*
X223900041Y-157402513D01*
X223898124Y-157321567D01*
X223894612Y-157267180D01*
X223889026Y-157234097D01*
X223880888Y-157217058D01*
X223869719Y-157210806D01*
X223859602Y-157210033D01*
X223830402Y-157226644D01*
X223775485Y-157276228D01*
X223695213Y-157358414D01*
X223589950Y-157472830D01*
X223460058Y-157619102D01*
X223452144Y-157628135D01*
X223352427Y-157742169D01*
X223260816Y-157847201D01*
X223181357Y-157938572D01*
X223118095Y-158011620D01*
X223075076Y-158061687D01*
X223057033Y-158083218D01*
X223049495Y-158095607D01*
X222387346Y-158095607D01*
X222777014Y-157653399D01*
X222897152Y-157516313D01*
X222990884Y-157407473D01*
X223060470Y-157323980D01*
X223108175Y-157262932D01*
X223136258Y-157221430D01*
X223146984Y-157196573D01*
X223142614Y-157185460D01*
X223142139Y-157185253D01*
X223116904Y-157182791D01*
X223051979Y-157179143D01*
X222949991Y-157174405D01*
X222813563Y-157168674D01*
X222645320Y-157162044D01*
X222447887Y-157154611D01*
X222223888Y-157146472D01*
X221975950Y-157137721D01*
X221706695Y-157128455D01*
X221418750Y-157118770D01*
X221114738Y-157108761D01*
X220797285Y-157098524D01*
X220552471Y-157090771D01*
X217997693Y-157010485D01*
X217983912Y-156928916D01*
X217976846Y-156875635D01*
X217976329Y-156844059D01*
X217977524Y-156841206D01*
X217996680Y-156830500D01*
X218050764Y-156800765D01*
X218137531Y-156753229D01*
X218254735Y-156689117D01*
X218400129Y-156609654D01*
X218571469Y-156516069D01*
X218766509Y-156409585D01*
X218983003Y-156291430D01*
X219218705Y-156162829D01*
X219471370Y-156025008D01*
X219738752Y-155879195D01*
X220018605Y-155726613D01*
X220286792Y-155580423D01*
X222588667Y-154325780D01*
X222589337Y-154079865D01*
X222590008Y-153833950D01*
X222732212Y-153738838D01*
X222944986Y-153591819D01*
X223149335Y-153441540D01*
X223341549Y-153291271D01*
X223517916Y-153144279D01*
X223674727Y-153003832D01*
X223808270Y-152873199D01*
X223914835Y-152755648D01*
X223990713Y-152654447D01*
X224018563Y-152605836D01*
X224067303Y-152473163D01*
X224085132Y-152343549D01*
X224073085Y-152223850D01*
X224032195Y-152120923D01*
X223963497Y-152041622D01*
X223930003Y-152018930D01*
X223863756Y-151980942D01*
X220661554Y-153727654D01*
X220319411Y-153914242D01*
X219987293Y-154095283D01*
X219667103Y-154269741D01*
X219360747Y-154436584D01*
X219070128Y-154594775D01*
X218797151Y-154743281D01*
X218543719Y-154881067D01*
X218311738Y-155007099D01*
X218103111Y-155120342D01*
X217919743Y-155219762D01*
X217763538Y-155304324D01*
X217636400Y-155372994D01*
X217540234Y-155424738D01*
X217476944Y-155458520D01*
X217448434Y-155473307D01*
X217446967Y-155473914D01*
X217428526Y-155457898D01*
X217395826Y-155417778D01*
X217377107Y-155392176D01*
X217302015Y-155296742D01*
X217202978Y-155186287D01*
X217090055Y-155071002D01*
X216973307Y-154961080D01*
X216862793Y-154866714D01*
X216843449Y-154851476D01*
X216546385Y-154645051D01*
X216238031Y-154478566D01*
X215914428Y-154350268D01*
X215571614Y-154258404D01*
X215452239Y-154235550D01*
X215312467Y-154217825D01*
X215145645Y-154206917D01*
X214965185Y-154202841D01*
X214784503Y-154205613D01*
X214617009Y-154215247D01*
X214476119Y-154231759D01*
X214460382Y-154234425D01*
X214113909Y-154316073D01*
X213781457Y-154434831D01*
X213466760Y-154588550D01*
X213173549Y-154775084D01*
X212905558Y-154992284D01*
X212666517Y-155238003D01*
X212620081Y-155293352D01*
X212413745Y-155573726D01*
X212244787Y-155865702D01*
X212110203Y-156175512D01*
X212006991Y-156509386D01*
X211980640Y-156619896D01*
X211955326Y-156770454D01*
X211938281Y-156950075D01*
X211929597Y-157146388D01*
X211929369Y-157347027D01*
X209719334Y-157347027D01*
X209719334Y-148315444D01*
X213084834Y-148315444D01*
X213084834Y-149394822D01*
X213153625Y-149406701D01*
X213246156Y-149419813D01*
X213372911Y-149433648D01*
X213525801Y-149447633D01*
X213696737Y-149461191D01*
X213877630Y-149473749D01*
X214060390Y-149484729D01*
X214236929Y-149493559D01*
X214399157Y-149499661D01*
X214492417Y-149501882D01*
X214578832Y-149501418D01*
X214693321Y-149498100D01*
X214821759Y-149492462D01*
X214950023Y-149485037D01*
X214965806Y-149483978D01*
X215349353Y-149447294D01*
X215698151Y-149391534D01*
X216015691Y-149315776D01*
X216305469Y-149219099D01*
X216570976Y-149100582D01*
X216711619Y-149023592D01*
X216828824Y-148944583D01*
X216955575Y-148841935D01*
X217082077Y-148725101D01*
X217198535Y-148603532D01*
X217295155Y-148486680D01*
X217347275Y-148410214D01*
X217435907Y-148237038D01*
X217511977Y-148036625D01*
X217570249Y-147823431D01*
X217583993Y-147756415D01*
X217603294Y-147612000D01*
X217612081Y-147449376D01*
X217610789Y-147280550D01*
X217599849Y-147117528D01*
X217579694Y-146972317D01*
X217551648Y-146859533D01*
X217461821Y-146647437D01*
X217340965Y-146456531D01*
X217191403Y-146285703D01*
X217104248Y-146202759D01*
X217024568Y-146138640D01*
X216937342Y-146082717D01*
X216827548Y-146024359D01*
X216809089Y-146015176D01*
X216711512Y-145971301D01*
X220589654Y-145971301D01*
X220591638Y-146161546D01*
X220601276Y-146340922D01*
X220618586Y-146496709D01*
X220628108Y-146551848D01*
X220718818Y-146907451D01*
X220845990Y-147243721D01*
X221008087Y-147558597D01*
X221203571Y-147850017D01*
X221430904Y-148115920D01*
X221688548Y-148354243D01*
X221974967Y-148562926D01*
X222242908Y-148717002D01*
X222570460Y-148861515D01*
X222906864Y-148964678D01*
X223252271Y-149026514D01*
X223606834Y-149047048D01*
X223970707Y-149026300D01*
X224133834Y-149004094D01*
X224473446Y-148928762D01*
X224798738Y-148813745D01*
X225108833Y-148659502D01*
X225402852Y-148466492D01*
X225679917Y-148235172D01*
X225765477Y-148152510D01*
X226010107Y-147880268D01*
X226215555Y-147592011D01*
X226381794Y-147287811D01*
X226508792Y-146967737D01*
X226596519Y-146631862D01*
X226644947Y-146280257D01*
X226655452Y-146023004D01*
X226647266Y-145758151D01*
X226619330Y-145514893D01*
X226568937Y-145276073D01*
X226502023Y-145050381D01*
X226370995Y-144720049D01*
X226204964Y-144411709D01*
X226006247Y-144127370D01*
X225777159Y-143869037D01*
X225520017Y-143638719D01*
X225237136Y-143438421D01*
X224930832Y-143270151D01*
X224603421Y-143135915D01*
X224257220Y-143037721D01*
X224155000Y-143016532D01*
X224001998Y-142995082D01*
X223821264Y-142982059D01*
X223626560Y-142977497D01*
X223431646Y-142981429D01*
X223250284Y-142993888D01*
X223101130Y-143014005D01*
X222789492Y-143088566D01*
X222480448Y-143196531D01*
X222185040Y-143333301D01*
X221914308Y-143494273D01*
X221862285Y-143530250D01*
X221726742Y-143636178D01*
X221579667Y-143767496D01*
X221431681Y-143913517D01*
X221293401Y-144063554D01*
X221175448Y-144206921D01*
X221134410Y-144262736D01*
X220958955Y-144546115D01*
X220812295Y-144854501D01*
X220698309Y-145178677D01*
X220629474Y-145462533D01*
X220608588Y-145609076D01*
X220595309Y-145782905D01*
X220589654Y-145971301D01*
X216711512Y-145971301D01*
X216669163Y-145952259D01*
X216522495Y-145896944D01*
X216389828Y-145857036D01*
X216386834Y-145856295D01*
X216185750Y-145806798D01*
X216308236Y-145751903D01*
X216507744Y-145644211D01*
X216696756Y-145507296D01*
X216865360Y-145349543D01*
X217003643Y-145179337D01*
X217027340Y-145143675D01*
X217126461Y-144952150D01*
X217197783Y-144736304D01*
X217241035Y-144503976D01*
X217255950Y-144263002D01*
X217242259Y-144021223D01*
X217199692Y-143786473D01*
X217127982Y-143566593D01*
X217084678Y-143471693D01*
X216964673Y-143280329D01*
X216808129Y-143108225D01*
X216616715Y-142956407D01*
X216392099Y-142825902D01*
X216135949Y-142717739D01*
X215849933Y-142632943D01*
X215656584Y-142592239D01*
X215544602Y-142577298D01*
X215399955Y-142565886D01*
X215232173Y-142558082D01*
X215050782Y-142553963D01*
X214865310Y-142553608D01*
X214685287Y-142557094D01*
X214520238Y-142564498D01*
X214379694Y-142575900D01*
X214333667Y-142581435D01*
X214147086Y-142610773D01*
X213942428Y-142649917D01*
X213736811Y-142695214D01*
X213547355Y-142743012D01*
X213460542Y-142767751D01*
X213275334Y-142823247D01*
X213275334Y-143338557D01*
X213276178Y-143511490D01*
X213278649Y-143651711D01*
X213282653Y-143756925D01*
X213288097Y-143824837D01*
X213294888Y-143853152D01*
X213296277Y-143853866D01*
X213324146Y-143848428D01*
X213383431Y-143833703D01*
X213464856Y-143812071D01*
X213540750Y-143791100D01*
X213852330Y-143712389D01*
X214154795Y-143653147D01*
X214444204Y-143613511D01*
X214716619Y-143593616D01*
X214968102Y-143593598D01*
X215194713Y-143613592D01*
X215392515Y-143653733D01*
X215557567Y-143714157D01*
X215571917Y-143721218D01*
X215708482Y-143812950D01*
X215818317Y-143934027D01*
X215899871Y-144079762D01*
X215951593Y-144245469D01*
X215971934Y-144426463D01*
X215959342Y-144618058D01*
X215922794Y-144781691D01*
X215856762Y-144931673D01*
X215753072Y-145067310D01*
X215614680Y-145186200D01*
X215444544Y-145285943D01*
X215245618Y-145364136D01*
X215183371Y-145382329D01*
X215127127Y-145396233D01*
X215068520Y-145407222D01*
X215001171Y-145415773D01*
X214918703Y-145422364D01*
X214814735Y-145427473D01*
X214682891Y-145431578D01*
X214516791Y-145435156D01*
X214465959Y-145436082D01*
X213910334Y-145445923D01*
X213910334Y-146389680D01*
X214540042Y-146399525D01*
X214723455Y-146402599D01*
X214870867Y-146405775D01*
X214988607Y-146409532D01*
X215083004Y-146414348D01*
X215160388Y-146420699D01*
X215227090Y-146429064D01*
X215289438Y-146439920D01*
X215353762Y-146453746D01*
X215398737Y-146464336D01*
X215639181Y-146535656D01*
X215841676Y-146625265D01*
X216006632Y-146733552D01*
X216134462Y-146860905D01*
X216225578Y-147007713D01*
X216280392Y-147174365D01*
X216297906Y-147312201D01*
X216291144Y-147527145D01*
X216247811Y-147722390D01*
X216168654Y-147896469D01*
X216054418Y-148047917D01*
X215905851Y-148175265D01*
X215836191Y-148219587D01*
X215716186Y-148277757D01*
X215565924Y-148332134D01*
X215397478Y-148378893D01*
X215222925Y-148414209D01*
X215220899Y-148414538D01*
X215118888Y-148426569D01*
X214983307Y-148435908D01*
X214822839Y-148442483D01*
X214646165Y-148446224D01*
X214461968Y-148447059D01*
X214278929Y-148444915D01*
X214105732Y-148439721D01*
X213951059Y-148431406D01*
X213878584Y-148425619D01*
X213766647Y-148414324D01*
X213640396Y-148399940D01*
X213509386Y-148383730D01*
X213383176Y-148366962D01*
X213271324Y-148350900D01*
X213183386Y-148336809D01*
X213132459Y-148326829D01*
X213084834Y-148315444D01*
X209719334Y-148315444D01*
X209719334Y-134548495D01*
X211698167Y-134548495D01*
X211702151Y-134759997D01*
X211716395Y-134959774D01*
X211740900Y-135134627D01*
X211747774Y-135168937D01*
X211843045Y-135517366D01*
X211974440Y-135846875D01*
X212139692Y-136155279D01*
X212336534Y-136440396D01*
X212562700Y-136700042D01*
X212815923Y-136932032D01*
X213093936Y-137134184D01*
X213394473Y-137304313D01*
X213715267Y-137440236D01*
X214054051Y-137539770D01*
X214249000Y-137578505D01*
X214372617Y-137592770D01*
X214525129Y-137600821D01*
X214695399Y-137602944D01*
X214872290Y-137599425D01*
X215044663Y-137590551D01*
X215201382Y-137576608D01*
X215331308Y-137557880D01*
X215370834Y-137549687D01*
X215559632Y-137501209D01*
X215730335Y-137446038D01*
X215901947Y-137377491D01*
X216042215Y-137313503D01*
X216351570Y-137143605D01*
X216636137Y-136940769D01*
X216893846Y-136707778D01*
X217122625Y-136447413D01*
X217320406Y-136162458D01*
X217485116Y-135855696D01*
X217614686Y-135529910D01*
X217707045Y-135187882D01*
X217734392Y-135039107D01*
X217748876Y-134909695D01*
X217757007Y-134752779D01*
X217759044Y-134579819D01*
X217755245Y-134402274D01*
X217745868Y-134231601D01*
X217731172Y-134079261D01*
X217711415Y-133956712D01*
X217709829Y-133949456D01*
X217611113Y-133600931D01*
X217476176Y-133271791D01*
X217307193Y-132964204D01*
X217106341Y-132680341D01*
X216875798Y-132422371D01*
X216617738Y-132192463D01*
X216334338Y-131992787D01*
X216027775Y-131825513D01*
X215700225Y-131692811D01*
X215353865Y-131596849D01*
X215348750Y-131595746D01*
X215180814Y-131568517D01*
X214985598Y-131551299D01*
X214775825Y-131544109D01*
X214564218Y-131546964D01*
X214363499Y-131559882D01*
X214186391Y-131582878D01*
X214128596Y-131594118D01*
X213772737Y-131691503D01*
X213440268Y-131824080D01*
X213130576Y-131992168D01*
X212843046Y-132196090D01*
X212643447Y-132370950D01*
X212393747Y-132636323D01*
X212181901Y-132920209D01*
X212007107Y-133224044D01*
X211868563Y-133549266D01*
X211765466Y-133897314D01*
X211747774Y-133975628D01*
X211720978Y-134143111D01*
X211704442Y-134338467D01*
X211698167Y-134548495D01*
X209719334Y-134548495D01*
X209719334Y-119265749D01*
X213001253Y-119265749D01*
X213070661Y-119351932D01*
X213105440Y-119395692D01*
X213160786Y-119466017D01*
X213231311Y-119556028D01*
X213311628Y-119658850D01*
X213396347Y-119767603D01*
X213400212Y-119772572D01*
X213660355Y-120107028D01*
X213748302Y-120031571D01*
X213846407Y-119953792D01*
X213965074Y-119869532D01*
X214093728Y-119785432D01*
X214221794Y-119708133D01*
X214338696Y-119644273D01*
X214433857Y-119600495D01*
X214436454Y-119599489D01*
X214595064Y-119545221D01*
X214742396Y-119511230D01*
X214894833Y-119494932D01*
X215068756Y-119493746D01*
X215100574Y-119494820D01*
X215210505Y-119500153D01*
X215291329Y-119508063D01*
X215356275Y-119521245D01*
X215418567Y-119542395D01*
X215491434Y-119574205D01*
X215492352Y-119574628D01*
X215632918Y-119657071D01*
X215759099Y-119764664D01*
X215859643Y-119886983D01*
X215895718Y-119948306D01*
X215947821Y-120065260D01*
X215981536Y-120181115D01*
X215999012Y-120308021D01*
X216002393Y-120458124D01*
X215999837Y-120537609D01*
X215988093Y-120708245D01*
X215967375Y-120851405D01*
X215934106Y-120981599D01*
X215884712Y-121113338D01*
X215827419Y-121237283D01*
X215777510Y-121333952D01*
X215721959Y-121430902D01*
X215658758Y-121530459D01*
X215585897Y-121634946D01*
X215501370Y-121746689D01*
X215403168Y-121868012D01*
X215289282Y-122001240D01*
X215157704Y-122148698D01*
X215006427Y-122312710D01*
X214833441Y-122495601D01*
X214636739Y-122699696D01*
X214414312Y-122927320D01*
X214164153Y-123180798D01*
X214043126Y-123302782D01*
X213042500Y-124309947D01*
X213042500Y-125227200D01*
X217593334Y-125227200D01*
X217593334Y-124084200D01*
X216169875Y-124083923D01*
X214746417Y-124083646D01*
X214947703Y-123888131D01*
X215012852Y-123824979D01*
X215103020Y-123737759D01*
X215212729Y-123631762D01*
X215336500Y-123512278D01*
X215468853Y-123384597D01*
X215604310Y-123254010D01*
X215676331Y-123184616D01*
X215925670Y-122941795D01*
X216144823Y-122722263D01*
X216336472Y-122522627D01*
X216503301Y-122339499D01*
X216647993Y-122169486D01*
X216773229Y-122009199D01*
X216881693Y-121855246D01*
X216904891Y-121818125D01*
X220582748Y-121818125D01*
X220598585Y-122165506D01*
X220654003Y-122507057D01*
X220748146Y-122839553D01*
X220880156Y-123159767D01*
X221049177Y-123464474D01*
X221254350Y-123750446D01*
X221423641Y-123942582D01*
X221622561Y-124135755D01*
X221822464Y-124298389D01*
X222036796Y-124440398D01*
X222271723Y-124568083D01*
X222546715Y-124691366D01*
X222815849Y-124782584D01*
X223093968Y-124846600D01*
X223152085Y-124856584D01*
X223270552Y-124870051D01*
X223417768Y-124877918D01*
X223582456Y-124880408D01*
X223753339Y-124877745D01*
X223919142Y-124870152D01*
X224068588Y-124857851D01*
X224190402Y-124841066D01*
X224218500Y-124835490D01*
X224568993Y-124738710D01*
X224899733Y-124606271D01*
X225208644Y-124440342D01*
X225493647Y-124243088D01*
X225752665Y-124016677D01*
X225983619Y-123763276D01*
X226184433Y-123485051D01*
X226353028Y-123184169D01*
X226487326Y-122862799D01*
X226585250Y-122523106D01*
X226623102Y-122327688D01*
X226652551Y-122041722D01*
X226653657Y-121738327D01*
X226627278Y-121430729D01*
X226574272Y-121132150D01*
X226535949Y-120983031D01*
X226492295Y-120853031D01*
X226431509Y-120701407D01*
X226359849Y-120541821D01*
X226283573Y-120387932D01*
X226208942Y-120253401D01*
X226180645Y-120207591D01*
X225971661Y-119920903D01*
X225732555Y-119663212D01*
X225465182Y-119435776D01*
X225171397Y-119239853D01*
X224853056Y-119076699D01*
X224512013Y-118947571D01*
X224197334Y-118863680D01*
X224066721Y-118842956D01*
X223905687Y-118829364D01*
X223725525Y-118822822D01*
X223537527Y-118823251D01*
X223352987Y-118830570D01*
X223183199Y-118844700D01*
X223039454Y-118865559D01*
X223007477Y-118872134D01*
X222666186Y-118965359D01*
X222352361Y-119088428D01*
X222060900Y-119244140D01*
X221786701Y-119435293D01*
X221524661Y-119664688D01*
X221476747Y-119711904D01*
X221247479Y-119963273D01*
X221056828Y-120220695D01*
X220901082Y-120490673D01*
X220776525Y-120779710D01*
X220679445Y-121094308D01*
X220673251Y-121118780D01*
X220607352Y-121468141D01*
X220582748Y-121818125D01*
X216904891Y-121818125D01*
X216976067Y-121704237D01*
X217059034Y-121552781D01*
X217133277Y-121397488D01*
X217183549Y-121279651D01*
X217274381Y-121007334D01*
X217331782Y-120722740D01*
X217356012Y-120432373D01*
X217347335Y-120142736D01*
X217306013Y-119860334D01*
X217232308Y-119591668D01*
X217126483Y-119343243D01*
X217103687Y-119300533D01*
X217002920Y-119148618D01*
X216871720Y-118996743D01*
X216720740Y-118855146D01*
X216560635Y-118734072D01*
X216439750Y-118662258D01*
X216159348Y-118539736D01*
X215854077Y-118449664D01*
X215701789Y-118418391D01*
X215550042Y-118398549D01*
X215371072Y-118386851D01*
X215178537Y-118383256D01*
X214986096Y-118387720D01*
X214807408Y-118400204D01*
X214656132Y-118420664D01*
X214651167Y-118421587D01*
X214305953Y-118507921D01*
X213968357Y-118635143D01*
X213640683Y-118802142D01*
X213325238Y-119007808D01*
X213146613Y-119146166D01*
X213001253Y-119265749D01*
X209719334Y-119265749D01*
X209719334Y-110397328D01*
X211698167Y-110397328D01*
X211702151Y-110608831D01*
X211716395Y-110808608D01*
X211740900Y-110983460D01*
X211747774Y-111017771D01*
X211843289Y-111367127D01*
X211974958Y-111697170D01*
X212140568Y-112005780D01*
X212337903Y-112290834D01*
X212564749Y-112550212D01*
X212818890Y-112781792D01*
X213098113Y-112983454D01*
X213400202Y-113153076D01*
X213722942Y-113288537D01*
X214064118Y-113387715D01*
X214263141Y-113426737D01*
X214381069Y-113440130D01*
X214527826Y-113447945D01*
X214692138Y-113450408D01*
X214862734Y-113447743D01*
X215028340Y-113440175D01*
X215177686Y-113427928D01*
X215299498Y-113411228D01*
X215328500Y-113405490D01*
X215684650Y-113307520D01*
X216019148Y-113173348D01*
X216331510Y-113003236D01*
X216621251Y-112797445D01*
X216873892Y-112570358D01*
X217114638Y-112300081D01*
X217319757Y-112008508D01*
X217488056Y-111697949D01*
X217618342Y-111370718D01*
X217709421Y-111029126D01*
X217731496Y-110908581D01*
X217748378Y-110764583D01*
X217758317Y-110593070D01*
X217761312Y-110408291D01*
X217757363Y-110224490D01*
X217746470Y-110055914D01*
X217731496Y-109933652D01*
X217656238Y-109597278D01*
X217542392Y-109270314D01*
X217392678Y-108957652D01*
X217209818Y-108664186D01*
X216996534Y-108394807D01*
X216755546Y-108154409D01*
X216729089Y-108131343D01*
X216448652Y-107914551D01*
X216153853Y-107735558D01*
X215840232Y-107592144D01*
X215503327Y-107482091D01*
X215347137Y-107443792D01*
X215199504Y-107419009D01*
X215022525Y-107402075D01*
X214828477Y-107393105D01*
X214629637Y-107392215D01*
X214438279Y-107399521D01*
X214266680Y-107415137D01*
X214157152Y-107432610D01*
X213861541Y-107509193D01*
X213564403Y-107617745D01*
X213279160Y-107752601D01*
X213019234Y-107908097D01*
X213000944Y-107920564D01*
X212873084Y-108017484D01*
X212732091Y-108139312D01*
X212588480Y-108275846D01*
X212452766Y-108416882D01*
X212335464Y-108552216D01*
X212290161Y-108610310D01*
X212112143Y-108880903D01*
X211959859Y-109178818D01*
X211837341Y-109495033D01*
X211748620Y-109820523D01*
X211747774Y-109824462D01*
X211720978Y-109991945D01*
X211704442Y-110187300D01*
X211698167Y-110397328D01*
X209719334Y-110397328D01*
X209719334Y-95689406D01*
X212979000Y-95689406D01*
X212986580Y-95714319D01*
X213007893Y-95772898D01*
X213040802Y-95859564D01*
X213083165Y-95968737D01*
X213132846Y-96094839D01*
X213174828Y-96200184D01*
X213370656Y-96689203D01*
X214111453Y-96279546D01*
X214273712Y-96190021D01*
X214424481Y-96107228D01*
X214559731Y-96033348D01*
X214675435Y-95970565D01*
X214767564Y-95921062D01*
X214832089Y-95887022D01*
X214864983Y-95870627D01*
X214868225Y-95869461D01*
X214870373Y-95890102D01*
X214872334Y-95950280D01*
X214874094Y-96047203D01*
X214875639Y-96178073D01*
X214876955Y-96340097D01*
X214878030Y-96530480D01*
X214878849Y-96746426D01*
X214879398Y-96985141D01*
X214879665Y-97243831D01*
X214879635Y-97519699D01*
X214879295Y-97809952D01*
X214878808Y-98043908D01*
X214873417Y-100218783D01*
X214010875Y-100224312D01*
X213148334Y-100229841D01*
X213148334Y-101330033D01*
X217635667Y-101330033D01*
X217635667Y-100229366D01*
X216154000Y-100229366D01*
X216154000Y-97663833D01*
X220583585Y-97663833D01*
X220595368Y-98001424D01*
X220644772Y-98335102D01*
X220731534Y-98661775D01*
X220855386Y-98978347D01*
X221016064Y-99281725D01*
X221213301Y-99568816D01*
X221423641Y-99812582D01*
X221685190Y-100057282D01*
X221967149Y-100267746D01*
X222266302Y-100442044D01*
X222579436Y-100578244D01*
X222828003Y-100655929D01*
X222991613Y-100695536D01*
X223138796Y-100723377D01*
X223282737Y-100740857D01*
X223436622Y-100749381D01*
X223613635Y-100750353D01*
X223699917Y-100748804D01*
X223855332Y-100743910D01*
X223980070Y-100736482D01*
X224085769Y-100725302D01*
X224184064Y-100709154D01*
X224282000Y-100687908D01*
X224627956Y-100587819D01*
X224946506Y-100456971D01*
X225241346Y-100293327D01*
X225516173Y-100094846D01*
X225763892Y-99870358D01*
X226006775Y-99598253D01*
X226211971Y-99307308D01*
X226378943Y-98998818D01*
X226507152Y-98674082D01*
X226596060Y-98334397D01*
X226645129Y-97981061D01*
X226655489Y-97721116D01*
X226638546Y-97377603D01*
X226586736Y-97053478D01*
X226498591Y-96742113D01*
X226372643Y-96436883D01*
X226369323Y-96429950D01*
X226286207Y-96263912D01*
X226207527Y-96123870D01*
X226124426Y-95995628D01*
X226028045Y-95864989D01*
X225974934Y-95797845D01*
X225741655Y-95541335D01*
X225479175Y-95314468D01*
X225189859Y-95118679D01*
X224876070Y-94955403D01*
X224540173Y-94826073D01*
X224237137Y-94743478D01*
X224090357Y-94718712D01*
X223914143Y-94701808D01*
X223720681Y-94692875D01*
X223522153Y-94692022D01*
X223330744Y-94699362D01*
X223158638Y-94715002D01*
X223047152Y-94732729D01*
X222706343Y-94822649D01*
X222372028Y-94953129D01*
X222048282Y-95122463D01*
X221911334Y-95208113D01*
X221791312Y-95296468D01*
X221656586Y-95411187D01*
X221515954Y-95543425D01*
X221378216Y-95684336D01*
X221252169Y-95825076D01*
X221146612Y-95956798D01*
X221098314Y-96025475D01*
X220917997Y-96336220D01*
X220776631Y-96658523D01*
X220673951Y-96989288D01*
X220609691Y-97325423D01*
X220583585Y-97663833D01*
X216154000Y-97663833D01*
X216154000Y-94556700D01*
X215087381Y-94556700D01*
X214033190Y-95112173D01*
X213838203Y-95215292D01*
X213654906Y-95312956D01*
X213486648Y-95403331D01*
X213336782Y-95484583D01*
X213208657Y-95554876D01*
X213105626Y-95612376D01*
X213031038Y-95655248D01*
X212988245Y-95681657D01*
X212979000Y-95689406D01*
X209719334Y-95689406D01*
X209719334Y-86267328D01*
X211698167Y-86267328D01*
X211702151Y-86478831D01*
X211716395Y-86678608D01*
X211740900Y-86853460D01*
X211747774Y-86887771D01*
X211843409Y-87240955D01*
X211974449Y-87571198D01*
X212141527Y-87879704D01*
X212345276Y-88167678D01*
X212533641Y-88382556D01*
X212791438Y-88625042D01*
X213066022Y-88830956D01*
X213360013Y-89001618D01*
X213676030Y-89138346D01*
X214016693Y-89242459D01*
X214384622Y-89315277D01*
X214386584Y-89315572D01*
X214428620Y-89318316D01*
X214504392Y-89319822D01*
X214605318Y-89320054D01*
X214722819Y-89318972D01*
X214809917Y-89317423D01*
X214965100Y-89312814D01*
X215089600Y-89305639D01*
X215195045Y-89294702D01*
X215293062Y-89278807D01*
X215392000Y-89257529D01*
X215677497Y-89179121D01*
X215935950Y-89082683D01*
X216180815Y-88962515D01*
X216397417Y-88831512D01*
X216681510Y-88620510D01*
X216937429Y-88379372D01*
X217163096Y-88111295D01*
X217356436Y-87819473D01*
X217515374Y-87507103D01*
X217637833Y-87177380D01*
X217721739Y-86833499D01*
X217731354Y-86777950D01*
X217748261Y-86634853D01*
X217758248Y-86464157D01*
X217761315Y-86280029D01*
X217757459Y-86096634D01*
X217746678Y-85928138D01*
X217731496Y-85803652D01*
X217655014Y-85462123D01*
X217539656Y-85133431D01*
X217387760Y-84820750D01*
X217201667Y-84527255D01*
X216983716Y-84256122D01*
X216736246Y-84010524D01*
X216461597Y-83793639D01*
X216162108Y-83608640D01*
X216084248Y-83568056D01*
X215927205Y-83497261D01*
X215743793Y-83427845D01*
X215549787Y-83365195D01*
X215360961Y-83314700D01*
X215307334Y-83302654D01*
X215186947Y-83283972D01*
X215035737Y-83271104D01*
X214864812Y-83264052D01*
X214685280Y-83262817D01*
X214508252Y-83267402D01*
X214344835Y-83277809D01*
X214206138Y-83294040D01*
X214158621Y-83302454D01*
X213805948Y-83394225D01*
X213473458Y-83523144D01*
X213161516Y-83689022D01*
X212870489Y-83891665D01*
X212632656Y-84099595D01*
X212383737Y-84367531D01*
X212172930Y-84653576D01*
X211999419Y-84959199D01*
X211862389Y-85285867D01*
X211761028Y-85635047D01*
X211747774Y-85694462D01*
X211720978Y-85861945D01*
X211704442Y-86057300D01*
X211698167Y-86267328D01*
X209719334Y-86267328D01*
X209719334Y-66671151D01*
X215629420Y-66671151D01*
X215653645Y-66911687D01*
X215714838Y-67143332D01*
X215810328Y-67362360D01*
X215937444Y-67565044D01*
X216093517Y-67747657D01*
X216275874Y-67906474D01*
X216481846Y-68037769D01*
X216708761Y-68137815D01*
X216912959Y-68194843D01*
X217030461Y-68210508D01*
X217173517Y-68216093D01*
X217326691Y-68212103D01*
X217474548Y-68199040D01*
X217601654Y-68177408D01*
X217625084Y-68171607D01*
X217706276Y-68145487D01*
X217805735Y-68107071D01*
X217904304Y-68063853D01*
X217921417Y-68055685D01*
X218142849Y-67925700D01*
X218335960Y-67765837D01*
X218498671Y-67579435D01*
X218628903Y-67369831D01*
X218724578Y-67140365D01*
X218783619Y-66894376D01*
X218803941Y-66637866D01*
X218796093Y-66445407D01*
X218768944Y-66273686D01*
X218718712Y-66106359D01*
X218641614Y-65927080D01*
X218637492Y-65918551D01*
X218591250Y-65827726D01*
X218546878Y-65753658D01*
X218496110Y-65685282D01*
X218430685Y-65611532D01*
X218342337Y-65521345D01*
X218336583Y-65515623D01*
X218238104Y-65420753D01*
X218156040Y-65349851D01*
X218079440Y-65294584D01*
X217997352Y-65246622D01*
X217953167Y-65223938D01*
X217714656Y-65127088D01*
X217468122Y-65068094D01*
X217218886Y-65047026D01*
X216972265Y-65063952D01*
X216733580Y-65118944D01*
X216521535Y-65205238D01*
X216294327Y-65342149D01*
X216097657Y-65507779D01*
X215933020Y-65700047D01*
X215801911Y-65916872D01*
X215705826Y-66156173D01*
X215646259Y-66415870D01*
X215644833Y-66425449D01*
X215629420Y-66671151D01*
X209719334Y-66671151D01*
X209719334Y-63632200D01*
X229721844Y-63632200D01*
X229711250Y-148790212D01*
G37*
X229711250Y-148790212D02*
X227167241Y-150178731D01*
X224623231Y-151567250D01*
X224705727Y-151637863D01*
X224762095Y-151698832D01*
X224820275Y-151782337D01*
X224857903Y-151849906D01*
X224892934Y-151926366D01*
X224914795Y-151992608D01*
X224927174Y-152064810D01*
X224933760Y-152159152D01*
X224934920Y-152187738D01*
X224930172Y-152350110D01*
X224901982Y-152504854D01*
X224848177Y-152655230D01*
X224766587Y-152804503D01*
X224655039Y-152955932D01*
X224511360Y-153112781D01*
X224333379Y-153278312D01*
X224118923Y-153455787D01*
X224059705Y-153502132D01*
X224048896Y-153510724D01*
X224042104Y-153516884D01*
X224040940Y-153519744D01*
X224047013Y-153518438D01*
X224061934Y-153512099D01*
X224087312Y-153499860D01*
X224124757Y-153480855D01*
X224175880Y-153454216D01*
X224242289Y-153419077D01*
X224325595Y-153374571D01*
X224427408Y-153319831D01*
X224549338Y-153253991D01*
X224692994Y-153176183D01*
X224859986Y-153085541D01*
X225051925Y-152981198D01*
X225270419Y-152862287D01*
X225517080Y-152727942D01*
X225793517Y-152577295D01*
X226101339Y-152409480D01*
X226442157Y-152223630D01*
X226817580Y-152018878D01*
X227054834Y-151889474D01*
X229711250Y-150440574D01*
X229716605Y-153913435D01*
X229717159Y-154293456D01*
X229717633Y-154661900D01*
X229718027Y-155016551D01*
X229718342Y-155355194D01*
X229718576Y-155675612D01*
X229718731Y-155975589D01*
X229718806Y-156252911D01*
X229718801Y-156505362D01*
X229718717Y-156730725D01*
X229718552Y-156926785D01*
X229718308Y-157091327D01*
X229717984Y-157222135D01*
X229717581Y-157316992D01*
X229717097Y-157373684D01*
X229716605Y-157390243D01*
X229695338Y-157390021D01*
X229634888Y-157388489D01*
X229538379Y-157385748D01*
X229408938Y-157381899D01*
X229249691Y-157377043D01*
X229063764Y-157371280D01*
X228854282Y-157364712D01*
X228624372Y-157357439D01*
X228377160Y-157349563D01*
X228115770Y-157341183D01*
X227843330Y-157332401D01*
X227562966Y-157323319D01*
X227277802Y-157314035D01*
X226990966Y-157304653D01*
X226705582Y-157295271D01*
X226424777Y-157285992D01*
X226151677Y-157276916D01*
X225889408Y-157268143D01*
X225641095Y-157259776D01*
X225409865Y-157251914D01*
X225198843Y-157244659D01*
X225123375Y-157242039D01*
X224705334Y-157227483D01*
X224705334Y-158120200D01*
X225128667Y-158120200D01*
X225128667Y-158670533D01*
X224954042Y-158673425D01*
X224929503Y-158674316D01*
X224928761Y-158675830D01*
X224953134Y-158678014D01*
X225003938Y-158680918D01*
X225082490Y-158684591D01*
X225190107Y-158689079D01*
X225328106Y-158694434D01*
X225497804Y-158700701D01*
X225700517Y-158707932D01*
X225937563Y-158716173D01*
X226210259Y-158725474D01*
X226519921Y-158735884D01*
X226867866Y-158747449D01*
X227255412Y-158760221D01*
X227683874Y-158774246D01*
X227711000Y-158775131D01*
X227955775Y-158783158D01*
X228197311Y-158791154D01*
X228430675Y-158798949D01*
X228650933Y-158806377D01*
X228853149Y-158813269D01*
X229032390Y-158819456D01*
X229183721Y-158824772D01*
X229302207Y-158829047D01*
X229377875Y-158831914D01*
X229721833Y-158845526D01*
X229721834Y-162187029D01*
X229721785Y-162559621D01*
X229721642Y-162920550D01*
X229721411Y-163267561D01*
X229721096Y-163598398D01*
X229720703Y-163910806D01*
X229720238Y-164202530D01*
X229719705Y-164471314D01*
X229719109Y-164714902D01*
X229718457Y-164931040D01*
X229717753Y-165117472D01*
X229717003Y-165271942D01*
X229716211Y-165392195D01*
X229715384Y-165475976D01*
X229714527Y-165521029D01*
X229714001Y-165528533D01*
X229694893Y-165517910D01*
X229643089Y-165487442D01*
X229562092Y-165439231D01*
X229455405Y-165375377D01*
X229326532Y-165297982D01*
X229178976Y-165209147D01*
X229016242Y-165110974D01*
X228841833Y-165005564D01*
X228819709Y-164992179D01*
X228441485Y-164763588D01*
X228072248Y-164540926D01*
X227713656Y-164325173D01*
X227367368Y-164117311D01*
X227035043Y-163918319D01*
X226718341Y-163729178D01*
X226418919Y-163550868D01*
X226138437Y-163384369D01*
X225878553Y-163230662D01*
X225640927Y-163090726D01*
X225427216Y-162965544D01*
X225239080Y-162856094D01*
X225078178Y-162763357D01*
X224946169Y-162688313D01*
X224844711Y-162631943D01*
X224775463Y-162595227D01*
X224740084Y-162579146D01*
X224735833Y-162578672D01*
X224706079Y-162601151D01*
X224655817Y-162639116D01*
X224618612Y-162667217D01*
X224546212Y-162713372D01*
X224468472Y-162750459D01*
X224435538Y-162761565D01*
X224381137Y-162778993D01*
X224349107Y-162794817D01*
X224345500Y-162799718D01*
X224364208Y-162811382D01*
X224411144Y-162823840D01*
X224432946Y-162827772D01*
X224554294Y-162861840D01*
X224681160Y-162921815D01*
X224795590Y-162998372D01*
X224843715Y-163041133D01*
X224919410Y-163130794D01*
X224968291Y-163226228D01*
X224993784Y-163337851D01*
X224999317Y-163476080D01*
X224998218Y-163510572D01*
X224976761Y-163686390D01*
X224925649Y-163837958D01*
X224840875Y-163974707D01*
X224763756Y-164062217D01*
X224712498Y-164116937D01*
X224677328Y-164159643D01*
X224664881Y-164182171D01*
X224665363Y-164183285D01*
X224684545Y-164195359D01*
X224737692Y-164227802D01*
X224822466Y-164279204D01*
X224936528Y-164348158D01*
X225077540Y-164433255D01*
X225243165Y-164533086D01*
X225431064Y-164646242D01*
X225638899Y-164771316D01*
X225864332Y-164906899D01*
X226105026Y-165051581D01*
X226358641Y-165203956D01*
X226622841Y-165362613D01*
X226664373Y-165387547D01*
X226942870Y-165554829D01*
X227219838Y-165721363D01*
X227492055Y-165885203D01*
X227756299Y-166044402D01*
X228009347Y-166197015D01*
X228247977Y-166341094D01*
X228468967Y-166474693D01*
X228669093Y-166595865D01*
X228845134Y-166702664D01*
X228993867Y-166793143D01*
X229112070Y-166865356D01*
X229182084Y-166908419D01*
X229711250Y-167235493D01*
X229716560Y-179685263D01*
X229721869Y-192135033D01*
X209719334Y-192135033D01*
X209719334Y-189070769D01*
X215632243Y-189070769D01*
X215642327Y-189320208D01*
X215692714Y-189568981D01*
X215724833Y-189668575D01*
X215830959Y-189903622D01*
X215970972Y-190115180D01*
X216141848Y-190300481D01*
X216340559Y-190456760D01*
X216564080Y-190581251D01*
X216809386Y-190671187D01*
X216826871Y-190676003D01*
X216969246Y-190702694D01*
X217135984Y-190715345D01*
X217311522Y-190713978D01*
X217480294Y-190698618D01*
X217605823Y-190674824D01*
X217809626Y-190610618D01*
X217991528Y-190523565D01*
X218161982Y-190407612D01*
X218331443Y-190256703D01*
X218336583Y-190251610D01*
X218426449Y-190160183D01*
X218492932Y-190085809D01*
X218544298Y-190017425D01*
X218588809Y-189943964D01*
X218634730Y-189854362D01*
X218637492Y-189848681D01*
X218684000Y-189744971D01*
X218726868Y-189635551D01*
X218759529Y-189537754D01*
X218769710Y-189499783D01*
X218795432Y-189337626D01*
X218804278Y-189154483D01*
X218796495Y-188968082D01*
X218772330Y-188796152D01*
X218759091Y-188739011D01*
X218675685Y-188498467D01*
X218560903Y-188282302D01*
X218418528Y-188091637D01*
X218252337Y-187927597D01*
X218066112Y-187791302D01*
X217863632Y-187683878D01*
X217648676Y-187606445D01*
X217425026Y-187560128D01*
X217196460Y-187546048D01*
X216966758Y-187565328D01*
X216739700Y-187619092D01*
X216519066Y-187708461D01*
X216308636Y-187834559D01*
X216149010Y-187963709D01*
X215973588Y-188152142D01*
X215833133Y-188361353D01*
X215728713Y-188587054D01*
X215661394Y-188824955D01*
X215632243Y-189070769D01*
X209719334Y-189070769D01*
X209719334Y-171056717D01*
X212576834Y-171056717D01*
X212576834Y-172132533D01*
X215709500Y-172132533D01*
X215709500Y-173508366D01*
X216915414Y-173508366D01*
X216926584Y-172143116D01*
X217439875Y-172137448D01*
X217953167Y-172131780D01*
X217953167Y-171053785D01*
X217439875Y-171048117D01*
X216926584Y-171042450D01*
X216924327Y-170149603D01*
X220588935Y-170149603D01*
X220594588Y-170353572D01*
X220609632Y-170544562D01*
X220633965Y-170709299D01*
X220637985Y-170728937D01*
X220733449Y-171080461D01*
X220864908Y-171412493D01*
X221030444Y-171722863D01*
X221228136Y-172009400D01*
X221456064Y-172269931D01*
X221712309Y-172502285D01*
X221994951Y-172704292D01*
X222302070Y-172873780D01*
X222631747Y-173008578D01*
X222662750Y-173019030D01*
X222823918Y-173069995D01*
X222965119Y-173108069D01*
X223097352Y-173134783D01*
X223231612Y-173151666D01*
X223378896Y-173160247D01*
X223550201Y-173162056D01*
X223678750Y-173160342D01*
X223887141Y-173153766D01*
X224055124Y-173142894D01*
X224184423Y-173127591D01*
X224239667Y-173117240D01*
X224586953Y-173021280D01*
X224908765Y-172892546D01*
X225208623Y-172729111D01*
X225490045Y-172529048D01*
X225756549Y-172290431D01*
X225764988Y-172282020D01*
X226009097Y-172009884D01*
X226214715Y-171720145D01*
X226381906Y-171412678D01*
X226510736Y-171087358D01*
X226601271Y-170744059D01*
X226619865Y-170644121D01*
X226637920Y-170501082D01*
X226649496Y-170331741D01*
X226654422Y-170150266D01*
X226652524Y-169970829D01*
X226643631Y-169807601D01*
X226631386Y-169698366D01*
X226558294Y-169348734D01*
X226447515Y-169015769D01*
X226301152Y-168701680D01*
X226121304Y-168408677D01*
X225910074Y-168138967D01*
X225669563Y-167894760D01*
X225401872Y-167678265D01*
X225109102Y-167491690D01*
X224793355Y-167337243D01*
X224456731Y-167217135D01*
X224211905Y-167155119D01*
X224050006Y-167129269D01*
X223860247Y-167112805D01*
X223656073Y-167105836D01*
X223450928Y-167108469D01*
X223258257Y-167120812D01*
X223091505Y-167142974D01*
X223075500Y-167145982D01*
X222721564Y-167234665D01*
X222390180Y-167358992D01*
X222079926Y-167519717D01*
X221789379Y-167717593D01*
X221517113Y-167953376D01*
X221476394Y-167993427D01*
X221234263Y-168263530D01*
X221030198Y-168551870D01*
X220863592Y-168859589D01*
X220733841Y-169187833D01*
X220640338Y-169537742D01*
X220629331Y-169592533D01*
X220606206Y-169755812D01*
X220592774Y-169945926D01*
X220588935Y-170149603D01*
X216924327Y-170149603D01*
X216921191Y-168909670D01*
X216915798Y-166776891D01*
X216055103Y-166782420D01*
X215194408Y-166787950D01*
X213885621Y-168922333D01*
X212576834Y-171056717D01*
X209719334Y-171056717D01*
X209719334Y-157347027D01*
X211929369Y-157347027D01*
X211937688Y-157539624D01*
X211954649Y-157711810D01*
X211971652Y-157813283D01*
X212064769Y-158165018D01*
X212193611Y-158494345D01*
X212359050Y-158802884D01*
X212561958Y-159092256D01*
X212803207Y-159364081D01*
X212809599Y-159370528D01*
X213080641Y-159616210D01*
X213365988Y-159822099D01*
X213666366Y-159988497D01*
X213982505Y-160115708D01*
X214315133Y-160204036D01*
X214664977Y-160253784D01*
X214958084Y-160266009D01*
X215322063Y-160246835D01*
X215669004Y-160189062D01*
X216000071Y-160092307D01*
X216316426Y-159956191D01*
X216619235Y-159780332D01*
X216771349Y-159673338D01*
X216891281Y-159583761D01*
X218274182Y-160399842D01*
X218535879Y-160554329D01*
X218811532Y-160717156D01*
X219098854Y-160886966D01*
X219395557Y-161062403D01*
X219699354Y-161242110D01*
X220007957Y-161424731D01*
X220319080Y-161608910D01*
X220630436Y-161793291D01*
X220939736Y-161976516D01*
X221244694Y-162157229D01*
X221543022Y-162334075D01*
X221832433Y-162505696D01*
X222110640Y-162670737D01*
X222375355Y-162827841D01*
X222624291Y-162975652D01*
X222855162Y-163112813D01*
X223065679Y-163237968D01*
X223253555Y-163349760D01*
X223416503Y-163446833D01*
X223552236Y-163527832D01*
X223658467Y-163591398D01*
X223732908Y-163636177D01*
X223773271Y-163660812D01*
X223774000Y-163661268D01*
X223843643Y-163702926D01*
X223901706Y-163733985D01*
X223937173Y-163748622D01*
X223940066Y-163749054D01*
X223975406Y-163738530D01*
X224024143Y-163710842D01*
X224030344Y-163706531D01*
X224101736Y-163635302D01*
X224142381Y-163542367D01*
X224155000Y-163424237D01*
X224151127Y-163348481D01*
X224135273Y-163295542D01*
X224101090Y-163246277D01*
X224092767Y-163236626D01*
X224049220Y-163194245D01*
X223998483Y-163162068D01*
X223933871Y-163138430D01*
X223848703Y-163121664D01*
X223736294Y-163110103D01*
X223589963Y-163102082D01*
X223546459Y-163100403D01*
X223223667Y-163088699D01*
X223223667Y-162571785D01*
X223514709Y-162558489D01*
X223693054Y-162546309D01*
X223833486Y-162526623D01*
X223940056Y-162497492D01*
X224016814Y-162456974D01*
X224067814Y-162403130D01*
X224097107Y-162334018D01*
X224106928Y-162274849D01*
X224116274Y-162173616D01*
X223939845Y-162067783D01*
X223763417Y-161961950D01*
X223551750Y-161963277D01*
X223297644Y-161984402D01*
X223046708Y-162045305D01*
X222825226Y-162132433D01*
X222738884Y-162172357D01*
X222676555Y-162197253D01*
X222634337Y-162202921D01*
X222608331Y-162185167D01*
X222594636Y-162139794D01*
X222589353Y-162062603D01*
X222588580Y-161949398D01*
X222588667Y-161877874D01*
X222588667Y-161550382D01*
X222710375Y-161516859D01*
X222782378Y-161496205D01*
X222841270Y-161477860D01*
X222867066Y-161468643D01*
X222859624Y-161458192D01*
X222824167Y-161431801D01*
X222759890Y-161388980D01*
X222665986Y-161329238D01*
X222541649Y-161252085D01*
X222386073Y-161157030D01*
X222198453Y-161043583D01*
X221977981Y-160911254D01*
X221723851Y-160759551D01*
X221435259Y-160587984D01*
X221111397Y-160396063D01*
X220860067Y-160247450D01*
X220578669Y-160081178D01*
X220299679Y-159916315D01*
X220026201Y-159754696D01*
X219761340Y-159598155D01*
X219508200Y-159448528D01*
X219269885Y-159307649D01*
X219049498Y-159177354D01*
X218850145Y-159059478D01*
X218674929Y-158955856D01*
X218526954Y-158868323D01*
X218409325Y-158798714D01*
X218327418Y-158750211D01*
X217836750Y-158459473D01*
X217953167Y-158459286D01*
X217995282Y-158459947D01*
X218075569Y-158461916D01*
X218189892Y-158465068D01*
X218334114Y-158469279D01*
X218504098Y-158474423D01*
X218695708Y-158480375D01*
X218904806Y-158487011D01*
X219127256Y-158494206D01*
X219329000Y-158500841D01*
X219583889Y-158509250D01*
X219848248Y-158517901D01*
X220115066Y-158526569D01*
X220377332Y-158535028D01*
X220628035Y-158543054D01*
X220860164Y-158550421D01*
X221066708Y-158556905D01*
X221240654Y-158562281D01*
X221297500Y-158564009D01*
X221476472Y-158569598D01*
X221650444Y-158575369D01*
X221812666Y-158581073D01*
X221956389Y-158586460D01*
X222074860Y-158591283D01*
X222161331Y-158595291D01*
X222191792Y-158596994D01*
X222377000Y-158608554D01*
X222377000Y-158107349D01*
X222387346Y-158095607D01*
X223049495Y-158095607D01*
X223052342Y-158104876D01*
X223070540Y-158111473D01*
X223109054Y-158115851D01*
X223172849Y-158118460D01*
X223266890Y-158119750D01*
X223396142Y-158120172D01*
X223464492Y-158120200D01*
X223901000Y-158120200D01*
X223901000Y-157665116D01*
X223900840Y-157515277D01*
X223900041Y-157402513D01*
X223898124Y-157321567D01*
X223894612Y-157267180D01*
X223889026Y-157234097D01*
X223880888Y-157217058D01*
X223869719Y-157210806D01*
X223859602Y-157210033D01*
X223830402Y-157226644D01*
X223775485Y-157276228D01*
X223695213Y-157358414D01*
X223589950Y-157472830D01*
X223460058Y-157619102D01*
X223452144Y-157628135D01*
X223352427Y-157742169D01*
X223260816Y-157847201D01*
X223181357Y-157938572D01*
X223118095Y-158011620D01*
X223075076Y-158061687D01*
X223057033Y-158083218D01*
X223049495Y-158095607D01*
X222387346Y-158095607D01*
X222777014Y-157653399D01*
X222897152Y-157516313D01*
X222990884Y-157407473D01*
X223060470Y-157323980D01*
X223108175Y-157262932D01*
X223136258Y-157221430D01*
X223146984Y-157196573D01*
X223142614Y-157185460D01*
X223142139Y-157185253D01*
X223116904Y-157182791D01*
X223051979Y-157179143D01*
X222949991Y-157174405D01*
X222813563Y-157168674D01*
X222645320Y-157162044D01*
X222447887Y-157154611D01*
X222223888Y-157146472D01*
X221975950Y-157137721D01*
X221706695Y-157128455D01*
X221418750Y-157118770D01*
X221114738Y-157108761D01*
X220797285Y-157098524D01*
X220552471Y-157090771D01*
X217997693Y-157010485D01*
X217983912Y-156928916D01*
X217976846Y-156875635D01*
X217976329Y-156844059D01*
X217977524Y-156841206D01*
X217996680Y-156830500D01*
X218050764Y-156800765D01*
X218137531Y-156753229D01*
X218254735Y-156689117D01*
X218400129Y-156609654D01*
X218571469Y-156516069D01*
X218766509Y-156409585D01*
X218983003Y-156291430D01*
X219218705Y-156162829D01*
X219471370Y-156025008D01*
X219738752Y-155879195D01*
X220018605Y-155726613D01*
X220286792Y-155580423D01*
X222588667Y-154325780D01*
X222589337Y-154079865D01*
X222590008Y-153833950D01*
X222732212Y-153738838D01*
X222944986Y-153591819D01*
X223149335Y-153441540D01*
X223341549Y-153291271D01*
X223517916Y-153144279D01*
X223674727Y-153003832D01*
X223808270Y-152873199D01*
X223914835Y-152755648D01*
X223990713Y-152654447D01*
X224018563Y-152605836D01*
X224067303Y-152473163D01*
X224085132Y-152343549D01*
X224073085Y-152223850D01*
X224032195Y-152120923D01*
X223963497Y-152041622D01*
X223930003Y-152018930D01*
X223863756Y-151980942D01*
X220661554Y-153727654D01*
X220319411Y-153914242D01*
X219987293Y-154095283D01*
X219667103Y-154269741D01*
X219360747Y-154436584D01*
X219070128Y-154594775D01*
X218797151Y-154743281D01*
X218543719Y-154881067D01*
X218311738Y-155007099D01*
X218103111Y-155120342D01*
X217919743Y-155219762D01*
X217763538Y-155304324D01*
X217636400Y-155372994D01*
X217540234Y-155424738D01*
X217476944Y-155458520D01*
X217448434Y-155473307D01*
X217446967Y-155473914D01*
X217428526Y-155457898D01*
X217395826Y-155417778D01*
X217377107Y-155392176D01*
X217302015Y-155296742D01*
X217202978Y-155186287D01*
X217090055Y-155071002D01*
X216973307Y-154961080D01*
X216862793Y-154866714D01*
X216843449Y-154851476D01*
X216546385Y-154645051D01*
X216238031Y-154478566D01*
X215914428Y-154350268D01*
X215571614Y-154258404D01*
X215452239Y-154235550D01*
X215312467Y-154217825D01*
X215145645Y-154206917D01*
X214965185Y-154202841D01*
X214784503Y-154205613D01*
X214617009Y-154215247D01*
X214476119Y-154231759D01*
X214460382Y-154234425D01*
X214113909Y-154316073D01*
X213781457Y-154434831D01*
X213466760Y-154588550D01*
X213173549Y-154775084D01*
X212905558Y-154992284D01*
X212666517Y-155238003D01*
X212620081Y-155293352D01*
X212413745Y-155573726D01*
X212244787Y-155865702D01*
X212110203Y-156175512D01*
X212006991Y-156509386D01*
X211980640Y-156619896D01*
X211955326Y-156770454D01*
X211938281Y-156950075D01*
X211929597Y-157146388D01*
X211929369Y-157347027D01*
X209719334Y-157347027D01*
X209719334Y-148315444D01*
X213084834Y-148315444D01*
X213084834Y-149394822D01*
X213153625Y-149406701D01*
X213246156Y-149419813D01*
X213372911Y-149433648D01*
X213525801Y-149447633D01*
X213696737Y-149461191D01*
X213877630Y-149473749D01*
X214060390Y-149484729D01*
X214236929Y-149493559D01*
X214399157Y-149499661D01*
X214492417Y-149501882D01*
X214578832Y-149501418D01*
X214693321Y-149498100D01*
X214821759Y-149492462D01*
X214950023Y-149485037D01*
X214965806Y-149483978D01*
X215349353Y-149447294D01*
X215698151Y-149391534D01*
X216015691Y-149315776D01*
X216305469Y-149219099D01*
X216570976Y-149100582D01*
X216711619Y-149023592D01*
X216828824Y-148944583D01*
X216955575Y-148841935D01*
X217082077Y-148725101D01*
X217198535Y-148603532D01*
X217295155Y-148486680D01*
X217347275Y-148410214D01*
X217435907Y-148237038D01*
X217511977Y-148036625D01*
X217570249Y-147823431D01*
X217583993Y-147756415D01*
X217603294Y-147612000D01*
X217612081Y-147449376D01*
X217610789Y-147280550D01*
X217599849Y-147117528D01*
X217579694Y-146972317D01*
X217551648Y-146859533D01*
X217461821Y-146647437D01*
X217340965Y-146456531D01*
X217191403Y-146285703D01*
X217104248Y-146202759D01*
X217024568Y-146138640D01*
X216937342Y-146082717D01*
X216827548Y-146024359D01*
X216809089Y-146015176D01*
X216711512Y-145971301D01*
X220589654Y-145971301D01*
X220591638Y-146161546D01*
X220601276Y-146340922D01*
X220618586Y-146496709D01*
X220628108Y-146551848D01*
X220718818Y-146907451D01*
X220845990Y-147243721D01*
X221008087Y-147558597D01*
X221203571Y-147850017D01*
X221430904Y-148115920D01*
X221688548Y-148354243D01*
X221974967Y-148562926D01*
X222242908Y-148717002D01*
X222570460Y-148861515D01*
X222906864Y-148964678D01*
X223252271Y-149026514D01*
X223606834Y-149047048D01*
X223970707Y-149026300D01*
X224133834Y-149004094D01*
X224473446Y-148928762D01*
X224798738Y-148813745D01*
X225108833Y-148659502D01*
X225402852Y-148466492D01*
X225679917Y-148235172D01*
X225765477Y-148152510D01*
X226010107Y-147880268D01*
X226215555Y-147592011D01*
X226381794Y-147287811D01*
X226508792Y-146967737D01*
X226596519Y-146631862D01*
X226644947Y-146280257D01*
X226655452Y-146023004D01*
X226647266Y-145758151D01*
X226619330Y-145514893D01*
X226568937Y-145276073D01*
X226502023Y-145050381D01*
X226370995Y-144720049D01*
X226204964Y-144411709D01*
X226006247Y-144127370D01*
X225777159Y-143869037D01*
X225520017Y-143638719D01*
X225237136Y-143438421D01*
X224930832Y-143270151D01*
X224603421Y-143135915D01*
X224257220Y-143037721D01*
X224155000Y-143016532D01*
X224001998Y-142995082D01*
X223821264Y-142982059D01*
X223626560Y-142977497D01*
X223431646Y-142981429D01*
X223250284Y-142993888D01*
X223101130Y-143014005D01*
X222789492Y-143088566D01*
X222480448Y-143196531D01*
X222185040Y-143333301D01*
X221914308Y-143494273D01*
X221862285Y-143530250D01*
X221726742Y-143636178D01*
X221579667Y-143767496D01*
X221431681Y-143913517D01*
X221293401Y-144063554D01*
X221175448Y-144206921D01*
X221134410Y-144262736D01*
X220958955Y-144546115D01*
X220812295Y-144854501D01*
X220698309Y-145178677D01*
X220629474Y-145462533D01*
X220608588Y-145609076D01*
X220595309Y-145782905D01*
X220589654Y-145971301D01*
X216711512Y-145971301D01*
X216669163Y-145952259D01*
X216522495Y-145896944D01*
X216389828Y-145857036D01*
X216386834Y-145856295D01*
X216185750Y-145806798D01*
X216308236Y-145751903D01*
X216507744Y-145644211D01*
X216696756Y-145507296D01*
X216865360Y-145349543D01*
X217003643Y-145179337D01*
X217027340Y-145143675D01*
X217126461Y-144952150D01*
X217197783Y-144736304D01*
X217241035Y-144503976D01*
X217255950Y-144263002D01*
X217242259Y-144021223D01*
X217199692Y-143786473D01*
X217127982Y-143566593D01*
X217084678Y-143471693D01*
X216964673Y-143280329D01*
X216808129Y-143108225D01*
X216616715Y-142956407D01*
X216392099Y-142825902D01*
X216135949Y-142717739D01*
X215849933Y-142632943D01*
X215656584Y-142592239D01*
X215544602Y-142577298D01*
X215399955Y-142565886D01*
X215232173Y-142558082D01*
X215050782Y-142553963D01*
X214865310Y-142553608D01*
X214685287Y-142557094D01*
X214520238Y-142564498D01*
X214379694Y-142575900D01*
X214333667Y-142581435D01*
X214147086Y-142610773D01*
X213942428Y-142649917D01*
X213736811Y-142695214D01*
X213547355Y-142743012D01*
X213460542Y-142767751D01*
X213275334Y-142823247D01*
X213275334Y-143338557D01*
X213276178Y-143511490D01*
X213278649Y-143651711D01*
X213282653Y-143756925D01*
X213288097Y-143824837D01*
X213294888Y-143853152D01*
X213296277Y-143853866D01*
X213324146Y-143848428D01*
X213383431Y-143833703D01*
X213464856Y-143812071D01*
X213540750Y-143791100D01*
X213852330Y-143712389D01*
X214154795Y-143653147D01*
X214444204Y-143613511D01*
X214716619Y-143593616D01*
X214968102Y-143593598D01*
X215194713Y-143613592D01*
X215392515Y-143653733D01*
X215557567Y-143714157D01*
X215571917Y-143721218D01*
X215708482Y-143812950D01*
X215818317Y-143934027D01*
X215899871Y-144079762D01*
X215951593Y-144245469D01*
X215971934Y-144426463D01*
X215959342Y-144618058D01*
X215922794Y-144781691D01*
X215856762Y-144931673D01*
X215753072Y-145067310D01*
X215614680Y-145186200D01*
X215444544Y-145285943D01*
X215245618Y-145364136D01*
X215183371Y-145382329D01*
X215127127Y-145396233D01*
X215068520Y-145407222D01*
X215001171Y-145415773D01*
X214918703Y-145422364D01*
X214814735Y-145427473D01*
X214682891Y-145431578D01*
X214516791Y-145435156D01*
X214465959Y-145436082D01*
X213910334Y-145445923D01*
X213910334Y-146389680D01*
X214540042Y-146399525D01*
X214723455Y-146402599D01*
X214870867Y-146405775D01*
X214988607Y-146409532D01*
X215083004Y-146414348D01*
X215160388Y-146420699D01*
X215227090Y-146429064D01*
X215289438Y-146439920D01*
X215353762Y-146453746D01*
X215398737Y-146464336D01*
X215639181Y-146535656D01*
X215841676Y-146625265D01*
X216006632Y-146733552D01*
X216134462Y-146860905D01*
X216225578Y-147007713D01*
X216280392Y-147174365D01*
X216297906Y-147312201D01*
X216291144Y-147527145D01*
X216247811Y-147722390D01*
X216168654Y-147896469D01*
X216054418Y-148047917D01*
X215905851Y-148175265D01*
X215836191Y-148219587D01*
X215716186Y-148277757D01*
X215565924Y-148332134D01*
X215397478Y-148378893D01*
X215222925Y-148414209D01*
X215220899Y-148414538D01*
X215118888Y-148426569D01*
X214983307Y-148435908D01*
X214822839Y-148442483D01*
X214646165Y-148446224D01*
X214461968Y-148447059D01*
X214278929Y-148444915D01*
X214105732Y-148439721D01*
X213951059Y-148431406D01*
X213878584Y-148425619D01*
X213766647Y-148414324D01*
X213640396Y-148399940D01*
X213509386Y-148383730D01*
X213383176Y-148366962D01*
X213271324Y-148350900D01*
X213183386Y-148336809D01*
X213132459Y-148326829D01*
X213084834Y-148315444D01*
X209719334Y-148315444D01*
X209719334Y-134548495D01*
X211698167Y-134548495D01*
X211702151Y-134759997D01*
X211716395Y-134959774D01*
X211740900Y-135134627D01*
X211747774Y-135168937D01*
X211843045Y-135517366D01*
X211974440Y-135846875D01*
X212139692Y-136155279D01*
X212336534Y-136440396D01*
X212562700Y-136700042D01*
X212815923Y-136932032D01*
X213093936Y-137134184D01*
X213394473Y-137304313D01*
X213715267Y-137440236D01*
X214054051Y-137539770D01*
X214249000Y-137578505D01*
X214372617Y-137592770D01*
X214525129Y-137600821D01*
X214695399Y-137602944D01*
X214872290Y-137599425D01*
X215044663Y-137590551D01*
X215201382Y-137576608D01*
X215331308Y-137557880D01*
X215370834Y-137549687D01*
X215559632Y-137501209D01*
X215730335Y-137446038D01*
X215901947Y-137377491D01*
X216042215Y-137313503D01*
X216351570Y-137143605D01*
X216636137Y-136940769D01*
X216893846Y-136707778D01*
X217122625Y-136447413D01*
X217320406Y-136162458D01*
X217485116Y-135855696D01*
X217614686Y-135529910D01*
X217707045Y-135187882D01*
X217734392Y-135039107D01*
X217748876Y-134909695D01*
X217757007Y-134752779D01*
X217759044Y-134579819D01*
X217755245Y-134402274D01*
X217745868Y-134231601D01*
X217731172Y-134079261D01*
X217711415Y-133956712D01*
X217709829Y-133949456D01*
X217611113Y-133600931D01*
X217476176Y-133271791D01*
X217307193Y-132964204D01*
X217106341Y-132680341D01*
X216875798Y-132422371D01*
X216617738Y-132192463D01*
X216334338Y-131992787D01*
X216027775Y-131825513D01*
X215700225Y-131692811D01*
X215353865Y-131596849D01*
X215348750Y-131595746D01*
X215180814Y-131568517D01*
X214985598Y-131551299D01*
X214775825Y-131544109D01*
X214564218Y-131546964D01*
X214363499Y-131559882D01*
X214186391Y-131582878D01*
X214128596Y-131594118D01*
X213772737Y-131691503D01*
X213440268Y-131824080D01*
X213130576Y-131992168D01*
X212843046Y-132196090D01*
X212643447Y-132370950D01*
X212393747Y-132636323D01*
X212181901Y-132920209D01*
X212007107Y-133224044D01*
X211868563Y-133549266D01*
X211765466Y-133897314D01*
X211747774Y-133975628D01*
X211720978Y-134143111D01*
X211704442Y-134338467D01*
X211698167Y-134548495D01*
X209719334Y-134548495D01*
X209719334Y-119265749D01*
X213001253Y-119265749D01*
X213070661Y-119351932D01*
X213105440Y-119395692D01*
X213160786Y-119466017D01*
X213231311Y-119556028D01*
X213311628Y-119658850D01*
X213396347Y-119767603D01*
X213400212Y-119772572D01*
X213660355Y-120107028D01*
X213748302Y-120031571D01*
X213846407Y-119953792D01*
X213965074Y-119869532D01*
X214093728Y-119785432D01*
X214221794Y-119708133D01*
X214338696Y-119644273D01*
X214433857Y-119600495D01*
X214436454Y-119599489D01*
X214595064Y-119545221D01*
X214742396Y-119511230D01*
X214894833Y-119494932D01*
X215068756Y-119493746D01*
X215100574Y-119494820D01*
X215210505Y-119500153D01*
X215291329Y-119508063D01*
X215356275Y-119521245D01*
X215418567Y-119542395D01*
X215491434Y-119574205D01*
X215492352Y-119574628D01*
X215632918Y-119657071D01*
X215759099Y-119764664D01*
X215859643Y-119886983D01*
X215895718Y-119948306D01*
X215947821Y-120065260D01*
X215981536Y-120181115D01*
X215999012Y-120308021D01*
X216002393Y-120458124D01*
X215999837Y-120537609D01*
X215988093Y-120708245D01*
X215967375Y-120851405D01*
X215934106Y-120981599D01*
X215884712Y-121113338D01*
X215827419Y-121237283D01*
X215777510Y-121333952D01*
X215721959Y-121430902D01*
X215658758Y-121530459D01*
X215585897Y-121634946D01*
X215501370Y-121746689D01*
X215403168Y-121868012D01*
X215289282Y-122001240D01*
X215157704Y-122148698D01*
X215006427Y-122312710D01*
X214833441Y-122495601D01*
X214636739Y-122699696D01*
X214414312Y-122927320D01*
X214164153Y-123180798D01*
X214043126Y-123302782D01*
X213042500Y-124309947D01*
X213042500Y-125227200D01*
X217593334Y-125227200D01*
X217593334Y-124084200D01*
X216169875Y-124083923D01*
X214746417Y-124083646D01*
X214947703Y-123888131D01*
X215012852Y-123824979D01*
X215103020Y-123737759D01*
X215212729Y-123631762D01*
X215336500Y-123512278D01*
X215468853Y-123384597D01*
X215604310Y-123254010D01*
X215676331Y-123184616D01*
X215925670Y-122941795D01*
X216144823Y-122722263D01*
X216336472Y-122522627D01*
X216503301Y-122339499D01*
X216647993Y-122169486D01*
X216773229Y-122009199D01*
X216881693Y-121855246D01*
X216904891Y-121818125D01*
X220582748Y-121818125D01*
X220598585Y-122165506D01*
X220654003Y-122507057D01*
X220748146Y-122839553D01*
X220880156Y-123159767D01*
X221049177Y-123464474D01*
X221254350Y-123750446D01*
X221423641Y-123942582D01*
X221622561Y-124135755D01*
X221822464Y-124298389D01*
X222036796Y-124440398D01*
X222271723Y-124568083D01*
X222546715Y-124691366D01*
X222815849Y-124782584D01*
X223093968Y-124846600D01*
X223152085Y-124856584D01*
X223270552Y-124870051D01*
X223417768Y-124877918D01*
X223582456Y-124880408D01*
X223753339Y-124877745D01*
X223919142Y-124870152D01*
X224068588Y-124857851D01*
X224190402Y-124841066D01*
X224218500Y-124835490D01*
X224568993Y-124738710D01*
X224899733Y-124606271D01*
X225208644Y-124440342D01*
X225493647Y-124243088D01*
X225752665Y-124016677D01*
X225983619Y-123763276D01*
X226184433Y-123485051D01*
X226353028Y-123184169D01*
X226487326Y-122862799D01*
X226585250Y-122523106D01*
X226623102Y-122327688D01*
X226652551Y-122041722D01*
X226653657Y-121738327D01*
X226627278Y-121430729D01*
X226574272Y-121132150D01*
X226535949Y-120983031D01*
X226492295Y-120853031D01*
X226431509Y-120701407D01*
X226359849Y-120541821D01*
X226283573Y-120387932D01*
X226208942Y-120253401D01*
X226180645Y-120207591D01*
X225971661Y-119920903D01*
X225732555Y-119663212D01*
X225465182Y-119435776D01*
X225171397Y-119239853D01*
X224853056Y-119076699D01*
X224512013Y-118947571D01*
X224197334Y-118863680D01*
X224066721Y-118842956D01*
X223905687Y-118829364D01*
X223725525Y-118822822D01*
X223537527Y-118823251D01*
X223352987Y-118830570D01*
X223183199Y-118844700D01*
X223039454Y-118865559D01*
X223007477Y-118872134D01*
X222666186Y-118965359D01*
X222352361Y-119088428D01*
X222060900Y-119244140D01*
X221786701Y-119435293D01*
X221524661Y-119664688D01*
X221476747Y-119711904D01*
X221247479Y-119963273D01*
X221056828Y-120220695D01*
X220901082Y-120490673D01*
X220776525Y-120779710D01*
X220679445Y-121094308D01*
X220673251Y-121118780D01*
X220607352Y-121468141D01*
X220582748Y-121818125D01*
X216904891Y-121818125D01*
X216976067Y-121704237D01*
X217059034Y-121552781D01*
X217133277Y-121397488D01*
X217183549Y-121279651D01*
X217274381Y-121007334D01*
X217331782Y-120722740D01*
X217356012Y-120432373D01*
X217347335Y-120142736D01*
X217306013Y-119860334D01*
X217232308Y-119591668D01*
X217126483Y-119343243D01*
X217103687Y-119300533D01*
X217002920Y-119148618D01*
X216871720Y-118996743D01*
X216720740Y-118855146D01*
X216560635Y-118734072D01*
X216439750Y-118662258D01*
X216159348Y-118539736D01*
X215854077Y-118449664D01*
X215701789Y-118418391D01*
X215550042Y-118398549D01*
X215371072Y-118386851D01*
X215178537Y-118383256D01*
X214986096Y-118387720D01*
X214807408Y-118400204D01*
X214656132Y-118420664D01*
X214651167Y-118421587D01*
X214305953Y-118507921D01*
X213968357Y-118635143D01*
X213640683Y-118802142D01*
X213325238Y-119007808D01*
X213146613Y-119146166D01*
X213001253Y-119265749D01*
X209719334Y-119265749D01*
X209719334Y-110397328D01*
X211698167Y-110397328D01*
X211702151Y-110608831D01*
X211716395Y-110808608D01*
X211740900Y-110983460D01*
X211747774Y-111017771D01*
X211843289Y-111367127D01*
X211974958Y-111697170D01*
X212140568Y-112005780D01*
X212337903Y-112290834D01*
X212564749Y-112550212D01*
X212818890Y-112781792D01*
X213098113Y-112983454D01*
X213400202Y-113153076D01*
X213722942Y-113288537D01*
X214064118Y-113387715D01*
X214263141Y-113426737D01*
X214381069Y-113440130D01*
X214527826Y-113447945D01*
X214692138Y-113450408D01*
X214862734Y-113447743D01*
X215028340Y-113440175D01*
X215177686Y-113427928D01*
X215299498Y-113411228D01*
X215328500Y-113405490D01*
X215684650Y-113307520D01*
X216019148Y-113173348D01*
X216331510Y-113003236D01*
X216621251Y-112797445D01*
X216873892Y-112570358D01*
X217114638Y-112300081D01*
X217319757Y-112008508D01*
X217488056Y-111697949D01*
X217618342Y-111370718D01*
X217709421Y-111029126D01*
X217731496Y-110908581D01*
X217748378Y-110764583D01*
X217758317Y-110593070D01*
X217761312Y-110408291D01*
X217757363Y-110224490D01*
X217746470Y-110055914D01*
X217731496Y-109933652D01*
X217656238Y-109597278D01*
X217542392Y-109270314D01*
X217392678Y-108957652D01*
X217209818Y-108664186D01*
X216996534Y-108394807D01*
X216755546Y-108154409D01*
X216729089Y-108131343D01*
X216448652Y-107914551D01*
X216153853Y-107735558D01*
X215840232Y-107592144D01*
X215503327Y-107482091D01*
X215347137Y-107443792D01*
X215199504Y-107419009D01*
X215022525Y-107402075D01*
X214828477Y-107393105D01*
X214629637Y-107392215D01*
X214438279Y-107399521D01*
X214266680Y-107415137D01*
X214157152Y-107432610D01*
X213861541Y-107509193D01*
X213564403Y-107617745D01*
X213279160Y-107752601D01*
X213019234Y-107908097D01*
X213000944Y-107920564D01*
X212873084Y-108017484D01*
X212732091Y-108139312D01*
X212588480Y-108275846D01*
X212452766Y-108416882D01*
X212335464Y-108552216D01*
X212290161Y-108610310D01*
X212112143Y-108880903D01*
X211959859Y-109178818D01*
X211837341Y-109495033D01*
X211748620Y-109820523D01*
X211747774Y-109824462D01*
X211720978Y-109991945D01*
X211704442Y-110187300D01*
X211698167Y-110397328D01*
X209719334Y-110397328D01*
X209719334Y-95689406D01*
X212979000Y-95689406D01*
X212986580Y-95714319D01*
X213007893Y-95772898D01*
X213040802Y-95859564D01*
X213083165Y-95968737D01*
X213132846Y-96094839D01*
X213174828Y-96200184D01*
X213370656Y-96689203D01*
X214111453Y-96279546D01*
X214273712Y-96190021D01*
X214424481Y-96107228D01*
X214559731Y-96033348D01*
X214675435Y-95970565D01*
X214767564Y-95921062D01*
X214832089Y-95887022D01*
X214864983Y-95870627D01*
X214868225Y-95869461D01*
X214870373Y-95890102D01*
X214872334Y-95950280D01*
X214874094Y-96047203D01*
X214875639Y-96178073D01*
X214876955Y-96340097D01*
X214878030Y-96530480D01*
X214878849Y-96746426D01*
X214879398Y-96985141D01*
X214879665Y-97243831D01*
X214879635Y-97519699D01*
X214879295Y-97809952D01*
X214878808Y-98043908D01*
X214873417Y-100218783D01*
X214010875Y-100224312D01*
X213148334Y-100229841D01*
X213148334Y-101330033D01*
X217635667Y-101330033D01*
X217635667Y-100229366D01*
X216154000Y-100229366D01*
X216154000Y-97663833D01*
X220583585Y-97663833D01*
X220595368Y-98001424D01*
X220644772Y-98335102D01*
X220731534Y-98661775D01*
X220855386Y-98978347D01*
X221016064Y-99281725D01*
X221213301Y-99568816D01*
X221423641Y-99812582D01*
X221685190Y-100057282D01*
X221967149Y-100267746D01*
X222266302Y-100442044D01*
X222579436Y-100578244D01*
X222828003Y-100655929D01*
X222991613Y-100695536D01*
X223138796Y-100723377D01*
X223282737Y-100740857D01*
X223436622Y-100749381D01*
X223613635Y-100750353D01*
X223699917Y-100748804D01*
X223855332Y-100743910D01*
X223980070Y-100736482D01*
X224085769Y-100725302D01*
X224184064Y-100709154D01*
X224282000Y-100687908D01*
X224627956Y-100587819D01*
X224946506Y-100456971D01*
X225241346Y-100293327D01*
X225516173Y-100094846D01*
X225763892Y-99870358D01*
X226006775Y-99598253D01*
X226211971Y-99307308D01*
X226378943Y-98998818D01*
X226507152Y-98674082D01*
X226596060Y-98334397D01*
X226645129Y-97981061D01*
X226655489Y-97721116D01*
X226638546Y-97377603D01*
X226586736Y-97053478D01*
X226498591Y-96742113D01*
X226372643Y-96436883D01*
X226369323Y-96429950D01*
X226286207Y-96263912D01*
X226207527Y-96123870D01*
X226124426Y-95995628D01*
X226028045Y-95864989D01*
X225974934Y-95797845D01*
X225741655Y-95541335D01*
X225479175Y-95314468D01*
X225189859Y-95118679D01*
X224876070Y-94955403D01*
X224540173Y-94826073D01*
X224237137Y-94743478D01*
X224090357Y-94718712D01*
X223914143Y-94701808D01*
X223720681Y-94692875D01*
X223522153Y-94692022D01*
X223330744Y-94699362D01*
X223158638Y-94715002D01*
X223047152Y-94732729D01*
X222706343Y-94822649D01*
X222372028Y-94953129D01*
X222048282Y-95122463D01*
X221911334Y-95208113D01*
X221791312Y-95296468D01*
X221656586Y-95411187D01*
X221515954Y-95543425D01*
X221378216Y-95684336D01*
X221252169Y-95825076D01*
X221146612Y-95956798D01*
X221098314Y-96025475D01*
X220917997Y-96336220D01*
X220776631Y-96658523D01*
X220673951Y-96989288D01*
X220609691Y-97325423D01*
X220583585Y-97663833D01*
X216154000Y-97663833D01*
X216154000Y-94556700D01*
X215087381Y-94556700D01*
X214033190Y-95112173D01*
X213838203Y-95215292D01*
X213654906Y-95312956D01*
X213486648Y-95403331D01*
X213336782Y-95484583D01*
X213208657Y-95554876D01*
X213105626Y-95612376D01*
X213031038Y-95655248D01*
X212988245Y-95681657D01*
X212979000Y-95689406D01*
X209719334Y-95689406D01*
X209719334Y-86267328D01*
X211698167Y-86267328D01*
X211702151Y-86478831D01*
X211716395Y-86678608D01*
X211740900Y-86853460D01*
X211747774Y-86887771D01*
X211843409Y-87240955D01*
X211974449Y-87571198D01*
X212141527Y-87879704D01*
X212345276Y-88167678D01*
X212533641Y-88382556D01*
X212791438Y-88625042D01*
X213066022Y-88830956D01*
X213360013Y-89001618D01*
X213676030Y-89138346D01*
X214016693Y-89242459D01*
X214384622Y-89315277D01*
X214386584Y-89315572D01*
X214428620Y-89318316D01*
X214504392Y-89319822D01*
X214605318Y-89320054D01*
X214722819Y-89318972D01*
X214809917Y-89317423D01*
X214965100Y-89312814D01*
X215089600Y-89305639D01*
X215195045Y-89294702D01*
X215293062Y-89278807D01*
X215392000Y-89257529D01*
X215677497Y-89179121D01*
X215935950Y-89082683D01*
X216180815Y-88962515D01*
X216397417Y-88831512D01*
X216681510Y-88620510D01*
X216937429Y-88379372D01*
X217163096Y-88111295D01*
X217356436Y-87819473D01*
X217515374Y-87507103D01*
X217637833Y-87177380D01*
X217721739Y-86833499D01*
X217731354Y-86777950D01*
X217748261Y-86634853D01*
X217758248Y-86464157D01*
X217761315Y-86280029D01*
X217757459Y-86096634D01*
X217746678Y-85928138D01*
X217731496Y-85803652D01*
X217655014Y-85462123D01*
X217539656Y-85133431D01*
X217387760Y-84820750D01*
X217201667Y-84527255D01*
X216983716Y-84256122D01*
X216736246Y-84010524D01*
X216461597Y-83793639D01*
X216162108Y-83608640D01*
X216084248Y-83568056D01*
X215927205Y-83497261D01*
X215743793Y-83427845D01*
X215549787Y-83365195D01*
X215360961Y-83314700D01*
X215307334Y-83302654D01*
X215186947Y-83283972D01*
X215035737Y-83271104D01*
X214864812Y-83264052D01*
X214685280Y-83262817D01*
X214508252Y-83267402D01*
X214344835Y-83277809D01*
X214206138Y-83294040D01*
X214158621Y-83302454D01*
X213805948Y-83394225D01*
X213473458Y-83523144D01*
X213161516Y-83689022D01*
X212870489Y-83891665D01*
X212632656Y-84099595D01*
X212383737Y-84367531D01*
X212172930Y-84653576D01*
X211999419Y-84959199D01*
X211862389Y-85285867D01*
X211761028Y-85635047D01*
X211747774Y-85694462D01*
X211720978Y-85861945D01*
X211704442Y-86057300D01*
X211698167Y-86267328D01*
X209719334Y-86267328D01*
X209719334Y-66671151D01*
X215629420Y-66671151D01*
X215653645Y-66911687D01*
X215714838Y-67143332D01*
X215810328Y-67362360D01*
X215937444Y-67565044D01*
X216093517Y-67747657D01*
X216275874Y-67906474D01*
X216481846Y-68037769D01*
X216708761Y-68137815D01*
X216912959Y-68194843D01*
X217030461Y-68210508D01*
X217173517Y-68216093D01*
X217326691Y-68212103D01*
X217474548Y-68199040D01*
X217601654Y-68177408D01*
X217625084Y-68171607D01*
X217706276Y-68145487D01*
X217805735Y-68107071D01*
X217904304Y-68063853D01*
X217921417Y-68055685D01*
X218142849Y-67925700D01*
X218335960Y-67765837D01*
X218498671Y-67579435D01*
X218628903Y-67369831D01*
X218724578Y-67140365D01*
X218783619Y-66894376D01*
X218803941Y-66637866D01*
X218796093Y-66445407D01*
X218768944Y-66273686D01*
X218718712Y-66106359D01*
X218641614Y-65927080D01*
X218637492Y-65918551D01*
X218591250Y-65827726D01*
X218546878Y-65753658D01*
X218496110Y-65685282D01*
X218430685Y-65611532D01*
X218342337Y-65521345D01*
X218336583Y-65515623D01*
X218238104Y-65420753D01*
X218156040Y-65349851D01*
X218079440Y-65294584D01*
X217997352Y-65246622D01*
X217953167Y-65223938D01*
X217714656Y-65127088D01*
X217468122Y-65068094D01*
X217218886Y-65047026D01*
X216972265Y-65063952D01*
X216733580Y-65118944D01*
X216521535Y-65205238D01*
X216294327Y-65342149D01*
X216097657Y-65507779D01*
X215933020Y-65700047D01*
X215801911Y-65916872D01*
X215705826Y-66156173D01*
X215646259Y-66415870D01*
X215644833Y-66425449D01*
X215629420Y-66671151D01*
X209719334Y-66671151D01*
X209719334Y-63632200D01*
X229721844Y-63632200D01*
X229711250Y-148790212D01*
G36*
X215712525Y-168017404D02*
G01*
X215716525Y-168045645D01*
X215719822Y-168092259D01*
X215722458Y-168159842D01*
X215724473Y-168250991D01*
X215725906Y-168368305D01*
X215726798Y-168514379D01*
X215727189Y-168691813D01*
X215727120Y-168903202D01*
X215726630Y-169151144D01*
X215725760Y-169438237D01*
X215725516Y-169508482D01*
X215720084Y-171042450D01*
X214762292Y-171047957D01*
X214517897Y-171049046D01*
X214313593Y-171049235D01*
X214147146Y-171048480D01*
X214016322Y-171046740D01*
X213918887Y-171043971D01*
X213852607Y-171040130D01*
X213815248Y-171035174D01*
X213804500Y-171029584D01*
X213815484Y-171008828D01*
X213847092Y-170955519D01*
X213897303Y-170872873D01*
X213964100Y-170764108D01*
X214045463Y-170632440D01*
X214139374Y-170481086D01*
X214243815Y-170313262D01*
X214356766Y-170132185D01*
X214476208Y-169941072D01*
X214600124Y-169743140D01*
X214726494Y-169541605D01*
X214853299Y-169339683D01*
X214978522Y-169140593D01*
X215100142Y-168947549D01*
X215216142Y-168763770D01*
X215324503Y-168592471D01*
X215423205Y-168436870D01*
X215510231Y-168300183D01*
X215583561Y-168185626D01*
X215641176Y-168096417D01*
X215681059Y-168035772D01*
X215701190Y-168006908D01*
X215702260Y-168005648D01*
X215707784Y-168004937D01*
X215712525Y-168017404D01*
G37*
X215712525Y-168017404D02*
X215716525Y-168045645D01*
X215719822Y-168092259D01*
X215722458Y-168159842D01*
X215724473Y-168250991D01*
X215725906Y-168368305D01*
X215726798Y-168514379D01*
X215727189Y-168691813D01*
X215727120Y-168903202D01*
X215726630Y-169151144D01*
X215725760Y-169438237D01*
X215725516Y-169508482D01*
X215720084Y-171042450D01*
X214762292Y-171047957D01*
X214517897Y-171049046D01*
X214313593Y-171049235D01*
X214147146Y-171048480D01*
X214016322Y-171046740D01*
X213918887Y-171043971D01*
X213852607Y-171040130D01*
X213815248Y-171035174D01*
X213804500Y-171029584D01*
X213815484Y-171008828D01*
X213847092Y-170955519D01*
X213897303Y-170872873D01*
X213964100Y-170764108D01*
X214045463Y-170632440D01*
X214139374Y-170481086D01*
X214243815Y-170313262D01*
X214356766Y-170132185D01*
X214476208Y-169941072D01*
X214600124Y-169743140D01*
X214726494Y-169541605D01*
X214853299Y-169339683D01*
X214978522Y-169140593D01*
X215100142Y-168947549D01*
X215216142Y-168763770D01*
X215324503Y-168592471D01*
X215423205Y-168436870D01*
X215510231Y-168300183D01*
X215583561Y-168185626D01*
X215641176Y-168096417D01*
X215681059Y-168035772D01*
X215701190Y-168006908D01*
X215702260Y-168005648D01*
X215707784Y-168004937D01*
X215712525Y-168017404D01*
G04 #@! TD*
M02*
