G04 #@! TF.GenerationSoftware,KiCad,Pcbnew,(5.1.9)-1*
G04 #@! TF.CreationDate,2021-08-04T02:24:11+02:00*
G04 #@! TF.ProjectId,sequswit-panel,73657175-7377-4697-942d-70616e656c2e,rev?*
G04 #@! TF.SameCoordinates,Original*
G04 #@! TF.FileFunction,Legend,Bot*
G04 #@! TF.FilePolarity,Positive*
%FSLAX46Y46*%
G04 Gerber Fmt 4.6, Leading zero omitted, Abs format (unit mm)*
G04 Created by KiCad (PCBNEW (5.1.9)-1) date 2021-08-04 02:24:11*
%MOMM*%
%LPD*%
G01*
G04 APERTURE LIST*
%ADD10C,0.150000*%
%ADD11C,0.010000*%
G04 APERTURE END LIST*
D10*
X223232142Y-91391642D02*
X223232142Y-92034500D01*
X223275000Y-92163071D01*
X223360714Y-92248785D01*
X223489285Y-92291642D01*
X223575000Y-92291642D01*
X222375000Y-92291642D02*
X222803571Y-92291642D01*
X222803571Y-91391642D01*
X221560714Y-92205928D02*
X221603571Y-92248785D01*
X221732142Y-92291642D01*
X221817857Y-92291642D01*
X221946428Y-92248785D01*
X222032142Y-92163071D01*
X222075000Y-92077357D01*
X222117857Y-91905928D01*
X222117857Y-91777357D01*
X222075000Y-91605928D01*
X222032142Y-91520214D01*
X221946428Y-91434500D01*
X221817857Y-91391642D01*
X221732142Y-91391642D01*
X221603571Y-91434500D01*
X221560714Y-91477357D01*
X220917857Y-91391642D02*
X220917857Y-92034500D01*
X220960714Y-92163071D01*
X221046428Y-92248785D01*
X221175000Y-92291642D01*
X221260714Y-92291642D01*
X220060714Y-92291642D02*
X220489285Y-92291642D01*
X220489285Y-91391642D01*
X219246428Y-92205928D02*
X219289285Y-92248785D01*
X219417857Y-92291642D01*
X219503571Y-92291642D01*
X219632142Y-92248785D01*
X219717857Y-92163071D01*
X219760714Y-92077357D01*
X219803571Y-91905928D01*
X219803571Y-91777357D01*
X219760714Y-91605928D01*
X219717857Y-91520214D01*
X219632142Y-91434500D01*
X219503571Y-91391642D01*
X219417857Y-91391642D01*
X219289285Y-91434500D01*
X219246428Y-91477357D01*
X218603571Y-91391642D02*
X218603571Y-92034500D01*
X218646428Y-92163071D01*
X218732142Y-92248785D01*
X218860714Y-92291642D01*
X218946428Y-92291642D01*
X217746428Y-92291642D02*
X218175000Y-92291642D01*
X218175000Y-91391642D01*
X216932142Y-92205928D02*
X216975000Y-92248785D01*
X217103571Y-92291642D01*
X217189285Y-92291642D01*
X217317857Y-92248785D01*
X217403571Y-92163071D01*
X217446428Y-92077357D01*
X217489285Y-91905928D01*
X217489285Y-91777357D01*
X217446428Y-91605928D01*
X217403571Y-91520214D01*
X217317857Y-91434500D01*
X217189285Y-91391642D01*
X217103571Y-91391642D01*
X216975000Y-91434500D01*
X216932142Y-91477357D01*
X216289285Y-91391642D02*
X216289285Y-92034500D01*
X216332142Y-92163071D01*
X216417857Y-92248785D01*
X216546428Y-92291642D01*
X216632142Y-92291642D01*
X215432142Y-92291642D02*
X215860714Y-92291642D01*
X215860714Y-91391642D01*
X214617857Y-92205928D02*
X214660714Y-92248785D01*
X214789285Y-92291642D01*
X214875000Y-92291642D01*
X215003571Y-92248785D01*
X215089285Y-92163071D01*
X215132142Y-92077357D01*
X215175000Y-91905928D01*
X215175000Y-91777357D01*
X215132142Y-91605928D01*
X215089285Y-91520214D01*
X215003571Y-91434500D01*
X214875000Y-91391642D01*
X214789285Y-91391642D01*
X214660714Y-91434500D01*
X214617857Y-91477357D01*
D11*
G04 #@! TO.C,REF\u002A\u002A*
G36*
X220770813Y-177324315D02*
G01*
X220706330Y-177325975D01*
X220659697Y-177328945D01*
X220639349Y-177332088D01*
X220609583Y-177340065D01*
X220609583Y-178260530D01*
X220819119Y-178253259D01*
X221028953Y-178253523D01*
X221223141Y-178270382D01*
X221407580Y-178305075D01*
X221588168Y-178358839D01*
X221770803Y-178432911D01*
X221846511Y-178468879D01*
X222027062Y-178567977D01*
X222189702Y-178679326D01*
X222342099Y-178808408D01*
X222401378Y-178865705D01*
X222558015Y-179040861D01*
X222693527Y-179231520D01*
X222807234Y-179436394D01*
X222898456Y-179654193D01*
X222966515Y-179883629D01*
X222986674Y-179976197D01*
X222998823Y-180060244D01*
X223006934Y-180163234D01*
X223011015Y-180277965D01*
X223011074Y-180397234D01*
X223007116Y-180513837D01*
X222999149Y-180620571D01*
X222987181Y-180710233D01*
X222985943Y-180717031D01*
X222930089Y-180945759D01*
X222850701Y-181163965D01*
X222749069Y-181370177D01*
X222626478Y-181562928D01*
X222484219Y-181740748D01*
X222323579Y-181902168D01*
X222145845Y-182045719D01*
X221952307Y-182169931D01*
X221744252Y-182273336D01*
X221560763Y-182342535D01*
X221457623Y-182374118D01*
X221362893Y-182398129D01*
X221270130Y-182415463D01*
X221172894Y-182427016D01*
X221064742Y-182433680D01*
X220939233Y-182436352D01*
X220884089Y-182436504D01*
X220609583Y-182436186D01*
X220609583Y-183353164D01*
X220639349Y-183361141D01*
X220664749Y-183364138D01*
X220711744Y-183366203D01*
X220775490Y-183367382D01*
X220851142Y-183367723D01*
X220933854Y-183367274D01*
X221018783Y-183366083D01*
X221101083Y-183364197D01*
X221175909Y-183361663D01*
X221238417Y-183358531D01*
X221283762Y-183354847D01*
X221284271Y-183354789D01*
X221397271Y-183338341D01*
X221524872Y-183313706D01*
X221657338Y-183283083D01*
X221784934Y-183248667D01*
X221866016Y-183223536D01*
X222130553Y-183122498D01*
X222381277Y-182999513D01*
X222617195Y-182855777D01*
X222837320Y-182692487D01*
X223040660Y-182510838D01*
X223226227Y-182312026D01*
X223393030Y-182097247D01*
X223540079Y-181867698D01*
X223666385Y-181624573D01*
X223770958Y-181369070D01*
X223852808Y-181102383D01*
X223910945Y-180825709D01*
X223924162Y-180736875D01*
X223932618Y-180652107D01*
X223938437Y-180548118D01*
X223941618Y-180432009D01*
X223942161Y-180310887D01*
X223940066Y-180191854D01*
X223935334Y-180082014D01*
X223927963Y-179988472D01*
X223924162Y-179956354D01*
X223873241Y-179673706D01*
X223797795Y-179400614D01*
X223698081Y-179137714D01*
X223574354Y-178885637D01*
X223426872Y-178645017D01*
X223348048Y-178534218D01*
X223169770Y-178316723D01*
X222973767Y-178118344D01*
X222761402Y-177939882D01*
X222534041Y-177782133D01*
X222293047Y-177645897D01*
X222039787Y-177531971D01*
X221775623Y-177441153D01*
X221501921Y-177374241D01*
X221311120Y-177342813D01*
X221258646Y-177337490D01*
X221189782Y-177332930D01*
X221109419Y-177329212D01*
X221022450Y-177326413D01*
X220933764Y-177324612D01*
X220848255Y-177323887D01*
X220770813Y-177324315D01*
G37*
X220770813Y-177324315D02*
X220706330Y-177325975D01*
X220659697Y-177328945D01*
X220639349Y-177332088D01*
X220609583Y-177340065D01*
X220609583Y-178260530D01*
X220819119Y-178253259D01*
X221028953Y-178253523D01*
X221223141Y-178270382D01*
X221407580Y-178305075D01*
X221588168Y-178358839D01*
X221770803Y-178432911D01*
X221846511Y-178468879D01*
X222027062Y-178567977D01*
X222189702Y-178679326D01*
X222342099Y-178808408D01*
X222401378Y-178865705D01*
X222558015Y-179040861D01*
X222693527Y-179231520D01*
X222807234Y-179436394D01*
X222898456Y-179654193D01*
X222966515Y-179883629D01*
X222986674Y-179976197D01*
X222998823Y-180060244D01*
X223006934Y-180163234D01*
X223011015Y-180277965D01*
X223011074Y-180397234D01*
X223007116Y-180513837D01*
X222999149Y-180620571D01*
X222987181Y-180710233D01*
X222985943Y-180717031D01*
X222930089Y-180945759D01*
X222850701Y-181163965D01*
X222749069Y-181370177D01*
X222626478Y-181562928D01*
X222484219Y-181740748D01*
X222323579Y-181902168D01*
X222145845Y-182045719D01*
X221952307Y-182169931D01*
X221744252Y-182273336D01*
X221560763Y-182342535D01*
X221457623Y-182374118D01*
X221362893Y-182398129D01*
X221270130Y-182415463D01*
X221172894Y-182427016D01*
X221064742Y-182433680D01*
X220939233Y-182436352D01*
X220884089Y-182436504D01*
X220609583Y-182436186D01*
X220609583Y-183353164D01*
X220639349Y-183361141D01*
X220664749Y-183364138D01*
X220711744Y-183366203D01*
X220775490Y-183367382D01*
X220851142Y-183367723D01*
X220933854Y-183367274D01*
X221018783Y-183366083D01*
X221101083Y-183364197D01*
X221175909Y-183361663D01*
X221238417Y-183358531D01*
X221283762Y-183354847D01*
X221284271Y-183354789D01*
X221397271Y-183338341D01*
X221524872Y-183313706D01*
X221657338Y-183283083D01*
X221784934Y-183248667D01*
X221866016Y-183223536D01*
X222130553Y-183122498D01*
X222381277Y-182999513D01*
X222617195Y-182855777D01*
X222837320Y-182692487D01*
X223040660Y-182510838D01*
X223226227Y-182312026D01*
X223393030Y-182097247D01*
X223540079Y-181867698D01*
X223666385Y-181624573D01*
X223770958Y-181369070D01*
X223852808Y-181102383D01*
X223910945Y-180825709D01*
X223924162Y-180736875D01*
X223932618Y-180652107D01*
X223938437Y-180548118D01*
X223941618Y-180432009D01*
X223942161Y-180310887D01*
X223940066Y-180191854D01*
X223935334Y-180082014D01*
X223927963Y-179988472D01*
X223924162Y-179956354D01*
X223873241Y-179673706D01*
X223797795Y-179400614D01*
X223698081Y-179137714D01*
X223574354Y-178885637D01*
X223426872Y-178645017D01*
X223348048Y-178534218D01*
X223169770Y-178316723D01*
X222973767Y-178118344D01*
X222761402Y-177939882D01*
X222534041Y-177782133D01*
X222293047Y-177645897D01*
X222039787Y-177531971D01*
X221775623Y-177441153D01*
X221501921Y-177374241D01*
X221311120Y-177342813D01*
X221258646Y-177337490D01*
X221189782Y-177332930D01*
X221109419Y-177329212D01*
X221022450Y-177326413D01*
X220933764Y-177324612D01*
X220848255Y-177323887D01*
X220770813Y-177324315D01*
G36*
X215476665Y-178256406D02*
G01*
X215771015Y-178256695D01*
X215872990Y-178257120D01*
X215953645Y-178258408D01*
X216018112Y-178260914D01*
X216071524Y-178264996D01*
X216119012Y-178271008D01*
X216165711Y-178279308D01*
X216199611Y-178286436D01*
X216429451Y-178349754D01*
X216648768Y-178436012D01*
X216855799Y-178544009D01*
X217048780Y-178672544D01*
X217225951Y-178820418D01*
X217385547Y-178986430D01*
X217525807Y-179169379D01*
X217550446Y-179206449D01*
X217602244Y-179293402D01*
X217655145Y-179394820D01*
X217706164Y-179503866D01*
X217752318Y-179613702D01*
X217790625Y-179717488D01*
X217818102Y-179808388D01*
X217824196Y-179833984D01*
X217833561Y-179876979D01*
X216071979Y-179876979D01*
X216071979Y-180816250D01*
X217833561Y-180816250D01*
X217824196Y-180859244D01*
X217799136Y-180950611D01*
X217761648Y-181056469D01*
X217714815Y-181169878D01*
X217661718Y-181283892D01*
X217605440Y-181391569D01*
X217549064Y-181485967D01*
X217539608Y-181500319D01*
X217395866Y-181691791D01*
X217234667Y-181863630D01*
X217057010Y-182015163D01*
X216863891Y-182145719D01*
X216656309Y-182254624D01*
X216435262Y-182341206D01*
X216201745Y-182404794D01*
X216196044Y-182406021D01*
X216143462Y-182416622D01*
X216095042Y-182424513D01*
X216045391Y-182430078D01*
X215989119Y-182433702D01*
X215920832Y-182435769D01*
X215835141Y-182436664D01*
X215764401Y-182436799D01*
X215476667Y-182436776D01*
X215476667Y-183369479D01*
X215764401Y-183367762D01*
X215856376Y-183366709D01*
X215946109Y-183364766D01*
X216027842Y-183362126D01*
X216095821Y-183358981D01*
X216144289Y-183355526D01*
X216151354Y-183354789D01*
X216376763Y-183318594D01*
X216608614Y-183261376D01*
X216840575Y-183185284D01*
X217066315Y-183092465D01*
X217279501Y-182985068D01*
X217335303Y-182953135D01*
X217498844Y-182847667D01*
X217664786Y-182723545D01*
X217826573Y-182586431D01*
X217977650Y-182441982D01*
X218111460Y-182295859D01*
X218148007Y-182251607D01*
X218309327Y-182030012D01*
X218450652Y-181792378D01*
X218570975Y-181541089D01*
X218669289Y-181278532D01*
X218744588Y-181007092D01*
X218795865Y-180729155D01*
X218798410Y-180710416D01*
X218805359Y-180638751D01*
X218810292Y-180548046D01*
X218813208Y-180444923D01*
X218814105Y-180336009D01*
X218812981Y-180227925D01*
X218809834Y-180127298D01*
X218804662Y-180040752D01*
X218798617Y-179982812D01*
X218746661Y-179697894D01*
X218671431Y-179422354D01*
X218573609Y-179157809D01*
X218453879Y-178905877D01*
X218312924Y-178668177D01*
X218151427Y-178446325D01*
X218148007Y-178442079D01*
X217967720Y-178239121D01*
X217768578Y-178052656D01*
X217553027Y-177884214D01*
X217323515Y-177735325D01*
X217082491Y-177607517D01*
X216832400Y-177502322D01*
X216575691Y-177421267D01*
X216475381Y-177396769D01*
X216351470Y-177370938D01*
X216236300Y-177351592D01*
X216122480Y-177337981D01*
X216002615Y-177329356D01*
X215869313Y-177324968D01*
X215757787Y-177324008D01*
X215476667Y-177323750D01*
X215476665Y-178256406D01*
G37*
X215476665Y-178256406D02*
X215771015Y-178256695D01*
X215872990Y-178257120D01*
X215953645Y-178258408D01*
X216018112Y-178260914D01*
X216071524Y-178264996D01*
X216119012Y-178271008D01*
X216165711Y-178279308D01*
X216199611Y-178286436D01*
X216429451Y-178349754D01*
X216648768Y-178436012D01*
X216855799Y-178544009D01*
X217048780Y-178672544D01*
X217225951Y-178820418D01*
X217385547Y-178986430D01*
X217525807Y-179169379D01*
X217550446Y-179206449D01*
X217602244Y-179293402D01*
X217655145Y-179394820D01*
X217706164Y-179503866D01*
X217752318Y-179613702D01*
X217790625Y-179717488D01*
X217818102Y-179808388D01*
X217824196Y-179833984D01*
X217833561Y-179876979D01*
X216071979Y-179876979D01*
X216071979Y-180816250D01*
X217833561Y-180816250D01*
X217824196Y-180859244D01*
X217799136Y-180950611D01*
X217761648Y-181056469D01*
X217714815Y-181169878D01*
X217661718Y-181283892D01*
X217605440Y-181391569D01*
X217549064Y-181485967D01*
X217539608Y-181500319D01*
X217395866Y-181691791D01*
X217234667Y-181863630D01*
X217057010Y-182015163D01*
X216863891Y-182145719D01*
X216656309Y-182254624D01*
X216435262Y-182341206D01*
X216201745Y-182404794D01*
X216196044Y-182406021D01*
X216143462Y-182416622D01*
X216095042Y-182424513D01*
X216045391Y-182430078D01*
X215989119Y-182433702D01*
X215920832Y-182435769D01*
X215835141Y-182436664D01*
X215764401Y-182436799D01*
X215476667Y-182436776D01*
X215476667Y-183369479D01*
X215764401Y-183367762D01*
X215856376Y-183366709D01*
X215946109Y-183364766D01*
X216027842Y-183362126D01*
X216095821Y-183358981D01*
X216144289Y-183355526D01*
X216151354Y-183354789D01*
X216376763Y-183318594D01*
X216608614Y-183261376D01*
X216840575Y-183185284D01*
X217066315Y-183092465D01*
X217279501Y-182985068D01*
X217335303Y-182953135D01*
X217498844Y-182847667D01*
X217664786Y-182723545D01*
X217826573Y-182586431D01*
X217977650Y-182441982D01*
X218111460Y-182295859D01*
X218148007Y-182251607D01*
X218309327Y-182030012D01*
X218450652Y-181792378D01*
X218570975Y-181541089D01*
X218669289Y-181278532D01*
X218744588Y-181007092D01*
X218795865Y-180729155D01*
X218798410Y-180710416D01*
X218805359Y-180638751D01*
X218810292Y-180548046D01*
X218813208Y-180444923D01*
X218814105Y-180336009D01*
X218812981Y-180227925D01*
X218809834Y-180127298D01*
X218804662Y-180040752D01*
X218798617Y-179982812D01*
X218746661Y-179697894D01*
X218671431Y-179422354D01*
X218573609Y-179157809D01*
X218453879Y-178905877D01*
X218312924Y-178668177D01*
X218151427Y-178446325D01*
X218148007Y-178442079D01*
X217967720Y-178239121D01*
X217768578Y-178052656D01*
X217553027Y-177884214D01*
X217323515Y-177735325D01*
X217082491Y-177607517D01*
X216832400Y-177502322D01*
X216575691Y-177421267D01*
X216475381Y-177396769D01*
X216351470Y-177370938D01*
X216236300Y-177351592D01*
X216122480Y-177337981D01*
X216002615Y-177329356D01*
X215869313Y-177324968D01*
X215757787Y-177324008D01*
X215476667Y-177323750D01*
X215476665Y-178256406D01*
G04 #@! TD*
M02*
