G04 #@! TF.GenerationSoftware,KiCad,Pcbnew,(5.1.9)-1*
G04 #@! TF.CreationDate,2021-08-04T02:24:11+02:00*
G04 #@! TF.ProjectId,sequswit-panel,73657175-7377-4697-942d-70616e656c2e,rev?*
G04 #@! TF.SameCoordinates,Original*
G04 #@! TF.FileFunction,Copper,L2,Bot*
G04 #@! TF.FilePolarity,Positive*
%FSLAX46Y46*%
G04 Gerber Fmt 4.6, Leading zero omitted, Abs format (unit mm)*
G04 Created by KiCad (PCBNEW (5.1.9)-1) date 2021-08-04 02:24:11*
%MOMM*%
%LPD*%
G01*
G04 APERTURE LIST*
G04 #@! TA.AperFunction,EtchedComponent*
%ADD10C,0.010000*%
G04 #@! TD*
G04 APERTURE END LIST*
D10*
G04 #@! TO.C,Ref\u002A\u002A*
G36*
X229721834Y-192135033D02*
G01*
X209719334Y-192135033D01*
X209719334Y-189139950D01*
X215638407Y-189139950D01*
X215658058Y-189399096D01*
X215716865Y-189642156D01*
X215814854Y-189869193D01*
X215952048Y-190080270D01*
X216054676Y-190200869D01*
X216232546Y-190370157D01*
X216418115Y-190502578D01*
X216620338Y-190603579D01*
X216833703Y-190674765D01*
X216987993Y-190703165D01*
X217165729Y-190714589D01*
X217351805Y-190709546D01*
X217531116Y-190688547D01*
X217688554Y-190652101D01*
X217709750Y-190645197D01*
X217926741Y-190554469D01*
X218120903Y-190436120D01*
X218302595Y-190283570D01*
X218344750Y-190241896D01*
X218469581Y-190105346D01*
X218566095Y-189974850D01*
X218643181Y-189836270D01*
X218709729Y-189675467D01*
X218721336Y-189642895D01*
X218767416Y-189467772D01*
X218794127Y-189270617D01*
X218800565Y-189067493D01*
X218785828Y-188874462D01*
X218769628Y-188783997D01*
X218696125Y-188548773D01*
X218585544Y-188328007D01*
X218441994Y-188126374D01*
X218269583Y-187948544D01*
X218072420Y-187799192D01*
X217854613Y-187682990D01*
X217773036Y-187650569D01*
X217518219Y-187577833D01*
X217268632Y-187546946D01*
X217022608Y-187557989D01*
X216778481Y-187611041D01*
X216534583Y-187706184D01*
X216524417Y-187711055D01*
X216305235Y-187840007D01*
X216110841Y-188002365D01*
X215943949Y-188195413D01*
X215807274Y-188416433D01*
X215794640Y-188441450D01*
X215720174Y-188612918D01*
X215671577Y-188779551D01*
X215645469Y-188956454D01*
X215638407Y-189139950D01*
X209719334Y-189139950D01*
X209719334Y-170341155D01*
X211074000Y-170341155D01*
X211082161Y-170657903D01*
X211108197Y-170950349D01*
X211154439Y-171233024D01*
X211223217Y-171520461D01*
X211307968Y-171800290D01*
X211460598Y-172199682D01*
X211648514Y-172578808D01*
X211869561Y-172935627D01*
X212121582Y-173268094D01*
X212402418Y-173574169D01*
X212709915Y-173851809D01*
X213041914Y-174098972D01*
X213396259Y-174313615D01*
X213770793Y-174493697D01*
X214163358Y-174637173D01*
X214364256Y-174694168D01*
X214478786Y-174721881D01*
X214597940Y-174747830D01*
X214704429Y-174768377D01*
X214757000Y-174776875D01*
X214842108Y-174789132D01*
X214916984Y-174800233D01*
X214966368Y-174807914D01*
X214968667Y-174808297D01*
X215030861Y-174813890D01*
X215127069Y-174816582D01*
X215249093Y-174816653D01*
X215388732Y-174814386D01*
X215537789Y-174810062D01*
X215688063Y-174803963D01*
X215831356Y-174796370D01*
X215959468Y-174787566D01*
X216064200Y-174777832D01*
X216132834Y-174768301D01*
X216547062Y-174671312D01*
X216946464Y-174535583D01*
X217328756Y-174362808D01*
X217691657Y-174154680D01*
X218032883Y-173912893D01*
X218350152Y-173639138D01*
X218641182Y-173335109D01*
X218903689Y-173002499D01*
X219135392Y-172643001D01*
X219229891Y-172471200D01*
X219411371Y-172079918D01*
X219553441Y-171679487D01*
X219656760Y-171272528D01*
X219721987Y-170861663D01*
X219749783Y-170449512D01*
X219743222Y-170149253D01*
X220590511Y-170149253D01*
X220595281Y-170343223D01*
X220608415Y-170522945D01*
X220629378Y-170672033D01*
X220717382Y-171025965D01*
X220843075Y-171360903D01*
X221006047Y-171676040D01*
X221205885Y-171970572D01*
X221424500Y-172225333D01*
X221690216Y-172474951D01*
X221974824Y-172686860D01*
X222279276Y-172861568D01*
X222604523Y-172999581D01*
X222951516Y-173101406D01*
X223139000Y-173139894D01*
X223250891Y-173153346D01*
X223393767Y-173161012D01*
X223556722Y-173163189D01*
X223728846Y-173160174D01*
X223899233Y-173152267D01*
X224056974Y-173139763D01*
X224191162Y-173122962D01*
X224263576Y-173109191D01*
X224615087Y-173007614D01*
X224943055Y-172871079D01*
X225249000Y-172698751D01*
X225534438Y-172489789D01*
X225763892Y-172280925D01*
X226005913Y-172009613D01*
X226212142Y-171715982D01*
X226381745Y-171401566D01*
X226513885Y-171067902D01*
X226603737Y-170735533D01*
X226617822Y-170659847D01*
X226628068Y-170579114D01*
X226634943Y-170485347D01*
X226638916Y-170370562D01*
X226640455Y-170226773D01*
X226640361Y-170111116D01*
X226639501Y-169960511D01*
X226637688Y-169843648D01*
X226634093Y-169751935D01*
X226627883Y-169676780D01*
X226618229Y-169609592D01*
X226604300Y-169541778D01*
X226585266Y-169464748D01*
X226573561Y-169420037D01*
X226459428Y-169066031D01*
X226310980Y-168735713D01*
X226129894Y-168430653D01*
X225917847Y-168152421D01*
X225676513Y-167902588D01*
X225407570Y-167682723D01*
X225112694Y-167494398D01*
X224793561Y-167339181D01*
X224451848Y-167218645D01*
X224144417Y-167144537D01*
X224001488Y-167124343D01*
X223830594Y-167111786D01*
X223644808Y-167106857D01*
X223457204Y-167109547D01*
X223280854Y-167119848D01*
X223128830Y-167137753D01*
X223086851Y-167145206D01*
X222733027Y-167235456D01*
X222398604Y-167361830D01*
X222085637Y-167522259D01*
X221796185Y-167714674D01*
X221532303Y-167937007D01*
X221296050Y-168187189D01*
X221089480Y-168463151D01*
X220914652Y-168762825D01*
X220773622Y-169084142D01*
X220668447Y-169425032D01*
X220626732Y-169619551D01*
X220606202Y-169773649D01*
X220594140Y-169954806D01*
X220590511Y-170149253D01*
X219743222Y-170149253D01*
X219740805Y-170038699D01*
X219695713Y-169631844D01*
X219615168Y-169231570D01*
X219499827Y-168840497D01*
X219350350Y-168461248D01*
X219167397Y-168096445D01*
X218951626Y-167748709D01*
X218703697Y-167420661D01*
X218424270Y-167114924D01*
X218114003Y-166834120D01*
X217773556Y-166580869D01*
X217743635Y-166560953D01*
X217376660Y-166343547D01*
X216995719Y-166165580D01*
X216603088Y-166027396D01*
X216201041Y-165929339D01*
X215791852Y-165871753D01*
X215377797Y-165854982D01*
X214961151Y-165879371D01*
X214544187Y-165945263D01*
X214215308Y-166027106D01*
X213839176Y-166157642D01*
X213473203Y-166327102D01*
X213121312Y-166532538D01*
X212787425Y-166771001D01*
X212475465Y-167039543D01*
X212189352Y-167335218D01*
X211933008Y-167655077D01*
X211809067Y-167835700D01*
X211585884Y-168217899D01*
X211402922Y-168613291D01*
X211260218Y-169021747D01*
X211157810Y-169443141D01*
X211095734Y-169877345D01*
X211074028Y-170324232D01*
X211074000Y-170341155D01*
X209719334Y-170341155D01*
X209719334Y-157233584D01*
X211924701Y-157233584D01*
X211942595Y-157575877D01*
X211998644Y-157913869D01*
X212092581Y-158240604D01*
X212227893Y-158562931D01*
X212397122Y-158863396D01*
X212597315Y-159140120D01*
X212825520Y-159391223D01*
X213078784Y-159614825D01*
X213354154Y-159809048D01*
X213648680Y-159972011D01*
X213959406Y-160101835D01*
X214283382Y-160196641D01*
X214617655Y-160254549D01*
X214959273Y-160273679D01*
X215260543Y-160257275D01*
X215615299Y-160198601D01*
X215956835Y-160100604D01*
X216282426Y-159964972D01*
X216589348Y-159793391D01*
X216874879Y-159587550D01*
X217136293Y-159349138D01*
X217370867Y-159079841D01*
X217534028Y-158848533D01*
X217641316Y-158659761D01*
X217742559Y-158441217D01*
X217832807Y-158205447D01*
X217907112Y-157964998D01*
X217946546Y-157802700D01*
X217965636Y-157679958D01*
X217978677Y-157526809D01*
X217985678Y-157354589D01*
X217986652Y-157174633D01*
X217981608Y-156998278D01*
X217970556Y-156836861D01*
X217953509Y-156701719D01*
X217945479Y-156659700D01*
X217847930Y-156302228D01*
X217715179Y-155965787D01*
X217548702Y-155652257D01*
X217349973Y-155363518D01*
X217120466Y-155101450D01*
X216861657Y-154867935D01*
X216575020Y-154664852D01*
X216262030Y-154494081D01*
X216238663Y-154483151D01*
X216021625Y-154389682D01*
X215819739Y-154319113D01*
X215620385Y-154268526D01*
X215410940Y-154235001D01*
X215178784Y-154215620D01*
X215060343Y-154210632D01*
X214835618Y-154207980D01*
X214639186Y-154216611D01*
X214458090Y-154238289D01*
X214279374Y-154274779D01*
X214090081Y-154327848D01*
X214009397Y-154353816D01*
X213674358Y-154485350D01*
X213365594Y-154649493D01*
X213082013Y-154847101D01*
X212822522Y-155079028D01*
X212586029Y-155346129D01*
X212388977Y-155621882D01*
X212224060Y-155915276D01*
X212094642Y-156227836D01*
X212001256Y-156554870D01*
X211944431Y-156891684D01*
X211924701Y-157233584D01*
X209719334Y-157233584D01*
X209719334Y-146012866D01*
X210784473Y-146012866D01*
X210788228Y-146441605D01*
X210831331Y-146862533D01*
X210912194Y-147273317D01*
X211029228Y-147671628D01*
X211180845Y-148055134D01*
X211365457Y-148421504D01*
X211581474Y-148768407D01*
X211827309Y-149093512D01*
X212101372Y-149394488D01*
X212402076Y-149669004D01*
X212727831Y-149914728D01*
X213077049Y-150129330D01*
X213448142Y-150310478D01*
X213804500Y-150444608D01*
X214206964Y-150556311D01*
X214605152Y-150627159D01*
X215004104Y-150657593D01*
X215408854Y-150648056D01*
X215729945Y-150613422D01*
X216135742Y-150534518D01*
X216528102Y-150416773D01*
X216904960Y-150262126D01*
X217264248Y-150072515D01*
X217603900Y-149849878D01*
X217921850Y-149596152D01*
X218216030Y-149313275D01*
X218484375Y-149003186D01*
X218724816Y-148667821D01*
X218935289Y-148309120D01*
X219113725Y-147929020D01*
X219258059Y-147529458D01*
X219340391Y-147227913D01*
X219406774Y-146875817D01*
X219445430Y-146503880D01*
X219456313Y-146123168D01*
X219451377Y-146012866D01*
X220591042Y-146012866D01*
X220605887Y-146342027D01*
X220652193Y-146650117D01*
X220732244Y-146946736D01*
X220848323Y-147241484D01*
X220917354Y-147384813D01*
X221096204Y-147690714D01*
X221307604Y-147971325D01*
X221548658Y-148224505D01*
X221816472Y-148448109D01*
X222108150Y-148639995D01*
X222420797Y-148798020D01*
X222751518Y-148920041D01*
X223097416Y-149003915D01*
X223107250Y-149005686D01*
X223229645Y-149021437D01*
X223381541Y-149031738D01*
X223550455Y-149036552D01*
X223723903Y-149035845D01*
X223889402Y-149029580D01*
X224034467Y-149017721D01*
X224102715Y-149008529D01*
X224417849Y-148940241D01*
X224720256Y-148838233D01*
X224915426Y-148752337D01*
X225236313Y-148576592D01*
X225526773Y-148371414D01*
X225786863Y-148136751D01*
X226016637Y-147872547D01*
X226216151Y-147578747D01*
X226345811Y-147339250D01*
X226461661Y-147079773D01*
X226547577Y-146832142D01*
X226605878Y-146585313D01*
X226638884Y-146328242D01*
X226648912Y-146049884D01*
X226646329Y-145907996D01*
X226626286Y-145614004D01*
X226584752Y-145346178D01*
X226518913Y-145092691D01*
X226425953Y-144841716D01*
X226355499Y-144686405D01*
X226227760Y-144455267D01*
X226068866Y-144222204D01*
X225887454Y-143997752D01*
X225692160Y-143792447D01*
X225491622Y-143616828D01*
X225456932Y-143590157D01*
X225160451Y-143392716D01*
X224847901Y-143232912D01*
X224522615Y-143111053D01*
X224187927Y-143027448D01*
X223847172Y-142982406D01*
X223503683Y-142976234D01*
X223160796Y-143009241D01*
X222821843Y-143081736D01*
X222490159Y-143194027D01*
X222267018Y-143295003D01*
X221954285Y-143475121D01*
X221668823Y-143687037D01*
X221412266Y-143928862D01*
X221186249Y-144198707D01*
X220992405Y-144494683D01*
X220832369Y-144814900D01*
X220737822Y-145062905D01*
X220675847Y-145268094D01*
X220632516Y-145462686D01*
X220605591Y-145661165D01*
X220592832Y-145878014D01*
X220591042Y-146012866D01*
X219451377Y-146012866D01*
X219439377Y-145744747D01*
X219394574Y-145379684D01*
X219349212Y-145149246D01*
X219232049Y-144730024D01*
X219079070Y-144330053D01*
X218892174Y-143951112D01*
X218673257Y-143594982D01*
X218424218Y-143263442D01*
X218146955Y-142958271D01*
X217843367Y-142681251D01*
X217515351Y-142434160D01*
X217164805Y-142218778D01*
X216793628Y-142036886D01*
X216403718Y-141890263D01*
X215996973Y-141780689D01*
X215698917Y-141726346D01*
X215398362Y-141696493D01*
X215076597Y-141690404D01*
X214746948Y-141707362D01*
X214422741Y-141746651D01*
X214117304Y-141807554D01*
X214097816Y-141812396D01*
X213694751Y-141935388D01*
X213308311Y-142096372D01*
X212940713Y-142293535D01*
X212594177Y-142525060D01*
X212270921Y-142789134D01*
X211973163Y-143083941D01*
X211703122Y-143407669D01*
X211463016Y-143758501D01*
X211255063Y-144134623D01*
X211252608Y-144139616D01*
X211093094Y-144496837D01*
X210969011Y-144849466D01*
X210878037Y-145206792D01*
X210817852Y-145578104D01*
X210786134Y-145972691D01*
X210784473Y-146012866D01*
X209719334Y-146012866D01*
X209719334Y-134572283D01*
X211701024Y-134572283D01*
X211720091Y-134936442D01*
X211777495Y-135282801D01*
X211873540Y-135612088D01*
X212008528Y-135925032D01*
X212182764Y-136222360D01*
X212396550Y-136504800D01*
X212596505Y-136720768D01*
X212869020Y-136963795D01*
X213159310Y-137168459D01*
X213468134Y-137335155D01*
X213796251Y-137464282D01*
X214144420Y-137556238D01*
X214216053Y-137570118D01*
X214367480Y-137589986D01*
X214546503Y-137601026D01*
X214740579Y-137603484D01*
X214937166Y-137597612D01*
X215123723Y-137583655D01*
X215287707Y-137561865D01*
X215360250Y-137547438D01*
X215605116Y-137483059D01*
X215826625Y-137406400D01*
X216043379Y-137310797D01*
X216101798Y-137281737D01*
X216414187Y-137099928D01*
X216698605Y-136886792D01*
X216953577Y-136644022D01*
X217177627Y-136373307D01*
X217369280Y-136076338D01*
X217527061Y-135754806D01*
X217599973Y-135564935D01*
X217649030Y-135418410D01*
X217686462Y-135290333D01*
X217713736Y-135170825D01*
X217732317Y-135050009D01*
X217743672Y-134918007D01*
X217749269Y-134764939D01*
X217750574Y-134580928D01*
X217750494Y-134551116D01*
X217749683Y-134400592D01*
X217747916Y-134283818D01*
X217744363Y-134192212D01*
X217738195Y-134117191D01*
X217728581Y-134050172D01*
X217714693Y-133982572D01*
X217695700Y-133905810D01*
X217683694Y-133860037D01*
X217569001Y-133503888D01*
X217420503Y-133172186D01*
X217239688Y-132866359D01*
X217028046Y-132587834D01*
X216787065Y-132338038D01*
X216518234Y-132118399D01*
X216223043Y-131930343D01*
X215902981Y-131775298D01*
X215559535Y-131654691D01*
X215320119Y-131594508D01*
X215186186Y-131572779D01*
X215023651Y-131557176D01*
X214844633Y-131547921D01*
X214661252Y-131545235D01*
X214485627Y-131549340D01*
X214329877Y-131560458D01*
X214227834Y-131574532D01*
X213878682Y-131659170D01*
X213545187Y-131781406D01*
X213230165Y-131939118D01*
X212936432Y-132130184D01*
X212666805Y-132352481D01*
X212424099Y-132603888D01*
X212211131Y-132882282D01*
X212030717Y-133185541D01*
X211994814Y-133257157D01*
X211874997Y-133535239D01*
X211788284Y-133810591D01*
X211732348Y-134093636D01*
X211704860Y-134394796D01*
X211701024Y-134572283D01*
X209719334Y-134572283D01*
X209719334Y-122478865D01*
X210993695Y-122478865D01*
X211005658Y-122747647D01*
X211032443Y-122998396D01*
X211075638Y-123242446D01*
X211136831Y-123491129D01*
X211214241Y-123745533D01*
X211364544Y-124139149D01*
X211550479Y-124515285D01*
X211769574Y-124871316D01*
X212019356Y-125204615D01*
X212297353Y-125512555D01*
X212601093Y-125792511D01*
X212928102Y-126041856D01*
X213275909Y-126257964D01*
X213642040Y-126438209D01*
X213815084Y-126508036D01*
X214220740Y-126639807D01*
X214628048Y-126730789D01*
X215034877Y-126780686D01*
X215439097Y-126789202D01*
X215712549Y-126771087D01*
X216123937Y-126710476D01*
X216516261Y-126614090D01*
X216895656Y-126480168D01*
X217187374Y-126348115D01*
X217569223Y-126135745D01*
X217922220Y-125892427D01*
X218246016Y-125618510D01*
X218540267Y-125314345D01*
X218804625Y-124980279D01*
X219038743Y-124616663D01*
X219192883Y-124327616D01*
X219344151Y-123989720D01*
X219463813Y-123654201D01*
X219556292Y-123307068D01*
X219618611Y-122981440D01*
X219635993Y-122837857D01*
X219648070Y-122663265D01*
X219654842Y-122468650D01*
X219656311Y-122265004D01*
X219652475Y-122063315D01*
X219644057Y-121889473D01*
X220589056Y-121889473D01*
X220597699Y-122110895D01*
X220618993Y-122315986D01*
X220639484Y-122433200D01*
X220730963Y-122780943D01*
X220853771Y-123101963D01*
X221010001Y-123400151D01*
X221201747Y-123679400D01*
X221431101Y-123943603D01*
X221476522Y-123989844D01*
X221747211Y-124233008D01*
X222034470Y-124437367D01*
X222339391Y-124603514D01*
X222663066Y-124732044D01*
X223003946Y-124823006D01*
X223112875Y-124845225D01*
X223200445Y-124861285D01*
X223277079Y-124871998D01*
X223353202Y-124878178D01*
X223439239Y-124880637D01*
X223545612Y-124880188D01*
X223682747Y-124877644D01*
X223699917Y-124877277D01*
X223909373Y-124868860D01*
X224082740Y-124853139D01*
X224225715Y-124829591D01*
X224229084Y-124828869D01*
X224580917Y-124732061D01*
X224913420Y-124598473D01*
X225224487Y-124429731D01*
X225512011Y-124227457D01*
X225773884Y-123993276D01*
X226008002Y-123728812D01*
X226212256Y-123435690D01*
X226344708Y-123197766D01*
X226409183Y-123054022D01*
X226473582Y-122883410D01*
X226532988Y-122701117D01*
X226582481Y-122522331D01*
X226617144Y-122362238D01*
X226619230Y-122350095D01*
X226638317Y-122193268D01*
X226649149Y-122009687D01*
X226651725Y-121814116D01*
X226646045Y-121621321D01*
X226632109Y-121446067D01*
X226619230Y-121352138D01*
X226542335Y-121018339D01*
X226426086Y-120691894D01*
X226273432Y-120378557D01*
X226087323Y-120084089D01*
X225870708Y-119814245D01*
X225784834Y-119723231D01*
X225518170Y-119481971D01*
X225230075Y-119276324D01*
X224923174Y-119107325D01*
X224600092Y-118976013D01*
X224263455Y-118883423D01*
X223915889Y-118830592D01*
X223560019Y-118818557D01*
X223498834Y-118820645D01*
X223135994Y-118856348D01*
X222790200Y-118930797D01*
X222461383Y-119044024D01*
X222149474Y-119196060D01*
X221854405Y-119386934D01*
X221576107Y-119616676D01*
X221476522Y-119712388D01*
X221240359Y-119974266D01*
X221041906Y-120251022D01*
X220879135Y-120546428D01*
X220750016Y-120864257D01*
X220652521Y-121208280D01*
X220639075Y-121269033D01*
X220609738Y-121454361D01*
X220593067Y-121665901D01*
X220589056Y-121889473D01*
X219644057Y-121889473D01*
X219643335Y-121874571D01*
X219628892Y-121709764D01*
X219618584Y-121632642D01*
X219529082Y-121190968D01*
X219401763Y-120767066D01*
X219237127Y-120362091D01*
X219035675Y-119977200D01*
X218797908Y-119613547D01*
X218672482Y-119448700D01*
X218586729Y-119347602D01*
X218479001Y-119230294D01*
X218357751Y-119105149D01*
X218231427Y-118980536D01*
X218108482Y-118864826D01*
X217997365Y-118766389D01*
X217921417Y-118704747D01*
X217570789Y-118463682D01*
X217198931Y-118258182D01*
X216809378Y-118089673D01*
X216405666Y-117959580D01*
X215991330Y-117869330D01*
X215773962Y-117838746D01*
X215613044Y-117826317D01*
X215424106Y-117821424D01*
X215219975Y-117823624D01*
X215013479Y-117832480D01*
X214817445Y-117847551D01*
X214644702Y-117868396D01*
X214576571Y-117879807D01*
X214166045Y-117977758D01*
X213770797Y-118113984D01*
X213392952Y-118286526D01*
X213034636Y-118493421D01*
X212697974Y-118732706D01*
X212385093Y-119002421D01*
X212098117Y-119300603D01*
X211839172Y-119625291D01*
X211610385Y-119974522D01*
X211413880Y-120346335D01*
X211251784Y-120738767D01*
X211156666Y-121036200D01*
X211105474Y-121228237D01*
X211066225Y-121402707D01*
X211037260Y-121571358D01*
X211016919Y-121745939D01*
X211003541Y-121938201D01*
X210995466Y-122159890D01*
X210994965Y-122180716D01*
X210993695Y-122478865D01*
X209719334Y-122478865D01*
X209719334Y-110421116D01*
X211701024Y-110421116D01*
X211713366Y-110731857D01*
X211752066Y-111019103D01*
X211819637Y-111294338D01*
X211918590Y-111569044D01*
X211985004Y-111719173D01*
X212139589Y-112002217D01*
X212330505Y-112273217D01*
X212552241Y-112526535D01*
X212799282Y-112756535D01*
X213066115Y-112957578D01*
X213347227Y-113124029D01*
X213370584Y-113135890D01*
X213565209Y-113223009D01*
X213781326Y-113301860D01*
X214004652Y-113368154D01*
X214220901Y-113417602D01*
X214397167Y-113444105D01*
X214524323Y-113452356D01*
X214677407Y-113454844D01*
X214840630Y-113451929D01*
X214998205Y-113443971D01*
X215134343Y-113431328D01*
X215169750Y-113426511D01*
X215520099Y-113353243D01*
X215853701Y-113242302D01*
X216168351Y-113095773D01*
X216461842Y-112915740D01*
X216731968Y-112704289D01*
X216976521Y-112463505D01*
X217193296Y-112195472D01*
X217380087Y-111902275D01*
X217534686Y-111586000D01*
X217654886Y-111248731D01*
X217712531Y-111023798D01*
X217731159Y-110907102D01*
X217744382Y-110759058D01*
X217752200Y-110590305D01*
X217754613Y-110411482D01*
X217751622Y-110233227D01*
X217743226Y-110066179D01*
X217729426Y-109920977D01*
X217712531Y-109818435D01*
X217615500Y-109469696D01*
X217482504Y-109140442D01*
X217315814Y-108832760D01*
X217117700Y-108548740D01*
X216890436Y-108290470D01*
X216636291Y-108060039D01*
X216357538Y-107859537D01*
X216056448Y-107691052D01*
X215735292Y-107556673D01*
X215396342Y-107458489D01*
X215087057Y-107403924D01*
X214807798Y-107385307D01*
X214511815Y-107395311D01*
X214212170Y-107432480D01*
X213921927Y-107495356D01*
X213726205Y-107555693D01*
X213411530Y-107688379D01*
X213112044Y-107857512D01*
X212831855Y-108059395D01*
X212575071Y-108290330D01*
X212345798Y-108546619D01*
X212148145Y-108824566D01*
X211986219Y-109120471D01*
X211985004Y-109123060D01*
X211868301Y-109402174D01*
X211784320Y-109675698D01*
X211730548Y-109955114D01*
X211704473Y-110251906D01*
X211701024Y-110421116D01*
X209719334Y-110421116D01*
X209719334Y-98509213D01*
X210907392Y-98509213D01*
X210909919Y-98715397D01*
X210920161Y-98897940D01*
X210924125Y-98939749D01*
X210990455Y-99379639D01*
X211095343Y-99805240D01*
X211237848Y-100214493D01*
X211417025Y-100605336D01*
X211631931Y-100975711D01*
X211881621Y-101323557D01*
X212163089Y-101644678D01*
X212480393Y-101944277D01*
X212817367Y-102206419D01*
X213174330Y-102431302D01*
X213551598Y-102619121D01*
X213949490Y-102770070D01*
X214037334Y-102797598D01*
X214185527Y-102837748D01*
X214360039Y-102877716D01*
X214544956Y-102914385D01*
X214724366Y-102944637D01*
X214882355Y-102965353D01*
X214905167Y-102967630D01*
X215001837Y-102972735D01*
X215129544Y-102973738D01*
X215277238Y-102971086D01*
X215433868Y-102965227D01*
X215588382Y-102956607D01*
X215729730Y-102945673D01*
X215846861Y-102932873D01*
X215878834Y-102928235D01*
X216292465Y-102841962D01*
X216691310Y-102717102D01*
X217073289Y-102555449D01*
X217436324Y-102358795D01*
X217778334Y-102128936D01*
X218097241Y-101867664D01*
X218390964Y-101576774D01*
X218657426Y-101258059D01*
X218894547Y-100913313D01*
X219100248Y-100544329D01*
X219272449Y-100152903D01*
X219350710Y-99933033D01*
X219469443Y-99504472D01*
X219546641Y-99072346D01*
X219582453Y-98638898D01*
X219577031Y-98206369D01*
X219530526Y-97777003D01*
X219526911Y-97759473D01*
X220589056Y-97759473D01*
X220597699Y-97980895D01*
X220618993Y-98185986D01*
X220639484Y-98303200D01*
X220730845Y-98650549D01*
X220853516Y-98971240D01*
X221009681Y-99269332D01*
X221201523Y-99548889D01*
X221431225Y-99813970D01*
X221476696Y-99860396D01*
X221746566Y-100103180D01*
X222034032Y-100307537D01*
X222339852Y-100473880D01*
X222664781Y-100602620D01*
X223003946Y-100693006D01*
X223112875Y-100715225D01*
X223200445Y-100731285D01*
X223277079Y-100741998D01*
X223353202Y-100748178D01*
X223439239Y-100750637D01*
X223545612Y-100750188D01*
X223682747Y-100747644D01*
X223699917Y-100747277D01*
X223909373Y-100738860D01*
X224082740Y-100723139D01*
X224225715Y-100699591D01*
X224229084Y-100698869D01*
X224580925Y-100602218D01*
X224912582Y-100469417D01*
X225222044Y-100302264D01*
X225507300Y-100102554D01*
X225766341Y-99872084D01*
X225997157Y-99612650D01*
X226197736Y-99326050D01*
X226366069Y-99014078D01*
X226500145Y-98678532D01*
X226504451Y-98665600D01*
X226571772Y-98437350D01*
X226617183Y-98220288D01*
X226643255Y-97998043D01*
X226652555Y-97754243D01*
X226652667Y-97721116D01*
X226645300Y-97473431D01*
X226621487Y-97249369D01*
X226578658Y-97032556D01*
X226514244Y-96806621D01*
X226504451Y-96776633D01*
X226371847Y-96440769D01*
X226204847Y-96128243D01*
X226005503Y-95840861D01*
X225775871Y-95580432D01*
X225518002Y-95348761D01*
X225233951Y-95147657D01*
X224925771Y-94978927D01*
X224595515Y-94844378D01*
X224245237Y-94745818D01*
X224181880Y-94732374D01*
X224037322Y-94711079D01*
X223863491Y-94697982D01*
X223672624Y-94692968D01*
X223476957Y-94695925D01*
X223288727Y-94706737D01*
X223120170Y-94725291D01*
X223018596Y-94743220D01*
X222668055Y-94838380D01*
X222341814Y-94967697D01*
X222037473Y-95132477D01*
X221752632Y-95334024D01*
X221484891Y-95573644D01*
X221476696Y-95581837D01*
X221240944Y-95843483D01*
X221043183Y-96118650D01*
X220881119Y-96411605D01*
X220752458Y-96726615D01*
X220654903Y-97067944D01*
X220639075Y-97139033D01*
X220609738Y-97324361D01*
X220593067Y-97535901D01*
X220589056Y-97759473D01*
X219526911Y-97759473D01*
X219443087Y-97353041D01*
X219314866Y-96936726D01*
X219146014Y-96530301D01*
X219118147Y-96472283D01*
X218909896Y-96092463D01*
X218670085Y-95738819D01*
X218400802Y-95412957D01*
X218104134Y-95116487D01*
X217782169Y-94851015D01*
X217436994Y-94618150D01*
X217070697Y-94419500D01*
X216685365Y-94256672D01*
X216283086Y-94131275D01*
X215995763Y-94067236D01*
X215846137Y-94045018D01*
X215666965Y-94027686D01*
X215470568Y-94015664D01*
X215269269Y-94009376D01*
X215075392Y-94009247D01*
X214901259Y-94015702D01*
X214786932Y-94025596D01*
X214366939Y-94095755D01*
X213962031Y-94204364D01*
X213574022Y-94349675D01*
X213204725Y-94529937D01*
X212855954Y-94743402D01*
X212529523Y-94988321D01*
X212227247Y-95262945D01*
X211950939Y-95565523D01*
X211702413Y-95894308D01*
X211483482Y-96247550D01*
X211295962Y-96623500D01*
X211141665Y-97020409D01*
X211022406Y-97436527D01*
X210965586Y-97710533D01*
X210941677Y-97880049D01*
X210923714Y-98078416D01*
X210912138Y-98292512D01*
X210907392Y-98509213D01*
X209719334Y-98509213D01*
X209719334Y-86289181D01*
X211699824Y-86289181D01*
X211704124Y-86487066D01*
X211717192Y-86671324D01*
X211739029Y-86828193D01*
X211739538Y-86830866D01*
X211827281Y-87183752D01*
X211951439Y-87515175D01*
X212112526Y-87826107D01*
X212311056Y-88117520D01*
X212547545Y-88390384D01*
X212586394Y-88429844D01*
X212855532Y-88671482D01*
X213141849Y-88875058D01*
X213446890Y-89041320D01*
X213772196Y-89171018D01*
X214119312Y-89264901D01*
X214407750Y-89313951D01*
X214497560Y-89321194D01*
X214616376Y-89324629D01*
X214751054Y-89324420D01*
X214888453Y-89320732D01*
X215015432Y-89313730D01*
X215106250Y-89305187D01*
X215448367Y-89242296D01*
X215782341Y-89138623D01*
X216105466Y-88995369D01*
X216415033Y-88813732D01*
X216708334Y-88594915D01*
X216708539Y-88594744D01*
X216944501Y-88371389D01*
X217157292Y-88115896D01*
X217343911Y-87833346D01*
X217501362Y-87528816D01*
X217626647Y-87207387D01*
X217712531Y-86893798D01*
X217731159Y-86777102D01*
X217744382Y-86629058D01*
X217752200Y-86460305D01*
X217754613Y-86281482D01*
X217751622Y-86103227D01*
X217743226Y-85936179D01*
X217729426Y-85790977D01*
X217712531Y-85688435D01*
X217615618Y-85339916D01*
X217482637Y-85010204D01*
X217315763Y-84701588D01*
X217117173Y-84416357D01*
X216889041Y-84156803D01*
X216633544Y-83925214D01*
X216352856Y-83723881D01*
X216049154Y-83555094D01*
X215724613Y-83421143D01*
X215491636Y-83350735D01*
X215153601Y-83284431D01*
X214806776Y-83257168D01*
X214457745Y-83268637D01*
X214113093Y-83318531D01*
X213779404Y-83406543D01*
X213698667Y-83434393D01*
X213374591Y-83573767D01*
X213072046Y-83748186D01*
X212793254Y-83955022D01*
X212540438Y-84191645D01*
X212315821Y-84455428D01*
X212121625Y-84743741D01*
X211960073Y-85053956D01*
X211833388Y-85383444D01*
X211743792Y-85729576D01*
X211739538Y-85751366D01*
X211717531Y-85907570D01*
X211704293Y-86091428D01*
X211699824Y-86289181D01*
X209719334Y-86289181D01*
X209719334Y-66632749D01*
X215632222Y-66632749D01*
X215654003Y-66885053D01*
X215718016Y-67139659D01*
X215721964Y-67151395D01*
X215820433Y-67378457D01*
X215951758Y-67583876D01*
X216111693Y-67765146D01*
X216295991Y-67919759D01*
X216500405Y-68045210D01*
X216720690Y-68138992D01*
X216952599Y-68198599D01*
X217191885Y-68221523D01*
X217434301Y-68205258D01*
X217490930Y-68195543D01*
X217749368Y-68125864D01*
X217985091Y-68021112D01*
X218196335Y-67882641D01*
X218381336Y-67711804D01*
X218538332Y-67509956D01*
X218654489Y-67302339D01*
X218718578Y-67153155D01*
X218761858Y-67015584D01*
X218787003Y-66875788D01*
X218796684Y-66719929D01*
X218795092Y-66574366D01*
X218789624Y-66451528D01*
X218781107Y-66357069D01*
X218767258Y-66277045D01*
X218745795Y-66197508D01*
X218721426Y-66124337D01*
X218655728Y-65957906D01*
X218581142Y-65816309D01*
X218488764Y-65685386D01*
X218369688Y-65550974D01*
X218344750Y-65525336D01*
X218164505Y-65363772D01*
X217974331Y-65238024D01*
X217763963Y-65141579D01*
X217709750Y-65122211D01*
X217618285Y-65094179D01*
X217530499Y-65075326D01*
X217431837Y-65063352D01*
X217307744Y-65055958D01*
X217284790Y-65055055D01*
X217073187Y-65056993D01*
X216884070Y-65081959D01*
X216702530Y-65133133D01*
X216513660Y-65213696D01*
X216492667Y-65224055D01*
X216339140Y-65317129D01*
X216184793Y-65440150D01*
X216040029Y-65582859D01*
X215915251Y-65734995D01*
X215820859Y-65886299D01*
X215820484Y-65887029D01*
X215715443Y-66133999D01*
X215652696Y-66382485D01*
X215632222Y-66632749D01*
X209719334Y-66632749D01*
X209719334Y-63632200D01*
X229721834Y-63632200D01*
X229721834Y-192135033D01*
G37*
X229721834Y-192135033D02*
X209719334Y-192135033D01*
X209719334Y-189139950D01*
X215638407Y-189139950D01*
X215658058Y-189399096D01*
X215716865Y-189642156D01*
X215814854Y-189869193D01*
X215952048Y-190080270D01*
X216054676Y-190200869D01*
X216232546Y-190370157D01*
X216418115Y-190502578D01*
X216620338Y-190603579D01*
X216833703Y-190674765D01*
X216987993Y-190703165D01*
X217165729Y-190714589D01*
X217351805Y-190709546D01*
X217531116Y-190688547D01*
X217688554Y-190652101D01*
X217709750Y-190645197D01*
X217926741Y-190554469D01*
X218120903Y-190436120D01*
X218302595Y-190283570D01*
X218344750Y-190241896D01*
X218469581Y-190105346D01*
X218566095Y-189974850D01*
X218643181Y-189836270D01*
X218709729Y-189675467D01*
X218721336Y-189642895D01*
X218767416Y-189467772D01*
X218794127Y-189270617D01*
X218800565Y-189067493D01*
X218785828Y-188874462D01*
X218769628Y-188783997D01*
X218696125Y-188548773D01*
X218585544Y-188328007D01*
X218441994Y-188126374D01*
X218269583Y-187948544D01*
X218072420Y-187799192D01*
X217854613Y-187682990D01*
X217773036Y-187650569D01*
X217518219Y-187577833D01*
X217268632Y-187546946D01*
X217022608Y-187557989D01*
X216778481Y-187611041D01*
X216534583Y-187706184D01*
X216524417Y-187711055D01*
X216305235Y-187840007D01*
X216110841Y-188002365D01*
X215943949Y-188195413D01*
X215807274Y-188416433D01*
X215794640Y-188441450D01*
X215720174Y-188612918D01*
X215671577Y-188779551D01*
X215645469Y-188956454D01*
X215638407Y-189139950D01*
X209719334Y-189139950D01*
X209719334Y-170341155D01*
X211074000Y-170341155D01*
X211082161Y-170657903D01*
X211108197Y-170950349D01*
X211154439Y-171233024D01*
X211223217Y-171520461D01*
X211307968Y-171800290D01*
X211460598Y-172199682D01*
X211648514Y-172578808D01*
X211869561Y-172935627D01*
X212121582Y-173268094D01*
X212402418Y-173574169D01*
X212709915Y-173851809D01*
X213041914Y-174098972D01*
X213396259Y-174313615D01*
X213770793Y-174493697D01*
X214163358Y-174637173D01*
X214364256Y-174694168D01*
X214478786Y-174721881D01*
X214597940Y-174747830D01*
X214704429Y-174768377D01*
X214757000Y-174776875D01*
X214842108Y-174789132D01*
X214916984Y-174800233D01*
X214966368Y-174807914D01*
X214968667Y-174808297D01*
X215030861Y-174813890D01*
X215127069Y-174816582D01*
X215249093Y-174816653D01*
X215388732Y-174814386D01*
X215537789Y-174810062D01*
X215688063Y-174803963D01*
X215831356Y-174796370D01*
X215959468Y-174787566D01*
X216064200Y-174777832D01*
X216132834Y-174768301D01*
X216547062Y-174671312D01*
X216946464Y-174535583D01*
X217328756Y-174362808D01*
X217691657Y-174154680D01*
X218032883Y-173912893D01*
X218350152Y-173639138D01*
X218641182Y-173335109D01*
X218903689Y-173002499D01*
X219135392Y-172643001D01*
X219229891Y-172471200D01*
X219411371Y-172079918D01*
X219553441Y-171679487D01*
X219656760Y-171272528D01*
X219721987Y-170861663D01*
X219749783Y-170449512D01*
X219743222Y-170149253D01*
X220590511Y-170149253D01*
X220595281Y-170343223D01*
X220608415Y-170522945D01*
X220629378Y-170672033D01*
X220717382Y-171025965D01*
X220843075Y-171360903D01*
X221006047Y-171676040D01*
X221205885Y-171970572D01*
X221424500Y-172225333D01*
X221690216Y-172474951D01*
X221974824Y-172686860D01*
X222279276Y-172861568D01*
X222604523Y-172999581D01*
X222951516Y-173101406D01*
X223139000Y-173139894D01*
X223250891Y-173153346D01*
X223393767Y-173161012D01*
X223556722Y-173163189D01*
X223728846Y-173160174D01*
X223899233Y-173152267D01*
X224056974Y-173139763D01*
X224191162Y-173122962D01*
X224263576Y-173109191D01*
X224615087Y-173007614D01*
X224943055Y-172871079D01*
X225249000Y-172698751D01*
X225534438Y-172489789D01*
X225763892Y-172280925D01*
X226005913Y-172009613D01*
X226212142Y-171715982D01*
X226381745Y-171401566D01*
X226513885Y-171067902D01*
X226603737Y-170735533D01*
X226617822Y-170659847D01*
X226628068Y-170579114D01*
X226634943Y-170485347D01*
X226638916Y-170370562D01*
X226640455Y-170226773D01*
X226640361Y-170111116D01*
X226639501Y-169960511D01*
X226637688Y-169843648D01*
X226634093Y-169751935D01*
X226627883Y-169676780D01*
X226618229Y-169609592D01*
X226604300Y-169541778D01*
X226585266Y-169464748D01*
X226573561Y-169420037D01*
X226459428Y-169066031D01*
X226310980Y-168735713D01*
X226129894Y-168430653D01*
X225917847Y-168152421D01*
X225676513Y-167902588D01*
X225407570Y-167682723D01*
X225112694Y-167494398D01*
X224793561Y-167339181D01*
X224451848Y-167218645D01*
X224144417Y-167144537D01*
X224001488Y-167124343D01*
X223830594Y-167111786D01*
X223644808Y-167106857D01*
X223457204Y-167109547D01*
X223280854Y-167119848D01*
X223128830Y-167137753D01*
X223086851Y-167145206D01*
X222733027Y-167235456D01*
X222398604Y-167361830D01*
X222085637Y-167522259D01*
X221796185Y-167714674D01*
X221532303Y-167937007D01*
X221296050Y-168187189D01*
X221089480Y-168463151D01*
X220914652Y-168762825D01*
X220773622Y-169084142D01*
X220668447Y-169425032D01*
X220626732Y-169619551D01*
X220606202Y-169773649D01*
X220594140Y-169954806D01*
X220590511Y-170149253D01*
X219743222Y-170149253D01*
X219740805Y-170038699D01*
X219695713Y-169631844D01*
X219615168Y-169231570D01*
X219499827Y-168840497D01*
X219350350Y-168461248D01*
X219167397Y-168096445D01*
X218951626Y-167748709D01*
X218703697Y-167420661D01*
X218424270Y-167114924D01*
X218114003Y-166834120D01*
X217773556Y-166580869D01*
X217743635Y-166560953D01*
X217376660Y-166343547D01*
X216995719Y-166165580D01*
X216603088Y-166027396D01*
X216201041Y-165929339D01*
X215791852Y-165871753D01*
X215377797Y-165854982D01*
X214961151Y-165879371D01*
X214544187Y-165945263D01*
X214215308Y-166027106D01*
X213839176Y-166157642D01*
X213473203Y-166327102D01*
X213121312Y-166532538D01*
X212787425Y-166771001D01*
X212475465Y-167039543D01*
X212189352Y-167335218D01*
X211933008Y-167655077D01*
X211809067Y-167835700D01*
X211585884Y-168217899D01*
X211402922Y-168613291D01*
X211260218Y-169021747D01*
X211157810Y-169443141D01*
X211095734Y-169877345D01*
X211074028Y-170324232D01*
X211074000Y-170341155D01*
X209719334Y-170341155D01*
X209719334Y-157233584D01*
X211924701Y-157233584D01*
X211942595Y-157575877D01*
X211998644Y-157913869D01*
X212092581Y-158240604D01*
X212227893Y-158562931D01*
X212397122Y-158863396D01*
X212597315Y-159140120D01*
X212825520Y-159391223D01*
X213078784Y-159614825D01*
X213354154Y-159809048D01*
X213648680Y-159972011D01*
X213959406Y-160101835D01*
X214283382Y-160196641D01*
X214617655Y-160254549D01*
X214959273Y-160273679D01*
X215260543Y-160257275D01*
X215615299Y-160198601D01*
X215956835Y-160100604D01*
X216282426Y-159964972D01*
X216589348Y-159793391D01*
X216874879Y-159587550D01*
X217136293Y-159349138D01*
X217370867Y-159079841D01*
X217534028Y-158848533D01*
X217641316Y-158659761D01*
X217742559Y-158441217D01*
X217832807Y-158205447D01*
X217907112Y-157964998D01*
X217946546Y-157802700D01*
X217965636Y-157679958D01*
X217978677Y-157526809D01*
X217985678Y-157354589D01*
X217986652Y-157174633D01*
X217981608Y-156998278D01*
X217970556Y-156836861D01*
X217953509Y-156701719D01*
X217945479Y-156659700D01*
X217847930Y-156302228D01*
X217715179Y-155965787D01*
X217548702Y-155652257D01*
X217349973Y-155363518D01*
X217120466Y-155101450D01*
X216861657Y-154867935D01*
X216575020Y-154664852D01*
X216262030Y-154494081D01*
X216238663Y-154483151D01*
X216021625Y-154389682D01*
X215819739Y-154319113D01*
X215620385Y-154268526D01*
X215410940Y-154235001D01*
X215178784Y-154215620D01*
X215060343Y-154210632D01*
X214835618Y-154207980D01*
X214639186Y-154216611D01*
X214458090Y-154238289D01*
X214279374Y-154274779D01*
X214090081Y-154327848D01*
X214009397Y-154353816D01*
X213674358Y-154485350D01*
X213365594Y-154649493D01*
X213082013Y-154847101D01*
X212822522Y-155079028D01*
X212586029Y-155346129D01*
X212388977Y-155621882D01*
X212224060Y-155915276D01*
X212094642Y-156227836D01*
X212001256Y-156554870D01*
X211944431Y-156891684D01*
X211924701Y-157233584D01*
X209719334Y-157233584D01*
X209719334Y-146012866D01*
X210784473Y-146012866D01*
X210788228Y-146441605D01*
X210831331Y-146862533D01*
X210912194Y-147273317D01*
X211029228Y-147671628D01*
X211180845Y-148055134D01*
X211365457Y-148421504D01*
X211581474Y-148768407D01*
X211827309Y-149093512D01*
X212101372Y-149394488D01*
X212402076Y-149669004D01*
X212727831Y-149914728D01*
X213077049Y-150129330D01*
X213448142Y-150310478D01*
X213804500Y-150444608D01*
X214206964Y-150556311D01*
X214605152Y-150627159D01*
X215004104Y-150657593D01*
X215408854Y-150648056D01*
X215729945Y-150613422D01*
X216135742Y-150534518D01*
X216528102Y-150416773D01*
X216904960Y-150262126D01*
X217264248Y-150072515D01*
X217603900Y-149849878D01*
X217921850Y-149596152D01*
X218216030Y-149313275D01*
X218484375Y-149003186D01*
X218724816Y-148667821D01*
X218935289Y-148309120D01*
X219113725Y-147929020D01*
X219258059Y-147529458D01*
X219340391Y-147227913D01*
X219406774Y-146875817D01*
X219445430Y-146503880D01*
X219456313Y-146123168D01*
X219451377Y-146012866D01*
X220591042Y-146012866D01*
X220605887Y-146342027D01*
X220652193Y-146650117D01*
X220732244Y-146946736D01*
X220848323Y-147241484D01*
X220917354Y-147384813D01*
X221096204Y-147690714D01*
X221307604Y-147971325D01*
X221548658Y-148224505D01*
X221816472Y-148448109D01*
X222108150Y-148639995D01*
X222420797Y-148798020D01*
X222751518Y-148920041D01*
X223097416Y-149003915D01*
X223107250Y-149005686D01*
X223229645Y-149021437D01*
X223381541Y-149031738D01*
X223550455Y-149036552D01*
X223723903Y-149035845D01*
X223889402Y-149029580D01*
X224034467Y-149017721D01*
X224102715Y-149008529D01*
X224417849Y-148940241D01*
X224720256Y-148838233D01*
X224915426Y-148752337D01*
X225236313Y-148576592D01*
X225526773Y-148371414D01*
X225786863Y-148136751D01*
X226016637Y-147872547D01*
X226216151Y-147578747D01*
X226345811Y-147339250D01*
X226461661Y-147079773D01*
X226547577Y-146832142D01*
X226605878Y-146585313D01*
X226638884Y-146328242D01*
X226648912Y-146049884D01*
X226646329Y-145907996D01*
X226626286Y-145614004D01*
X226584752Y-145346178D01*
X226518913Y-145092691D01*
X226425953Y-144841716D01*
X226355499Y-144686405D01*
X226227760Y-144455267D01*
X226068866Y-144222204D01*
X225887454Y-143997752D01*
X225692160Y-143792447D01*
X225491622Y-143616828D01*
X225456932Y-143590157D01*
X225160451Y-143392716D01*
X224847901Y-143232912D01*
X224522615Y-143111053D01*
X224187927Y-143027448D01*
X223847172Y-142982406D01*
X223503683Y-142976234D01*
X223160796Y-143009241D01*
X222821843Y-143081736D01*
X222490159Y-143194027D01*
X222267018Y-143295003D01*
X221954285Y-143475121D01*
X221668823Y-143687037D01*
X221412266Y-143928862D01*
X221186249Y-144198707D01*
X220992405Y-144494683D01*
X220832369Y-144814900D01*
X220737822Y-145062905D01*
X220675847Y-145268094D01*
X220632516Y-145462686D01*
X220605591Y-145661165D01*
X220592832Y-145878014D01*
X220591042Y-146012866D01*
X219451377Y-146012866D01*
X219439377Y-145744747D01*
X219394574Y-145379684D01*
X219349212Y-145149246D01*
X219232049Y-144730024D01*
X219079070Y-144330053D01*
X218892174Y-143951112D01*
X218673257Y-143594982D01*
X218424218Y-143263442D01*
X218146955Y-142958271D01*
X217843367Y-142681251D01*
X217515351Y-142434160D01*
X217164805Y-142218778D01*
X216793628Y-142036886D01*
X216403718Y-141890263D01*
X215996973Y-141780689D01*
X215698917Y-141726346D01*
X215398362Y-141696493D01*
X215076597Y-141690404D01*
X214746948Y-141707362D01*
X214422741Y-141746651D01*
X214117304Y-141807554D01*
X214097816Y-141812396D01*
X213694751Y-141935388D01*
X213308311Y-142096372D01*
X212940713Y-142293535D01*
X212594177Y-142525060D01*
X212270921Y-142789134D01*
X211973163Y-143083941D01*
X211703122Y-143407669D01*
X211463016Y-143758501D01*
X211255063Y-144134623D01*
X211252608Y-144139616D01*
X211093094Y-144496837D01*
X210969011Y-144849466D01*
X210878037Y-145206792D01*
X210817852Y-145578104D01*
X210786134Y-145972691D01*
X210784473Y-146012866D01*
X209719334Y-146012866D01*
X209719334Y-134572283D01*
X211701024Y-134572283D01*
X211720091Y-134936442D01*
X211777495Y-135282801D01*
X211873540Y-135612088D01*
X212008528Y-135925032D01*
X212182764Y-136222360D01*
X212396550Y-136504800D01*
X212596505Y-136720768D01*
X212869020Y-136963795D01*
X213159310Y-137168459D01*
X213468134Y-137335155D01*
X213796251Y-137464282D01*
X214144420Y-137556238D01*
X214216053Y-137570118D01*
X214367480Y-137589986D01*
X214546503Y-137601026D01*
X214740579Y-137603484D01*
X214937166Y-137597612D01*
X215123723Y-137583655D01*
X215287707Y-137561865D01*
X215360250Y-137547438D01*
X215605116Y-137483059D01*
X215826625Y-137406400D01*
X216043379Y-137310797D01*
X216101798Y-137281737D01*
X216414187Y-137099928D01*
X216698605Y-136886792D01*
X216953577Y-136644022D01*
X217177627Y-136373307D01*
X217369280Y-136076338D01*
X217527061Y-135754806D01*
X217599973Y-135564935D01*
X217649030Y-135418410D01*
X217686462Y-135290333D01*
X217713736Y-135170825D01*
X217732317Y-135050009D01*
X217743672Y-134918007D01*
X217749269Y-134764939D01*
X217750574Y-134580928D01*
X217750494Y-134551116D01*
X217749683Y-134400592D01*
X217747916Y-134283818D01*
X217744363Y-134192212D01*
X217738195Y-134117191D01*
X217728581Y-134050172D01*
X217714693Y-133982572D01*
X217695700Y-133905810D01*
X217683694Y-133860037D01*
X217569001Y-133503888D01*
X217420503Y-133172186D01*
X217239688Y-132866359D01*
X217028046Y-132587834D01*
X216787065Y-132338038D01*
X216518234Y-132118399D01*
X216223043Y-131930343D01*
X215902981Y-131775298D01*
X215559535Y-131654691D01*
X215320119Y-131594508D01*
X215186186Y-131572779D01*
X215023651Y-131557176D01*
X214844633Y-131547921D01*
X214661252Y-131545235D01*
X214485627Y-131549340D01*
X214329877Y-131560458D01*
X214227834Y-131574532D01*
X213878682Y-131659170D01*
X213545187Y-131781406D01*
X213230165Y-131939118D01*
X212936432Y-132130184D01*
X212666805Y-132352481D01*
X212424099Y-132603888D01*
X212211131Y-132882282D01*
X212030717Y-133185541D01*
X211994814Y-133257157D01*
X211874997Y-133535239D01*
X211788284Y-133810591D01*
X211732348Y-134093636D01*
X211704860Y-134394796D01*
X211701024Y-134572283D01*
X209719334Y-134572283D01*
X209719334Y-122478865D01*
X210993695Y-122478865D01*
X211005658Y-122747647D01*
X211032443Y-122998396D01*
X211075638Y-123242446D01*
X211136831Y-123491129D01*
X211214241Y-123745533D01*
X211364544Y-124139149D01*
X211550479Y-124515285D01*
X211769574Y-124871316D01*
X212019356Y-125204615D01*
X212297353Y-125512555D01*
X212601093Y-125792511D01*
X212928102Y-126041856D01*
X213275909Y-126257964D01*
X213642040Y-126438209D01*
X213815084Y-126508036D01*
X214220740Y-126639807D01*
X214628048Y-126730789D01*
X215034877Y-126780686D01*
X215439097Y-126789202D01*
X215712549Y-126771087D01*
X216123937Y-126710476D01*
X216516261Y-126614090D01*
X216895656Y-126480168D01*
X217187374Y-126348115D01*
X217569223Y-126135745D01*
X217922220Y-125892427D01*
X218246016Y-125618510D01*
X218540267Y-125314345D01*
X218804625Y-124980279D01*
X219038743Y-124616663D01*
X219192883Y-124327616D01*
X219344151Y-123989720D01*
X219463813Y-123654201D01*
X219556292Y-123307068D01*
X219618611Y-122981440D01*
X219635993Y-122837857D01*
X219648070Y-122663265D01*
X219654842Y-122468650D01*
X219656311Y-122265004D01*
X219652475Y-122063315D01*
X219644057Y-121889473D01*
X220589056Y-121889473D01*
X220597699Y-122110895D01*
X220618993Y-122315986D01*
X220639484Y-122433200D01*
X220730963Y-122780943D01*
X220853771Y-123101963D01*
X221010001Y-123400151D01*
X221201747Y-123679400D01*
X221431101Y-123943603D01*
X221476522Y-123989844D01*
X221747211Y-124233008D01*
X222034470Y-124437367D01*
X222339391Y-124603514D01*
X222663066Y-124732044D01*
X223003946Y-124823006D01*
X223112875Y-124845225D01*
X223200445Y-124861285D01*
X223277079Y-124871998D01*
X223353202Y-124878178D01*
X223439239Y-124880637D01*
X223545612Y-124880188D01*
X223682747Y-124877644D01*
X223699917Y-124877277D01*
X223909373Y-124868860D01*
X224082740Y-124853139D01*
X224225715Y-124829591D01*
X224229084Y-124828869D01*
X224580917Y-124732061D01*
X224913420Y-124598473D01*
X225224487Y-124429731D01*
X225512011Y-124227457D01*
X225773884Y-123993276D01*
X226008002Y-123728812D01*
X226212256Y-123435690D01*
X226344708Y-123197766D01*
X226409183Y-123054022D01*
X226473582Y-122883410D01*
X226532988Y-122701117D01*
X226582481Y-122522331D01*
X226617144Y-122362238D01*
X226619230Y-122350095D01*
X226638317Y-122193268D01*
X226649149Y-122009687D01*
X226651725Y-121814116D01*
X226646045Y-121621321D01*
X226632109Y-121446067D01*
X226619230Y-121352138D01*
X226542335Y-121018339D01*
X226426086Y-120691894D01*
X226273432Y-120378557D01*
X226087323Y-120084089D01*
X225870708Y-119814245D01*
X225784834Y-119723231D01*
X225518170Y-119481971D01*
X225230075Y-119276324D01*
X224923174Y-119107325D01*
X224600092Y-118976013D01*
X224263455Y-118883423D01*
X223915889Y-118830592D01*
X223560019Y-118818557D01*
X223498834Y-118820645D01*
X223135994Y-118856348D01*
X222790200Y-118930797D01*
X222461383Y-119044024D01*
X222149474Y-119196060D01*
X221854405Y-119386934D01*
X221576107Y-119616676D01*
X221476522Y-119712388D01*
X221240359Y-119974266D01*
X221041906Y-120251022D01*
X220879135Y-120546428D01*
X220750016Y-120864257D01*
X220652521Y-121208280D01*
X220639075Y-121269033D01*
X220609738Y-121454361D01*
X220593067Y-121665901D01*
X220589056Y-121889473D01*
X219644057Y-121889473D01*
X219643335Y-121874571D01*
X219628892Y-121709764D01*
X219618584Y-121632642D01*
X219529082Y-121190968D01*
X219401763Y-120767066D01*
X219237127Y-120362091D01*
X219035675Y-119977200D01*
X218797908Y-119613547D01*
X218672482Y-119448700D01*
X218586729Y-119347602D01*
X218479001Y-119230294D01*
X218357751Y-119105149D01*
X218231427Y-118980536D01*
X218108482Y-118864826D01*
X217997365Y-118766389D01*
X217921417Y-118704747D01*
X217570789Y-118463682D01*
X217198931Y-118258182D01*
X216809378Y-118089673D01*
X216405666Y-117959580D01*
X215991330Y-117869330D01*
X215773962Y-117838746D01*
X215613044Y-117826317D01*
X215424106Y-117821424D01*
X215219975Y-117823624D01*
X215013479Y-117832480D01*
X214817445Y-117847551D01*
X214644702Y-117868396D01*
X214576571Y-117879807D01*
X214166045Y-117977758D01*
X213770797Y-118113984D01*
X213392952Y-118286526D01*
X213034636Y-118493421D01*
X212697974Y-118732706D01*
X212385093Y-119002421D01*
X212098117Y-119300603D01*
X211839172Y-119625291D01*
X211610385Y-119974522D01*
X211413880Y-120346335D01*
X211251784Y-120738767D01*
X211156666Y-121036200D01*
X211105474Y-121228237D01*
X211066225Y-121402707D01*
X211037260Y-121571358D01*
X211016919Y-121745939D01*
X211003541Y-121938201D01*
X210995466Y-122159890D01*
X210994965Y-122180716D01*
X210993695Y-122478865D01*
X209719334Y-122478865D01*
X209719334Y-110421116D01*
X211701024Y-110421116D01*
X211713366Y-110731857D01*
X211752066Y-111019103D01*
X211819637Y-111294338D01*
X211918590Y-111569044D01*
X211985004Y-111719173D01*
X212139589Y-112002217D01*
X212330505Y-112273217D01*
X212552241Y-112526535D01*
X212799282Y-112756535D01*
X213066115Y-112957578D01*
X213347227Y-113124029D01*
X213370584Y-113135890D01*
X213565209Y-113223009D01*
X213781326Y-113301860D01*
X214004652Y-113368154D01*
X214220901Y-113417602D01*
X214397167Y-113444105D01*
X214524323Y-113452356D01*
X214677407Y-113454844D01*
X214840630Y-113451929D01*
X214998205Y-113443971D01*
X215134343Y-113431328D01*
X215169750Y-113426511D01*
X215520099Y-113353243D01*
X215853701Y-113242302D01*
X216168351Y-113095773D01*
X216461842Y-112915740D01*
X216731968Y-112704289D01*
X216976521Y-112463505D01*
X217193296Y-112195472D01*
X217380087Y-111902275D01*
X217534686Y-111586000D01*
X217654886Y-111248731D01*
X217712531Y-111023798D01*
X217731159Y-110907102D01*
X217744382Y-110759058D01*
X217752200Y-110590305D01*
X217754613Y-110411482D01*
X217751622Y-110233227D01*
X217743226Y-110066179D01*
X217729426Y-109920977D01*
X217712531Y-109818435D01*
X217615500Y-109469696D01*
X217482504Y-109140442D01*
X217315814Y-108832760D01*
X217117700Y-108548740D01*
X216890436Y-108290470D01*
X216636291Y-108060039D01*
X216357538Y-107859537D01*
X216056448Y-107691052D01*
X215735292Y-107556673D01*
X215396342Y-107458489D01*
X215087057Y-107403924D01*
X214807798Y-107385307D01*
X214511815Y-107395311D01*
X214212170Y-107432480D01*
X213921927Y-107495356D01*
X213726205Y-107555693D01*
X213411530Y-107688379D01*
X213112044Y-107857512D01*
X212831855Y-108059395D01*
X212575071Y-108290330D01*
X212345798Y-108546619D01*
X212148145Y-108824566D01*
X211986219Y-109120471D01*
X211985004Y-109123060D01*
X211868301Y-109402174D01*
X211784320Y-109675698D01*
X211730548Y-109955114D01*
X211704473Y-110251906D01*
X211701024Y-110421116D01*
X209719334Y-110421116D01*
X209719334Y-98509213D01*
X210907392Y-98509213D01*
X210909919Y-98715397D01*
X210920161Y-98897940D01*
X210924125Y-98939749D01*
X210990455Y-99379639D01*
X211095343Y-99805240D01*
X211237848Y-100214493D01*
X211417025Y-100605336D01*
X211631931Y-100975711D01*
X211881621Y-101323557D01*
X212163089Y-101644678D01*
X212480393Y-101944277D01*
X212817367Y-102206419D01*
X213174330Y-102431302D01*
X213551598Y-102619121D01*
X213949490Y-102770070D01*
X214037334Y-102797598D01*
X214185527Y-102837748D01*
X214360039Y-102877716D01*
X214544956Y-102914385D01*
X214724366Y-102944637D01*
X214882355Y-102965353D01*
X214905167Y-102967630D01*
X215001837Y-102972735D01*
X215129544Y-102973738D01*
X215277238Y-102971086D01*
X215433868Y-102965227D01*
X215588382Y-102956607D01*
X215729730Y-102945673D01*
X215846861Y-102932873D01*
X215878834Y-102928235D01*
X216292465Y-102841962D01*
X216691310Y-102717102D01*
X217073289Y-102555449D01*
X217436324Y-102358795D01*
X217778334Y-102128936D01*
X218097241Y-101867664D01*
X218390964Y-101576774D01*
X218657426Y-101258059D01*
X218894547Y-100913313D01*
X219100248Y-100544329D01*
X219272449Y-100152903D01*
X219350710Y-99933033D01*
X219469443Y-99504472D01*
X219546641Y-99072346D01*
X219582453Y-98638898D01*
X219577031Y-98206369D01*
X219530526Y-97777003D01*
X219526911Y-97759473D01*
X220589056Y-97759473D01*
X220597699Y-97980895D01*
X220618993Y-98185986D01*
X220639484Y-98303200D01*
X220730845Y-98650549D01*
X220853516Y-98971240D01*
X221009681Y-99269332D01*
X221201523Y-99548889D01*
X221431225Y-99813970D01*
X221476696Y-99860396D01*
X221746566Y-100103180D01*
X222034032Y-100307537D01*
X222339852Y-100473880D01*
X222664781Y-100602620D01*
X223003946Y-100693006D01*
X223112875Y-100715225D01*
X223200445Y-100731285D01*
X223277079Y-100741998D01*
X223353202Y-100748178D01*
X223439239Y-100750637D01*
X223545612Y-100750188D01*
X223682747Y-100747644D01*
X223699917Y-100747277D01*
X223909373Y-100738860D01*
X224082740Y-100723139D01*
X224225715Y-100699591D01*
X224229084Y-100698869D01*
X224580925Y-100602218D01*
X224912582Y-100469417D01*
X225222044Y-100302264D01*
X225507300Y-100102554D01*
X225766341Y-99872084D01*
X225997157Y-99612650D01*
X226197736Y-99326050D01*
X226366069Y-99014078D01*
X226500145Y-98678532D01*
X226504451Y-98665600D01*
X226571772Y-98437350D01*
X226617183Y-98220288D01*
X226643255Y-97998043D01*
X226652555Y-97754243D01*
X226652667Y-97721116D01*
X226645300Y-97473431D01*
X226621487Y-97249369D01*
X226578658Y-97032556D01*
X226514244Y-96806621D01*
X226504451Y-96776633D01*
X226371847Y-96440769D01*
X226204847Y-96128243D01*
X226005503Y-95840861D01*
X225775871Y-95580432D01*
X225518002Y-95348761D01*
X225233951Y-95147657D01*
X224925771Y-94978927D01*
X224595515Y-94844378D01*
X224245237Y-94745818D01*
X224181880Y-94732374D01*
X224037322Y-94711079D01*
X223863491Y-94697982D01*
X223672624Y-94692968D01*
X223476957Y-94695925D01*
X223288727Y-94706737D01*
X223120170Y-94725291D01*
X223018596Y-94743220D01*
X222668055Y-94838380D01*
X222341814Y-94967697D01*
X222037473Y-95132477D01*
X221752632Y-95334024D01*
X221484891Y-95573644D01*
X221476696Y-95581837D01*
X221240944Y-95843483D01*
X221043183Y-96118650D01*
X220881119Y-96411605D01*
X220752458Y-96726615D01*
X220654903Y-97067944D01*
X220639075Y-97139033D01*
X220609738Y-97324361D01*
X220593067Y-97535901D01*
X220589056Y-97759473D01*
X219526911Y-97759473D01*
X219443087Y-97353041D01*
X219314866Y-96936726D01*
X219146014Y-96530301D01*
X219118147Y-96472283D01*
X218909896Y-96092463D01*
X218670085Y-95738819D01*
X218400802Y-95412957D01*
X218104134Y-95116487D01*
X217782169Y-94851015D01*
X217436994Y-94618150D01*
X217070697Y-94419500D01*
X216685365Y-94256672D01*
X216283086Y-94131275D01*
X215995763Y-94067236D01*
X215846137Y-94045018D01*
X215666965Y-94027686D01*
X215470568Y-94015664D01*
X215269269Y-94009376D01*
X215075392Y-94009247D01*
X214901259Y-94015702D01*
X214786932Y-94025596D01*
X214366939Y-94095755D01*
X213962031Y-94204364D01*
X213574022Y-94349675D01*
X213204725Y-94529937D01*
X212855954Y-94743402D01*
X212529523Y-94988321D01*
X212227247Y-95262945D01*
X211950939Y-95565523D01*
X211702413Y-95894308D01*
X211483482Y-96247550D01*
X211295962Y-96623500D01*
X211141665Y-97020409D01*
X211022406Y-97436527D01*
X210965586Y-97710533D01*
X210941677Y-97880049D01*
X210923714Y-98078416D01*
X210912138Y-98292512D01*
X210907392Y-98509213D01*
X209719334Y-98509213D01*
X209719334Y-86289181D01*
X211699824Y-86289181D01*
X211704124Y-86487066D01*
X211717192Y-86671324D01*
X211739029Y-86828193D01*
X211739538Y-86830866D01*
X211827281Y-87183752D01*
X211951439Y-87515175D01*
X212112526Y-87826107D01*
X212311056Y-88117520D01*
X212547545Y-88390384D01*
X212586394Y-88429844D01*
X212855532Y-88671482D01*
X213141849Y-88875058D01*
X213446890Y-89041320D01*
X213772196Y-89171018D01*
X214119312Y-89264901D01*
X214407750Y-89313951D01*
X214497560Y-89321194D01*
X214616376Y-89324629D01*
X214751054Y-89324420D01*
X214888453Y-89320732D01*
X215015432Y-89313730D01*
X215106250Y-89305187D01*
X215448367Y-89242296D01*
X215782341Y-89138623D01*
X216105466Y-88995369D01*
X216415033Y-88813732D01*
X216708334Y-88594915D01*
X216708539Y-88594744D01*
X216944501Y-88371389D01*
X217157292Y-88115896D01*
X217343911Y-87833346D01*
X217501362Y-87528816D01*
X217626647Y-87207387D01*
X217712531Y-86893798D01*
X217731159Y-86777102D01*
X217744382Y-86629058D01*
X217752200Y-86460305D01*
X217754613Y-86281482D01*
X217751622Y-86103227D01*
X217743226Y-85936179D01*
X217729426Y-85790977D01*
X217712531Y-85688435D01*
X217615618Y-85339916D01*
X217482637Y-85010204D01*
X217315763Y-84701588D01*
X217117173Y-84416357D01*
X216889041Y-84156803D01*
X216633544Y-83925214D01*
X216352856Y-83723881D01*
X216049154Y-83555094D01*
X215724613Y-83421143D01*
X215491636Y-83350735D01*
X215153601Y-83284431D01*
X214806776Y-83257168D01*
X214457745Y-83268637D01*
X214113093Y-83318531D01*
X213779404Y-83406543D01*
X213698667Y-83434393D01*
X213374591Y-83573767D01*
X213072046Y-83748186D01*
X212793254Y-83955022D01*
X212540438Y-84191645D01*
X212315821Y-84455428D01*
X212121625Y-84743741D01*
X211960073Y-85053956D01*
X211833388Y-85383444D01*
X211743792Y-85729576D01*
X211739538Y-85751366D01*
X211717531Y-85907570D01*
X211704293Y-86091428D01*
X211699824Y-86289181D01*
X209719334Y-86289181D01*
X209719334Y-66632749D01*
X215632222Y-66632749D01*
X215654003Y-66885053D01*
X215718016Y-67139659D01*
X215721964Y-67151395D01*
X215820433Y-67378457D01*
X215951758Y-67583876D01*
X216111693Y-67765146D01*
X216295991Y-67919759D01*
X216500405Y-68045210D01*
X216720690Y-68138992D01*
X216952599Y-68198599D01*
X217191885Y-68221523D01*
X217434301Y-68205258D01*
X217490930Y-68195543D01*
X217749368Y-68125864D01*
X217985091Y-68021112D01*
X218196335Y-67882641D01*
X218381336Y-67711804D01*
X218538332Y-67509956D01*
X218654489Y-67302339D01*
X218718578Y-67153155D01*
X218761858Y-67015584D01*
X218787003Y-66875788D01*
X218796684Y-66719929D01*
X218795092Y-66574366D01*
X218789624Y-66451528D01*
X218781107Y-66357069D01*
X218767258Y-66277045D01*
X218745795Y-66197508D01*
X218721426Y-66124337D01*
X218655728Y-65957906D01*
X218581142Y-65816309D01*
X218488764Y-65685386D01*
X218369688Y-65550974D01*
X218344750Y-65525336D01*
X218164505Y-65363772D01*
X217974331Y-65238024D01*
X217763963Y-65141579D01*
X217709750Y-65122211D01*
X217618285Y-65094179D01*
X217530499Y-65075326D01*
X217431837Y-65063352D01*
X217307744Y-65055958D01*
X217284790Y-65055055D01*
X217073187Y-65056993D01*
X216884070Y-65081959D01*
X216702530Y-65133133D01*
X216513660Y-65213696D01*
X216492667Y-65224055D01*
X216339140Y-65317129D01*
X216184793Y-65440150D01*
X216040029Y-65582859D01*
X215915251Y-65734995D01*
X215820859Y-65886299D01*
X215820484Y-65887029D01*
X215715443Y-66133999D01*
X215652696Y-66382485D01*
X215632222Y-66632749D01*
X209719334Y-66632749D01*
X209719334Y-63632200D01*
X229721834Y-63632200D01*
X229721834Y-192135033D01*
G04 #@! TD*
M02*
