G04 #@! TF.GenerationSoftware,KiCad,Pcbnew,(5.1.9)-1*
G04 #@! TF.CreationDate,2021-08-04T02:23:12+02:00*
G04 #@! TF.ProjectId,sequswit,73657175-7377-4697-942e-6b696361645f,rev?*
G04 #@! TF.SameCoordinates,Original*
G04 #@! TF.FileFunction,Soldermask,Bot*
G04 #@! TF.FilePolarity,Negative*
%FSLAX46Y46*%
G04 Gerber Fmt 4.6, Leading zero omitted, Abs format (unit mm)*
G04 Created by KiCad (PCBNEW (5.1.9)-1) date 2021-08-04 02:23:12*
%MOMM*%
%LPD*%
G01*
G04 APERTURE LIST*
%ADD10C,0.150000*%
%ADD11C,2.000000*%
%ADD12R,1.200000X0.900000*%
%ADD13O,1.700000X1.700000*%
%ADD14R,1.700000X1.700000*%
%ADD15C,1.800000*%
%ADD16R,1.800000X1.800000*%
%ADD17R,0.900000X0.800000*%
%ADD18R,0.800000X0.900000*%
%ADD19O,2.800000X2.350000*%
%ADD20R,2.600000X2.150000*%
%ADD21C,2.700000*%
G04 APERTURE END LIST*
D10*
X259365714Y-93802666D02*
X259403809Y-93764571D01*
X259441904Y-93650285D01*
X259441904Y-93574095D01*
X259403809Y-93459809D01*
X259327619Y-93383619D01*
X259251428Y-93345523D01*
X259099047Y-93307428D01*
X258984761Y-93307428D01*
X258832380Y-93345523D01*
X258756190Y-93383619D01*
X258680000Y-93459809D01*
X258641904Y-93574095D01*
X258641904Y-93650285D01*
X258680000Y-93764571D01*
X258718095Y-93802666D01*
X259365714Y-94602666D02*
X259403809Y-94564571D01*
X259441904Y-94450285D01*
X259441904Y-94374095D01*
X259403809Y-94259809D01*
X259327619Y-94183619D01*
X259251428Y-94145523D01*
X259099047Y-94107428D01*
X258984761Y-94107428D01*
X258832380Y-94145523D01*
X258756190Y-94183619D01*
X258680000Y-94259809D01*
X258641904Y-94374095D01*
X258641904Y-94450285D01*
X258680000Y-94564571D01*
X258718095Y-94602666D01*
X259022857Y-95821714D02*
X259060952Y-95936000D01*
X259099047Y-95974095D01*
X259175238Y-96012190D01*
X259289523Y-96012190D01*
X259365714Y-95974095D01*
X259403809Y-95936000D01*
X259441904Y-95859809D01*
X259441904Y-95555047D01*
X258641904Y-95555047D01*
X258641904Y-95821714D01*
X258680000Y-95897904D01*
X258718095Y-95936000D01*
X258794285Y-95974095D01*
X258870476Y-95974095D01*
X258946666Y-95936000D01*
X258984761Y-95897904D01*
X259022857Y-95821714D01*
X259022857Y-95555047D01*
X259060952Y-96507428D02*
X259441904Y-96507428D01*
X258641904Y-96240761D02*
X259060952Y-96507428D01*
X258641904Y-96774095D01*
X259137142Y-97040761D02*
X259137142Y-97650285D01*
X259441904Y-98031238D02*
X258641904Y-98031238D01*
X259441904Y-98488380D01*
X258641904Y-98488380D01*
X259365714Y-99326476D02*
X259403809Y-99288380D01*
X259441904Y-99174095D01*
X259441904Y-99097904D01*
X259403809Y-98983619D01*
X259327619Y-98907428D01*
X259251428Y-98869333D01*
X259099047Y-98831238D01*
X258984761Y-98831238D01*
X258832380Y-98869333D01*
X258756190Y-98907428D01*
X258680000Y-98983619D01*
X258641904Y-99097904D01*
X258641904Y-99174095D01*
X258680000Y-99288380D01*
X258718095Y-99326476D01*
X259137142Y-99669333D02*
X259137142Y-100278857D01*
X259403809Y-100621714D02*
X259441904Y-100736000D01*
X259441904Y-100926476D01*
X259403809Y-101002666D01*
X259365714Y-101040761D01*
X259289523Y-101078857D01*
X259213333Y-101078857D01*
X259137142Y-101040761D01*
X259099047Y-101002666D01*
X259060952Y-100926476D01*
X259022857Y-100774095D01*
X258984761Y-100697904D01*
X258946666Y-100659809D01*
X258870476Y-100621714D01*
X258794285Y-100621714D01*
X258718095Y-100659809D01*
X258680000Y-100697904D01*
X258641904Y-100774095D01*
X258641904Y-100964571D01*
X258680000Y-101078857D01*
X259213333Y-101383619D02*
X259213333Y-101764571D01*
X259441904Y-101307428D02*
X258641904Y-101574095D01*
X259441904Y-101840761D01*
X256566303Y-99123500D02*
G75*
G03*
X256566303Y-99123500I-89803J0D01*
G01*
X259484761Y-80955142D02*
X259532380Y-81098000D01*
X259532380Y-81336095D01*
X259484761Y-81431333D01*
X259437142Y-81478952D01*
X259341904Y-81526571D01*
X259246666Y-81526571D01*
X259151428Y-81478952D01*
X259103809Y-81431333D01*
X259056190Y-81336095D01*
X259008571Y-81145619D01*
X258960952Y-81050380D01*
X258913333Y-81002761D01*
X258818095Y-80955142D01*
X258722857Y-80955142D01*
X258627619Y-81002761D01*
X258580000Y-81050380D01*
X258532380Y-81145619D01*
X258532380Y-81383714D01*
X258580000Y-81526571D01*
X259008571Y-81955142D02*
X259008571Y-82288476D01*
X259532380Y-82431333D02*
X259532380Y-81955142D01*
X258532380Y-81955142D01*
X258532380Y-82431333D01*
X259627619Y-83526571D02*
X259580000Y-83431333D01*
X259484761Y-83336095D01*
X259341904Y-83193238D01*
X259294285Y-83098000D01*
X259294285Y-83002761D01*
X259532380Y-83050380D02*
X259484761Y-82955142D01*
X259389523Y-82859904D01*
X259199047Y-82812285D01*
X258865714Y-82812285D01*
X258675238Y-82859904D01*
X258580000Y-82955142D01*
X258532380Y-83050380D01*
X258532380Y-83240857D01*
X258580000Y-83336095D01*
X258675238Y-83431333D01*
X258865714Y-83478952D01*
X259199047Y-83478952D01*
X259389523Y-83431333D01*
X259484761Y-83336095D01*
X259532380Y-83240857D01*
X259532380Y-83050380D01*
X259484761Y-83859904D02*
X259532380Y-84002761D01*
X259532380Y-84240857D01*
X259484761Y-84336095D01*
X259437142Y-84383714D01*
X259341904Y-84431333D01*
X259246666Y-84431333D01*
X259151428Y-84383714D01*
X259103809Y-84336095D01*
X259056190Y-84240857D01*
X259008571Y-84050380D01*
X258960952Y-83955142D01*
X258913333Y-83907523D01*
X258818095Y-83859904D01*
X258722857Y-83859904D01*
X258627619Y-83907523D01*
X258580000Y-83955142D01*
X258532380Y-84050380D01*
X258532380Y-84288476D01*
X258580000Y-84431333D01*
X258532380Y-84764666D02*
X259532380Y-85002761D01*
X258818095Y-85193238D01*
X259532380Y-85383714D01*
X258532380Y-85621809D01*
X258532380Y-85859904D02*
X258532380Y-86431333D01*
X259532380Y-86145619D02*
X258532380Y-86145619D01*
X258865714Y-87431333D02*
X259532380Y-87669428D01*
X258865714Y-87907523D01*
X258532380Y-88478952D02*
X258532380Y-88574190D01*
X258580000Y-88669428D01*
X258627619Y-88717047D01*
X258722857Y-88764666D01*
X258913333Y-88812285D01*
X259151428Y-88812285D01*
X259341904Y-88764666D01*
X259437142Y-88717047D01*
X259484761Y-88669428D01*
X259532380Y-88574190D01*
X259532380Y-88478952D01*
X259484761Y-88383714D01*
X259437142Y-88336095D01*
X259341904Y-88288476D01*
X259151428Y-88240857D01*
X258913333Y-88240857D01*
X258722857Y-88288476D01*
X258627619Y-88336095D01*
X258580000Y-88383714D01*
X258532380Y-88478952D01*
X259437142Y-89240857D02*
X259484761Y-89288476D01*
X259532380Y-89240857D01*
X259484761Y-89193238D01*
X259437142Y-89240857D01*
X259532380Y-89240857D01*
X259532380Y-89764666D02*
X259532380Y-89955142D01*
X259484761Y-90050380D01*
X259437142Y-90098000D01*
X259294285Y-90193238D01*
X259103809Y-90240857D01*
X258722857Y-90240857D01*
X258627619Y-90193238D01*
X258580000Y-90145619D01*
X258532380Y-90050380D01*
X258532380Y-89859904D01*
X258580000Y-89764666D01*
X258627619Y-89717047D01*
X258722857Y-89669428D01*
X258960952Y-89669428D01*
X259056190Y-89717047D01*
X259103809Y-89764666D01*
X259151428Y-89859904D01*
X259151428Y-90050380D01*
X259103809Y-90145619D01*
X259056190Y-90193238D01*
X258960952Y-90240857D01*
X255943453Y-98679000D02*
G75*
G03*
X255943453Y-98679000I-228953J0D01*
G01*
X256959453Y-98298000D02*
G75*
G03*
X256959453Y-98298000I-228953J0D01*
G01*
X257302000Y-98742500D02*
G75*
G02*
X255587047Y-99483485I-889453J-296485D01*
G01*
X257862414Y-99007586D02*
G75*
G03*
X257862414Y-99007586I-1449414J0D01*
G01*
G04 #@! TO.C,R15*
G36*
G01*
X258181001Y-154355500D02*
X256930999Y-154355500D01*
G75*
G02*
X256681000Y-154105501I0J249999D01*
G01*
X256681000Y-153480499D01*
G75*
G02*
X256930999Y-153230500I249999J0D01*
G01*
X258181001Y-153230500D01*
G75*
G02*
X258431000Y-153480499I0J-249999D01*
G01*
X258431000Y-154105501D01*
G75*
G02*
X258181001Y-154355500I-249999J0D01*
G01*
G37*
G36*
G01*
X258181001Y-157280500D02*
X256930999Y-157280500D01*
G75*
G02*
X256681000Y-157030501I0J249999D01*
G01*
X256681000Y-156405499D01*
G75*
G02*
X256930999Y-156155500I249999J0D01*
G01*
X258181001Y-156155500D01*
G75*
G02*
X258431000Y-156405499I0J-249999D01*
G01*
X258431000Y-157030501D01*
G75*
G02*
X258181001Y-157280500I-249999J0D01*
G01*
G37*
G04 #@! TD*
G04 #@! TO.C,R14*
G36*
G01*
X252339001Y-147374500D02*
X251088999Y-147374500D01*
G75*
G02*
X250839000Y-147124501I0J249999D01*
G01*
X250839000Y-146499499D01*
G75*
G02*
X251088999Y-146249500I249999J0D01*
G01*
X252339001Y-146249500D01*
G75*
G02*
X252589000Y-146499499I0J-249999D01*
G01*
X252589000Y-147124501D01*
G75*
G02*
X252339001Y-147374500I-249999J0D01*
G01*
G37*
G36*
G01*
X252339001Y-150299500D02*
X251088999Y-150299500D01*
G75*
G02*
X250839000Y-150049501I0J249999D01*
G01*
X250839000Y-149424499D01*
G75*
G02*
X251088999Y-149174500I249999J0D01*
G01*
X252339001Y-149174500D01*
G75*
G02*
X252589000Y-149424499I0J-249999D01*
G01*
X252589000Y-150049501D01*
G75*
G02*
X252339001Y-150299500I-249999J0D01*
G01*
G37*
G04 #@! TD*
G04 #@! TO.C,R13*
G36*
G01*
X250326999Y-129485500D02*
X251577001Y-129485500D01*
G75*
G02*
X251827000Y-129735499I0J-249999D01*
G01*
X251827000Y-130360501D01*
G75*
G02*
X251577001Y-130610500I-249999J0D01*
G01*
X250326999Y-130610500D01*
G75*
G02*
X250077000Y-130360501I0J249999D01*
G01*
X250077000Y-129735499D01*
G75*
G02*
X250326999Y-129485500I249999J0D01*
G01*
G37*
G36*
G01*
X250326999Y-126560500D02*
X251577001Y-126560500D01*
G75*
G02*
X251827000Y-126810499I0J-249999D01*
G01*
X251827000Y-127435501D01*
G75*
G02*
X251577001Y-127685500I-249999J0D01*
G01*
X250326999Y-127685500D01*
G75*
G02*
X250077000Y-127435501I0J249999D01*
G01*
X250077000Y-126810499D01*
G75*
G02*
X250326999Y-126560500I249999J0D01*
G01*
G37*
G04 #@! TD*
G04 #@! TO.C,R2*
G36*
G01*
X256656000Y-124977999D02*
X256656000Y-126228001D01*
G75*
G02*
X256406001Y-126478000I-249999J0D01*
G01*
X255780999Y-126478000D01*
G75*
G02*
X255531000Y-126228001I0J249999D01*
G01*
X255531000Y-124977999D01*
G75*
G02*
X255780999Y-124728000I249999J0D01*
G01*
X256406001Y-124728000D01*
G75*
G02*
X256656000Y-124977999I0J-249999D01*
G01*
G37*
G36*
G01*
X259581000Y-124977999D02*
X259581000Y-126228001D01*
G75*
G02*
X259331001Y-126478000I-249999J0D01*
G01*
X258705999Y-126478000D01*
G75*
G02*
X258456000Y-126228001I0J249999D01*
G01*
X258456000Y-124977999D01*
G75*
G02*
X258705999Y-124728000I249999J0D01*
G01*
X259331001Y-124728000D01*
G75*
G02*
X259581000Y-124977999I0J-249999D01*
G01*
G37*
G04 #@! TD*
G04 #@! TO.C,R10*
G36*
G01*
X250206000Y-163899000D02*
X250206000Y-164269000D01*
G75*
G02*
X250071000Y-164404000I-135000J0D01*
G01*
X249801000Y-164404000D01*
G75*
G02*
X249666000Y-164269000I0J135000D01*
G01*
X249666000Y-163899000D01*
G75*
G02*
X249801000Y-163764000I135000J0D01*
G01*
X250071000Y-163764000D01*
G75*
G02*
X250206000Y-163899000I0J-135000D01*
G01*
G37*
G36*
G01*
X251226000Y-163899000D02*
X251226000Y-164269000D01*
G75*
G02*
X251091000Y-164404000I-135000J0D01*
G01*
X250821000Y-164404000D01*
G75*
G02*
X250686000Y-164269000I0J135000D01*
G01*
X250686000Y-163899000D01*
G75*
G02*
X250821000Y-163764000I135000J0D01*
G01*
X251091000Y-163764000D01*
G75*
G02*
X251226000Y-163899000I0J-135000D01*
G01*
G37*
G04 #@! TD*
D11*
G04 #@! TO.C,SW1*
X245340000Y-161290000D03*
X245340000Y-158670000D03*
X245340000Y-156210000D03*
G04 #@! TD*
G04 #@! TO.C,FB2*
G36*
G01*
X248041000Y-176656750D02*
X248041000Y-177419250D01*
G75*
G02*
X247822250Y-177638000I-218750J0D01*
G01*
X247384750Y-177638000D01*
G75*
G02*
X247166000Y-177419250I0J218750D01*
G01*
X247166000Y-176656750D01*
G75*
G02*
X247384750Y-176438000I218750J0D01*
G01*
X247822250Y-176438000D01*
G75*
G02*
X248041000Y-176656750I0J-218750D01*
G01*
G37*
G36*
G01*
X250166000Y-176656750D02*
X250166000Y-177419250D01*
G75*
G02*
X249947250Y-177638000I-218750J0D01*
G01*
X249509750Y-177638000D01*
G75*
G02*
X249291000Y-177419250I0J218750D01*
G01*
X249291000Y-176656750D01*
G75*
G02*
X249509750Y-176438000I218750J0D01*
G01*
X249947250Y-176438000D01*
G75*
G02*
X250166000Y-176656750I0J-218750D01*
G01*
G37*
G04 #@! TD*
G04 #@! TO.C,FB1*
G36*
G01*
X242188750Y-157677500D02*
X242951250Y-157677500D01*
G75*
G02*
X243170000Y-157896250I0J-218750D01*
G01*
X243170000Y-158333750D01*
G75*
G02*
X242951250Y-158552500I-218750J0D01*
G01*
X242188750Y-158552500D01*
G75*
G02*
X241970000Y-158333750I0J218750D01*
G01*
X241970000Y-157896250D01*
G75*
G02*
X242188750Y-157677500I218750J0D01*
G01*
G37*
G36*
G01*
X242188750Y-155552500D02*
X242951250Y-155552500D01*
G75*
G02*
X243170000Y-155771250I0J-218750D01*
G01*
X243170000Y-156208750D01*
G75*
G02*
X242951250Y-156427500I-218750J0D01*
G01*
X242188750Y-156427500D01*
G75*
G02*
X241970000Y-156208750I0J218750D01*
G01*
X241970000Y-155771250D01*
G75*
G02*
X242188750Y-155552500I218750J0D01*
G01*
G37*
G04 #@! TD*
D12*
G04 #@! TO.C,D12*
X251714000Y-174752000D03*
X251714000Y-171452000D03*
G04 #@! TD*
G04 #@! TO.C,D11*
X242570000Y-163195000D03*
X242570000Y-159895000D03*
G04 #@! TD*
G04 #@! TO.C,C6*
G36*
G01*
X249116000Y-175481000D02*
X249116000Y-174531000D01*
G75*
G02*
X249366000Y-174281000I250000J0D01*
G01*
X249866000Y-174281000D01*
G75*
G02*
X250116000Y-174531000I0J-250000D01*
G01*
X250116000Y-175481000D01*
G75*
G02*
X249866000Y-175731000I-250000J0D01*
G01*
X249366000Y-175731000D01*
G75*
G02*
X249116000Y-175481000I0J250000D01*
G01*
G37*
G36*
G01*
X247216000Y-175481000D02*
X247216000Y-174531000D01*
G75*
G02*
X247466000Y-174281000I250000J0D01*
G01*
X247966000Y-174281000D01*
G75*
G02*
X248216000Y-174531000I0J-250000D01*
G01*
X248216000Y-175481000D01*
G75*
G02*
X247966000Y-175731000I-250000J0D01*
G01*
X247466000Y-175731000D01*
G75*
G02*
X247216000Y-175481000I0J250000D01*
G01*
G37*
G04 #@! TD*
G04 #@! TO.C,C5*
G36*
G01*
X242308000Y-153449000D02*
X242308000Y-154399000D01*
G75*
G02*
X242058000Y-154649000I-250000J0D01*
G01*
X241558000Y-154649000D01*
G75*
G02*
X241308000Y-154399000I0J250000D01*
G01*
X241308000Y-153449000D01*
G75*
G02*
X241558000Y-153199000I250000J0D01*
G01*
X242058000Y-153199000D01*
G75*
G02*
X242308000Y-153449000I0J-250000D01*
G01*
G37*
G36*
G01*
X244208000Y-153449000D02*
X244208000Y-154399000D01*
G75*
G02*
X243958000Y-154649000I-250000J0D01*
G01*
X243458000Y-154649000D01*
G75*
G02*
X243208000Y-154399000I0J250000D01*
G01*
X243208000Y-153449000D01*
G75*
G02*
X243458000Y-153199000I250000J0D01*
G01*
X243958000Y-153199000D01*
G75*
G02*
X244208000Y-153449000I0J-250000D01*
G01*
G37*
G04 #@! TD*
D13*
G04 #@! TO.C,J8*
X242570000Y-176530000D03*
X245110000Y-176530000D03*
X242570000Y-173990000D03*
X245110000Y-173990000D03*
X242570000Y-171450000D03*
X245110000Y-171450000D03*
X242570000Y-168910000D03*
X245110000Y-168910000D03*
X242570000Y-166370000D03*
D14*
X245110000Y-166370000D03*
G04 #@! TD*
D15*
G04 #@! TO.C,D10*
X247650000Y-170180000D03*
D16*
X247650000Y-172720000D03*
G04 #@! TD*
D15*
G04 #@! TO.C,D9*
X247650000Y-146304000D03*
D16*
X247650000Y-148844000D03*
G04 #@! TD*
D15*
G04 #@! TO.C,D8*
X247650000Y-122174000D03*
D16*
X247650000Y-124714000D03*
G04 #@! TD*
D15*
G04 #@! TO.C,D7*
X247650000Y-100330000D03*
D16*
X247650000Y-97790000D03*
G04 #@! TD*
G04 #@! TO.C,R19*
G36*
G01*
X247925000Y-164040000D02*
X247375000Y-164040000D01*
G75*
G02*
X247175000Y-163840000I0J200000D01*
G01*
X247175000Y-163440000D01*
G75*
G02*
X247375000Y-163240000I200000J0D01*
G01*
X247925000Y-163240000D01*
G75*
G02*
X248125000Y-163440000I0J-200000D01*
G01*
X248125000Y-163840000D01*
G75*
G02*
X247925000Y-164040000I-200000J0D01*
G01*
G37*
G36*
G01*
X247925000Y-165690000D02*
X247375000Y-165690000D01*
G75*
G02*
X247175000Y-165490000I0J200000D01*
G01*
X247175000Y-165090000D01*
G75*
G02*
X247375000Y-164890000I200000J0D01*
G01*
X247925000Y-164890000D01*
G75*
G02*
X248125000Y-165090000I0J-200000D01*
G01*
X248125000Y-165490000D01*
G75*
G02*
X247925000Y-165690000I-200000J0D01*
G01*
G37*
G04 #@! TD*
G04 #@! TO.C,R18*
G36*
G01*
X245891000Y-143870000D02*
X245891000Y-144420000D01*
G75*
G02*
X245691000Y-144620000I-200000J0D01*
G01*
X245291000Y-144620000D01*
G75*
G02*
X245091000Y-144420000I0J200000D01*
G01*
X245091000Y-143870000D01*
G75*
G02*
X245291000Y-143670000I200000J0D01*
G01*
X245691000Y-143670000D01*
G75*
G02*
X245891000Y-143870000I0J-200000D01*
G01*
G37*
G36*
G01*
X247541000Y-143870000D02*
X247541000Y-144420000D01*
G75*
G02*
X247341000Y-144620000I-200000J0D01*
G01*
X246941000Y-144620000D01*
G75*
G02*
X246741000Y-144420000I0J200000D01*
G01*
X246741000Y-143870000D01*
G75*
G02*
X246941000Y-143670000I200000J0D01*
G01*
X247341000Y-143670000D01*
G75*
G02*
X247541000Y-143870000I0J-200000D01*
G01*
G37*
G04 #@! TD*
G04 #@! TO.C,R17*
G36*
G01*
X249957000Y-120924000D02*
X249407000Y-120924000D01*
G75*
G02*
X249207000Y-120724000I0J200000D01*
G01*
X249207000Y-120324000D01*
G75*
G02*
X249407000Y-120124000I200000J0D01*
G01*
X249957000Y-120124000D01*
G75*
G02*
X250157000Y-120324000I0J-200000D01*
G01*
X250157000Y-120724000D01*
G75*
G02*
X249957000Y-120924000I-200000J0D01*
G01*
G37*
G36*
G01*
X249957000Y-122574000D02*
X249407000Y-122574000D01*
G75*
G02*
X249207000Y-122374000I0J200000D01*
G01*
X249207000Y-121974000D01*
G75*
G02*
X249407000Y-121774000I200000J0D01*
G01*
X249957000Y-121774000D01*
G75*
G02*
X250157000Y-121974000I0J-200000D01*
G01*
X250157000Y-122374000D01*
G75*
G02*
X249957000Y-122574000I-200000J0D01*
G01*
G37*
G04 #@! TD*
G04 #@! TO.C,R16*
G36*
G01*
X251377000Y-100605000D02*
X251377000Y-100055000D01*
G75*
G02*
X251577000Y-99855000I200000J0D01*
G01*
X251977000Y-99855000D01*
G75*
G02*
X252177000Y-100055000I0J-200000D01*
G01*
X252177000Y-100605000D01*
G75*
G02*
X251977000Y-100805000I-200000J0D01*
G01*
X251577000Y-100805000D01*
G75*
G02*
X251377000Y-100605000I0J200000D01*
G01*
G37*
G36*
G01*
X249727000Y-100605000D02*
X249727000Y-100055000D01*
G75*
G02*
X249927000Y-99855000I200000J0D01*
G01*
X250327000Y-99855000D01*
G75*
G02*
X250527000Y-100055000I0J-200000D01*
G01*
X250527000Y-100605000D01*
G75*
G02*
X250327000Y-100805000I-200000J0D01*
G01*
X249927000Y-100805000D01*
G75*
G02*
X249727000Y-100605000I0J200000D01*
G01*
G37*
G04 #@! TD*
G04 #@! TO.C,R12*
G36*
G01*
X250121000Y-162320000D02*
X249751000Y-162320000D01*
G75*
G02*
X249616000Y-162185000I0J135000D01*
G01*
X249616000Y-161915000D01*
G75*
G02*
X249751000Y-161780000I135000J0D01*
G01*
X250121000Y-161780000D01*
G75*
G02*
X250256000Y-161915000I0J-135000D01*
G01*
X250256000Y-162185000D01*
G75*
G02*
X250121000Y-162320000I-135000J0D01*
G01*
G37*
G36*
G01*
X250121000Y-163340000D02*
X249751000Y-163340000D01*
G75*
G02*
X249616000Y-163205000I0J135000D01*
G01*
X249616000Y-162935000D01*
G75*
G02*
X249751000Y-162800000I135000J0D01*
G01*
X250121000Y-162800000D01*
G75*
G02*
X250256000Y-162935000I0J-135000D01*
G01*
X250256000Y-163205000D01*
G75*
G02*
X250121000Y-163340000I-135000J0D01*
G01*
G37*
G04 #@! TD*
G04 #@! TO.C,R11*
G36*
G01*
X250767000Y-162546000D02*
X251137000Y-162546000D01*
G75*
G02*
X251272000Y-162681000I0J-135000D01*
G01*
X251272000Y-162951000D01*
G75*
G02*
X251137000Y-163086000I-135000J0D01*
G01*
X250767000Y-163086000D01*
G75*
G02*
X250632000Y-162951000I0J135000D01*
G01*
X250632000Y-162681000D01*
G75*
G02*
X250767000Y-162546000I135000J0D01*
G01*
G37*
G36*
G01*
X250767000Y-161526000D02*
X251137000Y-161526000D01*
G75*
G02*
X251272000Y-161661000I0J-135000D01*
G01*
X251272000Y-161931000D01*
G75*
G02*
X251137000Y-162066000I-135000J0D01*
G01*
X250767000Y-162066000D01*
G75*
G02*
X250632000Y-161931000I0J135000D01*
G01*
X250632000Y-161661000D01*
G75*
G02*
X250767000Y-161526000I135000J0D01*
G01*
G37*
G04 #@! TD*
D17*
G04 #@! TO.C,Q5*
X249952000Y-159512000D03*
X251952000Y-160462000D03*
X251952000Y-158562000D03*
G04 #@! TD*
D12*
G04 #@! TO.C,D6*
X248285000Y-156462000D03*
X248285000Y-153162000D03*
G04 #@! TD*
G04 #@! TO.C,D5*
X251206000Y-156462000D03*
X251206000Y-153162000D03*
G04 #@! TD*
G04 #@! TO.C,C4*
G36*
G01*
X253955000Y-138768000D02*
X253955000Y-139108000D01*
G75*
G02*
X253815000Y-139248000I-140000J0D01*
G01*
X253535000Y-139248000D01*
G75*
G02*
X253395000Y-139108000I0J140000D01*
G01*
X253395000Y-138768000D01*
G75*
G02*
X253535000Y-138628000I140000J0D01*
G01*
X253815000Y-138628000D01*
G75*
G02*
X253955000Y-138768000I0J-140000D01*
G01*
G37*
G36*
G01*
X254915000Y-138768000D02*
X254915000Y-139108000D01*
G75*
G02*
X254775000Y-139248000I-140000J0D01*
G01*
X254495000Y-139248000D01*
G75*
G02*
X254355000Y-139108000I0J140000D01*
G01*
X254355000Y-138768000D01*
G75*
G02*
X254495000Y-138628000I140000J0D01*
G01*
X254775000Y-138628000D01*
G75*
G02*
X254915000Y-138768000I0J-140000D01*
G01*
G37*
G04 #@! TD*
G04 #@! TO.C,C3*
G36*
G01*
X247566000Y-128324000D02*
X247226000Y-128324000D01*
G75*
G02*
X247086000Y-128184000I0J140000D01*
G01*
X247086000Y-127904000D01*
G75*
G02*
X247226000Y-127764000I140000J0D01*
G01*
X247566000Y-127764000D01*
G75*
G02*
X247706000Y-127904000I0J-140000D01*
G01*
X247706000Y-128184000D01*
G75*
G02*
X247566000Y-128324000I-140000J0D01*
G01*
G37*
G36*
G01*
X247566000Y-129284000D02*
X247226000Y-129284000D01*
G75*
G02*
X247086000Y-129144000I0J140000D01*
G01*
X247086000Y-128864000D01*
G75*
G02*
X247226000Y-128724000I140000J0D01*
G01*
X247566000Y-128724000D01*
G75*
G02*
X247706000Y-128864000I0J-140000D01*
G01*
X247706000Y-129144000D01*
G75*
G02*
X247566000Y-129284000I-140000J0D01*
G01*
G37*
G04 #@! TD*
G04 #@! TO.C,C2*
G36*
G01*
X247734000Y-106400000D02*
X248074000Y-106400000D01*
G75*
G02*
X248214000Y-106540000I0J-140000D01*
G01*
X248214000Y-106820000D01*
G75*
G02*
X248074000Y-106960000I-140000J0D01*
G01*
X247734000Y-106960000D01*
G75*
G02*
X247594000Y-106820000I0J140000D01*
G01*
X247594000Y-106540000D01*
G75*
G02*
X247734000Y-106400000I140000J0D01*
G01*
G37*
G36*
G01*
X247734000Y-105440000D02*
X248074000Y-105440000D01*
G75*
G02*
X248214000Y-105580000I0J-140000D01*
G01*
X248214000Y-105860000D01*
G75*
G02*
X248074000Y-106000000I-140000J0D01*
G01*
X247734000Y-106000000D01*
G75*
G02*
X247594000Y-105860000I0J140000D01*
G01*
X247594000Y-105580000D01*
G75*
G02*
X247734000Y-105440000I140000J0D01*
G01*
G37*
G04 #@! TD*
G04 #@! TO.C,C1*
G36*
G01*
X251798000Y-162534000D02*
X252138000Y-162534000D01*
G75*
G02*
X252278000Y-162674000I0J-140000D01*
G01*
X252278000Y-162954000D01*
G75*
G02*
X252138000Y-163094000I-140000J0D01*
G01*
X251798000Y-163094000D01*
G75*
G02*
X251658000Y-162954000I0J140000D01*
G01*
X251658000Y-162674000D01*
G75*
G02*
X251798000Y-162534000I140000J0D01*
G01*
G37*
G36*
G01*
X251798000Y-161574000D02*
X252138000Y-161574000D01*
G75*
G02*
X252278000Y-161714000I0J-140000D01*
G01*
X252278000Y-161994000D01*
G75*
G02*
X252138000Y-162134000I-140000J0D01*
G01*
X251798000Y-162134000D01*
G75*
G02*
X251658000Y-161994000I0J140000D01*
G01*
X251658000Y-161714000D01*
G75*
G02*
X251798000Y-161574000I140000J0D01*
G01*
G37*
G04 #@! TD*
G04 #@! TO.C,R9*
G36*
G01*
X248089000Y-109236000D02*
X247719000Y-109236000D01*
G75*
G02*
X247584000Y-109101000I0J135000D01*
G01*
X247584000Y-108831000D01*
G75*
G02*
X247719000Y-108696000I135000J0D01*
G01*
X248089000Y-108696000D01*
G75*
G02*
X248224000Y-108831000I0J-135000D01*
G01*
X248224000Y-109101000D01*
G75*
G02*
X248089000Y-109236000I-135000J0D01*
G01*
G37*
G36*
G01*
X248089000Y-110256000D02*
X247719000Y-110256000D01*
G75*
G02*
X247584000Y-110121000I0J135000D01*
G01*
X247584000Y-109851000D01*
G75*
G02*
X247719000Y-109716000I135000J0D01*
G01*
X248089000Y-109716000D01*
G75*
G02*
X248224000Y-109851000I0J-135000D01*
G01*
X248224000Y-110121000D01*
G75*
G02*
X248089000Y-110256000I-135000J0D01*
G01*
G37*
G04 #@! TD*
G04 #@! TO.C,R8*
G36*
G01*
X256018000Y-90355000D02*
X256018000Y-89985000D01*
G75*
G02*
X256153000Y-89850000I135000J0D01*
G01*
X256423000Y-89850000D01*
G75*
G02*
X256558000Y-89985000I0J-135000D01*
G01*
X256558000Y-90355000D01*
G75*
G02*
X256423000Y-90490000I-135000J0D01*
G01*
X256153000Y-90490000D01*
G75*
G02*
X256018000Y-90355000I0J135000D01*
G01*
G37*
G36*
G01*
X254998000Y-90355000D02*
X254998000Y-89985000D01*
G75*
G02*
X255133000Y-89850000I135000J0D01*
G01*
X255403000Y-89850000D01*
G75*
G02*
X255538000Y-89985000I0J-135000D01*
G01*
X255538000Y-90355000D01*
G75*
G02*
X255403000Y-90490000I-135000J0D01*
G01*
X255133000Y-90490000D01*
G75*
G02*
X254998000Y-90355000I0J135000D01*
G01*
G37*
G04 #@! TD*
G04 #@! TO.C,R7*
G36*
G01*
X246747000Y-102674000D02*
X246747000Y-102304000D01*
G75*
G02*
X246882000Y-102169000I135000J0D01*
G01*
X247152000Y-102169000D01*
G75*
G02*
X247287000Y-102304000I0J-135000D01*
G01*
X247287000Y-102674000D01*
G75*
G02*
X247152000Y-102809000I-135000J0D01*
G01*
X246882000Y-102809000D01*
G75*
G02*
X246747000Y-102674000I0J135000D01*
G01*
G37*
G36*
G01*
X245727000Y-102674000D02*
X245727000Y-102304000D01*
G75*
G02*
X245862000Y-102169000I135000J0D01*
G01*
X246132000Y-102169000D01*
G75*
G02*
X246267000Y-102304000I0J-135000D01*
G01*
X246267000Y-102674000D01*
G75*
G02*
X246132000Y-102809000I-135000J0D01*
G01*
X245862000Y-102809000D01*
G75*
G02*
X245727000Y-102674000I0J135000D01*
G01*
G37*
G04 #@! TD*
G04 #@! TO.C,R6*
G36*
G01*
X246265000Y-103320000D02*
X246265000Y-103690000D01*
G75*
G02*
X246130000Y-103825000I-135000J0D01*
G01*
X245860000Y-103825000D01*
G75*
G02*
X245725000Y-103690000I0J135000D01*
G01*
X245725000Y-103320000D01*
G75*
G02*
X245860000Y-103185000I135000J0D01*
G01*
X246130000Y-103185000D01*
G75*
G02*
X246265000Y-103320000I0J-135000D01*
G01*
G37*
G36*
G01*
X247285000Y-103320000D02*
X247285000Y-103690000D01*
G75*
G02*
X247150000Y-103825000I-135000J0D01*
G01*
X246880000Y-103825000D01*
G75*
G02*
X246745000Y-103690000I0J135000D01*
G01*
X246745000Y-103320000D01*
G75*
G02*
X246880000Y-103185000I135000J0D01*
G01*
X247150000Y-103185000D01*
G75*
G02*
X247285000Y-103320000I0J-135000D01*
G01*
G37*
G04 #@! TD*
G04 #@! TO.C,R5*
G36*
G01*
X251645000Y-89420000D02*
X251275000Y-89420000D01*
G75*
G02*
X251140000Y-89285000I0J135000D01*
G01*
X251140000Y-89015000D01*
G75*
G02*
X251275000Y-88880000I135000J0D01*
G01*
X251645000Y-88880000D01*
G75*
G02*
X251780000Y-89015000I0J-135000D01*
G01*
X251780000Y-89285000D01*
G75*
G02*
X251645000Y-89420000I-135000J0D01*
G01*
G37*
G36*
G01*
X251645000Y-90440000D02*
X251275000Y-90440000D01*
G75*
G02*
X251140000Y-90305000I0J135000D01*
G01*
X251140000Y-90035000D01*
G75*
G02*
X251275000Y-89900000I135000J0D01*
G01*
X251645000Y-89900000D01*
G75*
G02*
X251780000Y-90035000I0J-135000D01*
G01*
X251780000Y-90305000D01*
G75*
G02*
X251645000Y-90440000I-135000J0D01*
G01*
G37*
G04 #@! TD*
G04 #@! TO.C,R4*
G36*
G01*
X241115000Y-106285000D02*
X241485000Y-106285000D01*
G75*
G02*
X241620000Y-106420000I0J-135000D01*
G01*
X241620000Y-106690000D01*
G75*
G02*
X241485000Y-106825000I-135000J0D01*
G01*
X241115000Y-106825000D01*
G75*
G02*
X240980000Y-106690000I0J135000D01*
G01*
X240980000Y-106420000D01*
G75*
G02*
X241115000Y-106285000I135000J0D01*
G01*
G37*
G36*
G01*
X241115000Y-105265000D02*
X241485000Y-105265000D01*
G75*
G02*
X241620000Y-105400000I0J-135000D01*
G01*
X241620000Y-105670000D01*
G75*
G02*
X241485000Y-105805000I-135000J0D01*
G01*
X241115000Y-105805000D01*
G75*
G02*
X240980000Y-105670000I0J135000D01*
G01*
X240980000Y-105400000D01*
G75*
G02*
X241115000Y-105265000I135000J0D01*
G01*
G37*
G04 #@! TD*
D17*
G04 #@! TO.C,Q4*
X244586000Y-98552000D03*
X242586000Y-97602000D03*
X242586000Y-99502000D03*
G04 #@! TD*
G04 #@! TO.C,Q3*
X243300000Y-102235000D03*
X241300000Y-101285000D03*
X241300000Y-103185000D03*
G04 #@! TD*
D18*
G04 #@! TO.C,Q2*
X251460000Y-87360000D03*
X252410000Y-85360000D03*
X250510000Y-85360000D03*
G04 #@! TD*
D12*
G04 #@! TO.C,D4*
X241300000Y-113283000D03*
X241300000Y-109983000D03*
G04 #@! TD*
G04 #@! TO.C,D3*
X249555000Y-112266000D03*
X249555000Y-108966000D03*
G04 #@! TD*
G04 #@! TO.C,D2*
X249555000Y-103761000D03*
X249555000Y-107061000D03*
G04 #@! TD*
G04 #@! TO.C,R3*
G36*
G01*
X252291000Y-89902000D02*
X252661000Y-89902000D01*
G75*
G02*
X252796000Y-90037000I0J-135000D01*
G01*
X252796000Y-90307000D01*
G75*
G02*
X252661000Y-90442000I-135000J0D01*
G01*
X252291000Y-90442000D01*
G75*
G02*
X252156000Y-90307000I0J135000D01*
G01*
X252156000Y-90037000D01*
G75*
G02*
X252291000Y-89902000I135000J0D01*
G01*
G37*
G36*
G01*
X252291000Y-88882000D02*
X252661000Y-88882000D01*
G75*
G02*
X252796000Y-89017000I0J-135000D01*
G01*
X252796000Y-89287000D01*
G75*
G02*
X252661000Y-89422000I-135000J0D01*
G01*
X252291000Y-89422000D01*
G75*
G02*
X252156000Y-89287000I0J135000D01*
G01*
X252156000Y-89017000D01*
G75*
G02*
X252291000Y-88882000I135000J0D01*
G01*
G37*
G04 #@! TD*
D18*
G04 #@! TO.C,Q1*
X255270000Y-88630000D03*
X256220000Y-86630000D03*
X254320000Y-86630000D03*
G04 #@! TD*
G04 #@! TO.C,R1*
G36*
G01*
X248735000Y-86090000D02*
X249105000Y-86090000D01*
G75*
G02*
X249240000Y-86225000I0J-135000D01*
G01*
X249240000Y-86495000D01*
G75*
G02*
X249105000Y-86630000I-135000J0D01*
G01*
X248735000Y-86630000D01*
G75*
G02*
X248600000Y-86495000I0J135000D01*
G01*
X248600000Y-86225000D01*
G75*
G02*
X248735000Y-86090000I135000J0D01*
G01*
G37*
G36*
G01*
X248735000Y-85070000D02*
X249105000Y-85070000D01*
G75*
G02*
X249240000Y-85205000I0J-135000D01*
G01*
X249240000Y-85475000D01*
G75*
G02*
X249105000Y-85610000I-135000J0D01*
G01*
X248735000Y-85610000D01*
G75*
G02*
X248600000Y-85475000I0J135000D01*
G01*
X248600000Y-85205000D01*
G75*
G02*
X248735000Y-85070000I135000J0D01*
G01*
G37*
G04 #@! TD*
D12*
G04 #@! TO.C,D1*
X248285000Y-91820000D03*
X248285000Y-88520000D03*
G04 #@! TD*
G04 #@! TO.C,U1*
G36*
G01*
X252637000Y-108186000D02*
X252637000Y-108386000D01*
G75*
G02*
X252537000Y-108486000I-100000J0D01*
G01*
X251262000Y-108486000D01*
G75*
G02*
X251162000Y-108386000I0J100000D01*
G01*
X251162000Y-108186000D01*
G75*
G02*
X251262000Y-108086000I100000J0D01*
G01*
X252537000Y-108086000D01*
G75*
G02*
X252637000Y-108186000I0J-100000D01*
G01*
G37*
G36*
G01*
X252637000Y-108836000D02*
X252637000Y-109036000D01*
G75*
G02*
X252537000Y-109136000I-100000J0D01*
G01*
X251262000Y-109136000D01*
G75*
G02*
X251162000Y-109036000I0J100000D01*
G01*
X251162000Y-108836000D01*
G75*
G02*
X251262000Y-108736000I100000J0D01*
G01*
X252537000Y-108736000D01*
G75*
G02*
X252637000Y-108836000I0J-100000D01*
G01*
G37*
G36*
G01*
X252637000Y-109486000D02*
X252637000Y-109686000D01*
G75*
G02*
X252537000Y-109786000I-100000J0D01*
G01*
X251262000Y-109786000D01*
G75*
G02*
X251162000Y-109686000I0J100000D01*
G01*
X251162000Y-109486000D01*
G75*
G02*
X251262000Y-109386000I100000J0D01*
G01*
X252537000Y-109386000D01*
G75*
G02*
X252637000Y-109486000I0J-100000D01*
G01*
G37*
G36*
G01*
X252637000Y-110136000D02*
X252637000Y-110336000D01*
G75*
G02*
X252537000Y-110436000I-100000J0D01*
G01*
X251262000Y-110436000D01*
G75*
G02*
X251162000Y-110336000I0J100000D01*
G01*
X251162000Y-110136000D01*
G75*
G02*
X251262000Y-110036000I100000J0D01*
G01*
X252537000Y-110036000D01*
G75*
G02*
X252637000Y-110136000I0J-100000D01*
G01*
G37*
G36*
G01*
X252637000Y-110786000D02*
X252637000Y-110986000D01*
G75*
G02*
X252537000Y-111086000I-100000J0D01*
G01*
X251262000Y-111086000D01*
G75*
G02*
X251162000Y-110986000I0J100000D01*
G01*
X251162000Y-110786000D01*
G75*
G02*
X251262000Y-110686000I100000J0D01*
G01*
X252537000Y-110686000D01*
G75*
G02*
X252637000Y-110786000I0J-100000D01*
G01*
G37*
G36*
G01*
X252637000Y-111436000D02*
X252637000Y-111636000D01*
G75*
G02*
X252537000Y-111736000I-100000J0D01*
G01*
X251262000Y-111736000D01*
G75*
G02*
X251162000Y-111636000I0J100000D01*
G01*
X251162000Y-111436000D01*
G75*
G02*
X251262000Y-111336000I100000J0D01*
G01*
X252537000Y-111336000D01*
G75*
G02*
X252637000Y-111436000I0J-100000D01*
G01*
G37*
G36*
G01*
X252637000Y-112086000D02*
X252637000Y-112286000D01*
G75*
G02*
X252537000Y-112386000I-100000J0D01*
G01*
X251262000Y-112386000D01*
G75*
G02*
X251162000Y-112286000I0J100000D01*
G01*
X251162000Y-112086000D01*
G75*
G02*
X251262000Y-111986000I100000J0D01*
G01*
X252537000Y-111986000D01*
G75*
G02*
X252637000Y-112086000I0J-100000D01*
G01*
G37*
G36*
G01*
X252637000Y-112736000D02*
X252637000Y-112936000D01*
G75*
G02*
X252537000Y-113036000I-100000J0D01*
G01*
X251262000Y-113036000D01*
G75*
G02*
X251162000Y-112936000I0J100000D01*
G01*
X251162000Y-112736000D01*
G75*
G02*
X251262000Y-112636000I100000J0D01*
G01*
X252537000Y-112636000D01*
G75*
G02*
X252637000Y-112736000I0J-100000D01*
G01*
G37*
G36*
G01*
X258362000Y-112736000D02*
X258362000Y-112936000D01*
G75*
G02*
X258262000Y-113036000I-100000J0D01*
G01*
X256987000Y-113036000D01*
G75*
G02*
X256887000Y-112936000I0J100000D01*
G01*
X256887000Y-112736000D01*
G75*
G02*
X256987000Y-112636000I100000J0D01*
G01*
X258262000Y-112636000D01*
G75*
G02*
X258362000Y-112736000I0J-100000D01*
G01*
G37*
G36*
G01*
X258362000Y-112086000D02*
X258362000Y-112286000D01*
G75*
G02*
X258262000Y-112386000I-100000J0D01*
G01*
X256987000Y-112386000D01*
G75*
G02*
X256887000Y-112286000I0J100000D01*
G01*
X256887000Y-112086000D01*
G75*
G02*
X256987000Y-111986000I100000J0D01*
G01*
X258262000Y-111986000D01*
G75*
G02*
X258362000Y-112086000I0J-100000D01*
G01*
G37*
G36*
G01*
X258362000Y-111436000D02*
X258362000Y-111636000D01*
G75*
G02*
X258262000Y-111736000I-100000J0D01*
G01*
X256987000Y-111736000D01*
G75*
G02*
X256887000Y-111636000I0J100000D01*
G01*
X256887000Y-111436000D01*
G75*
G02*
X256987000Y-111336000I100000J0D01*
G01*
X258262000Y-111336000D01*
G75*
G02*
X258362000Y-111436000I0J-100000D01*
G01*
G37*
G36*
G01*
X258362000Y-110786000D02*
X258362000Y-110986000D01*
G75*
G02*
X258262000Y-111086000I-100000J0D01*
G01*
X256987000Y-111086000D01*
G75*
G02*
X256887000Y-110986000I0J100000D01*
G01*
X256887000Y-110786000D01*
G75*
G02*
X256987000Y-110686000I100000J0D01*
G01*
X258262000Y-110686000D01*
G75*
G02*
X258362000Y-110786000I0J-100000D01*
G01*
G37*
G36*
G01*
X258362000Y-110136000D02*
X258362000Y-110336000D01*
G75*
G02*
X258262000Y-110436000I-100000J0D01*
G01*
X256987000Y-110436000D01*
G75*
G02*
X256887000Y-110336000I0J100000D01*
G01*
X256887000Y-110136000D01*
G75*
G02*
X256987000Y-110036000I100000J0D01*
G01*
X258262000Y-110036000D01*
G75*
G02*
X258362000Y-110136000I0J-100000D01*
G01*
G37*
G36*
G01*
X258362000Y-109486000D02*
X258362000Y-109686000D01*
G75*
G02*
X258262000Y-109786000I-100000J0D01*
G01*
X256987000Y-109786000D01*
G75*
G02*
X256887000Y-109686000I0J100000D01*
G01*
X256887000Y-109486000D01*
G75*
G02*
X256987000Y-109386000I100000J0D01*
G01*
X258262000Y-109386000D01*
G75*
G02*
X258362000Y-109486000I0J-100000D01*
G01*
G37*
G36*
G01*
X258362000Y-108836000D02*
X258362000Y-109036000D01*
G75*
G02*
X258262000Y-109136000I-100000J0D01*
G01*
X256987000Y-109136000D01*
G75*
G02*
X256887000Y-109036000I0J100000D01*
G01*
X256887000Y-108836000D01*
G75*
G02*
X256987000Y-108736000I100000J0D01*
G01*
X258262000Y-108736000D01*
G75*
G02*
X258362000Y-108836000I0J-100000D01*
G01*
G37*
G36*
G01*
X258362000Y-108186000D02*
X258362000Y-108386000D01*
G75*
G02*
X258262000Y-108486000I-100000J0D01*
G01*
X256987000Y-108486000D01*
G75*
G02*
X256887000Y-108386000I0J100000D01*
G01*
X256887000Y-108186000D01*
G75*
G02*
X256987000Y-108086000I100000J0D01*
G01*
X258262000Y-108086000D01*
G75*
G02*
X258362000Y-108186000I0J-100000D01*
G01*
G37*
G04 #@! TD*
G04 #@! TO.C,U2*
G36*
G01*
X258595000Y-133120000D02*
X258295000Y-133120000D01*
G75*
G02*
X258145000Y-132970000I0J150000D01*
G01*
X258145000Y-131320000D01*
G75*
G02*
X258295000Y-131170000I150000J0D01*
G01*
X258595000Y-131170000D01*
G75*
G02*
X258745000Y-131320000I0J-150000D01*
G01*
X258745000Y-132970000D01*
G75*
G02*
X258595000Y-133120000I-150000J0D01*
G01*
G37*
G36*
G01*
X257325000Y-133120000D02*
X257025000Y-133120000D01*
G75*
G02*
X256875000Y-132970000I0J150000D01*
G01*
X256875000Y-131320000D01*
G75*
G02*
X257025000Y-131170000I150000J0D01*
G01*
X257325000Y-131170000D01*
G75*
G02*
X257475000Y-131320000I0J-150000D01*
G01*
X257475000Y-132970000D01*
G75*
G02*
X257325000Y-133120000I-150000J0D01*
G01*
G37*
G36*
G01*
X256055000Y-133120000D02*
X255755000Y-133120000D01*
G75*
G02*
X255605000Y-132970000I0J150000D01*
G01*
X255605000Y-131320000D01*
G75*
G02*
X255755000Y-131170000I150000J0D01*
G01*
X256055000Y-131170000D01*
G75*
G02*
X256205000Y-131320000I0J-150000D01*
G01*
X256205000Y-132970000D01*
G75*
G02*
X256055000Y-133120000I-150000J0D01*
G01*
G37*
G36*
G01*
X254785000Y-133120000D02*
X254485000Y-133120000D01*
G75*
G02*
X254335000Y-132970000I0J150000D01*
G01*
X254335000Y-131320000D01*
G75*
G02*
X254485000Y-131170000I150000J0D01*
G01*
X254785000Y-131170000D01*
G75*
G02*
X254935000Y-131320000I0J-150000D01*
G01*
X254935000Y-132970000D01*
G75*
G02*
X254785000Y-133120000I-150000J0D01*
G01*
G37*
G36*
G01*
X253515000Y-133120000D02*
X253215000Y-133120000D01*
G75*
G02*
X253065000Y-132970000I0J150000D01*
G01*
X253065000Y-131320000D01*
G75*
G02*
X253215000Y-131170000I150000J0D01*
G01*
X253515000Y-131170000D01*
G75*
G02*
X253665000Y-131320000I0J-150000D01*
G01*
X253665000Y-132970000D01*
G75*
G02*
X253515000Y-133120000I-150000J0D01*
G01*
G37*
G36*
G01*
X252245000Y-133120000D02*
X251945000Y-133120000D01*
G75*
G02*
X251795000Y-132970000I0J150000D01*
G01*
X251795000Y-131320000D01*
G75*
G02*
X251945000Y-131170000I150000J0D01*
G01*
X252245000Y-131170000D01*
G75*
G02*
X252395000Y-131320000I0J-150000D01*
G01*
X252395000Y-132970000D01*
G75*
G02*
X252245000Y-133120000I-150000J0D01*
G01*
G37*
G36*
G01*
X250975000Y-133120000D02*
X250675000Y-133120000D01*
G75*
G02*
X250525000Y-132970000I0J150000D01*
G01*
X250525000Y-131320000D01*
G75*
G02*
X250675000Y-131170000I150000J0D01*
G01*
X250975000Y-131170000D01*
G75*
G02*
X251125000Y-131320000I0J-150000D01*
G01*
X251125000Y-132970000D01*
G75*
G02*
X250975000Y-133120000I-150000J0D01*
G01*
G37*
G36*
G01*
X249705000Y-133120000D02*
X249405000Y-133120000D01*
G75*
G02*
X249255000Y-132970000I0J150000D01*
G01*
X249255000Y-131320000D01*
G75*
G02*
X249405000Y-131170000I150000J0D01*
G01*
X249705000Y-131170000D01*
G75*
G02*
X249855000Y-131320000I0J-150000D01*
G01*
X249855000Y-132970000D01*
G75*
G02*
X249705000Y-133120000I-150000J0D01*
G01*
G37*
G36*
G01*
X249705000Y-138070000D02*
X249405000Y-138070000D01*
G75*
G02*
X249255000Y-137920000I0J150000D01*
G01*
X249255000Y-136270000D01*
G75*
G02*
X249405000Y-136120000I150000J0D01*
G01*
X249705000Y-136120000D01*
G75*
G02*
X249855000Y-136270000I0J-150000D01*
G01*
X249855000Y-137920000D01*
G75*
G02*
X249705000Y-138070000I-150000J0D01*
G01*
G37*
G36*
G01*
X250975000Y-138070000D02*
X250675000Y-138070000D01*
G75*
G02*
X250525000Y-137920000I0J150000D01*
G01*
X250525000Y-136270000D01*
G75*
G02*
X250675000Y-136120000I150000J0D01*
G01*
X250975000Y-136120000D01*
G75*
G02*
X251125000Y-136270000I0J-150000D01*
G01*
X251125000Y-137920000D01*
G75*
G02*
X250975000Y-138070000I-150000J0D01*
G01*
G37*
G36*
G01*
X252245000Y-138070000D02*
X251945000Y-138070000D01*
G75*
G02*
X251795000Y-137920000I0J150000D01*
G01*
X251795000Y-136270000D01*
G75*
G02*
X251945000Y-136120000I150000J0D01*
G01*
X252245000Y-136120000D01*
G75*
G02*
X252395000Y-136270000I0J-150000D01*
G01*
X252395000Y-137920000D01*
G75*
G02*
X252245000Y-138070000I-150000J0D01*
G01*
G37*
G36*
G01*
X253515000Y-138070000D02*
X253215000Y-138070000D01*
G75*
G02*
X253065000Y-137920000I0J150000D01*
G01*
X253065000Y-136270000D01*
G75*
G02*
X253215000Y-136120000I150000J0D01*
G01*
X253515000Y-136120000D01*
G75*
G02*
X253665000Y-136270000I0J-150000D01*
G01*
X253665000Y-137920000D01*
G75*
G02*
X253515000Y-138070000I-150000J0D01*
G01*
G37*
G36*
G01*
X254785000Y-138070000D02*
X254485000Y-138070000D01*
G75*
G02*
X254335000Y-137920000I0J150000D01*
G01*
X254335000Y-136270000D01*
G75*
G02*
X254485000Y-136120000I150000J0D01*
G01*
X254785000Y-136120000D01*
G75*
G02*
X254935000Y-136270000I0J-150000D01*
G01*
X254935000Y-137920000D01*
G75*
G02*
X254785000Y-138070000I-150000J0D01*
G01*
G37*
G36*
G01*
X256055000Y-138070000D02*
X255755000Y-138070000D01*
G75*
G02*
X255605000Y-137920000I0J150000D01*
G01*
X255605000Y-136270000D01*
G75*
G02*
X255755000Y-136120000I150000J0D01*
G01*
X256055000Y-136120000D01*
G75*
G02*
X256205000Y-136270000I0J-150000D01*
G01*
X256205000Y-137920000D01*
G75*
G02*
X256055000Y-138070000I-150000J0D01*
G01*
G37*
G36*
G01*
X257325000Y-138070000D02*
X257025000Y-138070000D01*
G75*
G02*
X256875000Y-137920000I0J150000D01*
G01*
X256875000Y-136270000D01*
G75*
G02*
X257025000Y-136120000I150000J0D01*
G01*
X257325000Y-136120000D01*
G75*
G02*
X257475000Y-136270000I0J-150000D01*
G01*
X257475000Y-137920000D01*
G75*
G02*
X257325000Y-138070000I-150000J0D01*
G01*
G37*
G36*
G01*
X258595000Y-138070000D02*
X258295000Y-138070000D01*
G75*
G02*
X258145000Y-137920000I0J150000D01*
G01*
X258145000Y-136270000D01*
G75*
G02*
X258295000Y-136120000I150000J0D01*
G01*
X258595000Y-136120000D01*
G75*
G02*
X258745000Y-136270000I0J-150000D01*
G01*
X258745000Y-137920000D01*
G75*
G02*
X258595000Y-138070000I-150000J0D01*
G01*
G37*
G04 #@! TD*
D19*
G04 #@! TO.C,J7*
X245110000Y-84380000D03*
D20*
X245110000Y-81280000D03*
D21*
X245110000Y-92680000D03*
G04 #@! TD*
D19*
G04 #@! TO.C,J6*
X245110000Y-108510000D03*
D20*
X245110000Y-105410000D03*
D21*
X245110000Y-116810000D03*
G04 #@! TD*
D19*
G04 #@! TO.C,J5*
X245110000Y-132670000D03*
D20*
X245110000Y-129570000D03*
D21*
X245110000Y-140970000D03*
G04 #@! TD*
D19*
G04 #@! TO.C,J4*
X254000000Y-168230000D03*
D20*
X254000000Y-165130000D03*
D21*
X254000000Y-176530000D03*
G04 #@! TD*
D19*
G04 #@! TO.C,J3*
X254000000Y-144100000D03*
D20*
X254000000Y-141000000D03*
D21*
X254000000Y-152400000D03*
G04 #@! TD*
D19*
G04 #@! TO.C,J2*
X254000000Y-119940000D03*
D20*
X254000000Y-116840000D03*
D21*
X254000000Y-128240000D03*
G04 #@! TD*
D19*
G04 #@! TO.C,J1*
X254000000Y-95810000D03*
D20*
X254000000Y-92710000D03*
D21*
X254000000Y-104110000D03*
G04 #@! TD*
M02*
