G04 #@! TF.GenerationSoftware,KiCad,Pcbnew,(5.1.9)-1*
G04 #@! TF.CreationDate,2021-08-04T02:23:12+02:00*
G04 #@! TF.ProjectId,sequswit,73657175-7377-4697-942e-6b696361645f,rev?*
G04 #@! TF.SameCoordinates,Original*
G04 #@! TF.FileFunction,Copper,L1,Top*
G04 #@! TF.FilePolarity,Positive*
%FSLAX46Y46*%
G04 Gerber Fmt 4.6, Leading zero omitted, Abs format (unit mm)*
G04 Created by KiCad (PCBNEW (5.1.9)-1) date 2021-08-04 02:23:12*
%MOMM*%
%LPD*%
G01*
G04 APERTURE LIST*
G04 #@! TA.AperFunction,ComponentPad*
%ADD10C,2.000000*%
G04 #@! TD*
G04 #@! TA.AperFunction,ComponentPad*
%ADD11O,1.700000X1.700000*%
G04 #@! TD*
G04 #@! TA.AperFunction,ComponentPad*
%ADD12R,1.700000X1.700000*%
G04 #@! TD*
G04 #@! TA.AperFunction,ComponentPad*
%ADD13C,1.800000*%
G04 #@! TD*
G04 #@! TA.AperFunction,ComponentPad*
%ADD14R,1.800000X1.800000*%
G04 #@! TD*
G04 #@! TA.AperFunction,ComponentPad*
%ADD15O,2.800000X2.350000*%
G04 #@! TD*
G04 #@! TA.AperFunction,ComponentPad*
%ADD16R,2.600000X2.150000*%
G04 #@! TD*
G04 #@! TA.AperFunction,ComponentPad*
%ADD17C,2.700000*%
G04 #@! TD*
G04 #@! TA.AperFunction,ViaPad*
%ADD18C,0.800000*%
G04 #@! TD*
G04 #@! TA.AperFunction,Conductor*
%ADD19C,0.250000*%
G04 #@! TD*
G04 #@! TA.AperFunction,Conductor*
%ADD20C,0.200000*%
G04 #@! TD*
G04 #@! TA.AperFunction,Conductor*
%ADD21C,0.100000*%
G04 #@! TD*
G04 APERTURE END LIST*
D10*
G04 #@! TO.P,SW1,3*
G04 #@! TO.N,Net-(R19-Pad2)*
X245340000Y-161290000D03*
G04 #@! TO.P,SW1,2*
G04 #@! TO.N,Net-(D6-Pad2)*
X245340000Y-158670000D03*
G04 #@! TO.P,SW1,1*
G04 #@! TO.N,Net-(R18-Pad2)*
X245340000Y-156210000D03*
G04 #@! TD*
D11*
G04 #@! TO.P,J8,10*
G04 #@! TO.N,Net-(FB2-Pad2)*
X242570000Y-176530000D03*
G04 #@! TO.P,J8,9*
X245110000Y-176530000D03*
G04 #@! TO.P,J8,8*
G04 #@! TO.N,GNDREF*
X242570000Y-173990000D03*
G04 #@! TO.P,J8,7*
X245110000Y-173990000D03*
G04 #@! TO.P,J8,6*
X242570000Y-171450000D03*
G04 #@! TO.P,J8,5*
X245110000Y-171450000D03*
G04 #@! TO.P,J8,4*
X242570000Y-168910000D03*
G04 #@! TO.P,J8,3*
X245110000Y-168910000D03*
G04 #@! TO.P,J8,2*
G04 #@! TO.N,Net-(D11-Pad2)*
X242570000Y-166370000D03*
D12*
G04 #@! TO.P,J8,1*
X245110000Y-166370000D03*
G04 #@! TD*
D13*
G04 #@! TO.P,D10,2*
G04 #@! TO.N,Net-(D10-Pad2)*
X247650000Y-170180000D03*
D14*
G04 #@! TO.P,D10,1*
G04 #@! TO.N,GNDREF*
X247650000Y-172720000D03*
G04 #@! TD*
D13*
G04 #@! TO.P,D9,2*
G04 #@! TO.N,Net-(D9-Pad2)*
X247650000Y-146304000D03*
D14*
G04 #@! TO.P,D9,1*
G04 #@! TO.N,GNDREF*
X247650000Y-148844000D03*
G04 #@! TD*
D13*
G04 #@! TO.P,D8,2*
G04 #@! TO.N,Net-(D8-Pad2)*
X247650000Y-122174000D03*
D14*
G04 #@! TO.P,D8,1*
G04 #@! TO.N,GNDREF*
X247650000Y-124714000D03*
G04 #@! TD*
D13*
G04 #@! TO.P,D7,2*
G04 #@! TO.N,Net-(D7-Pad2)*
X247650000Y-100330000D03*
D14*
G04 #@! TO.P,D7,1*
G04 #@! TO.N,GNDREF*
X247650000Y-97790000D03*
G04 #@! TD*
D15*
G04 #@! TO.P,J7,TN*
G04 #@! TO.N,Net-(J7-PadTN)*
X245110000Y-84380000D03*
D16*
G04 #@! TO.P,J7,S*
G04 #@! TO.N,GNDREF*
X245110000Y-81280000D03*
D17*
G04 #@! TO.P,J7,T*
G04 #@! TO.N,Net-(D1-Pad2)*
X245110000Y-92680000D03*
G04 #@! TD*
D15*
G04 #@! TO.P,J6,TN*
G04 #@! TO.N,Net-(J6-PadTN)*
X245110000Y-108510000D03*
D16*
G04 #@! TO.P,J6,S*
G04 #@! TO.N,GNDREF*
X245110000Y-105410000D03*
D17*
G04 #@! TO.P,J6,T*
G04 #@! TO.N,Net-(D4-Pad2)*
X245110000Y-116810000D03*
G04 #@! TD*
D15*
G04 #@! TO.P,J5,TN*
G04 #@! TO.N,Net-(J5-PadTN)*
X245110000Y-132670000D03*
D16*
G04 #@! TO.P,J5,S*
G04 #@! TO.N,GNDREF*
X245110000Y-129570000D03*
D17*
G04 #@! TO.P,J5,T*
G04 #@! TO.N,Net-(J5-PadT)*
X245110000Y-140970000D03*
G04 #@! TD*
D15*
G04 #@! TO.P,J4,TN*
G04 #@! TO.N,Net-(J4-PadTN)*
X254000000Y-168230000D03*
D16*
G04 #@! TO.P,J4,S*
G04 #@! TO.N,GNDREF*
X254000000Y-165130000D03*
D17*
G04 #@! TO.P,J4,T*
G04 #@! TO.N,out4*
X254000000Y-176530000D03*
G04 #@! TD*
D15*
G04 #@! TO.P,J3,TN*
G04 #@! TO.N,Net-(J3-PadTN)*
X254000000Y-144100000D03*
D16*
G04 #@! TO.P,J3,S*
G04 #@! TO.N,GNDREF*
X254000000Y-141000000D03*
D17*
G04 #@! TO.P,J3,T*
G04 #@! TO.N,out3*
X254000000Y-152400000D03*
G04 #@! TD*
D15*
G04 #@! TO.P,J2,TN*
G04 #@! TO.N,Net-(J2-PadTN)*
X254000000Y-119940000D03*
D16*
G04 #@! TO.P,J2,S*
G04 #@! TO.N,GNDREF*
X254000000Y-116840000D03*
D17*
G04 #@! TO.P,J2,T*
G04 #@! TO.N,out2*
X254000000Y-128240000D03*
G04 #@! TD*
D15*
G04 #@! TO.P,J1,TN*
G04 #@! TO.N,Net-(J1-PadTN)*
X254000000Y-95810000D03*
D16*
G04 #@! TO.P,J1,S*
G04 #@! TO.N,GNDREF*
X254000000Y-92710000D03*
D17*
G04 #@! TO.P,J1,T*
G04 #@! TO.N,out1*
X254000000Y-104110000D03*
G04 #@! TD*
D18*
G04 #@! TO.N,Net-(R19-Pad2)*
X255143000Y-155194000D03*
X256794000Y-155194000D03*
X256561990Y-121136010D03*
X258064000Y-122638020D03*
G04 #@! TO.N,Net-(R17-Pad2)*
X249047000Y-129032000D03*
X249047000Y-127000000D03*
G04 #@! TO.N,Net-(R18-Pad2)*
X245364000Y-152527000D03*
X245364000Y-150876000D03*
X254762000Y-113792000D03*
X253238000Y-113792000D03*
X242951000Y-128841500D03*
X242951000Y-127254000D03*
G04 #@! TO.N,MR*
X241808000Y-127127000D03*
X241808000Y-129032000D03*
G04 #@! TO.N,GNDREF*
X242570000Y-96139000D03*
X240792000Y-100203000D03*
X247904000Y-110871000D03*
X250571000Y-110236000D03*
X257683000Y-113665000D03*
X252730000Y-138811000D03*
X253492000Y-85344000D03*
X257175000Y-87503000D03*
X257175000Y-90170000D03*
X242062000Y-151892000D03*
X247396000Y-130048000D03*
X247142000Y-104902000D03*
X252984000Y-161290000D03*
X242062000Y-149860000D03*
X242062000Y-150876000D03*
X251714000Y-138938000D03*
X241046000Y-151384000D03*
X241046000Y-150368000D03*
X241046000Y-149352000D03*
X247396000Y-131064000D03*
X257683000Y-114935000D03*
G04 #@! TD*
D19*
G04 #@! TO.N,Net-(R19-Pad2)*
X256794000Y-155194000D02*
X256794000Y-155194000D01*
X255143000Y-155194000D02*
X256794000Y-155194000D01*
X256561990Y-121136010D02*
X258064000Y-122638020D01*
G04 #@! TO.N,Net-(R17-Pad2)*
X249047000Y-129032000D02*
X249047000Y-127000000D01*
X249047000Y-127000000D02*
X249047000Y-127000000D01*
G04 #@! TO.N,Net-(R18-Pad2)*
X254762000Y-113792000D02*
X253238000Y-113792000D01*
X253238000Y-113792000D02*
X253238000Y-113792000D01*
X245364000Y-152527000D02*
X245364000Y-150876000D01*
X242951000Y-128841500D02*
X242951000Y-127254000D01*
G04 #@! TO.N,MR*
X241808000Y-127127000D02*
X241808000Y-129032000D01*
G04 #@! TD*
D20*
G04 #@! TO.N,GNDREF*
X259774773Y-178514300D02*
X240424772Y-178514300D01*
X240421871Y-174368910D01*
X241162097Y-174368910D01*
X241188854Y-174457139D01*
X241306527Y-174717611D01*
X241472754Y-174950122D01*
X241681148Y-175145736D01*
X241923700Y-175296935D01*
X242191089Y-175397909D01*
X242415998Y-175287851D01*
X242415998Y-175388103D01*
X242234557Y-175424194D01*
X242025271Y-175510884D01*
X241836918Y-175636737D01*
X241676737Y-175796918D01*
X241550884Y-175985271D01*
X241464194Y-176194557D01*
X241420000Y-176416735D01*
X241420000Y-176643265D01*
X241464194Y-176865443D01*
X241550884Y-177074729D01*
X241676737Y-177263082D01*
X241836918Y-177423263D01*
X242025271Y-177549116D01*
X242234557Y-177635806D01*
X242456735Y-177680000D01*
X242683265Y-177680000D01*
X242905443Y-177635806D01*
X243114729Y-177549116D01*
X243303082Y-177423263D01*
X243463263Y-177263082D01*
X243589116Y-177074729D01*
X243675806Y-176865443D01*
X243720000Y-176643265D01*
X243720000Y-176416735D01*
X243675806Y-176194557D01*
X243589116Y-175985271D01*
X243463263Y-175796918D01*
X243303082Y-175636737D01*
X243114729Y-175510884D01*
X242905443Y-175424194D01*
X242724002Y-175388103D01*
X242724002Y-175287851D01*
X242948911Y-175397909D01*
X243216300Y-175296935D01*
X243458852Y-175145736D01*
X243667246Y-174950122D01*
X243833473Y-174717611D01*
X243840000Y-174703163D01*
X243846527Y-174717611D01*
X244012754Y-174950122D01*
X244221148Y-175145736D01*
X244463700Y-175296935D01*
X244731089Y-175397909D01*
X244955998Y-175287851D01*
X244955998Y-175388103D01*
X244774557Y-175424194D01*
X244565271Y-175510884D01*
X244376918Y-175636737D01*
X244216737Y-175796918D01*
X244090884Y-175985271D01*
X244004194Y-176194557D01*
X243960000Y-176416735D01*
X243960000Y-176643265D01*
X244004194Y-176865443D01*
X244090884Y-177074729D01*
X244216737Y-177263082D01*
X244376918Y-177423263D01*
X244565271Y-177549116D01*
X244774557Y-177635806D01*
X244996735Y-177680000D01*
X245223265Y-177680000D01*
X245445443Y-177635806D01*
X245654729Y-177549116D01*
X245843082Y-177423263D01*
X246003263Y-177263082D01*
X246129116Y-177074729D01*
X246215806Y-176865443D01*
X246260000Y-176643265D01*
X246260000Y-176416735D01*
X246250205Y-176367489D01*
X252350000Y-176367489D01*
X252350000Y-176692511D01*
X252413408Y-177011287D01*
X252537789Y-177311568D01*
X252718361Y-177581814D01*
X252948186Y-177811639D01*
X253218432Y-177992211D01*
X253518713Y-178116592D01*
X253837489Y-178180000D01*
X254162511Y-178180000D01*
X254481287Y-178116592D01*
X254781568Y-177992211D01*
X255051814Y-177811639D01*
X255281639Y-177581814D01*
X255462211Y-177311568D01*
X255586592Y-177011287D01*
X255650000Y-176692511D01*
X255650000Y-176367489D01*
X255586592Y-176048713D01*
X255462211Y-175748432D01*
X255281639Y-175478186D01*
X255051814Y-175248361D01*
X254781568Y-175067789D01*
X254481287Y-174943408D01*
X254162511Y-174880000D01*
X253837489Y-174880000D01*
X253518713Y-174943408D01*
X253218432Y-175067789D01*
X252948186Y-175248361D01*
X252718361Y-175478186D01*
X252537789Y-175748432D01*
X252413408Y-176048713D01*
X252350000Y-176367489D01*
X246250205Y-176367489D01*
X246215806Y-176194557D01*
X246129116Y-175985271D01*
X246003263Y-175796918D01*
X245843082Y-175636737D01*
X245654729Y-175510884D01*
X245445443Y-175424194D01*
X245264002Y-175388103D01*
X245264002Y-175287851D01*
X245488911Y-175397909D01*
X245756300Y-175296935D01*
X245998852Y-175145736D01*
X246207246Y-174950122D01*
X246373473Y-174717611D01*
X246491146Y-174457139D01*
X246517903Y-174368910D01*
X246406890Y-174144002D01*
X246440554Y-174144002D01*
X246516203Y-174184437D01*
X246630811Y-174219203D01*
X246750000Y-174230942D01*
X247344000Y-174228000D01*
X247496000Y-174076000D01*
X247496000Y-172874000D01*
X247804000Y-172874000D01*
X247804000Y-174076000D01*
X247956000Y-174228000D01*
X248550000Y-174230942D01*
X248669189Y-174219203D01*
X248783797Y-174184437D01*
X248889421Y-174127980D01*
X248982001Y-174052001D01*
X249057980Y-173959421D01*
X249114437Y-173853797D01*
X249149203Y-173739189D01*
X249160942Y-173620000D01*
X249158000Y-173026000D01*
X249006000Y-172874000D01*
X247804000Y-172874000D01*
X247496000Y-172874000D01*
X246294000Y-172874000D01*
X246171591Y-172996409D01*
X245998852Y-172834264D01*
X245815551Y-172720000D01*
X245998852Y-172605736D01*
X246171591Y-172443591D01*
X246294000Y-172566000D01*
X247496000Y-172566000D01*
X247496000Y-172546000D01*
X247804000Y-172546000D01*
X247804000Y-172566000D01*
X249006000Y-172566000D01*
X249158000Y-172414000D01*
X249160942Y-171820000D01*
X249149203Y-171700811D01*
X249114437Y-171586203D01*
X249057980Y-171480579D01*
X248982001Y-171387999D01*
X248889421Y-171312020D01*
X248783797Y-171255563D01*
X248669189Y-171220797D01*
X248550000Y-171209058D01*
X248267756Y-171210456D01*
X248414955Y-171112101D01*
X248582101Y-170944955D01*
X248713426Y-170748413D01*
X248803884Y-170530027D01*
X248850000Y-170298190D01*
X248850000Y-170061810D01*
X248803884Y-169829973D01*
X248713426Y-169611587D01*
X248582101Y-169415045D01*
X248414955Y-169247899D01*
X248218413Y-169116574D01*
X248000027Y-169026116D01*
X247768190Y-168980000D01*
X247531810Y-168980000D01*
X247299973Y-169026116D01*
X247081587Y-169116574D01*
X246885045Y-169247899D01*
X246717899Y-169415045D01*
X246586574Y-169611587D01*
X246496116Y-169829973D01*
X246450000Y-170061810D01*
X246450000Y-170298190D01*
X246496116Y-170530027D01*
X246586574Y-170748413D01*
X246717899Y-170944955D01*
X246885045Y-171112101D01*
X247032244Y-171210456D01*
X246750000Y-171209058D01*
X246630811Y-171220797D01*
X246516203Y-171255563D01*
X246440554Y-171295998D01*
X246406890Y-171295998D01*
X246517903Y-171071090D01*
X246491146Y-170982861D01*
X246373473Y-170722389D01*
X246207246Y-170489878D01*
X245998852Y-170294264D01*
X245815551Y-170180000D01*
X245998852Y-170065736D01*
X246207246Y-169870122D01*
X246373473Y-169637611D01*
X246491146Y-169377139D01*
X246517903Y-169288910D01*
X246406889Y-169064000D01*
X245264000Y-169064000D01*
X245264000Y-171296000D01*
X245284000Y-171296000D01*
X245284000Y-171604000D01*
X245264000Y-171604000D01*
X245264000Y-173836000D01*
X245284000Y-173836000D01*
X245284000Y-174144000D01*
X245264000Y-174144000D01*
X245264000Y-174164000D01*
X244956000Y-174164000D01*
X244956000Y-174144000D01*
X242724000Y-174144000D01*
X242724000Y-174164000D01*
X242416000Y-174164000D01*
X242416000Y-174144000D01*
X241273111Y-174144000D01*
X241162097Y-174368910D01*
X240421871Y-174368910D01*
X240420093Y-171828910D01*
X241162097Y-171828910D01*
X241188854Y-171917139D01*
X241306527Y-172177611D01*
X241472754Y-172410122D01*
X241681148Y-172605736D01*
X241864449Y-172720000D01*
X241681148Y-172834264D01*
X241472754Y-173029878D01*
X241306527Y-173262389D01*
X241188854Y-173522861D01*
X241162097Y-173611090D01*
X241273111Y-173836000D01*
X242416000Y-173836000D01*
X242416000Y-171604000D01*
X242724000Y-171604000D01*
X242724000Y-173836000D01*
X244956000Y-173836000D01*
X244956000Y-171604000D01*
X242724000Y-171604000D01*
X242416000Y-171604000D01*
X241273111Y-171604000D01*
X241162097Y-171828910D01*
X240420093Y-171828910D01*
X240418315Y-169288910D01*
X241162097Y-169288910D01*
X241188854Y-169377139D01*
X241306527Y-169637611D01*
X241472754Y-169870122D01*
X241681148Y-170065736D01*
X241864449Y-170180000D01*
X241681148Y-170294264D01*
X241472754Y-170489878D01*
X241306527Y-170722389D01*
X241188854Y-170982861D01*
X241162097Y-171071090D01*
X241273111Y-171296000D01*
X242416000Y-171296000D01*
X242416000Y-169064000D01*
X242724000Y-169064000D01*
X242724000Y-171296000D01*
X244956000Y-171296000D01*
X244956000Y-169064000D01*
X242724000Y-169064000D01*
X242416000Y-169064000D01*
X241273111Y-169064000D01*
X241162097Y-169288910D01*
X240418315Y-169288910D01*
X240417785Y-168531090D01*
X241162097Y-168531090D01*
X241273111Y-168756000D01*
X242416000Y-168756000D01*
X242416000Y-168736000D01*
X242724000Y-168736000D01*
X242724000Y-168756000D01*
X244956000Y-168756000D01*
X244956000Y-168736000D01*
X245264000Y-168736000D01*
X245264000Y-168756000D01*
X246406889Y-168756000D01*
X246517903Y-168531090D01*
X246491146Y-168442861D01*
X246373473Y-168182389D01*
X246207246Y-167949878D01*
X245998852Y-167754264D01*
X245756300Y-167603065D01*
X245540178Y-167521451D01*
X245960000Y-167521451D01*
X246018810Y-167515659D01*
X246075360Y-167498504D01*
X246127477Y-167470647D01*
X246173158Y-167433158D01*
X246210647Y-167387477D01*
X246238504Y-167335360D01*
X246255659Y-167278810D01*
X246261451Y-167220000D01*
X246261451Y-166205000D01*
X252089058Y-166205000D01*
X252100797Y-166324189D01*
X252135563Y-166438797D01*
X252192020Y-166544421D01*
X252267999Y-166637001D01*
X252360579Y-166712980D01*
X252466203Y-166769437D01*
X252580811Y-166804203D01*
X252700000Y-166815942D01*
X253361766Y-166813983D01*
X253207811Y-166860685D01*
X252951569Y-166997649D01*
X252726972Y-167181972D01*
X252542649Y-167406569D01*
X252405685Y-167662811D01*
X252321343Y-167940850D01*
X252292864Y-168230000D01*
X252321343Y-168519150D01*
X252405685Y-168797189D01*
X252542649Y-169053431D01*
X252726972Y-169278028D01*
X252951569Y-169462351D01*
X253207811Y-169599315D01*
X253485850Y-169683657D01*
X253702548Y-169705000D01*
X254297452Y-169705000D01*
X254514150Y-169683657D01*
X254792189Y-169599315D01*
X255048431Y-169462351D01*
X255273028Y-169278028D01*
X255457351Y-169053431D01*
X255594315Y-168797189D01*
X255678657Y-168519150D01*
X255707136Y-168230000D01*
X255678657Y-167940850D01*
X255594315Y-167662811D01*
X255457351Y-167406569D01*
X255273028Y-167181972D01*
X255048431Y-166997649D01*
X254792189Y-166860685D01*
X254638234Y-166813983D01*
X255300000Y-166815942D01*
X255419189Y-166804203D01*
X255533797Y-166769437D01*
X255639421Y-166712980D01*
X255732001Y-166637001D01*
X255807980Y-166544421D01*
X255864437Y-166438797D01*
X255899203Y-166324189D01*
X255910942Y-166205000D01*
X255908000Y-165436000D01*
X255756000Y-165284000D01*
X254154000Y-165284000D01*
X254154000Y-165304000D01*
X253846000Y-165304000D01*
X253846000Y-165284000D01*
X252244000Y-165284000D01*
X252092000Y-165436000D01*
X252089058Y-166205000D01*
X246261451Y-166205000D01*
X246261451Y-165520000D01*
X246255659Y-165461190D01*
X246238504Y-165404640D01*
X246210647Y-165352523D01*
X246173158Y-165306842D01*
X246127477Y-165269353D01*
X246075360Y-165241496D01*
X246018810Y-165224341D01*
X245960000Y-165218549D01*
X244260000Y-165218549D01*
X244201190Y-165224341D01*
X244144640Y-165241496D01*
X244092523Y-165269353D01*
X244046842Y-165306842D01*
X244009353Y-165352523D01*
X243981496Y-165404640D01*
X243964341Y-165461190D01*
X243958549Y-165520000D01*
X243958549Y-167220000D01*
X243964341Y-167278810D01*
X243981496Y-167335360D01*
X244009353Y-167387477D01*
X244046842Y-167433158D01*
X244092523Y-167470647D01*
X244144640Y-167498504D01*
X244201190Y-167515659D01*
X244260000Y-167521451D01*
X244679822Y-167521451D01*
X244463700Y-167603065D01*
X244221148Y-167754264D01*
X244012754Y-167949878D01*
X243846527Y-168182389D01*
X243840000Y-168196837D01*
X243833473Y-168182389D01*
X243667246Y-167949878D01*
X243458852Y-167754264D01*
X243216300Y-167603065D01*
X242948911Y-167502091D01*
X242724002Y-167612149D01*
X242724002Y-167511897D01*
X242905443Y-167475806D01*
X243114729Y-167389116D01*
X243303082Y-167263263D01*
X243463263Y-167103082D01*
X243589116Y-166914729D01*
X243675806Y-166705443D01*
X243720000Y-166483265D01*
X243720000Y-166256735D01*
X243675806Y-166034557D01*
X243589116Y-165825271D01*
X243463263Y-165636918D01*
X243303082Y-165476737D01*
X243114729Y-165350884D01*
X242905443Y-165264194D01*
X242683265Y-165220000D01*
X242456735Y-165220000D01*
X242234557Y-165264194D01*
X242025271Y-165350884D01*
X241836918Y-165476737D01*
X241676737Y-165636918D01*
X241550884Y-165825271D01*
X241464194Y-166034557D01*
X241420000Y-166256735D01*
X241420000Y-166483265D01*
X241464194Y-166705443D01*
X241550884Y-166914729D01*
X241676737Y-167103082D01*
X241836918Y-167263263D01*
X242025271Y-167389116D01*
X242234557Y-167475806D01*
X242415998Y-167511897D01*
X242415998Y-167612149D01*
X242191089Y-167502091D01*
X241923700Y-167603065D01*
X241681148Y-167754264D01*
X241472754Y-167949878D01*
X241306527Y-168182389D01*
X241188854Y-168442861D01*
X241162097Y-168531090D01*
X240417785Y-168531090D01*
X240414652Y-164055000D01*
X252089058Y-164055000D01*
X252092000Y-164824000D01*
X252244000Y-164976000D01*
X253846000Y-164976000D01*
X253846000Y-163599000D01*
X254154000Y-163599000D01*
X254154000Y-164976000D01*
X255756000Y-164976000D01*
X255908000Y-164824000D01*
X255910942Y-164055000D01*
X255899203Y-163935811D01*
X255864437Y-163821203D01*
X255807980Y-163715579D01*
X255732001Y-163622999D01*
X255639421Y-163547020D01*
X255533797Y-163490563D01*
X255419189Y-163455797D01*
X255300000Y-163444058D01*
X254306000Y-163447000D01*
X254154000Y-163599000D01*
X253846000Y-163599000D01*
X253694000Y-163447000D01*
X252700000Y-163444058D01*
X252580811Y-163455797D01*
X252466203Y-163490563D01*
X252360579Y-163547020D01*
X252267999Y-163622999D01*
X252192020Y-163715579D01*
X252135563Y-163821203D01*
X252100797Y-163935811D01*
X252089058Y-164055000D01*
X240414652Y-164055000D01*
X240412627Y-161161961D01*
X244040000Y-161161961D01*
X244040000Y-161418039D01*
X244089958Y-161669196D01*
X244187955Y-161905781D01*
X244330224Y-162118702D01*
X244511298Y-162299776D01*
X244724219Y-162442045D01*
X244960804Y-162540042D01*
X245211961Y-162590000D01*
X245468039Y-162590000D01*
X245719196Y-162540042D01*
X245955781Y-162442045D01*
X246168702Y-162299776D01*
X246349776Y-162118702D01*
X246492045Y-161905781D01*
X246590042Y-161669196D01*
X246640000Y-161418039D01*
X246640000Y-161161961D01*
X246590042Y-160910804D01*
X246492045Y-160674219D01*
X246349776Y-160461298D01*
X246168702Y-160280224D01*
X245955781Y-160137955D01*
X245719196Y-160039958D01*
X245468039Y-159990000D01*
X245211961Y-159990000D01*
X244960804Y-160039958D01*
X244724219Y-160137955D01*
X244511298Y-160280224D01*
X244330224Y-160461298D01*
X244187955Y-160674219D01*
X244089958Y-160910804D01*
X244040000Y-161161961D01*
X240412627Y-161161961D01*
X240409071Y-156081961D01*
X244040000Y-156081961D01*
X244040000Y-156338039D01*
X244089958Y-156589196D01*
X244187955Y-156825781D01*
X244330224Y-157038702D01*
X244511298Y-157219776D01*
X244724219Y-157362045D01*
X244912418Y-157440000D01*
X244724219Y-157517955D01*
X244511298Y-157660224D01*
X244330224Y-157841298D01*
X244187955Y-158054219D01*
X244089958Y-158290804D01*
X244040000Y-158541961D01*
X244040000Y-158798039D01*
X244089958Y-159049196D01*
X244187955Y-159285781D01*
X244330224Y-159498702D01*
X244511298Y-159679776D01*
X244724219Y-159822045D01*
X244960804Y-159920042D01*
X245211961Y-159970000D01*
X245468039Y-159970000D01*
X245719196Y-159920042D01*
X245955781Y-159822045D01*
X246168702Y-159679776D01*
X246349776Y-159498702D01*
X246492045Y-159285781D01*
X246590042Y-159049196D01*
X246640000Y-158798039D01*
X246640000Y-158541961D01*
X246590042Y-158290804D01*
X246492045Y-158054219D01*
X246349776Y-157841298D01*
X246168702Y-157660224D01*
X245955781Y-157517955D01*
X245767582Y-157440000D01*
X245955781Y-157362045D01*
X246168702Y-157219776D01*
X246349776Y-157038702D01*
X246492045Y-156825781D01*
X246590042Y-156589196D01*
X246640000Y-156338039D01*
X246640000Y-156081961D01*
X246590042Y-155830804D01*
X246492045Y-155594219D01*
X246349776Y-155381298D01*
X246168702Y-155200224D01*
X246056205Y-155125056D01*
X254443000Y-155125056D01*
X254443000Y-155262944D01*
X254469901Y-155398182D01*
X254522668Y-155525574D01*
X254599274Y-155640224D01*
X254696776Y-155737726D01*
X254811426Y-155814332D01*
X254938818Y-155867099D01*
X255074056Y-155894000D01*
X255211944Y-155894000D01*
X255347182Y-155867099D01*
X255474574Y-155814332D01*
X255589224Y-155737726D01*
X255686726Y-155640224D01*
X255700907Y-155619000D01*
X256236093Y-155619000D01*
X256250274Y-155640224D01*
X256347776Y-155737726D01*
X256462426Y-155814332D01*
X256589818Y-155867099D01*
X256725056Y-155894000D01*
X256862944Y-155894000D01*
X256998182Y-155867099D01*
X257125574Y-155814332D01*
X257240224Y-155737726D01*
X257337726Y-155640224D01*
X257414332Y-155525574D01*
X257467099Y-155398182D01*
X257494000Y-155262944D01*
X257494000Y-155125056D01*
X257467099Y-154989818D01*
X257414332Y-154862426D01*
X257337726Y-154747776D01*
X257240224Y-154650274D01*
X257125574Y-154573668D01*
X256998182Y-154520901D01*
X256862944Y-154494000D01*
X256725056Y-154494000D01*
X256589818Y-154520901D01*
X256462426Y-154573668D01*
X256347776Y-154650274D01*
X256250274Y-154747776D01*
X256236093Y-154769000D01*
X255700907Y-154769000D01*
X255686726Y-154747776D01*
X255589224Y-154650274D01*
X255474574Y-154573668D01*
X255347182Y-154520901D01*
X255211944Y-154494000D01*
X255074056Y-154494000D01*
X254938818Y-154520901D01*
X254811426Y-154573668D01*
X254696776Y-154650274D01*
X254599274Y-154747776D01*
X254522668Y-154862426D01*
X254469901Y-154989818D01*
X254443000Y-155125056D01*
X246056205Y-155125056D01*
X245955781Y-155057955D01*
X245719196Y-154959958D01*
X245468039Y-154910000D01*
X245211961Y-154910000D01*
X244960804Y-154959958D01*
X244724219Y-155057955D01*
X244511298Y-155200224D01*
X244330224Y-155381298D01*
X244187955Y-155594219D01*
X244089958Y-155830804D01*
X244040000Y-156081961D01*
X240409071Y-156081961D01*
X240405379Y-150807056D01*
X244664000Y-150807056D01*
X244664000Y-150944944D01*
X244690901Y-151080182D01*
X244743668Y-151207574D01*
X244820274Y-151322224D01*
X244917776Y-151419726D01*
X244939001Y-151433908D01*
X244939000Y-151969092D01*
X244917776Y-151983274D01*
X244820274Y-152080776D01*
X244743668Y-152195426D01*
X244690901Y-152322818D01*
X244664000Y-152458056D01*
X244664000Y-152595944D01*
X244690901Y-152731182D01*
X244743668Y-152858574D01*
X244820274Y-152973224D01*
X244917776Y-153070726D01*
X245032426Y-153147332D01*
X245159818Y-153200099D01*
X245295056Y-153227000D01*
X245432944Y-153227000D01*
X245568182Y-153200099D01*
X245695574Y-153147332D01*
X245810224Y-153070726D01*
X245907726Y-152973224D01*
X245984332Y-152858574D01*
X246037099Y-152731182D01*
X246064000Y-152595944D01*
X246064000Y-152458056D01*
X246037099Y-152322818D01*
X246001755Y-152237489D01*
X252350000Y-152237489D01*
X252350000Y-152562511D01*
X252413408Y-152881287D01*
X252537789Y-153181568D01*
X252718361Y-153451814D01*
X252948186Y-153681639D01*
X253218432Y-153862211D01*
X253518713Y-153986592D01*
X253837489Y-154050000D01*
X254162511Y-154050000D01*
X254481287Y-153986592D01*
X254781568Y-153862211D01*
X255051814Y-153681639D01*
X255281639Y-153451814D01*
X255462211Y-153181568D01*
X255586592Y-152881287D01*
X255650000Y-152562511D01*
X255650000Y-152237489D01*
X255586592Y-151918713D01*
X255462211Y-151618432D01*
X255281639Y-151348186D01*
X255051814Y-151118361D01*
X254781568Y-150937789D01*
X254481287Y-150813408D01*
X254162511Y-150750000D01*
X253837489Y-150750000D01*
X253518713Y-150813408D01*
X253218432Y-150937789D01*
X252948186Y-151118361D01*
X252718361Y-151348186D01*
X252537789Y-151618432D01*
X252413408Y-151918713D01*
X252350000Y-152237489D01*
X246001755Y-152237489D01*
X245984332Y-152195426D01*
X245907726Y-152080776D01*
X245810224Y-151983274D01*
X245789000Y-151969093D01*
X245789000Y-151433907D01*
X245810224Y-151419726D01*
X245907726Y-151322224D01*
X245984332Y-151207574D01*
X246037099Y-151080182D01*
X246064000Y-150944944D01*
X246064000Y-150807056D01*
X246037099Y-150671818D01*
X245984332Y-150544426D01*
X245907726Y-150429776D01*
X245810224Y-150332274D01*
X245695574Y-150255668D01*
X245568182Y-150202901D01*
X245432944Y-150176000D01*
X245295056Y-150176000D01*
X245159818Y-150202901D01*
X245032426Y-150255668D01*
X244917776Y-150332274D01*
X244820274Y-150429776D01*
X244743668Y-150544426D01*
X244690901Y-150671818D01*
X244664000Y-150807056D01*
X240405379Y-150807056D01*
X240404635Y-149744000D01*
X246139058Y-149744000D01*
X246150797Y-149863189D01*
X246185563Y-149977797D01*
X246242020Y-150083421D01*
X246317999Y-150176001D01*
X246410579Y-150251980D01*
X246516203Y-150308437D01*
X246630811Y-150343203D01*
X246750000Y-150354942D01*
X247344000Y-150352000D01*
X247496000Y-150200000D01*
X247496000Y-148998000D01*
X247804000Y-148998000D01*
X247804000Y-150200000D01*
X247956000Y-150352000D01*
X248550000Y-150354942D01*
X248669189Y-150343203D01*
X248783797Y-150308437D01*
X248889421Y-150251980D01*
X248982001Y-150176001D01*
X249057980Y-150083421D01*
X249114437Y-149977797D01*
X249149203Y-149863189D01*
X249160942Y-149744000D01*
X249158000Y-149150000D01*
X249006000Y-148998000D01*
X247804000Y-148998000D01*
X247496000Y-148998000D01*
X246294000Y-148998000D01*
X246142000Y-149150000D01*
X246139058Y-149744000D01*
X240404635Y-149744000D01*
X240403375Y-147944000D01*
X246139058Y-147944000D01*
X246142000Y-148538000D01*
X246294000Y-148690000D01*
X247496000Y-148690000D01*
X247496000Y-148670000D01*
X247804000Y-148670000D01*
X247804000Y-148690000D01*
X249006000Y-148690000D01*
X249158000Y-148538000D01*
X249160942Y-147944000D01*
X249149203Y-147824811D01*
X249114437Y-147710203D01*
X249057980Y-147604579D01*
X248982001Y-147511999D01*
X248889421Y-147436020D01*
X248783797Y-147379563D01*
X248669189Y-147344797D01*
X248550000Y-147333058D01*
X248267756Y-147334456D01*
X248414955Y-147236101D01*
X248582101Y-147068955D01*
X248713426Y-146872413D01*
X248803884Y-146654027D01*
X248850000Y-146422190D01*
X248850000Y-146185810D01*
X248803884Y-145953973D01*
X248713426Y-145735587D01*
X248582101Y-145539045D01*
X248414955Y-145371899D01*
X248218413Y-145240574D01*
X248000027Y-145150116D01*
X247768190Y-145104000D01*
X247531810Y-145104000D01*
X247299973Y-145150116D01*
X247081587Y-145240574D01*
X246885045Y-145371899D01*
X246717899Y-145539045D01*
X246586574Y-145735587D01*
X246496116Y-145953973D01*
X246450000Y-146185810D01*
X246450000Y-146422190D01*
X246496116Y-146654027D01*
X246586574Y-146872413D01*
X246717899Y-147068955D01*
X246885045Y-147236101D01*
X247032244Y-147334456D01*
X246750000Y-147333058D01*
X246630811Y-147344797D01*
X246516203Y-147379563D01*
X246410579Y-147436020D01*
X246317999Y-147511999D01*
X246242020Y-147604579D01*
X246185563Y-147710203D01*
X246150797Y-147824811D01*
X246139058Y-147944000D01*
X240403375Y-147944000D01*
X240398378Y-140807489D01*
X243460000Y-140807489D01*
X243460000Y-141132511D01*
X243523408Y-141451287D01*
X243647789Y-141751568D01*
X243828361Y-142021814D01*
X244058186Y-142251639D01*
X244328432Y-142432211D01*
X244628713Y-142556592D01*
X244947489Y-142620000D01*
X245272511Y-142620000D01*
X245591287Y-142556592D01*
X245891568Y-142432211D01*
X246161814Y-142251639D01*
X246338453Y-142075000D01*
X252089058Y-142075000D01*
X252100797Y-142194189D01*
X252135563Y-142308797D01*
X252192020Y-142414421D01*
X252267999Y-142507001D01*
X252360579Y-142582980D01*
X252466203Y-142639437D01*
X252580811Y-142674203D01*
X252700000Y-142685942D01*
X253361766Y-142683983D01*
X253207811Y-142730685D01*
X252951569Y-142867649D01*
X252726972Y-143051972D01*
X252542649Y-143276569D01*
X252405685Y-143532811D01*
X252321343Y-143810850D01*
X252292864Y-144100000D01*
X252321343Y-144389150D01*
X252405685Y-144667189D01*
X252542649Y-144923431D01*
X252726972Y-145148028D01*
X252951569Y-145332351D01*
X253207811Y-145469315D01*
X253485850Y-145553657D01*
X253702548Y-145575000D01*
X254297452Y-145575000D01*
X254514150Y-145553657D01*
X254792189Y-145469315D01*
X255048431Y-145332351D01*
X255273028Y-145148028D01*
X255457351Y-144923431D01*
X255594315Y-144667189D01*
X255678657Y-144389150D01*
X255707136Y-144100000D01*
X255678657Y-143810850D01*
X255594315Y-143532811D01*
X255457351Y-143276569D01*
X255273028Y-143051972D01*
X255048431Y-142867649D01*
X254792189Y-142730685D01*
X254638234Y-142683983D01*
X255300000Y-142685942D01*
X255419189Y-142674203D01*
X255533797Y-142639437D01*
X255639421Y-142582980D01*
X255732001Y-142507001D01*
X255807980Y-142414421D01*
X255864437Y-142308797D01*
X255899203Y-142194189D01*
X255910942Y-142075000D01*
X255908000Y-141306000D01*
X255756000Y-141154000D01*
X254154000Y-141154000D01*
X254154000Y-141174000D01*
X253846000Y-141174000D01*
X253846000Y-141154000D01*
X252244000Y-141154000D01*
X252092000Y-141306000D01*
X252089058Y-142075000D01*
X246338453Y-142075000D01*
X246391639Y-142021814D01*
X246572211Y-141751568D01*
X246696592Y-141451287D01*
X246760000Y-141132511D01*
X246760000Y-140807489D01*
X246696592Y-140488713D01*
X246572211Y-140188432D01*
X246396192Y-139925000D01*
X252089058Y-139925000D01*
X252092000Y-140694000D01*
X252244000Y-140846000D01*
X253846000Y-140846000D01*
X253846000Y-139469000D01*
X254154000Y-139469000D01*
X254154000Y-140846000D01*
X255756000Y-140846000D01*
X255908000Y-140694000D01*
X255910942Y-139925000D01*
X255899203Y-139805811D01*
X255864437Y-139691203D01*
X255807980Y-139585579D01*
X255732001Y-139492999D01*
X255639421Y-139417020D01*
X255533797Y-139360563D01*
X255419189Y-139325797D01*
X255300000Y-139314058D01*
X254306000Y-139317000D01*
X254154000Y-139469000D01*
X253846000Y-139469000D01*
X253694000Y-139317000D01*
X252700000Y-139314058D01*
X252580811Y-139325797D01*
X252466203Y-139360563D01*
X252360579Y-139417020D01*
X252267999Y-139492999D01*
X252192020Y-139585579D01*
X252135563Y-139691203D01*
X252100797Y-139805811D01*
X252089058Y-139925000D01*
X246396192Y-139925000D01*
X246391639Y-139918186D01*
X246161814Y-139688361D01*
X245891568Y-139507789D01*
X245591287Y-139383408D01*
X245272511Y-139320000D01*
X244947489Y-139320000D01*
X244628713Y-139383408D01*
X244328432Y-139507789D01*
X244058186Y-139688361D01*
X243828361Y-139918186D01*
X243647789Y-140188432D01*
X243523408Y-140488713D01*
X243460000Y-140807489D01*
X240398378Y-140807489D01*
X240391264Y-130645000D01*
X243199058Y-130645000D01*
X243210797Y-130764189D01*
X243245563Y-130878797D01*
X243302020Y-130984421D01*
X243377999Y-131077001D01*
X243470579Y-131152980D01*
X243576203Y-131209437D01*
X243690811Y-131244203D01*
X243810000Y-131255942D01*
X244471766Y-131253983D01*
X244317811Y-131300685D01*
X244061569Y-131437649D01*
X243836972Y-131621972D01*
X243652649Y-131846569D01*
X243515685Y-132102811D01*
X243431343Y-132380850D01*
X243402864Y-132670000D01*
X243431343Y-132959150D01*
X243515685Y-133237189D01*
X243652649Y-133493431D01*
X243836972Y-133718028D01*
X244061569Y-133902351D01*
X244317811Y-134039315D01*
X244595850Y-134123657D01*
X244812548Y-134145000D01*
X245407452Y-134145000D01*
X245624150Y-134123657D01*
X245902189Y-134039315D01*
X246158431Y-133902351D01*
X246383028Y-133718028D01*
X246567351Y-133493431D01*
X246704315Y-133237189D01*
X246788657Y-132959150D01*
X246817136Y-132670000D01*
X246788657Y-132380850D01*
X246704315Y-132102811D01*
X246567351Y-131846569D01*
X246383028Y-131621972D01*
X246158431Y-131437649D01*
X245902189Y-131300685D01*
X245748234Y-131253983D01*
X246410000Y-131255942D01*
X246529189Y-131244203D01*
X246643797Y-131209437D01*
X246749421Y-131152980D01*
X246842001Y-131077001D01*
X246917980Y-130984421D01*
X246974437Y-130878797D01*
X247009203Y-130764189D01*
X247020942Y-130645000D01*
X247018000Y-129876000D01*
X246866000Y-129724000D01*
X245264000Y-129724000D01*
X245264000Y-129744000D01*
X244956000Y-129744000D01*
X244956000Y-129724000D01*
X243354000Y-129724000D01*
X243202000Y-129876000D01*
X243199058Y-130645000D01*
X240391264Y-130645000D01*
X240388753Y-127058056D01*
X241108000Y-127058056D01*
X241108000Y-127195944D01*
X241134901Y-127331182D01*
X241187668Y-127458574D01*
X241264274Y-127573224D01*
X241361776Y-127670726D01*
X241383000Y-127684907D01*
X241383001Y-128474092D01*
X241361776Y-128488274D01*
X241264274Y-128585776D01*
X241187668Y-128700426D01*
X241134901Y-128827818D01*
X241108000Y-128963056D01*
X241108000Y-129100944D01*
X241134901Y-129236182D01*
X241187668Y-129363574D01*
X241264274Y-129478224D01*
X241361776Y-129575726D01*
X241476426Y-129652332D01*
X241603818Y-129705099D01*
X241739056Y-129732000D01*
X241876944Y-129732000D01*
X242012182Y-129705099D01*
X242139574Y-129652332D01*
X242254224Y-129575726D01*
X242351726Y-129478224D01*
X242428332Y-129363574D01*
X242444380Y-129324830D01*
X242504776Y-129385226D01*
X242619426Y-129461832D01*
X242746818Y-129514599D01*
X242882056Y-129541500D01*
X243019944Y-129541500D01*
X243155182Y-129514599D01*
X243282574Y-129461832D01*
X243352865Y-129414865D01*
X243354000Y-129416000D01*
X244956000Y-129416000D01*
X244956000Y-128039000D01*
X245264000Y-128039000D01*
X245264000Y-129416000D01*
X246866000Y-129416000D01*
X247018000Y-129264000D01*
X247020942Y-128495000D01*
X247009203Y-128375811D01*
X246974437Y-128261203D01*
X246917980Y-128155579D01*
X246842001Y-128062999D01*
X246749421Y-127987020D01*
X246643797Y-127930563D01*
X246529189Y-127895797D01*
X246410000Y-127884058D01*
X245416000Y-127887000D01*
X245264000Y-128039000D01*
X244956000Y-128039000D01*
X244804000Y-127887000D01*
X243810000Y-127884058D01*
X243690811Y-127895797D01*
X243576203Y-127930563D01*
X243470579Y-127987020D01*
X243377999Y-128062999D01*
X243376000Y-128065435D01*
X243376000Y-127811907D01*
X243397224Y-127797726D01*
X243494726Y-127700224D01*
X243571332Y-127585574D01*
X243624099Y-127458182D01*
X243651000Y-127322944D01*
X243651000Y-127185056D01*
X243624099Y-127049818D01*
X243574907Y-126931056D01*
X248347000Y-126931056D01*
X248347000Y-127068944D01*
X248373901Y-127204182D01*
X248426668Y-127331574D01*
X248503274Y-127446224D01*
X248600776Y-127543726D01*
X248622001Y-127557908D01*
X248622000Y-128474093D01*
X248600776Y-128488274D01*
X248503274Y-128585776D01*
X248426668Y-128700426D01*
X248373901Y-128827818D01*
X248347000Y-128963056D01*
X248347000Y-129100944D01*
X248373901Y-129236182D01*
X248426668Y-129363574D01*
X248503274Y-129478224D01*
X248600776Y-129575726D01*
X248715426Y-129652332D01*
X248842818Y-129705099D01*
X248978056Y-129732000D01*
X249115944Y-129732000D01*
X249251182Y-129705099D01*
X249378574Y-129652332D01*
X249493224Y-129575726D01*
X249590726Y-129478224D01*
X249667332Y-129363574D01*
X249720099Y-129236182D01*
X249747000Y-129100944D01*
X249747000Y-128963056D01*
X249720099Y-128827818D01*
X249667332Y-128700426D01*
X249590726Y-128585776D01*
X249493224Y-128488274D01*
X249472000Y-128474093D01*
X249472000Y-128077489D01*
X252350000Y-128077489D01*
X252350000Y-128402511D01*
X252413408Y-128721287D01*
X252537789Y-129021568D01*
X252718361Y-129291814D01*
X252948186Y-129521639D01*
X253218432Y-129702211D01*
X253518713Y-129826592D01*
X253837489Y-129890000D01*
X254162511Y-129890000D01*
X254481287Y-129826592D01*
X254781568Y-129702211D01*
X255051814Y-129521639D01*
X255281639Y-129291814D01*
X255462211Y-129021568D01*
X255586592Y-128721287D01*
X255650000Y-128402511D01*
X255650000Y-128077489D01*
X255586592Y-127758713D01*
X255462211Y-127458432D01*
X255281639Y-127188186D01*
X255051814Y-126958361D01*
X254781568Y-126777789D01*
X254481287Y-126653408D01*
X254162511Y-126590000D01*
X253837489Y-126590000D01*
X253518713Y-126653408D01*
X253218432Y-126777789D01*
X252948186Y-126958361D01*
X252718361Y-127188186D01*
X252537789Y-127458432D01*
X252413408Y-127758713D01*
X252350000Y-128077489D01*
X249472000Y-128077489D01*
X249472000Y-127557907D01*
X249493224Y-127543726D01*
X249590726Y-127446224D01*
X249667332Y-127331574D01*
X249720099Y-127204182D01*
X249747000Y-127068944D01*
X249747000Y-126931056D01*
X249720099Y-126795818D01*
X249667332Y-126668426D01*
X249590726Y-126553776D01*
X249493224Y-126456274D01*
X249378574Y-126379668D01*
X249251182Y-126326901D01*
X249115944Y-126300000D01*
X248978056Y-126300000D01*
X248842818Y-126326901D01*
X248715426Y-126379668D01*
X248600776Y-126456274D01*
X248503274Y-126553776D01*
X248426668Y-126668426D01*
X248373901Y-126795818D01*
X248347000Y-126931056D01*
X243574907Y-126931056D01*
X243571332Y-126922426D01*
X243494726Y-126807776D01*
X243397224Y-126710274D01*
X243282574Y-126633668D01*
X243155182Y-126580901D01*
X243019944Y-126554000D01*
X242882056Y-126554000D01*
X242746818Y-126580901D01*
X242619426Y-126633668D01*
X242504776Y-126710274D01*
X242424844Y-126790206D01*
X242351726Y-126680776D01*
X242254224Y-126583274D01*
X242139574Y-126506668D01*
X242012182Y-126453901D01*
X241876944Y-126427000D01*
X241739056Y-126427000D01*
X241603818Y-126453901D01*
X241476426Y-126506668D01*
X241361776Y-126583274D01*
X241264274Y-126680776D01*
X241187668Y-126795426D01*
X241134901Y-126922818D01*
X241108000Y-127058056D01*
X240388753Y-127058056D01*
X240387743Y-125614000D01*
X246139058Y-125614000D01*
X246150797Y-125733189D01*
X246185563Y-125847797D01*
X246242020Y-125953421D01*
X246317999Y-126046001D01*
X246410579Y-126121980D01*
X246516203Y-126178437D01*
X246630811Y-126213203D01*
X246750000Y-126224942D01*
X247344000Y-126222000D01*
X247496000Y-126070000D01*
X247496000Y-124868000D01*
X247804000Y-124868000D01*
X247804000Y-126070000D01*
X247956000Y-126222000D01*
X248550000Y-126224942D01*
X248669189Y-126213203D01*
X248783797Y-126178437D01*
X248889421Y-126121980D01*
X248982001Y-126046001D01*
X249057980Y-125953421D01*
X249114437Y-125847797D01*
X249149203Y-125733189D01*
X249160942Y-125614000D01*
X249158000Y-125020000D01*
X249006000Y-124868000D01*
X247804000Y-124868000D01*
X247496000Y-124868000D01*
X246294000Y-124868000D01*
X246142000Y-125020000D01*
X246139058Y-125614000D01*
X240387743Y-125614000D01*
X240386483Y-123814000D01*
X246139058Y-123814000D01*
X246142000Y-124408000D01*
X246294000Y-124560000D01*
X247496000Y-124560000D01*
X247496000Y-124540000D01*
X247804000Y-124540000D01*
X247804000Y-124560000D01*
X249006000Y-124560000D01*
X249158000Y-124408000D01*
X249160942Y-123814000D01*
X249149203Y-123694811D01*
X249114437Y-123580203D01*
X249057980Y-123474579D01*
X248982001Y-123381999D01*
X248889421Y-123306020D01*
X248783797Y-123249563D01*
X248669189Y-123214797D01*
X248550000Y-123203058D01*
X248267756Y-123204456D01*
X248414955Y-123106101D01*
X248582101Y-122938955D01*
X248713426Y-122742413D01*
X248803884Y-122524027D01*
X248850000Y-122292190D01*
X248850000Y-122055810D01*
X248803884Y-121823973D01*
X248713426Y-121605587D01*
X248582101Y-121409045D01*
X248414955Y-121241899D01*
X248218413Y-121110574D01*
X248000027Y-121020116D01*
X247768190Y-120974000D01*
X247531810Y-120974000D01*
X247299973Y-121020116D01*
X247081587Y-121110574D01*
X246885045Y-121241899D01*
X246717899Y-121409045D01*
X246586574Y-121605587D01*
X246496116Y-121823973D01*
X246450000Y-122055810D01*
X246450000Y-122292190D01*
X246496116Y-122524027D01*
X246586574Y-122742413D01*
X246717899Y-122938955D01*
X246885045Y-123106101D01*
X247032244Y-123204456D01*
X246750000Y-123203058D01*
X246630811Y-123214797D01*
X246516203Y-123249563D01*
X246410579Y-123306020D01*
X246317999Y-123381999D01*
X246242020Y-123474579D01*
X246185563Y-123580203D01*
X246150797Y-123694811D01*
X246139058Y-123814000D01*
X240386483Y-123814000D01*
X240381466Y-116647489D01*
X243460000Y-116647489D01*
X243460000Y-116972511D01*
X243523408Y-117291287D01*
X243647789Y-117591568D01*
X243828361Y-117861814D01*
X244058186Y-118091639D01*
X244328432Y-118272211D01*
X244628713Y-118396592D01*
X244947489Y-118460000D01*
X245272511Y-118460000D01*
X245591287Y-118396592D01*
X245891568Y-118272211D01*
X246161814Y-118091639D01*
X246338453Y-117915000D01*
X252089058Y-117915000D01*
X252100797Y-118034189D01*
X252135563Y-118148797D01*
X252192020Y-118254421D01*
X252267999Y-118347001D01*
X252360579Y-118422980D01*
X252466203Y-118479437D01*
X252580811Y-118514203D01*
X252700000Y-118525942D01*
X253361766Y-118523983D01*
X253207811Y-118570685D01*
X252951569Y-118707649D01*
X252726972Y-118891972D01*
X252542649Y-119116569D01*
X252405685Y-119372811D01*
X252321343Y-119650850D01*
X252292864Y-119940000D01*
X252321343Y-120229150D01*
X252405685Y-120507189D01*
X252542649Y-120763431D01*
X252726972Y-120988028D01*
X252951569Y-121172351D01*
X253207811Y-121309315D01*
X253485850Y-121393657D01*
X253702548Y-121415000D01*
X254297452Y-121415000D01*
X254514150Y-121393657D01*
X254792189Y-121309315D01*
X255048431Y-121172351D01*
X255176720Y-121067066D01*
X255861990Y-121067066D01*
X255861990Y-121204954D01*
X255888891Y-121340192D01*
X255941658Y-121467584D01*
X256018264Y-121582234D01*
X256115766Y-121679736D01*
X256230416Y-121756342D01*
X256357808Y-121809109D01*
X256493046Y-121836010D01*
X256630934Y-121836010D01*
X256655970Y-121831030D01*
X257368980Y-122544041D01*
X257364000Y-122569076D01*
X257364000Y-122706964D01*
X257390901Y-122842202D01*
X257443668Y-122969594D01*
X257520274Y-123084244D01*
X257617776Y-123181746D01*
X257732426Y-123258352D01*
X257859818Y-123311119D01*
X257995056Y-123338020D01*
X258132944Y-123338020D01*
X258268182Y-123311119D01*
X258395574Y-123258352D01*
X258510224Y-123181746D01*
X258607726Y-123084244D01*
X258684332Y-122969594D01*
X258737099Y-122842202D01*
X258764000Y-122706964D01*
X258764000Y-122569076D01*
X258737099Y-122433838D01*
X258684332Y-122306446D01*
X258607726Y-122191796D01*
X258510224Y-122094294D01*
X258395574Y-122017688D01*
X258268182Y-121964921D01*
X258132944Y-121938020D01*
X257995056Y-121938020D01*
X257970021Y-121943000D01*
X257257010Y-121229990D01*
X257261990Y-121204954D01*
X257261990Y-121067066D01*
X257235089Y-120931828D01*
X257182322Y-120804436D01*
X257105716Y-120689786D01*
X257008214Y-120592284D01*
X256893564Y-120515678D01*
X256766172Y-120462911D01*
X256630934Y-120436010D01*
X256493046Y-120436010D01*
X256357808Y-120462911D01*
X256230416Y-120515678D01*
X256115766Y-120592284D01*
X256018264Y-120689786D01*
X255941658Y-120804436D01*
X255888891Y-120931828D01*
X255861990Y-121067066D01*
X255176720Y-121067066D01*
X255273028Y-120988028D01*
X255457351Y-120763431D01*
X255594315Y-120507189D01*
X255678657Y-120229150D01*
X255707136Y-119940000D01*
X255678657Y-119650850D01*
X255594315Y-119372811D01*
X255457351Y-119116569D01*
X255273028Y-118891972D01*
X255048431Y-118707649D01*
X254792189Y-118570685D01*
X254638234Y-118523983D01*
X255300000Y-118525942D01*
X255419189Y-118514203D01*
X255533797Y-118479437D01*
X255639421Y-118422980D01*
X255732001Y-118347001D01*
X255807980Y-118254421D01*
X255864437Y-118148797D01*
X255899203Y-118034189D01*
X255910942Y-117915000D01*
X255908000Y-117146000D01*
X255756000Y-116994000D01*
X254154000Y-116994000D01*
X254154000Y-117014000D01*
X253846000Y-117014000D01*
X253846000Y-116994000D01*
X252244000Y-116994000D01*
X252092000Y-117146000D01*
X252089058Y-117915000D01*
X246338453Y-117915000D01*
X246391639Y-117861814D01*
X246572211Y-117591568D01*
X246696592Y-117291287D01*
X246760000Y-116972511D01*
X246760000Y-116647489D01*
X246696592Y-116328713D01*
X246572211Y-116028432D01*
X246396192Y-115765000D01*
X252089058Y-115765000D01*
X252092000Y-116534000D01*
X252244000Y-116686000D01*
X253846000Y-116686000D01*
X253846000Y-115309000D01*
X254154000Y-115309000D01*
X254154000Y-116686000D01*
X255756000Y-116686000D01*
X255908000Y-116534000D01*
X255910942Y-115765000D01*
X255899203Y-115645811D01*
X255864437Y-115531203D01*
X255807980Y-115425579D01*
X255732001Y-115332999D01*
X255639421Y-115257020D01*
X255533797Y-115200563D01*
X255419189Y-115165797D01*
X255300000Y-115154058D01*
X254306000Y-115157000D01*
X254154000Y-115309000D01*
X253846000Y-115309000D01*
X253694000Y-115157000D01*
X252700000Y-115154058D01*
X252580811Y-115165797D01*
X252466203Y-115200563D01*
X252360579Y-115257020D01*
X252267999Y-115332999D01*
X252192020Y-115425579D01*
X252135563Y-115531203D01*
X252100797Y-115645811D01*
X252089058Y-115765000D01*
X246396192Y-115765000D01*
X246391639Y-115758186D01*
X246161814Y-115528361D01*
X245891568Y-115347789D01*
X245591287Y-115223408D01*
X245272511Y-115160000D01*
X244947489Y-115160000D01*
X244628713Y-115223408D01*
X244328432Y-115347789D01*
X244058186Y-115528361D01*
X243828361Y-115758186D01*
X243647789Y-116028432D01*
X243523408Y-116328713D01*
X243460000Y-116647489D01*
X240381466Y-116647489D01*
X240379419Y-113723056D01*
X252538000Y-113723056D01*
X252538000Y-113860944D01*
X252564901Y-113996182D01*
X252617668Y-114123574D01*
X252694274Y-114238224D01*
X252791776Y-114335726D01*
X252906426Y-114412332D01*
X253033818Y-114465099D01*
X253169056Y-114492000D01*
X253306944Y-114492000D01*
X253442182Y-114465099D01*
X253569574Y-114412332D01*
X253684224Y-114335726D01*
X253781726Y-114238224D01*
X253795907Y-114217000D01*
X254204093Y-114217000D01*
X254218274Y-114238224D01*
X254315776Y-114335726D01*
X254430426Y-114412332D01*
X254557818Y-114465099D01*
X254693056Y-114492000D01*
X254830944Y-114492000D01*
X254966182Y-114465099D01*
X255093574Y-114412332D01*
X255208224Y-114335726D01*
X255305726Y-114238224D01*
X255382332Y-114123574D01*
X255435099Y-113996182D01*
X255462000Y-113860944D01*
X255462000Y-113723056D01*
X255435099Y-113587818D01*
X255382332Y-113460426D01*
X255305726Y-113345776D01*
X255208224Y-113248274D01*
X255093574Y-113171668D01*
X254966182Y-113118901D01*
X254830944Y-113092000D01*
X254693056Y-113092000D01*
X254557818Y-113118901D01*
X254430426Y-113171668D01*
X254315776Y-113248274D01*
X254218274Y-113345776D01*
X254204093Y-113367000D01*
X253795907Y-113367000D01*
X253781726Y-113345776D01*
X253684224Y-113248274D01*
X253569574Y-113171668D01*
X253442182Y-113118901D01*
X253306944Y-113092000D01*
X253169056Y-113092000D01*
X253033818Y-113118901D01*
X252906426Y-113171668D01*
X252791776Y-113248274D01*
X252694274Y-113345776D01*
X252617668Y-113460426D01*
X252564901Y-113587818D01*
X252538000Y-113723056D01*
X240379419Y-113723056D01*
X240374352Y-106485000D01*
X243199058Y-106485000D01*
X243210797Y-106604189D01*
X243245563Y-106718797D01*
X243302020Y-106824421D01*
X243377999Y-106917001D01*
X243470579Y-106992980D01*
X243576203Y-107049437D01*
X243690811Y-107084203D01*
X243810000Y-107095942D01*
X244471766Y-107093983D01*
X244317811Y-107140685D01*
X244061569Y-107277649D01*
X243836972Y-107461972D01*
X243652649Y-107686569D01*
X243515685Y-107942811D01*
X243431343Y-108220850D01*
X243402864Y-108510000D01*
X243431343Y-108799150D01*
X243515685Y-109077189D01*
X243652649Y-109333431D01*
X243836972Y-109558028D01*
X244061569Y-109742351D01*
X244317811Y-109879315D01*
X244595850Y-109963657D01*
X244812548Y-109985000D01*
X245407452Y-109985000D01*
X245624150Y-109963657D01*
X245902189Y-109879315D01*
X246158431Y-109742351D01*
X246383028Y-109558028D01*
X246567351Y-109333431D01*
X246704315Y-109077189D01*
X246788657Y-108799150D01*
X246817136Y-108510000D01*
X246788657Y-108220850D01*
X246704315Y-107942811D01*
X246567351Y-107686569D01*
X246383028Y-107461972D01*
X246158431Y-107277649D01*
X245902189Y-107140685D01*
X245748234Y-107093983D01*
X246410000Y-107095942D01*
X246529189Y-107084203D01*
X246643797Y-107049437D01*
X246749421Y-106992980D01*
X246842001Y-106917001D01*
X246917980Y-106824421D01*
X246974437Y-106718797D01*
X247009203Y-106604189D01*
X247020942Y-106485000D01*
X247018000Y-105716000D01*
X246866000Y-105564000D01*
X245264000Y-105564000D01*
X245264000Y-105584000D01*
X244956000Y-105584000D01*
X244956000Y-105564000D01*
X243354000Y-105564000D01*
X243202000Y-105716000D01*
X243199058Y-106485000D01*
X240374352Y-106485000D01*
X240372847Y-104335000D01*
X243199058Y-104335000D01*
X243202000Y-105104000D01*
X243354000Y-105256000D01*
X244956000Y-105256000D01*
X244956000Y-103879000D01*
X245264000Y-103879000D01*
X245264000Y-105256000D01*
X246866000Y-105256000D01*
X247018000Y-105104000D01*
X247020942Y-104335000D01*
X247009203Y-104215811D01*
X246974437Y-104101203D01*
X246917980Y-103995579D01*
X246878514Y-103947489D01*
X252350000Y-103947489D01*
X252350000Y-104272511D01*
X252413408Y-104591287D01*
X252537789Y-104891568D01*
X252718361Y-105161814D01*
X252948186Y-105391639D01*
X253218432Y-105572211D01*
X253518713Y-105696592D01*
X253837489Y-105760000D01*
X254162511Y-105760000D01*
X254481287Y-105696592D01*
X254781568Y-105572211D01*
X255051814Y-105391639D01*
X255281639Y-105161814D01*
X255462211Y-104891568D01*
X255586592Y-104591287D01*
X255650000Y-104272511D01*
X255650000Y-103947489D01*
X255586592Y-103628713D01*
X255462211Y-103328432D01*
X255281639Y-103058186D01*
X255051814Y-102828361D01*
X254781568Y-102647789D01*
X254481287Y-102523408D01*
X254162511Y-102460000D01*
X253837489Y-102460000D01*
X253518713Y-102523408D01*
X253218432Y-102647789D01*
X252948186Y-102828361D01*
X252718361Y-103058186D01*
X252537789Y-103328432D01*
X252413408Y-103628713D01*
X252350000Y-103947489D01*
X246878514Y-103947489D01*
X246842001Y-103902999D01*
X246749421Y-103827020D01*
X246643797Y-103770563D01*
X246529189Y-103735797D01*
X246410000Y-103724058D01*
X245416000Y-103727000D01*
X245264000Y-103879000D01*
X244956000Y-103879000D01*
X244804000Y-103727000D01*
X243810000Y-103724058D01*
X243690811Y-103735797D01*
X243576203Y-103770563D01*
X243470579Y-103827020D01*
X243377999Y-103902999D01*
X243302020Y-103995579D01*
X243245563Y-104101203D01*
X243210797Y-104215811D01*
X243199058Y-104335000D01*
X240372847Y-104335000D01*
X240368896Y-98690000D01*
X246139058Y-98690000D01*
X246150797Y-98809189D01*
X246185563Y-98923797D01*
X246242020Y-99029421D01*
X246317999Y-99122001D01*
X246410579Y-99197980D01*
X246516203Y-99254437D01*
X246630811Y-99289203D01*
X246750000Y-99300942D01*
X247032244Y-99299544D01*
X246885045Y-99397899D01*
X246717899Y-99565045D01*
X246586574Y-99761587D01*
X246496116Y-99979973D01*
X246450000Y-100211810D01*
X246450000Y-100448190D01*
X246496116Y-100680027D01*
X246586574Y-100898413D01*
X246717899Y-101094955D01*
X246885045Y-101262101D01*
X247081587Y-101393426D01*
X247299973Y-101483884D01*
X247531810Y-101530000D01*
X247768190Y-101530000D01*
X248000027Y-101483884D01*
X248218413Y-101393426D01*
X248414955Y-101262101D01*
X248582101Y-101094955D01*
X248713426Y-100898413D01*
X248803884Y-100680027D01*
X248850000Y-100448190D01*
X248850000Y-100211810D01*
X248803884Y-99979973D01*
X248713426Y-99761587D01*
X248582101Y-99565045D01*
X248414955Y-99397899D01*
X248267756Y-99299544D01*
X248550000Y-99300942D01*
X248669189Y-99289203D01*
X248783797Y-99254437D01*
X248889421Y-99197980D01*
X248982001Y-99122001D01*
X249057980Y-99029421D01*
X249114437Y-98923797D01*
X249149203Y-98809189D01*
X249160942Y-98690000D01*
X249158000Y-98096000D01*
X249006000Y-97944000D01*
X247804000Y-97944000D01*
X247804000Y-97964000D01*
X247496000Y-97964000D01*
X247496000Y-97944000D01*
X246294000Y-97944000D01*
X246142000Y-98096000D01*
X246139058Y-98690000D01*
X240368896Y-98690000D01*
X240367636Y-96890000D01*
X246139058Y-96890000D01*
X246142000Y-97484000D01*
X246294000Y-97636000D01*
X247496000Y-97636000D01*
X247496000Y-96434000D01*
X247804000Y-96434000D01*
X247804000Y-97636000D01*
X249006000Y-97636000D01*
X249158000Y-97484000D01*
X249160942Y-96890000D01*
X249149203Y-96770811D01*
X249114437Y-96656203D01*
X249057980Y-96550579D01*
X248982001Y-96457999D01*
X248889421Y-96382020D01*
X248783797Y-96325563D01*
X248669189Y-96290797D01*
X248550000Y-96279058D01*
X247956000Y-96282000D01*
X247804000Y-96434000D01*
X247496000Y-96434000D01*
X247344000Y-96282000D01*
X246750000Y-96279058D01*
X246630811Y-96290797D01*
X246516203Y-96325563D01*
X246410579Y-96382020D01*
X246317999Y-96457999D01*
X246242020Y-96550579D01*
X246185563Y-96656203D01*
X246150797Y-96770811D01*
X246139058Y-96890000D01*
X240367636Y-96890000D01*
X240364575Y-92517489D01*
X243460000Y-92517489D01*
X243460000Y-92842511D01*
X243523408Y-93161287D01*
X243647789Y-93461568D01*
X243828361Y-93731814D01*
X244058186Y-93961639D01*
X244328432Y-94142211D01*
X244628713Y-94266592D01*
X244947489Y-94330000D01*
X245272511Y-94330000D01*
X245591287Y-94266592D01*
X245891568Y-94142211D01*
X246161814Y-93961639D01*
X246338453Y-93785000D01*
X252089058Y-93785000D01*
X252100797Y-93904189D01*
X252135563Y-94018797D01*
X252192020Y-94124421D01*
X252267999Y-94217001D01*
X252360579Y-94292980D01*
X252466203Y-94349437D01*
X252580811Y-94384203D01*
X252700000Y-94395942D01*
X253361766Y-94393983D01*
X253207811Y-94440685D01*
X252951569Y-94577649D01*
X252726972Y-94761972D01*
X252542649Y-94986569D01*
X252405685Y-95242811D01*
X252321343Y-95520850D01*
X252292864Y-95810000D01*
X252321343Y-96099150D01*
X252405685Y-96377189D01*
X252542649Y-96633431D01*
X252726972Y-96858028D01*
X252951569Y-97042351D01*
X253207811Y-97179315D01*
X253485850Y-97263657D01*
X253702548Y-97285000D01*
X254297452Y-97285000D01*
X254514150Y-97263657D01*
X254792189Y-97179315D01*
X255048431Y-97042351D01*
X255273028Y-96858028D01*
X255457351Y-96633431D01*
X255594315Y-96377189D01*
X255678657Y-96099150D01*
X255707136Y-95810000D01*
X255678657Y-95520850D01*
X255594315Y-95242811D01*
X255457351Y-94986569D01*
X255273028Y-94761972D01*
X255048431Y-94577649D01*
X254792189Y-94440685D01*
X254638234Y-94393983D01*
X255300000Y-94395942D01*
X255419189Y-94384203D01*
X255533797Y-94349437D01*
X255639421Y-94292980D01*
X255732001Y-94217001D01*
X255807980Y-94124421D01*
X255864437Y-94018797D01*
X255899203Y-93904189D01*
X255910942Y-93785000D01*
X255908000Y-93016000D01*
X255756000Y-92864000D01*
X254154000Y-92864000D01*
X254154000Y-92884000D01*
X253846000Y-92884000D01*
X253846000Y-92864000D01*
X252244000Y-92864000D01*
X252092000Y-93016000D01*
X252089058Y-93785000D01*
X246338453Y-93785000D01*
X246391639Y-93731814D01*
X246572211Y-93461568D01*
X246696592Y-93161287D01*
X246760000Y-92842511D01*
X246760000Y-92517489D01*
X246696592Y-92198713D01*
X246572211Y-91898432D01*
X246396192Y-91635000D01*
X252089058Y-91635000D01*
X252092000Y-92404000D01*
X252244000Y-92556000D01*
X253846000Y-92556000D01*
X253846000Y-91179000D01*
X254154000Y-91179000D01*
X254154000Y-92556000D01*
X255756000Y-92556000D01*
X255908000Y-92404000D01*
X255910942Y-91635000D01*
X255899203Y-91515811D01*
X255864437Y-91401203D01*
X255807980Y-91295579D01*
X255732001Y-91202999D01*
X255639421Y-91127020D01*
X255533797Y-91070563D01*
X255419189Y-91035797D01*
X255300000Y-91024058D01*
X254306000Y-91027000D01*
X254154000Y-91179000D01*
X253846000Y-91179000D01*
X253694000Y-91027000D01*
X252700000Y-91024058D01*
X252580811Y-91035797D01*
X252466203Y-91070563D01*
X252360579Y-91127020D01*
X252267999Y-91202999D01*
X252192020Y-91295579D01*
X252135563Y-91401203D01*
X252100797Y-91515811D01*
X252089058Y-91635000D01*
X246396192Y-91635000D01*
X246391639Y-91628186D01*
X246161814Y-91398361D01*
X245891568Y-91217789D01*
X245591287Y-91093408D01*
X245272511Y-91030000D01*
X244947489Y-91030000D01*
X244628713Y-91093408D01*
X244328432Y-91217789D01*
X244058186Y-91398361D01*
X243828361Y-91628186D01*
X243647789Y-91898432D01*
X243523408Y-92198713D01*
X243460000Y-92517489D01*
X240364575Y-92517489D01*
X240357461Y-82355000D01*
X243199058Y-82355000D01*
X243210797Y-82474189D01*
X243245563Y-82588797D01*
X243302020Y-82694421D01*
X243377999Y-82787001D01*
X243470579Y-82862980D01*
X243576203Y-82919437D01*
X243690811Y-82954203D01*
X243810000Y-82965942D01*
X244471766Y-82963983D01*
X244317811Y-83010685D01*
X244061569Y-83147649D01*
X243836972Y-83331972D01*
X243652649Y-83556569D01*
X243515685Y-83812811D01*
X243431343Y-84090850D01*
X243402864Y-84380000D01*
X243431343Y-84669150D01*
X243515685Y-84947189D01*
X243652649Y-85203431D01*
X243836972Y-85428028D01*
X244061569Y-85612351D01*
X244317811Y-85749315D01*
X244595850Y-85833657D01*
X244812548Y-85855000D01*
X245407452Y-85855000D01*
X245624150Y-85833657D01*
X245902189Y-85749315D01*
X246158431Y-85612351D01*
X246383028Y-85428028D01*
X246567351Y-85203431D01*
X246704315Y-84947189D01*
X246788657Y-84669150D01*
X246817136Y-84380000D01*
X246788657Y-84090850D01*
X246704315Y-83812811D01*
X246567351Y-83556569D01*
X246383028Y-83331972D01*
X246158431Y-83147649D01*
X245902189Y-83010685D01*
X245748234Y-82963983D01*
X246410000Y-82965942D01*
X246529189Y-82954203D01*
X246643797Y-82919437D01*
X246749421Y-82862980D01*
X246842001Y-82787001D01*
X246917980Y-82694421D01*
X246974437Y-82588797D01*
X247009203Y-82474189D01*
X247020942Y-82355000D01*
X247018000Y-81586000D01*
X246866000Y-81434000D01*
X245264000Y-81434000D01*
X245264000Y-81454000D01*
X244956000Y-81454000D01*
X244956000Y-81434000D01*
X243354000Y-81434000D01*
X243202000Y-81586000D01*
X243199058Y-82355000D01*
X240357461Y-82355000D01*
X240355956Y-80205000D01*
X243199058Y-80205000D01*
X243202000Y-80974000D01*
X243354000Y-81126000D01*
X244956000Y-81126000D01*
X244956000Y-79749000D01*
X245264000Y-79749000D01*
X245264000Y-81126000D01*
X246866000Y-81126000D01*
X247018000Y-80974000D01*
X247020942Y-80205000D01*
X247009203Y-80085811D01*
X246974437Y-79971203D01*
X246917980Y-79865579D01*
X246842001Y-79772999D01*
X246749421Y-79697020D01*
X246643797Y-79640563D01*
X246529189Y-79605797D01*
X246410000Y-79594058D01*
X245416000Y-79597000D01*
X245264000Y-79749000D01*
X244956000Y-79749000D01*
X244804000Y-79597000D01*
X243810000Y-79594058D01*
X243690811Y-79605797D01*
X243576203Y-79640563D01*
X243470579Y-79697020D01*
X243377999Y-79772999D01*
X243302020Y-79865579D01*
X243245563Y-79971203D01*
X243210797Y-80085811D01*
X243199058Y-80205000D01*
X240355956Y-80205000D01*
X240355227Y-79165000D01*
X259705228Y-79165000D01*
X259774773Y-178514300D01*
G04 #@! TA.AperFunction,Conductor*
D21*
G36*
X259774773Y-178514300D02*
G01*
X240424772Y-178514300D01*
X240421871Y-174368910D01*
X241162097Y-174368910D01*
X241188854Y-174457139D01*
X241306527Y-174717611D01*
X241472754Y-174950122D01*
X241681148Y-175145736D01*
X241923700Y-175296935D01*
X242191089Y-175397909D01*
X242415998Y-175287851D01*
X242415998Y-175388103D01*
X242234557Y-175424194D01*
X242025271Y-175510884D01*
X241836918Y-175636737D01*
X241676737Y-175796918D01*
X241550884Y-175985271D01*
X241464194Y-176194557D01*
X241420000Y-176416735D01*
X241420000Y-176643265D01*
X241464194Y-176865443D01*
X241550884Y-177074729D01*
X241676737Y-177263082D01*
X241836918Y-177423263D01*
X242025271Y-177549116D01*
X242234557Y-177635806D01*
X242456735Y-177680000D01*
X242683265Y-177680000D01*
X242905443Y-177635806D01*
X243114729Y-177549116D01*
X243303082Y-177423263D01*
X243463263Y-177263082D01*
X243589116Y-177074729D01*
X243675806Y-176865443D01*
X243720000Y-176643265D01*
X243720000Y-176416735D01*
X243675806Y-176194557D01*
X243589116Y-175985271D01*
X243463263Y-175796918D01*
X243303082Y-175636737D01*
X243114729Y-175510884D01*
X242905443Y-175424194D01*
X242724002Y-175388103D01*
X242724002Y-175287851D01*
X242948911Y-175397909D01*
X243216300Y-175296935D01*
X243458852Y-175145736D01*
X243667246Y-174950122D01*
X243833473Y-174717611D01*
X243840000Y-174703163D01*
X243846527Y-174717611D01*
X244012754Y-174950122D01*
X244221148Y-175145736D01*
X244463700Y-175296935D01*
X244731089Y-175397909D01*
X244955998Y-175287851D01*
X244955998Y-175388103D01*
X244774557Y-175424194D01*
X244565271Y-175510884D01*
X244376918Y-175636737D01*
X244216737Y-175796918D01*
X244090884Y-175985271D01*
X244004194Y-176194557D01*
X243960000Y-176416735D01*
X243960000Y-176643265D01*
X244004194Y-176865443D01*
X244090884Y-177074729D01*
X244216737Y-177263082D01*
X244376918Y-177423263D01*
X244565271Y-177549116D01*
X244774557Y-177635806D01*
X244996735Y-177680000D01*
X245223265Y-177680000D01*
X245445443Y-177635806D01*
X245654729Y-177549116D01*
X245843082Y-177423263D01*
X246003263Y-177263082D01*
X246129116Y-177074729D01*
X246215806Y-176865443D01*
X246260000Y-176643265D01*
X246260000Y-176416735D01*
X246250205Y-176367489D01*
X252350000Y-176367489D01*
X252350000Y-176692511D01*
X252413408Y-177011287D01*
X252537789Y-177311568D01*
X252718361Y-177581814D01*
X252948186Y-177811639D01*
X253218432Y-177992211D01*
X253518713Y-178116592D01*
X253837489Y-178180000D01*
X254162511Y-178180000D01*
X254481287Y-178116592D01*
X254781568Y-177992211D01*
X255051814Y-177811639D01*
X255281639Y-177581814D01*
X255462211Y-177311568D01*
X255586592Y-177011287D01*
X255650000Y-176692511D01*
X255650000Y-176367489D01*
X255586592Y-176048713D01*
X255462211Y-175748432D01*
X255281639Y-175478186D01*
X255051814Y-175248361D01*
X254781568Y-175067789D01*
X254481287Y-174943408D01*
X254162511Y-174880000D01*
X253837489Y-174880000D01*
X253518713Y-174943408D01*
X253218432Y-175067789D01*
X252948186Y-175248361D01*
X252718361Y-175478186D01*
X252537789Y-175748432D01*
X252413408Y-176048713D01*
X252350000Y-176367489D01*
X246250205Y-176367489D01*
X246215806Y-176194557D01*
X246129116Y-175985271D01*
X246003263Y-175796918D01*
X245843082Y-175636737D01*
X245654729Y-175510884D01*
X245445443Y-175424194D01*
X245264002Y-175388103D01*
X245264002Y-175287851D01*
X245488911Y-175397909D01*
X245756300Y-175296935D01*
X245998852Y-175145736D01*
X246207246Y-174950122D01*
X246373473Y-174717611D01*
X246491146Y-174457139D01*
X246517903Y-174368910D01*
X246406890Y-174144002D01*
X246440554Y-174144002D01*
X246516203Y-174184437D01*
X246630811Y-174219203D01*
X246750000Y-174230942D01*
X247344000Y-174228000D01*
X247496000Y-174076000D01*
X247496000Y-172874000D01*
X247804000Y-172874000D01*
X247804000Y-174076000D01*
X247956000Y-174228000D01*
X248550000Y-174230942D01*
X248669189Y-174219203D01*
X248783797Y-174184437D01*
X248889421Y-174127980D01*
X248982001Y-174052001D01*
X249057980Y-173959421D01*
X249114437Y-173853797D01*
X249149203Y-173739189D01*
X249160942Y-173620000D01*
X249158000Y-173026000D01*
X249006000Y-172874000D01*
X247804000Y-172874000D01*
X247496000Y-172874000D01*
X246294000Y-172874000D01*
X246171591Y-172996409D01*
X245998852Y-172834264D01*
X245815551Y-172720000D01*
X245998852Y-172605736D01*
X246171591Y-172443591D01*
X246294000Y-172566000D01*
X247496000Y-172566000D01*
X247496000Y-172546000D01*
X247804000Y-172546000D01*
X247804000Y-172566000D01*
X249006000Y-172566000D01*
X249158000Y-172414000D01*
X249160942Y-171820000D01*
X249149203Y-171700811D01*
X249114437Y-171586203D01*
X249057980Y-171480579D01*
X248982001Y-171387999D01*
X248889421Y-171312020D01*
X248783797Y-171255563D01*
X248669189Y-171220797D01*
X248550000Y-171209058D01*
X248267756Y-171210456D01*
X248414955Y-171112101D01*
X248582101Y-170944955D01*
X248713426Y-170748413D01*
X248803884Y-170530027D01*
X248850000Y-170298190D01*
X248850000Y-170061810D01*
X248803884Y-169829973D01*
X248713426Y-169611587D01*
X248582101Y-169415045D01*
X248414955Y-169247899D01*
X248218413Y-169116574D01*
X248000027Y-169026116D01*
X247768190Y-168980000D01*
X247531810Y-168980000D01*
X247299973Y-169026116D01*
X247081587Y-169116574D01*
X246885045Y-169247899D01*
X246717899Y-169415045D01*
X246586574Y-169611587D01*
X246496116Y-169829973D01*
X246450000Y-170061810D01*
X246450000Y-170298190D01*
X246496116Y-170530027D01*
X246586574Y-170748413D01*
X246717899Y-170944955D01*
X246885045Y-171112101D01*
X247032244Y-171210456D01*
X246750000Y-171209058D01*
X246630811Y-171220797D01*
X246516203Y-171255563D01*
X246440554Y-171295998D01*
X246406890Y-171295998D01*
X246517903Y-171071090D01*
X246491146Y-170982861D01*
X246373473Y-170722389D01*
X246207246Y-170489878D01*
X245998852Y-170294264D01*
X245815551Y-170180000D01*
X245998852Y-170065736D01*
X246207246Y-169870122D01*
X246373473Y-169637611D01*
X246491146Y-169377139D01*
X246517903Y-169288910D01*
X246406889Y-169064000D01*
X245264000Y-169064000D01*
X245264000Y-171296000D01*
X245284000Y-171296000D01*
X245284000Y-171604000D01*
X245264000Y-171604000D01*
X245264000Y-173836000D01*
X245284000Y-173836000D01*
X245284000Y-174144000D01*
X245264000Y-174144000D01*
X245264000Y-174164000D01*
X244956000Y-174164000D01*
X244956000Y-174144000D01*
X242724000Y-174144000D01*
X242724000Y-174164000D01*
X242416000Y-174164000D01*
X242416000Y-174144000D01*
X241273111Y-174144000D01*
X241162097Y-174368910D01*
X240421871Y-174368910D01*
X240420093Y-171828910D01*
X241162097Y-171828910D01*
X241188854Y-171917139D01*
X241306527Y-172177611D01*
X241472754Y-172410122D01*
X241681148Y-172605736D01*
X241864449Y-172720000D01*
X241681148Y-172834264D01*
X241472754Y-173029878D01*
X241306527Y-173262389D01*
X241188854Y-173522861D01*
X241162097Y-173611090D01*
X241273111Y-173836000D01*
X242416000Y-173836000D01*
X242416000Y-171604000D01*
X242724000Y-171604000D01*
X242724000Y-173836000D01*
X244956000Y-173836000D01*
X244956000Y-171604000D01*
X242724000Y-171604000D01*
X242416000Y-171604000D01*
X241273111Y-171604000D01*
X241162097Y-171828910D01*
X240420093Y-171828910D01*
X240418315Y-169288910D01*
X241162097Y-169288910D01*
X241188854Y-169377139D01*
X241306527Y-169637611D01*
X241472754Y-169870122D01*
X241681148Y-170065736D01*
X241864449Y-170180000D01*
X241681148Y-170294264D01*
X241472754Y-170489878D01*
X241306527Y-170722389D01*
X241188854Y-170982861D01*
X241162097Y-171071090D01*
X241273111Y-171296000D01*
X242416000Y-171296000D01*
X242416000Y-169064000D01*
X242724000Y-169064000D01*
X242724000Y-171296000D01*
X244956000Y-171296000D01*
X244956000Y-169064000D01*
X242724000Y-169064000D01*
X242416000Y-169064000D01*
X241273111Y-169064000D01*
X241162097Y-169288910D01*
X240418315Y-169288910D01*
X240417785Y-168531090D01*
X241162097Y-168531090D01*
X241273111Y-168756000D01*
X242416000Y-168756000D01*
X242416000Y-168736000D01*
X242724000Y-168736000D01*
X242724000Y-168756000D01*
X244956000Y-168756000D01*
X244956000Y-168736000D01*
X245264000Y-168736000D01*
X245264000Y-168756000D01*
X246406889Y-168756000D01*
X246517903Y-168531090D01*
X246491146Y-168442861D01*
X246373473Y-168182389D01*
X246207246Y-167949878D01*
X245998852Y-167754264D01*
X245756300Y-167603065D01*
X245540178Y-167521451D01*
X245960000Y-167521451D01*
X246018810Y-167515659D01*
X246075360Y-167498504D01*
X246127477Y-167470647D01*
X246173158Y-167433158D01*
X246210647Y-167387477D01*
X246238504Y-167335360D01*
X246255659Y-167278810D01*
X246261451Y-167220000D01*
X246261451Y-166205000D01*
X252089058Y-166205000D01*
X252100797Y-166324189D01*
X252135563Y-166438797D01*
X252192020Y-166544421D01*
X252267999Y-166637001D01*
X252360579Y-166712980D01*
X252466203Y-166769437D01*
X252580811Y-166804203D01*
X252700000Y-166815942D01*
X253361766Y-166813983D01*
X253207811Y-166860685D01*
X252951569Y-166997649D01*
X252726972Y-167181972D01*
X252542649Y-167406569D01*
X252405685Y-167662811D01*
X252321343Y-167940850D01*
X252292864Y-168230000D01*
X252321343Y-168519150D01*
X252405685Y-168797189D01*
X252542649Y-169053431D01*
X252726972Y-169278028D01*
X252951569Y-169462351D01*
X253207811Y-169599315D01*
X253485850Y-169683657D01*
X253702548Y-169705000D01*
X254297452Y-169705000D01*
X254514150Y-169683657D01*
X254792189Y-169599315D01*
X255048431Y-169462351D01*
X255273028Y-169278028D01*
X255457351Y-169053431D01*
X255594315Y-168797189D01*
X255678657Y-168519150D01*
X255707136Y-168230000D01*
X255678657Y-167940850D01*
X255594315Y-167662811D01*
X255457351Y-167406569D01*
X255273028Y-167181972D01*
X255048431Y-166997649D01*
X254792189Y-166860685D01*
X254638234Y-166813983D01*
X255300000Y-166815942D01*
X255419189Y-166804203D01*
X255533797Y-166769437D01*
X255639421Y-166712980D01*
X255732001Y-166637001D01*
X255807980Y-166544421D01*
X255864437Y-166438797D01*
X255899203Y-166324189D01*
X255910942Y-166205000D01*
X255908000Y-165436000D01*
X255756000Y-165284000D01*
X254154000Y-165284000D01*
X254154000Y-165304000D01*
X253846000Y-165304000D01*
X253846000Y-165284000D01*
X252244000Y-165284000D01*
X252092000Y-165436000D01*
X252089058Y-166205000D01*
X246261451Y-166205000D01*
X246261451Y-165520000D01*
X246255659Y-165461190D01*
X246238504Y-165404640D01*
X246210647Y-165352523D01*
X246173158Y-165306842D01*
X246127477Y-165269353D01*
X246075360Y-165241496D01*
X246018810Y-165224341D01*
X245960000Y-165218549D01*
X244260000Y-165218549D01*
X244201190Y-165224341D01*
X244144640Y-165241496D01*
X244092523Y-165269353D01*
X244046842Y-165306842D01*
X244009353Y-165352523D01*
X243981496Y-165404640D01*
X243964341Y-165461190D01*
X243958549Y-165520000D01*
X243958549Y-167220000D01*
X243964341Y-167278810D01*
X243981496Y-167335360D01*
X244009353Y-167387477D01*
X244046842Y-167433158D01*
X244092523Y-167470647D01*
X244144640Y-167498504D01*
X244201190Y-167515659D01*
X244260000Y-167521451D01*
X244679822Y-167521451D01*
X244463700Y-167603065D01*
X244221148Y-167754264D01*
X244012754Y-167949878D01*
X243846527Y-168182389D01*
X243840000Y-168196837D01*
X243833473Y-168182389D01*
X243667246Y-167949878D01*
X243458852Y-167754264D01*
X243216300Y-167603065D01*
X242948911Y-167502091D01*
X242724002Y-167612149D01*
X242724002Y-167511897D01*
X242905443Y-167475806D01*
X243114729Y-167389116D01*
X243303082Y-167263263D01*
X243463263Y-167103082D01*
X243589116Y-166914729D01*
X243675806Y-166705443D01*
X243720000Y-166483265D01*
X243720000Y-166256735D01*
X243675806Y-166034557D01*
X243589116Y-165825271D01*
X243463263Y-165636918D01*
X243303082Y-165476737D01*
X243114729Y-165350884D01*
X242905443Y-165264194D01*
X242683265Y-165220000D01*
X242456735Y-165220000D01*
X242234557Y-165264194D01*
X242025271Y-165350884D01*
X241836918Y-165476737D01*
X241676737Y-165636918D01*
X241550884Y-165825271D01*
X241464194Y-166034557D01*
X241420000Y-166256735D01*
X241420000Y-166483265D01*
X241464194Y-166705443D01*
X241550884Y-166914729D01*
X241676737Y-167103082D01*
X241836918Y-167263263D01*
X242025271Y-167389116D01*
X242234557Y-167475806D01*
X242415998Y-167511897D01*
X242415998Y-167612149D01*
X242191089Y-167502091D01*
X241923700Y-167603065D01*
X241681148Y-167754264D01*
X241472754Y-167949878D01*
X241306527Y-168182389D01*
X241188854Y-168442861D01*
X241162097Y-168531090D01*
X240417785Y-168531090D01*
X240414652Y-164055000D01*
X252089058Y-164055000D01*
X252092000Y-164824000D01*
X252244000Y-164976000D01*
X253846000Y-164976000D01*
X253846000Y-163599000D01*
X254154000Y-163599000D01*
X254154000Y-164976000D01*
X255756000Y-164976000D01*
X255908000Y-164824000D01*
X255910942Y-164055000D01*
X255899203Y-163935811D01*
X255864437Y-163821203D01*
X255807980Y-163715579D01*
X255732001Y-163622999D01*
X255639421Y-163547020D01*
X255533797Y-163490563D01*
X255419189Y-163455797D01*
X255300000Y-163444058D01*
X254306000Y-163447000D01*
X254154000Y-163599000D01*
X253846000Y-163599000D01*
X253694000Y-163447000D01*
X252700000Y-163444058D01*
X252580811Y-163455797D01*
X252466203Y-163490563D01*
X252360579Y-163547020D01*
X252267999Y-163622999D01*
X252192020Y-163715579D01*
X252135563Y-163821203D01*
X252100797Y-163935811D01*
X252089058Y-164055000D01*
X240414652Y-164055000D01*
X240412627Y-161161961D01*
X244040000Y-161161961D01*
X244040000Y-161418039D01*
X244089958Y-161669196D01*
X244187955Y-161905781D01*
X244330224Y-162118702D01*
X244511298Y-162299776D01*
X244724219Y-162442045D01*
X244960804Y-162540042D01*
X245211961Y-162590000D01*
X245468039Y-162590000D01*
X245719196Y-162540042D01*
X245955781Y-162442045D01*
X246168702Y-162299776D01*
X246349776Y-162118702D01*
X246492045Y-161905781D01*
X246590042Y-161669196D01*
X246640000Y-161418039D01*
X246640000Y-161161961D01*
X246590042Y-160910804D01*
X246492045Y-160674219D01*
X246349776Y-160461298D01*
X246168702Y-160280224D01*
X245955781Y-160137955D01*
X245719196Y-160039958D01*
X245468039Y-159990000D01*
X245211961Y-159990000D01*
X244960804Y-160039958D01*
X244724219Y-160137955D01*
X244511298Y-160280224D01*
X244330224Y-160461298D01*
X244187955Y-160674219D01*
X244089958Y-160910804D01*
X244040000Y-161161961D01*
X240412627Y-161161961D01*
X240409071Y-156081961D01*
X244040000Y-156081961D01*
X244040000Y-156338039D01*
X244089958Y-156589196D01*
X244187955Y-156825781D01*
X244330224Y-157038702D01*
X244511298Y-157219776D01*
X244724219Y-157362045D01*
X244912418Y-157440000D01*
X244724219Y-157517955D01*
X244511298Y-157660224D01*
X244330224Y-157841298D01*
X244187955Y-158054219D01*
X244089958Y-158290804D01*
X244040000Y-158541961D01*
X244040000Y-158798039D01*
X244089958Y-159049196D01*
X244187955Y-159285781D01*
X244330224Y-159498702D01*
X244511298Y-159679776D01*
X244724219Y-159822045D01*
X244960804Y-159920042D01*
X245211961Y-159970000D01*
X245468039Y-159970000D01*
X245719196Y-159920042D01*
X245955781Y-159822045D01*
X246168702Y-159679776D01*
X246349776Y-159498702D01*
X246492045Y-159285781D01*
X246590042Y-159049196D01*
X246640000Y-158798039D01*
X246640000Y-158541961D01*
X246590042Y-158290804D01*
X246492045Y-158054219D01*
X246349776Y-157841298D01*
X246168702Y-157660224D01*
X245955781Y-157517955D01*
X245767582Y-157440000D01*
X245955781Y-157362045D01*
X246168702Y-157219776D01*
X246349776Y-157038702D01*
X246492045Y-156825781D01*
X246590042Y-156589196D01*
X246640000Y-156338039D01*
X246640000Y-156081961D01*
X246590042Y-155830804D01*
X246492045Y-155594219D01*
X246349776Y-155381298D01*
X246168702Y-155200224D01*
X246056205Y-155125056D01*
X254443000Y-155125056D01*
X254443000Y-155262944D01*
X254469901Y-155398182D01*
X254522668Y-155525574D01*
X254599274Y-155640224D01*
X254696776Y-155737726D01*
X254811426Y-155814332D01*
X254938818Y-155867099D01*
X255074056Y-155894000D01*
X255211944Y-155894000D01*
X255347182Y-155867099D01*
X255474574Y-155814332D01*
X255589224Y-155737726D01*
X255686726Y-155640224D01*
X255700907Y-155619000D01*
X256236093Y-155619000D01*
X256250274Y-155640224D01*
X256347776Y-155737726D01*
X256462426Y-155814332D01*
X256589818Y-155867099D01*
X256725056Y-155894000D01*
X256862944Y-155894000D01*
X256998182Y-155867099D01*
X257125574Y-155814332D01*
X257240224Y-155737726D01*
X257337726Y-155640224D01*
X257414332Y-155525574D01*
X257467099Y-155398182D01*
X257494000Y-155262944D01*
X257494000Y-155125056D01*
X257467099Y-154989818D01*
X257414332Y-154862426D01*
X257337726Y-154747776D01*
X257240224Y-154650274D01*
X257125574Y-154573668D01*
X256998182Y-154520901D01*
X256862944Y-154494000D01*
X256725056Y-154494000D01*
X256589818Y-154520901D01*
X256462426Y-154573668D01*
X256347776Y-154650274D01*
X256250274Y-154747776D01*
X256236093Y-154769000D01*
X255700907Y-154769000D01*
X255686726Y-154747776D01*
X255589224Y-154650274D01*
X255474574Y-154573668D01*
X255347182Y-154520901D01*
X255211944Y-154494000D01*
X255074056Y-154494000D01*
X254938818Y-154520901D01*
X254811426Y-154573668D01*
X254696776Y-154650274D01*
X254599274Y-154747776D01*
X254522668Y-154862426D01*
X254469901Y-154989818D01*
X254443000Y-155125056D01*
X246056205Y-155125056D01*
X245955781Y-155057955D01*
X245719196Y-154959958D01*
X245468039Y-154910000D01*
X245211961Y-154910000D01*
X244960804Y-154959958D01*
X244724219Y-155057955D01*
X244511298Y-155200224D01*
X244330224Y-155381298D01*
X244187955Y-155594219D01*
X244089958Y-155830804D01*
X244040000Y-156081961D01*
X240409071Y-156081961D01*
X240405379Y-150807056D01*
X244664000Y-150807056D01*
X244664000Y-150944944D01*
X244690901Y-151080182D01*
X244743668Y-151207574D01*
X244820274Y-151322224D01*
X244917776Y-151419726D01*
X244939001Y-151433908D01*
X244939000Y-151969092D01*
X244917776Y-151983274D01*
X244820274Y-152080776D01*
X244743668Y-152195426D01*
X244690901Y-152322818D01*
X244664000Y-152458056D01*
X244664000Y-152595944D01*
X244690901Y-152731182D01*
X244743668Y-152858574D01*
X244820274Y-152973224D01*
X244917776Y-153070726D01*
X245032426Y-153147332D01*
X245159818Y-153200099D01*
X245295056Y-153227000D01*
X245432944Y-153227000D01*
X245568182Y-153200099D01*
X245695574Y-153147332D01*
X245810224Y-153070726D01*
X245907726Y-152973224D01*
X245984332Y-152858574D01*
X246037099Y-152731182D01*
X246064000Y-152595944D01*
X246064000Y-152458056D01*
X246037099Y-152322818D01*
X246001755Y-152237489D01*
X252350000Y-152237489D01*
X252350000Y-152562511D01*
X252413408Y-152881287D01*
X252537789Y-153181568D01*
X252718361Y-153451814D01*
X252948186Y-153681639D01*
X253218432Y-153862211D01*
X253518713Y-153986592D01*
X253837489Y-154050000D01*
X254162511Y-154050000D01*
X254481287Y-153986592D01*
X254781568Y-153862211D01*
X255051814Y-153681639D01*
X255281639Y-153451814D01*
X255462211Y-153181568D01*
X255586592Y-152881287D01*
X255650000Y-152562511D01*
X255650000Y-152237489D01*
X255586592Y-151918713D01*
X255462211Y-151618432D01*
X255281639Y-151348186D01*
X255051814Y-151118361D01*
X254781568Y-150937789D01*
X254481287Y-150813408D01*
X254162511Y-150750000D01*
X253837489Y-150750000D01*
X253518713Y-150813408D01*
X253218432Y-150937789D01*
X252948186Y-151118361D01*
X252718361Y-151348186D01*
X252537789Y-151618432D01*
X252413408Y-151918713D01*
X252350000Y-152237489D01*
X246001755Y-152237489D01*
X245984332Y-152195426D01*
X245907726Y-152080776D01*
X245810224Y-151983274D01*
X245789000Y-151969093D01*
X245789000Y-151433907D01*
X245810224Y-151419726D01*
X245907726Y-151322224D01*
X245984332Y-151207574D01*
X246037099Y-151080182D01*
X246064000Y-150944944D01*
X246064000Y-150807056D01*
X246037099Y-150671818D01*
X245984332Y-150544426D01*
X245907726Y-150429776D01*
X245810224Y-150332274D01*
X245695574Y-150255668D01*
X245568182Y-150202901D01*
X245432944Y-150176000D01*
X245295056Y-150176000D01*
X245159818Y-150202901D01*
X245032426Y-150255668D01*
X244917776Y-150332274D01*
X244820274Y-150429776D01*
X244743668Y-150544426D01*
X244690901Y-150671818D01*
X244664000Y-150807056D01*
X240405379Y-150807056D01*
X240404635Y-149744000D01*
X246139058Y-149744000D01*
X246150797Y-149863189D01*
X246185563Y-149977797D01*
X246242020Y-150083421D01*
X246317999Y-150176001D01*
X246410579Y-150251980D01*
X246516203Y-150308437D01*
X246630811Y-150343203D01*
X246750000Y-150354942D01*
X247344000Y-150352000D01*
X247496000Y-150200000D01*
X247496000Y-148998000D01*
X247804000Y-148998000D01*
X247804000Y-150200000D01*
X247956000Y-150352000D01*
X248550000Y-150354942D01*
X248669189Y-150343203D01*
X248783797Y-150308437D01*
X248889421Y-150251980D01*
X248982001Y-150176001D01*
X249057980Y-150083421D01*
X249114437Y-149977797D01*
X249149203Y-149863189D01*
X249160942Y-149744000D01*
X249158000Y-149150000D01*
X249006000Y-148998000D01*
X247804000Y-148998000D01*
X247496000Y-148998000D01*
X246294000Y-148998000D01*
X246142000Y-149150000D01*
X246139058Y-149744000D01*
X240404635Y-149744000D01*
X240403375Y-147944000D01*
X246139058Y-147944000D01*
X246142000Y-148538000D01*
X246294000Y-148690000D01*
X247496000Y-148690000D01*
X247496000Y-148670000D01*
X247804000Y-148670000D01*
X247804000Y-148690000D01*
X249006000Y-148690000D01*
X249158000Y-148538000D01*
X249160942Y-147944000D01*
X249149203Y-147824811D01*
X249114437Y-147710203D01*
X249057980Y-147604579D01*
X248982001Y-147511999D01*
X248889421Y-147436020D01*
X248783797Y-147379563D01*
X248669189Y-147344797D01*
X248550000Y-147333058D01*
X248267756Y-147334456D01*
X248414955Y-147236101D01*
X248582101Y-147068955D01*
X248713426Y-146872413D01*
X248803884Y-146654027D01*
X248850000Y-146422190D01*
X248850000Y-146185810D01*
X248803884Y-145953973D01*
X248713426Y-145735587D01*
X248582101Y-145539045D01*
X248414955Y-145371899D01*
X248218413Y-145240574D01*
X248000027Y-145150116D01*
X247768190Y-145104000D01*
X247531810Y-145104000D01*
X247299973Y-145150116D01*
X247081587Y-145240574D01*
X246885045Y-145371899D01*
X246717899Y-145539045D01*
X246586574Y-145735587D01*
X246496116Y-145953973D01*
X246450000Y-146185810D01*
X246450000Y-146422190D01*
X246496116Y-146654027D01*
X246586574Y-146872413D01*
X246717899Y-147068955D01*
X246885045Y-147236101D01*
X247032244Y-147334456D01*
X246750000Y-147333058D01*
X246630811Y-147344797D01*
X246516203Y-147379563D01*
X246410579Y-147436020D01*
X246317999Y-147511999D01*
X246242020Y-147604579D01*
X246185563Y-147710203D01*
X246150797Y-147824811D01*
X246139058Y-147944000D01*
X240403375Y-147944000D01*
X240398378Y-140807489D01*
X243460000Y-140807489D01*
X243460000Y-141132511D01*
X243523408Y-141451287D01*
X243647789Y-141751568D01*
X243828361Y-142021814D01*
X244058186Y-142251639D01*
X244328432Y-142432211D01*
X244628713Y-142556592D01*
X244947489Y-142620000D01*
X245272511Y-142620000D01*
X245591287Y-142556592D01*
X245891568Y-142432211D01*
X246161814Y-142251639D01*
X246338453Y-142075000D01*
X252089058Y-142075000D01*
X252100797Y-142194189D01*
X252135563Y-142308797D01*
X252192020Y-142414421D01*
X252267999Y-142507001D01*
X252360579Y-142582980D01*
X252466203Y-142639437D01*
X252580811Y-142674203D01*
X252700000Y-142685942D01*
X253361766Y-142683983D01*
X253207811Y-142730685D01*
X252951569Y-142867649D01*
X252726972Y-143051972D01*
X252542649Y-143276569D01*
X252405685Y-143532811D01*
X252321343Y-143810850D01*
X252292864Y-144100000D01*
X252321343Y-144389150D01*
X252405685Y-144667189D01*
X252542649Y-144923431D01*
X252726972Y-145148028D01*
X252951569Y-145332351D01*
X253207811Y-145469315D01*
X253485850Y-145553657D01*
X253702548Y-145575000D01*
X254297452Y-145575000D01*
X254514150Y-145553657D01*
X254792189Y-145469315D01*
X255048431Y-145332351D01*
X255273028Y-145148028D01*
X255457351Y-144923431D01*
X255594315Y-144667189D01*
X255678657Y-144389150D01*
X255707136Y-144100000D01*
X255678657Y-143810850D01*
X255594315Y-143532811D01*
X255457351Y-143276569D01*
X255273028Y-143051972D01*
X255048431Y-142867649D01*
X254792189Y-142730685D01*
X254638234Y-142683983D01*
X255300000Y-142685942D01*
X255419189Y-142674203D01*
X255533797Y-142639437D01*
X255639421Y-142582980D01*
X255732001Y-142507001D01*
X255807980Y-142414421D01*
X255864437Y-142308797D01*
X255899203Y-142194189D01*
X255910942Y-142075000D01*
X255908000Y-141306000D01*
X255756000Y-141154000D01*
X254154000Y-141154000D01*
X254154000Y-141174000D01*
X253846000Y-141174000D01*
X253846000Y-141154000D01*
X252244000Y-141154000D01*
X252092000Y-141306000D01*
X252089058Y-142075000D01*
X246338453Y-142075000D01*
X246391639Y-142021814D01*
X246572211Y-141751568D01*
X246696592Y-141451287D01*
X246760000Y-141132511D01*
X246760000Y-140807489D01*
X246696592Y-140488713D01*
X246572211Y-140188432D01*
X246396192Y-139925000D01*
X252089058Y-139925000D01*
X252092000Y-140694000D01*
X252244000Y-140846000D01*
X253846000Y-140846000D01*
X253846000Y-139469000D01*
X254154000Y-139469000D01*
X254154000Y-140846000D01*
X255756000Y-140846000D01*
X255908000Y-140694000D01*
X255910942Y-139925000D01*
X255899203Y-139805811D01*
X255864437Y-139691203D01*
X255807980Y-139585579D01*
X255732001Y-139492999D01*
X255639421Y-139417020D01*
X255533797Y-139360563D01*
X255419189Y-139325797D01*
X255300000Y-139314058D01*
X254306000Y-139317000D01*
X254154000Y-139469000D01*
X253846000Y-139469000D01*
X253694000Y-139317000D01*
X252700000Y-139314058D01*
X252580811Y-139325797D01*
X252466203Y-139360563D01*
X252360579Y-139417020D01*
X252267999Y-139492999D01*
X252192020Y-139585579D01*
X252135563Y-139691203D01*
X252100797Y-139805811D01*
X252089058Y-139925000D01*
X246396192Y-139925000D01*
X246391639Y-139918186D01*
X246161814Y-139688361D01*
X245891568Y-139507789D01*
X245591287Y-139383408D01*
X245272511Y-139320000D01*
X244947489Y-139320000D01*
X244628713Y-139383408D01*
X244328432Y-139507789D01*
X244058186Y-139688361D01*
X243828361Y-139918186D01*
X243647789Y-140188432D01*
X243523408Y-140488713D01*
X243460000Y-140807489D01*
X240398378Y-140807489D01*
X240391264Y-130645000D01*
X243199058Y-130645000D01*
X243210797Y-130764189D01*
X243245563Y-130878797D01*
X243302020Y-130984421D01*
X243377999Y-131077001D01*
X243470579Y-131152980D01*
X243576203Y-131209437D01*
X243690811Y-131244203D01*
X243810000Y-131255942D01*
X244471766Y-131253983D01*
X244317811Y-131300685D01*
X244061569Y-131437649D01*
X243836972Y-131621972D01*
X243652649Y-131846569D01*
X243515685Y-132102811D01*
X243431343Y-132380850D01*
X243402864Y-132670000D01*
X243431343Y-132959150D01*
X243515685Y-133237189D01*
X243652649Y-133493431D01*
X243836972Y-133718028D01*
X244061569Y-133902351D01*
X244317811Y-134039315D01*
X244595850Y-134123657D01*
X244812548Y-134145000D01*
X245407452Y-134145000D01*
X245624150Y-134123657D01*
X245902189Y-134039315D01*
X246158431Y-133902351D01*
X246383028Y-133718028D01*
X246567351Y-133493431D01*
X246704315Y-133237189D01*
X246788657Y-132959150D01*
X246817136Y-132670000D01*
X246788657Y-132380850D01*
X246704315Y-132102811D01*
X246567351Y-131846569D01*
X246383028Y-131621972D01*
X246158431Y-131437649D01*
X245902189Y-131300685D01*
X245748234Y-131253983D01*
X246410000Y-131255942D01*
X246529189Y-131244203D01*
X246643797Y-131209437D01*
X246749421Y-131152980D01*
X246842001Y-131077001D01*
X246917980Y-130984421D01*
X246974437Y-130878797D01*
X247009203Y-130764189D01*
X247020942Y-130645000D01*
X247018000Y-129876000D01*
X246866000Y-129724000D01*
X245264000Y-129724000D01*
X245264000Y-129744000D01*
X244956000Y-129744000D01*
X244956000Y-129724000D01*
X243354000Y-129724000D01*
X243202000Y-129876000D01*
X243199058Y-130645000D01*
X240391264Y-130645000D01*
X240388753Y-127058056D01*
X241108000Y-127058056D01*
X241108000Y-127195944D01*
X241134901Y-127331182D01*
X241187668Y-127458574D01*
X241264274Y-127573224D01*
X241361776Y-127670726D01*
X241383000Y-127684907D01*
X241383001Y-128474092D01*
X241361776Y-128488274D01*
X241264274Y-128585776D01*
X241187668Y-128700426D01*
X241134901Y-128827818D01*
X241108000Y-128963056D01*
X241108000Y-129100944D01*
X241134901Y-129236182D01*
X241187668Y-129363574D01*
X241264274Y-129478224D01*
X241361776Y-129575726D01*
X241476426Y-129652332D01*
X241603818Y-129705099D01*
X241739056Y-129732000D01*
X241876944Y-129732000D01*
X242012182Y-129705099D01*
X242139574Y-129652332D01*
X242254224Y-129575726D01*
X242351726Y-129478224D01*
X242428332Y-129363574D01*
X242444380Y-129324830D01*
X242504776Y-129385226D01*
X242619426Y-129461832D01*
X242746818Y-129514599D01*
X242882056Y-129541500D01*
X243019944Y-129541500D01*
X243155182Y-129514599D01*
X243282574Y-129461832D01*
X243352865Y-129414865D01*
X243354000Y-129416000D01*
X244956000Y-129416000D01*
X244956000Y-128039000D01*
X245264000Y-128039000D01*
X245264000Y-129416000D01*
X246866000Y-129416000D01*
X247018000Y-129264000D01*
X247020942Y-128495000D01*
X247009203Y-128375811D01*
X246974437Y-128261203D01*
X246917980Y-128155579D01*
X246842001Y-128062999D01*
X246749421Y-127987020D01*
X246643797Y-127930563D01*
X246529189Y-127895797D01*
X246410000Y-127884058D01*
X245416000Y-127887000D01*
X245264000Y-128039000D01*
X244956000Y-128039000D01*
X244804000Y-127887000D01*
X243810000Y-127884058D01*
X243690811Y-127895797D01*
X243576203Y-127930563D01*
X243470579Y-127987020D01*
X243377999Y-128062999D01*
X243376000Y-128065435D01*
X243376000Y-127811907D01*
X243397224Y-127797726D01*
X243494726Y-127700224D01*
X243571332Y-127585574D01*
X243624099Y-127458182D01*
X243651000Y-127322944D01*
X243651000Y-127185056D01*
X243624099Y-127049818D01*
X243574907Y-126931056D01*
X248347000Y-126931056D01*
X248347000Y-127068944D01*
X248373901Y-127204182D01*
X248426668Y-127331574D01*
X248503274Y-127446224D01*
X248600776Y-127543726D01*
X248622001Y-127557908D01*
X248622000Y-128474093D01*
X248600776Y-128488274D01*
X248503274Y-128585776D01*
X248426668Y-128700426D01*
X248373901Y-128827818D01*
X248347000Y-128963056D01*
X248347000Y-129100944D01*
X248373901Y-129236182D01*
X248426668Y-129363574D01*
X248503274Y-129478224D01*
X248600776Y-129575726D01*
X248715426Y-129652332D01*
X248842818Y-129705099D01*
X248978056Y-129732000D01*
X249115944Y-129732000D01*
X249251182Y-129705099D01*
X249378574Y-129652332D01*
X249493224Y-129575726D01*
X249590726Y-129478224D01*
X249667332Y-129363574D01*
X249720099Y-129236182D01*
X249747000Y-129100944D01*
X249747000Y-128963056D01*
X249720099Y-128827818D01*
X249667332Y-128700426D01*
X249590726Y-128585776D01*
X249493224Y-128488274D01*
X249472000Y-128474093D01*
X249472000Y-128077489D01*
X252350000Y-128077489D01*
X252350000Y-128402511D01*
X252413408Y-128721287D01*
X252537789Y-129021568D01*
X252718361Y-129291814D01*
X252948186Y-129521639D01*
X253218432Y-129702211D01*
X253518713Y-129826592D01*
X253837489Y-129890000D01*
X254162511Y-129890000D01*
X254481287Y-129826592D01*
X254781568Y-129702211D01*
X255051814Y-129521639D01*
X255281639Y-129291814D01*
X255462211Y-129021568D01*
X255586592Y-128721287D01*
X255650000Y-128402511D01*
X255650000Y-128077489D01*
X255586592Y-127758713D01*
X255462211Y-127458432D01*
X255281639Y-127188186D01*
X255051814Y-126958361D01*
X254781568Y-126777789D01*
X254481287Y-126653408D01*
X254162511Y-126590000D01*
X253837489Y-126590000D01*
X253518713Y-126653408D01*
X253218432Y-126777789D01*
X252948186Y-126958361D01*
X252718361Y-127188186D01*
X252537789Y-127458432D01*
X252413408Y-127758713D01*
X252350000Y-128077489D01*
X249472000Y-128077489D01*
X249472000Y-127557907D01*
X249493224Y-127543726D01*
X249590726Y-127446224D01*
X249667332Y-127331574D01*
X249720099Y-127204182D01*
X249747000Y-127068944D01*
X249747000Y-126931056D01*
X249720099Y-126795818D01*
X249667332Y-126668426D01*
X249590726Y-126553776D01*
X249493224Y-126456274D01*
X249378574Y-126379668D01*
X249251182Y-126326901D01*
X249115944Y-126300000D01*
X248978056Y-126300000D01*
X248842818Y-126326901D01*
X248715426Y-126379668D01*
X248600776Y-126456274D01*
X248503274Y-126553776D01*
X248426668Y-126668426D01*
X248373901Y-126795818D01*
X248347000Y-126931056D01*
X243574907Y-126931056D01*
X243571332Y-126922426D01*
X243494726Y-126807776D01*
X243397224Y-126710274D01*
X243282574Y-126633668D01*
X243155182Y-126580901D01*
X243019944Y-126554000D01*
X242882056Y-126554000D01*
X242746818Y-126580901D01*
X242619426Y-126633668D01*
X242504776Y-126710274D01*
X242424844Y-126790206D01*
X242351726Y-126680776D01*
X242254224Y-126583274D01*
X242139574Y-126506668D01*
X242012182Y-126453901D01*
X241876944Y-126427000D01*
X241739056Y-126427000D01*
X241603818Y-126453901D01*
X241476426Y-126506668D01*
X241361776Y-126583274D01*
X241264274Y-126680776D01*
X241187668Y-126795426D01*
X241134901Y-126922818D01*
X241108000Y-127058056D01*
X240388753Y-127058056D01*
X240387743Y-125614000D01*
X246139058Y-125614000D01*
X246150797Y-125733189D01*
X246185563Y-125847797D01*
X246242020Y-125953421D01*
X246317999Y-126046001D01*
X246410579Y-126121980D01*
X246516203Y-126178437D01*
X246630811Y-126213203D01*
X246750000Y-126224942D01*
X247344000Y-126222000D01*
X247496000Y-126070000D01*
X247496000Y-124868000D01*
X247804000Y-124868000D01*
X247804000Y-126070000D01*
X247956000Y-126222000D01*
X248550000Y-126224942D01*
X248669189Y-126213203D01*
X248783797Y-126178437D01*
X248889421Y-126121980D01*
X248982001Y-126046001D01*
X249057980Y-125953421D01*
X249114437Y-125847797D01*
X249149203Y-125733189D01*
X249160942Y-125614000D01*
X249158000Y-125020000D01*
X249006000Y-124868000D01*
X247804000Y-124868000D01*
X247496000Y-124868000D01*
X246294000Y-124868000D01*
X246142000Y-125020000D01*
X246139058Y-125614000D01*
X240387743Y-125614000D01*
X240386483Y-123814000D01*
X246139058Y-123814000D01*
X246142000Y-124408000D01*
X246294000Y-124560000D01*
X247496000Y-124560000D01*
X247496000Y-124540000D01*
X247804000Y-124540000D01*
X247804000Y-124560000D01*
X249006000Y-124560000D01*
X249158000Y-124408000D01*
X249160942Y-123814000D01*
X249149203Y-123694811D01*
X249114437Y-123580203D01*
X249057980Y-123474579D01*
X248982001Y-123381999D01*
X248889421Y-123306020D01*
X248783797Y-123249563D01*
X248669189Y-123214797D01*
X248550000Y-123203058D01*
X248267756Y-123204456D01*
X248414955Y-123106101D01*
X248582101Y-122938955D01*
X248713426Y-122742413D01*
X248803884Y-122524027D01*
X248850000Y-122292190D01*
X248850000Y-122055810D01*
X248803884Y-121823973D01*
X248713426Y-121605587D01*
X248582101Y-121409045D01*
X248414955Y-121241899D01*
X248218413Y-121110574D01*
X248000027Y-121020116D01*
X247768190Y-120974000D01*
X247531810Y-120974000D01*
X247299973Y-121020116D01*
X247081587Y-121110574D01*
X246885045Y-121241899D01*
X246717899Y-121409045D01*
X246586574Y-121605587D01*
X246496116Y-121823973D01*
X246450000Y-122055810D01*
X246450000Y-122292190D01*
X246496116Y-122524027D01*
X246586574Y-122742413D01*
X246717899Y-122938955D01*
X246885045Y-123106101D01*
X247032244Y-123204456D01*
X246750000Y-123203058D01*
X246630811Y-123214797D01*
X246516203Y-123249563D01*
X246410579Y-123306020D01*
X246317999Y-123381999D01*
X246242020Y-123474579D01*
X246185563Y-123580203D01*
X246150797Y-123694811D01*
X246139058Y-123814000D01*
X240386483Y-123814000D01*
X240381466Y-116647489D01*
X243460000Y-116647489D01*
X243460000Y-116972511D01*
X243523408Y-117291287D01*
X243647789Y-117591568D01*
X243828361Y-117861814D01*
X244058186Y-118091639D01*
X244328432Y-118272211D01*
X244628713Y-118396592D01*
X244947489Y-118460000D01*
X245272511Y-118460000D01*
X245591287Y-118396592D01*
X245891568Y-118272211D01*
X246161814Y-118091639D01*
X246338453Y-117915000D01*
X252089058Y-117915000D01*
X252100797Y-118034189D01*
X252135563Y-118148797D01*
X252192020Y-118254421D01*
X252267999Y-118347001D01*
X252360579Y-118422980D01*
X252466203Y-118479437D01*
X252580811Y-118514203D01*
X252700000Y-118525942D01*
X253361766Y-118523983D01*
X253207811Y-118570685D01*
X252951569Y-118707649D01*
X252726972Y-118891972D01*
X252542649Y-119116569D01*
X252405685Y-119372811D01*
X252321343Y-119650850D01*
X252292864Y-119940000D01*
X252321343Y-120229150D01*
X252405685Y-120507189D01*
X252542649Y-120763431D01*
X252726972Y-120988028D01*
X252951569Y-121172351D01*
X253207811Y-121309315D01*
X253485850Y-121393657D01*
X253702548Y-121415000D01*
X254297452Y-121415000D01*
X254514150Y-121393657D01*
X254792189Y-121309315D01*
X255048431Y-121172351D01*
X255176720Y-121067066D01*
X255861990Y-121067066D01*
X255861990Y-121204954D01*
X255888891Y-121340192D01*
X255941658Y-121467584D01*
X256018264Y-121582234D01*
X256115766Y-121679736D01*
X256230416Y-121756342D01*
X256357808Y-121809109D01*
X256493046Y-121836010D01*
X256630934Y-121836010D01*
X256655970Y-121831030D01*
X257368980Y-122544041D01*
X257364000Y-122569076D01*
X257364000Y-122706964D01*
X257390901Y-122842202D01*
X257443668Y-122969594D01*
X257520274Y-123084244D01*
X257617776Y-123181746D01*
X257732426Y-123258352D01*
X257859818Y-123311119D01*
X257995056Y-123338020D01*
X258132944Y-123338020D01*
X258268182Y-123311119D01*
X258395574Y-123258352D01*
X258510224Y-123181746D01*
X258607726Y-123084244D01*
X258684332Y-122969594D01*
X258737099Y-122842202D01*
X258764000Y-122706964D01*
X258764000Y-122569076D01*
X258737099Y-122433838D01*
X258684332Y-122306446D01*
X258607726Y-122191796D01*
X258510224Y-122094294D01*
X258395574Y-122017688D01*
X258268182Y-121964921D01*
X258132944Y-121938020D01*
X257995056Y-121938020D01*
X257970021Y-121943000D01*
X257257010Y-121229990D01*
X257261990Y-121204954D01*
X257261990Y-121067066D01*
X257235089Y-120931828D01*
X257182322Y-120804436D01*
X257105716Y-120689786D01*
X257008214Y-120592284D01*
X256893564Y-120515678D01*
X256766172Y-120462911D01*
X256630934Y-120436010D01*
X256493046Y-120436010D01*
X256357808Y-120462911D01*
X256230416Y-120515678D01*
X256115766Y-120592284D01*
X256018264Y-120689786D01*
X255941658Y-120804436D01*
X255888891Y-120931828D01*
X255861990Y-121067066D01*
X255176720Y-121067066D01*
X255273028Y-120988028D01*
X255457351Y-120763431D01*
X255594315Y-120507189D01*
X255678657Y-120229150D01*
X255707136Y-119940000D01*
X255678657Y-119650850D01*
X255594315Y-119372811D01*
X255457351Y-119116569D01*
X255273028Y-118891972D01*
X255048431Y-118707649D01*
X254792189Y-118570685D01*
X254638234Y-118523983D01*
X255300000Y-118525942D01*
X255419189Y-118514203D01*
X255533797Y-118479437D01*
X255639421Y-118422980D01*
X255732001Y-118347001D01*
X255807980Y-118254421D01*
X255864437Y-118148797D01*
X255899203Y-118034189D01*
X255910942Y-117915000D01*
X255908000Y-117146000D01*
X255756000Y-116994000D01*
X254154000Y-116994000D01*
X254154000Y-117014000D01*
X253846000Y-117014000D01*
X253846000Y-116994000D01*
X252244000Y-116994000D01*
X252092000Y-117146000D01*
X252089058Y-117915000D01*
X246338453Y-117915000D01*
X246391639Y-117861814D01*
X246572211Y-117591568D01*
X246696592Y-117291287D01*
X246760000Y-116972511D01*
X246760000Y-116647489D01*
X246696592Y-116328713D01*
X246572211Y-116028432D01*
X246396192Y-115765000D01*
X252089058Y-115765000D01*
X252092000Y-116534000D01*
X252244000Y-116686000D01*
X253846000Y-116686000D01*
X253846000Y-115309000D01*
X254154000Y-115309000D01*
X254154000Y-116686000D01*
X255756000Y-116686000D01*
X255908000Y-116534000D01*
X255910942Y-115765000D01*
X255899203Y-115645811D01*
X255864437Y-115531203D01*
X255807980Y-115425579D01*
X255732001Y-115332999D01*
X255639421Y-115257020D01*
X255533797Y-115200563D01*
X255419189Y-115165797D01*
X255300000Y-115154058D01*
X254306000Y-115157000D01*
X254154000Y-115309000D01*
X253846000Y-115309000D01*
X253694000Y-115157000D01*
X252700000Y-115154058D01*
X252580811Y-115165797D01*
X252466203Y-115200563D01*
X252360579Y-115257020D01*
X252267999Y-115332999D01*
X252192020Y-115425579D01*
X252135563Y-115531203D01*
X252100797Y-115645811D01*
X252089058Y-115765000D01*
X246396192Y-115765000D01*
X246391639Y-115758186D01*
X246161814Y-115528361D01*
X245891568Y-115347789D01*
X245591287Y-115223408D01*
X245272511Y-115160000D01*
X244947489Y-115160000D01*
X244628713Y-115223408D01*
X244328432Y-115347789D01*
X244058186Y-115528361D01*
X243828361Y-115758186D01*
X243647789Y-116028432D01*
X243523408Y-116328713D01*
X243460000Y-116647489D01*
X240381466Y-116647489D01*
X240379419Y-113723056D01*
X252538000Y-113723056D01*
X252538000Y-113860944D01*
X252564901Y-113996182D01*
X252617668Y-114123574D01*
X252694274Y-114238224D01*
X252791776Y-114335726D01*
X252906426Y-114412332D01*
X253033818Y-114465099D01*
X253169056Y-114492000D01*
X253306944Y-114492000D01*
X253442182Y-114465099D01*
X253569574Y-114412332D01*
X253684224Y-114335726D01*
X253781726Y-114238224D01*
X253795907Y-114217000D01*
X254204093Y-114217000D01*
X254218274Y-114238224D01*
X254315776Y-114335726D01*
X254430426Y-114412332D01*
X254557818Y-114465099D01*
X254693056Y-114492000D01*
X254830944Y-114492000D01*
X254966182Y-114465099D01*
X255093574Y-114412332D01*
X255208224Y-114335726D01*
X255305726Y-114238224D01*
X255382332Y-114123574D01*
X255435099Y-113996182D01*
X255462000Y-113860944D01*
X255462000Y-113723056D01*
X255435099Y-113587818D01*
X255382332Y-113460426D01*
X255305726Y-113345776D01*
X255208224Y-113248274D01*
X255093574Y-113171668D01*
X254966182Y-113118901D01*
X254830944Y-113092000D01*
X254693056Y-113092000D01*
X254557818Y-113118901D01*
X254430426Y-113171668D01*
X254315776Y-113248274D01*
X254218274Y-113345776D01*
X254204093Y-113367000D01*
X253795907Y-113367000D01*
X253781726Y-113345776D01*
X253684224Y-113248274D01*
X253569574Y-113171668D01*
X253442182Y-113118901D01*
X253306944Y-113092000D01*
X253169056Y-113092000D01*
X253033818Y-113118901D01*
X252906426Y-113171668D01*
X252791776Y-113248274D01*
X252694274Y-113345776D01*
X252617668Y-113460426D01*
X252564901Y-113587818D01*
X252538000Y-113723056D01*
X240379419Y-113723056D01*
X240374352Y-106485000D01*
X243199058Y-106485000D01*
X243210797Y-106604189D01*
X243245563Y-106718797D01*
X243302020Y-106824421D01*
X243377999Y-106917001D01*
X243470579Y-106992980D01*
X243576203Y-107049437D01*
X243690811Y-107084203D01*
X243810000Y-107095942D01*
X244471766Y-107093983D01*
X244317811Y-107140685D01*
X244061569Y-107277649D01*
X243836972Y-107461972D01*
X243652649Y-107686569D01*
X243515685Y-107942811D01*
X243431343Y-108220850D01*
X243402864Y-108510000D01*
X243431343Y-108799150D01*
X243515685Y-109077189D01*
X243652649Y-109333431D01*
X243836972Y-109558028D01*
X244061569Y-109742351D01*
X244317811Y-109879315D01*
X244595850Y-109963657D01*
X244812548Y-109985000D01*
X245407452Y-109985000D01*
X245624150Y-109963657D01*
X245902189Y-109879315D01*
X246158431Y-109742351D01*
X246383028Y-109558028D01*
X246567351Y-109333431D01*
X246704315Y-109077189D01*
X246788657Y-108799150D01*
X246817136Y-108510000D01*
X246788657Y-108220850D01*
X246704315Y-107942811D01*
X246567351Y-107686569D01*
X246383028Y-107461972D01*
X246158431Y-107277649D01*
X245902189Y-107140685D01*
X245748234Y-107093983D01*
X246410000Y-107095942D01*
X246529189Y-107084203D01*
X246643797Y-107049437D01*
X246749421Y-106992980D01*
X246842001Y-106917001D01*
X246917980Y-106824421D01*
X246974437Y-106718797D01*
X247009203Y-106604189D01*
X247020942Y-106485000D01*
X247018000Y-105716000D01*
X246866000Y-105564000D01*
X245264000Y-105564000D01*
X245264000Y-105584000D01*
X244956000Y-105584000D01*
X244956000Y-105564000D01*
X243354000Y-105564000D01*
X243202000Y-105716000D01*
X243199058Y-106485000D01*
X240374352Y-106485000D01*
X240372847Y-104335000D01*
X243199058Y-104335000D01*
X243202000Y-105104000D01*
X243354000Y-105256000D01*
X244956000Y-105256000D01*
X244956000Y-103879000D01*
X245264000Y-103879000D01*
X245264000Y-105256000D01*
X246866000Y-105256000D01*
X247018000Y-105104000D01*
X247020942Y-104335000D01*
X247009203Y-104215811D01*
X246974437Y-104101203D01*
X246917980Y-103995579D01*
X246878514Y-103947489D01*
X252350000Y-103947489D01*
X252350000Y-104272511D01*
X252413408Y-104591287D01*
X252537789Y-104891568D01*
X252718361Y-105161814D01*
X252948186Y-105391639D01*
X253218432Y-105572211D01*
X253518713Y-105696592D01*
X253837489Y-105760000D01*
X254162511Y-105760000D01*
X254481287Y-105696592D01*
X254781568Y-105572211D01*
X255051814Y-105391639D01*
X255281639Y-105161814D01*
X255462211Y-104891568D01*
X255586592Y-104591287D01*
X255650000Y-104272511D01*
X255650000Y-103947489D01*
X255586592Y-103628713D01*
X255462211Y-103328432D01*
X255281639Y-103058186D01*
X255051814Y-102828361D01*
X254781568Y-102647789D01*
X254481287Y-102523408D01*
X254162511Y-102460000D01*
X253837489Y-102460000D01*
X253518713Y-102523408D01*
X253218432Y-102647789D01*
X252948186Y-102828361D01*
X252718361Y-103058186D01*
X252537789Y-103328432D01*
X252413408Y-103628713D01*
X252350000Y-103947489D01*
X246878514Y-103947489D01*
X246842001Y-103902999D01*
X246749421Y-103827020D01*
X246643797Y-103770563D01*
X246529189Y-103735797D01*
X246410000Y-103724058D01*
X245416000Y-103727000D01*
X245264000Y-103879000D01*
X244956000Y-103879000D01*
X244804000Y-103727000D01*
X243810000Y-103724058D01*
X243690811Y-103735797D01*
X243576203Y-103770563D01*
X243470579Y-103827020D01*
X243377999Y-103902999D01*
X243302020Y-103995579D01*
X243245563Y-104101203D01*
X243210797Y-104215811D01*
X243199058Y-104335000D01*
X240372847Y-104335000D01*
X240368896Y-98690000D01*
X246139058Y-98690000D01*
X246150797Y-98809189D01*
X246185563Y-98923797D01*
X246242020Y-99029421D01*
X246317999Y-99122001D01*
X246410579Y-99197980D01*
X246516203Y-99254437D01*
X246630811Y-99289203D01*
X246750000Y-99300942D01*
X247032244Y-99299544D01*
X246885045Y-99397899D01*
X246717899Y-99565045D01*
X246586574Y-99761587D01*
X246496116Y-99979973D01*
X246450000Y-100211810D01*
X246450000Y-100448190D01*
X246496116Y-100680027D01*
X246586574Y-100898413D01*
X246717899Y-101094955D01*
X246885045Y-101262101D01*
X247081587Y-101393426D01*
X247299973Y-101483884D01*
X247531810Y-101530000D01*
X247768190Y-101530000D01*
X248000027Y-101483884D01*
X248218413Y-101393426D01*
X248414955Y-101262101D01*
X248582101Y-101094955D01*
X248713426Y-100898413D01*
X248803884Y-100680027D01*
X248850000Y-100448190D01*
X248850000Y-100211810D01*
X248803884Y-99979973D01*
X248713426Y-99761587D01*
X248582101Y-99565045D01*
X248414955Y-99397899D01*
X248267756Y-99299544D01*
X248550000Y-99300942D01*
X248669189Y-99289203D01*
X248783797Y-99254437D01*
X248889421Y-99197980D01*
X248982001Y-99122001D01*
X249057980Y-99029421D01*
X249114437Y-98923797D01*
X249149203Y-98809189D01*
X249160942Y-98690000D01*
X249158000Y-98096000D01*
X249006000Y-97944000D01*
X247804000Y-97944000D01*
X247804000Y-97964000D01*
X247496000Y-97964000D01*
X247496000Y-97944000D01*
X246294000Y-97944000D01*
X246142000Y-98096000D01*
X246139058Y-98690000D01*
X240368896Y-98690000D01*
X240367636Y-96890000D01*
X246139058Y-96890000D01*
X246142000Y-97484000D01*
X246294000Y-97636000D01*
X247496000Y-97636000D01*
X247496000Y-96434000D01*
X247804000Y-96434000D01*
X247804000Y-97636000D01*
X249006000Y-97636000D01*
X249158000Y-97484000D01*
X249160942Y-96890000D01*
X249149203Y-96770811D01*
X249114437Y-96656203D01*
X249057980Y-96550579D01*
X248982001Y-96457999D01*
X248889421Y-96382020D01*
X248783797Y-96325563D01*
X248669189Y-96290797D01*
X248550000Y-96279058D01*
X247956000Y-96282000D01*
X247804000Y-96434000D01*
X247496000Y-96434000D01*
X247344000Y-96282000D01*
X246750000Y-96279058D01*
X246630811Y-96290797D01*
X246516203Y-96325563D01*
X246410579Y-96382020D01*
X246317999Y-96457999D01*
X246242020Y-96550579D01*
X246185563Y-96656203D01*
X246150797Y-96770811D01*
X246139058Y-96890000D01*
X240367636Y-96890000D01*
X240364575Y-92517489D01*
X243460000Y-92517489D01*
X243460000Y-92842511D01*
X243523408Y-93161287D01*
X243647789Y-93461568D01*
X243828361Y-93731814D01*
X244058186Y-93961639D01*
X244328432Y-94142211D01*
X244628713Y-94266592D01*
X244947489Y-94330000D01*
X245272511Y-94330000D01*
X245591287Y-94266592D01*
X245891568Y-94142211D01*
X246161814Y-93961639D01*
X246338453Y-93785000D01*
X252089058Y-93785000D01*
X252100797Y-93904189D01*
X252135563Y-94018797D01*
X252192020Y-94124421D01*
X252267999Y-94217001D01*
X252360579Y-94292980D01*
X252466203Y-94349437D01*
X252580811Y-94384203D01*
X252700000Y-94395942D01*
X253361766Y-94393983D01*
X253207811Y-94440685D01*
X252951569Y-94577649D01*
X252726972Y-94761972D01*
X252542649Y-94986569D01*
X252405685Y-95242811D01*
X252321343Y-95520850D01*
X252292864Y-95810000D01*
X252321343Y-96099150D01*
X252405685Y-96377189D01*
X252542649Y-96633431D01*
X252726972Y-96858028D01*
X252951569Y-97042351D01*
X253207811Y-97179315D01*
X253485850Y-97263657D01*
X253702548Y-97285000D01*
X254297452Y-97285000D01*
X254514150Y-97263657D01*
X254792189Y-97179315D01*
X255048431Y-97042351D01*
X255273028Y-96858028D01*
X255457351Y-96633431D01*
X255594315Y-96377189D01*
X255678657Y-96099150D01*
X255707136Y-95810000D01*
X255678657Y-95520850D01*
X255594315Y-95242811D01*
X255457351Y-94986569D01*
X255273028Y-94761972D01*
X255048431Y-94577649D01*
X254792189Y-94440685D01*
X254638234Y-94393983D01*
X255300000Y-94395942D01*
X255419189Y-94384203D01*
X255533797Y-94349437D01*
X255639421Y-94292980D01*
X255732001Y-94217001D01*
X255807980Y-94124421D01*
X255864437Y-94018797D01*
X255899203Y-93904189D01*
X255910942Y-93785000D01*
X255908000Y-93016000D01*
X255756000Y-92864000D01*
X254154000Y-92864000D01*
X254154000Y-92884000D01*
X253846000Y-92884000D01*
X253846000Y-92864000D01*
X252244000Y-92864000D01*
X252092000Y-93016000D01*
X252089058Y-93785000D01*
X246338453Y-93785000D01*
X246391639Y-93731814D01*
X246572211Y-93461568D01*
X246696592Y-93161287D01*
X246760000Y-92842511D01*
X246760000Y-92517489D01*
X246696592Y-92198713D01*
X246572211Y-91898432D01*
X246396192Y-91635000D01*
X252089058Y-91635000D01*
X252092000Y-92404000D01*
X252244000Y-92556000D01*
X253846000Y-92556000D01*
X253846000Y-91179000D01*
X254154000Y-91179000D01*
X254154000Y-92556000D01*
X255756000Y-92556000D01*
X255908000Y-92404000D01*
X255910942Y-91635000D01*
X255899203Y-91515811D01*
X255864437Y-91401203D01*
X255807980Y-91295579D01*
X255732001Y-91202999D01*
X255639421Y-91127020D01*
X255533797Y-91070563D01*
X255419189Y-91035797D01*
X255300000Y-91024058D01*
X254306000Y-91027000D01*
X254154000Y-91179000D01*
X253846000Y-91179000D01*
X253694000Y-91027000D01*
X252700000Y-91024058D01*
X252580811Y-91035797D01*
X252466203Y-91070563D01*
X252360579Y-91127020D01*
X252267999Y-91202999D01*
X252192020Y-91295579D01*
X252135563Y-91401203D01*
X252100797Y-91515811D01*
X252089058Y-91635000D01*
X246396192Y-91635000D01*
X246391639Y-91628186D01*
X246161814Y-91398361D01*
X245891568Y-91217789D01*
X245591287Y-91093408D01*
X245272511Y-91030000D01*
X244947489Y-91030000D01*
X244628713Y-91093408D01*
X244328432Y-91217789D01*
X244058186Y-91398361D01*
X243828361Y-91628186D01*
X243647789Y-91898432D01*
X243523408Y-92198713D01*
X243460000Y-92517489D01*
X240364575Y-92517489D01*
X240357461Y-82355000D01*
X243199058Y-82355000D01*
X243210797Y-82474189D01*
X243245563Y-82588797D01*
X243302020Y-82694421D01*
X243377999Y-82787001D01*
X243470579Y-82862980D01*
X243576203Y-82919437D01*
X243690811Y-82954203D01*
X243810000Y-82965942D01*
X244471766Y-82963983D01*
X244317811Y-83010685D01*
X244061569Y-83147649D01*
X243836972Y-83331972D01*
X243652649Y-83556569D01*
X243515685Y-83812811D01*
X243431343Y-84090850D01*
X243402864Y-84380000D01*
X243431343Y-84669150D01*
X243515685Y-84947189D01*
X243652649Y-85203431D01*
X243836972Y-85428028D01*
X244061569Y-85612351D01*
X244317811Y-85749315D01*
X244595850Y-85833657D01*
X244812548Y-85855000D01*
X245407452Y-85855000D01*
X245624150Y-85833657D01*
X245902189Y-85749315D01*
X246158431Y-85612351D01*
X246383028Y-85428028D01*
X246567351Y-85203431D01*
X246704315Y-84947189D01*
X246788657Y-84669150D01*
X246817136Y-84380000D01*
X246788657Y-84090850D01*
X246704315Y-83812811D01*
X246567351Y-83556569D01*
X246383028Y-83331972D01*
X246158431Y-83147649D01*
X245902189Y-83010685D01*
X245748234Y-82963983D01*
X246410000Y-82965942D01*
X246529189Y-82954203D01*
X246643797Y-82919437D01*
X246749421Y-82862980D01*
X246842001Y-82787001D01*
X246917980Y-82694421D01*
X246974437Y-82588797D01*
X247009203Y-82474189D01*
X247020942Y-82355000D01*
X247018000Y-81586000D01*
X246866000Y-81434000D01*
X245264000Y-81434000D01*
X245264000Y-81454000D01*
X244956000Y-81454000D01*
X244956000Y-81434000D01*
X243354000Y-81434000D01*
X243202000Y-81586000D01*
X243199058Y-82355000D01*
X240357461Y-82355000D01*
X240355956Y-80205000D01*
X243199058Y-80205000D01*
X243202000Y-80974000D01*
X243354000Y-81126000D01*
X244956000Y-81126000D01*
X244956000Y-79749000D01*
X245264000Y-79749000D01*
X245264000Y-81126000D01*
X246866000Y-81126000D01*
X247018000Y-80974000D01*
X247020942Y-80205000D01*
X247009203Y-80085811D01*
X246974437Y-79971203D01*
X246917980Y-79865579D01*
X246842001Y-79772999D01*
X246749421Y-79697020D01*
X246643797Y-79640563D01*
X246529189Y-79605797D01*
X246410000Y-79594058D01*
X245416000Y-79597000D01*
X245264000Y-79749000D01*
X244956000Y-79749000D01*
X244804000Y-79597000D01*
X243810000Y-79594058D01*
X243690811Y-79605797D01*
X243576203Y-79640563D01*
X243470579Y-79697020D01*
X243377999Y-79772999D01*
X243302020Y-79865579D01*
X243245563Y-79971203D01*
X243210797Y-80085811D01*
X243199058Y-80205000D01*
X240355956Y-80205000D01*
X240355227Y-79165000D01*
X259705228Y-79165000D01*
X259774773Y-178514300D01*
G37*
G04 #@! TD.AperFunction*
G04 #@! TD*
M02*
