G04 #@! TF.GenerationSoftware,KiCad,Pcbnew,(5.1.9)-1*
G04 #@! TF.CreationDate,2021-08-04T02:23:12+02:00*
G04 #@! TF.ProjectId,sequswit,73657175-7377-4697-942e-6b696361645f,rev?*
G04 #@! TF.SameCoordinates,Original*
G04 #@! TF.FileFunction,Legend,Top*
G04 #@! TF.FilePolarity,Positive*
%FSLAX46Y46*%
G04 Gerber Fmt 4.6, Leading zero omitted, Abs format (unit mm)*
G04 Created by KiCad (PCBNEW (5.1.9)-1) date 2021-08-04 02:23:12*
%MOMM*%
%LPD*%
G01*
G04 APERTURE LIST*
%ADD10C,0.150000*%
%ADD11C,0.010000*%
%ADD12C,0.120000*%
G04 APERTURE END LIST*
D10*
X248031047Y-102306428D02*
X248792952Y-102306428D01*
X248412000Y-102687380D02*
X248412000Y-101925476D01*
X247269047Y-120086428D02*
X248030952Y-120086428D01*
X247650000Y-120467380D02*
X247650000Y-119705476D01*
X247459547Y-168282928D02*
X248221452Y-168282928D01*
X247840500Y-168663880D02*
X247840500Y-167901976D01*
X248348547Y-144279928D02*
X249110452Y-144279928D01*
X248729500Y-144660880D02*
X248729500Y-143898976D01*
X249697142Y-163542142D02*
X250340000Y-163542142D01*
X250468571Y-163585000D01*
X250554285Y-163670714D01*
X250597142Y-163799285D01*
X250597142Y-163885000D01*
X250597142Y-162685000D02*
X250597142Y-163113571D01*
X249697142Y-163113571D01*
X250511428Y-161870714D02*
X250554285Y-161913571D01*
X250597142Y-162042142D01*
X250597142Y-162127857D01*
X250554285Y-162256428D01*
X250468571Y-162342142D01*
X250382857Y-162385000D01*
X250211428Y-162427857D01*
X250082857Y-162427857D01*
X249911428Y-162385000D01*
X249825714Y-162342142D01*
X249740000Y-162256428D01*
X249697142Y-162127857D01*
X249697142Y-162042142D01*
X249740000Y-161913571D01*
X249782857Y-161870714D01*
X249697142Y-161227857D02*
X250340000Y-161227857D01*
X250468571Y-161270714D01*
X250554285Y-161356428D01*
X250597142Y-161485000D01*
X250597142Y-161570714D01*
X250597142Y-160370714D02*
X250597142Y-160799285D01*
X249697142Y-160799285D01*
X250511428Y-159556428D02*
X250554285Y-159599285D01*
X250597142Y-159727857D01*
X250597142Y-159813571D01*
X250554285Y-159942142D01*
X250468571Y-160027857D01*
X250382857Y-160070714D01*
X250211428Y-160113571D01*
X250082857Y-160113571D01*
X249911428Y-160070714D01*
X249825714Y-160027857D01*
X249740000Y-159942142D01*
X249697142Y-159813571D01*
X249697142Y-159727857D01*
X249740000Y-159599285D01*
X249782857Y-159556428D01*
X249697142Y-158913571D02*
X250340000Y-158913571D01*
X250468571Y-158956428D01*
X250554285Y-159042142D01*
X250597142Y-159170714D01*
X250597142Y-159256428D01*
X250597142Y-158056428D02*
X250597142Y-158485000D01*
X249697142Y-158485000D01*
X250511428Y-157242142D02*
X250554285Y-157285000D01*
X250597142Y-157413571D01*
X250597142Y-157499285D01*
X250554285Y-157627857D01*
X250468571Y-157713571D01*
X250382857Y-157756428D01*
X250211428Y-157799285D01*
X250082857Y-157799285D01*
X249911428Y-157756428D01*
X249825714Y-157713571D01*
X249740000Y-157627857D01*
X249697142Y-157499285D01*
X249697142Y-157413571D01*
X249740000Y-157285000D01*
X249782857Y-157242142D01*
X249697142Y-156599285D02*
X250340000Y-156599285D01*
X250468571Y-156642142D01*
X250554285Y-156727857D01*
X250597142Y-156856428D01*
X250597142Y-156942142D01*
X250597142Y-155742142D02*
X250597142Y-156170714D01*
X249697142Y-156170714D01*
X250511428Y-154927857D02*
X250554285Y-154970714D01*
X250597142Y-155099285D01*
X250597142Y-155185000D01*
X250554285Y-155313571D01*
X250468571Y-155399285D01*
X250382857Y-155442142D01*
X250211428Y-155485000D01*
X250082857Y-155485000D01*
X249911428Y-155442142D01*
X249825714Y-155399285D01*
X249740000Y-155313571D01*
X249697142Y-155185000D01*
X249697142Y-155099285D01*
X249740000Y-154970714D01*
X249782857Y-154927857D01*
D11*
G04 #@! TO.C,REF\u002A\u002A*
G36*
X253821406Y-81491665D02*
G01*
X253821695Y-81786015D01*
X253822120Y-81887990D01*
X253823408Y-81968645D01*
X253825914Y-82033112D01*
X253829996Y-82086524D01*
X253836008Y-82134012D01*
X253844308Y-82180711D01*
X253851436Y-82214611D01*
X253914754Y-82444451D01*
X254001012Y-82663768D01*
X254109009Y-82870799D01*
X254237544Y-83063780D01*
X254385418Y-83240951D01*
X254551430Y-83400547D01*
X254734379Y-83540807D01*
X254771449Y-83565446D01*
X254858402Y-83617244D01*
X254959820Y-83670145D01*
X255068866Y-83721164D01*
X255178702Y-83767318D01*
X255282488Y-83805625D01*
X255373388Y-83833102D01*
X255398984Y-83839196D01*
X255441979Y-83848561D01*
X255441979Y-82086979D01*
X256381250Y-82086979D01*
X256381250Y-83848561D01*
X256424244Y-83839196D01*
X256515611Y-83814136D01*
X256621469Y-83776648D01*
X256734878Y-83729815D01*
X256848892Y-83676718D01*
X256956569Y-83620440D01*
X257050967Y-83564064D01*
X257065319Y-83554608D01*
X257256791Y-83410866D01*
X257428630Y-83249667D01*
X257580163Y-83072010D01*
X257710719Y-82878891D01*
X257819624Y-82671309D01*
X257906206Y-82450262D01*
X257969794Y-82216745D01*
X257971021Y-82211044D01*
X257981622Y-82158462D01*
X257989513Y-82110042D01*
X257995078Y-82060391D01*
X257998702Y-82004119D01*
X258000769Y-81935832D01*
X258001664Y-81850141D01*
X258001799Y-81779401D01*
X258001776Y-81491667D01*
X258934479Y-81491667D01*
X258932762Y-81779401D01*
X258931709Y-81871376D01*
X258929766Y-81961109D01*
X258927126Y-82042842D01*
X258923981Y-82110821D01*
X258920526Y-82159289D01*
X258919789Y-82166354D01*
X258883594Y-82391763D01*
X258826376Y-82623614D01*
X258750284Y-82855575D01*
X258657465Y-83081315D01*
X258550068Y-83294501D01*
X258518135Y-83350303D01*
X258412667Y-83513844D01*
X258288545Y-83679786D01*
X258151431Y-83841573D01*
X258006982Y-83992650D01*
X257860859Y-84126460D01*
X257816607Y-84163007D01*
X257595012Y-84324327D01*
X257357378Y-84465652D01*
X257106089Y-84585975D01*
X256843532Y-84684289D01*
X256572092Y-84759588D01*
X256294155Y-84810865D01*
X256275416Y-84813410D01*
X256203751Y-84820359D01*
X256113046Y-84825292D01*
X256009923Y-84828208D01*
X255901009Y-84829105D01*
X255792925Y-84827981D01*
X255692298Y-84824834D01*
X255605752Y-84819662D01*
X255547812Y-84813617D01*
X255262894Y-84761661D01*
X254987354Y-84686431D01*
X254722809Y-84588609D01*
X254470877Y-84468879D01*
X254233177Y-84327924D01*
X254011325Y-84166427D01*
X254007079Y-84163007D01*
X253804121Y-83982720D01*
X253617656Y-83783578D01*
X253449214Y-83568027D01*
X253300325Y-83338515D01*
X253172517Y-83097491D01*
X253067322Y-82847400D01*
X252986267Y-82590691D01*
X252961769Y-82490381D01*
X252935938Y-82366470D01*
X252916592Y-82251300D01*
X252902981Y-82137480D01*
X252894356Y-82017615D01*
X252889968Y-81884313D01*
X252889008Y-81772787D01*
X252888750Y-81491667D01*
X253821406Y-81491665D01*
G37*
X253821406Y-81491665D02*
X253821695Y-81786015D01*
X253822120Y-81887990D01*
X253823408Y-81968645D01*
X253825914Y-82033112D01*
X253829996Y-82086524D01*
X253836008Y-82134012D01*
X253844308Y-82180711D01*
X253851436Y-82214611D01*
X253914754Y-82444451D01*
X254001012Y-82663768D01*
X254109009Y-82870799D01*
X254237544Y-83063780D01*
X254385418Y-83240951D01*
X254551430Y-83400547D01*
X254734379Y-83540807D01*
X254771449Y-83565446D01*
X254858402Y-83617244D01*
X254959820Y-83670145D01*
X255068866Y-83721164D01*
X255178702Y-83767318D01*
X255282488Y-83805625D01*
X255373388Y-83833102D01*
X255398984Y-83839196D01*
X255441979Y-83848561D01*
X255441979Y-82086979D01*
X256381250Y-82086979D01*
X256381250Y-83848561D01*
X256424244Y-83839196D01*
X256515611Y-83814136D01*
X256621469Y-83776648D01*
X256734878Y-83729815D01*
X256848892Y-83676718D01*
X256956569Y-83620440D01*
X257050967Y-83564064D01*
X257065319Y-83554608D01*
X257256791Y-83410866D01*
X257428630Y-83249667D01*
X257580163Y-83072010D01*
X257710719Y-82878891D01*
X257819624Y-82671309D01*
X257906206Y-82450262D01*
X257969794Y-82216745D01*
X257971021Y-82211044D01*
X257981622Y-82158462D01*
X257989513Y-82110042D01*
X257995078Y-82060391D01*
X257998702Y-82004119D01*
X258000769Y-81935832D01*
X258001664Y-81850141D01*
X258001799Y-81779401D01*
X258001776Y-81491667D01*
X258934479Y-81491667D01*
X258932762Y-81779401D01*
X258931709Y-81871376D01*
X258929766Y-81961109D01*
X258927126Y-82042842D01*
X258923981Y-82110821D01*
X258920526Y-82159289D01*
X258919789Y-82166354D01*
X258883594Y-82391763D01*
X258826376Y-82623614D01*
X258750284Y-82855575D01*
X258657465Y-83081315D01*
X258550068Y-83294501D01*
X258518135Y-83350303D01*
X258412667Y-83513844D01*
X258288545Y-83679786D01*
X258151431Y-83841573D01*
X258006982Y-83992650D01*
X257860859Y-84126460D01*
X257816607Y-84163007D01*
X257595012Y-84324327D01*
X257357378Y-84465652D01*
X257106089Y-84585975D01*
X256843532Y-84684289D01*
X256572092Y-84759588D01*
X256294155Y-84810865D01*
X256275416Y-84813410D01*
X256203751Y-84820359D01*
X256113046Y-84825292D01*
X256009923Y-84828208D01*
X255901009Y-84829105D01*
X255792925Y-84827981D01*
X255692298Y-84824834D01*
X255605752Y-84819662D01*
X255547812Y-84813617D01*
X255262894Y-84761661D01*
X254987354Y-84686431D01*
X254722809Y-84588609D01*
X254470877Y-84468879D01*
X254233177Y-84327924D01*
X254011325Y-84166427D01*
X254007079Y-84163007D01*
X253804121Y-83982720D01*
X253617656Y-83783578D01*
X253449214Y-83568027D01*
X253300325Y-83338515D01*
X253172517Y-83097491D01*
X253067322Y-82847400D01*
X252986267Y-82590691D01*
X252961769Y-82490381D01*
X252935938Y-82366470D01*
X252916592Y-82251300D01*
X252902981Y-82137480D01*
X252894356Y-82017615D01*
X252889968Y-81884313D01*
X252889008Y-81772787D01*
X252888750Y-81491667D01*
X253821406Y-81491665D01*
G36*
X252889315Y-86785813D02*
G01*
X252890975Y-86721330D01*
X252893945Y-86674697D01*
X252897088Y-86654349D01*
X252905065Y-86624583D01*
X253825530Y-86624583D01*
X253818259Y-86834119D01*
X253818523Y-87043953D01*
X253835382Y-87238141D01*
X253870075Y-87422580D01*
X253923839Y-87603168D01*
X253997911Y-87785803D01*
X254033879Y-87861511D01*
X254132977Y-88042062D01*
X254244326Y-88204702D01*
X254373408Y-88357099D01*
X254430705Y-88416378D01*
X254605861Y-88573015D01*
X254796520Y-88708527D01*
X255001394Y-88822234D01*
X255219193Y-88913456D01*
X255448629Y-88981515D01*
X255541197Y-89001674D01*
X255625244Y-89013823D01*
X255728234Y-89021934D01*
X255842965Y-89026015D01*
X255962234Y-89026074D01*
X256078837Y-89022116D01*
X256185571Y-89014149D01*
X256275233Y-89002181D01*
X256282031Y-89000943D01*
X256510759Y-88945089D01*
X256728965Y-88865701D01*
X256935177Y-88764069D01*
X257127928Y-88641478D01*
X257305748Y-88499219D01*
X257467168Y-88338579D01*
X257610719Y-88160845D01*
X257734931Y-87967307D01*
X257838336Y-87759252D01*
X257907535Y-87575763D01*
X257939118Y-87472623D01*
X257963129Y-87377893D01*
X257980463Y-87285130D01*
X257992016Y-87187894D01*
X257998680Y-87079742D01*
X258001352Y-86954233D01*
X258001504Y-86899089D01*
X258001186Y-86624583D01*
X258918164Y-86624583D01*
X258926141Y-86654349D01*
X258929138Y-86679749D01*
X258931203Y-86726744D01*
X258932382Y-86790490D01*
X258932723Y-86866142D01*
X258932274Y-86948854D01*
X258931083Y-87033783D01*
X258929197Y-87116083D01*
X258926663Y-87190909D01*
X258923531Y-87253417D01*
X258919847Y-87298762D01*
X258919789Y-87299271D01*
X258903341Y-87412271D01*
X258878706Y-87539872D01*
X258848083Y-87672338D01*
X258813667Y-87799934D01*
X258788536Y-87881016D01*
X258687498Y-88145553D01*
X258564513Y-88396277D01*
X258420777Y-88632195D01*
X258257487Y-88852320D01*
X258075838Y-89055660D01*
X257877026Y-89241227D01*
X257662247Y-89408030D01*
X257432698Y-89555079D01*
X257189573Y-89681385D01*
X256934070Y-89785958D01*
X256667383Y-89867808D01*
X256390709Y-89925945D01*
X256301875Y-89939162D01*
X256217107Y-89947618D01*
X256113118Y-89953437D01*
X255997009Y-89956618D01*
X255875887Y-89957161D01*
X255756854Y-89955066D01*
X255647014Y-89950334D01*
X255553472Y-89942963D01*
X255521354Y-89939162D01*
X255238706Y-89888241D01*
X254965614Y-89812795D01*
X254702714Y-89713081D01*
X254450637Y-89589354D01*
X254210017Y-89441872D01*
X254099218Y-89363048D01*
X253881723Y-89184770D01*
X253683344Y-88988767D01*
X253504882Y-88776402D01*
X253347133Y-88549041D01*
X253210897Y-88308047D01*
X253096971Y-88054787D01*
X253006153Y-87790623D01*
X252939241Y-87516921D01*
X252907813Y-87326120D01*
X252902490Y-87273646D01*
X252897930Y-87204782D01*
X252894212Y-87124419D01*
X252891413Y-87037450D01*
X252889612Y-86948764D01*
X252888887Y-86863255D01*
X252889315Y-86785813D01*
G37*
X252889315Y-86785813D02*
X252890975Y-86721330D01*
X252893945Y-86674697D01*
X252897088Y-86654349D01*
X252905065Y-86624583D01*
X253825530Y-86624583D01*
X253818259Y-86834119D01*
X253818523Y-87043953D01*
X253835382Y-87238141D01*
X253870075Y-87422580D01*
X253923839Y-87603168D01*
X253997911Y-87785803D01*
X254033879Y-87861511D01*
X254132977Y-88042062D01*
X254244326Y-88204702D01*
X254373408Y-88357099D01*
X254430705Y-88416378D01*
X254605861Y-88573015D01*
X254796520Y-88708527D01*
X255001394Y-88822234D01*
X255219193Y-88913456D01*
X255448629Y-88981515D01*
X255541197Y-89001674D01*
X255625244Y-89013823D01*
X255728234Y-89021934D01*
X255842965Y-89026015D01*
X255962234Y-89026074D01*
X256078837Y-89022116D01*
X256185571Y-89014149D01*
X256275233Y-89002181D01*
X256282031Y-89000943D01*
X256510759Y-88945089D01*
X256728965Y-88865701D01*
X256935177Y-88764069D01*
X257127928Y-88641478D01*
X257305748Y-88499219D01*
X257467168Y-88338579D01*
X257610719Y-88160845D01*
X257734931Y-87967307D01*
X257838336Y-87759252D01*
X257907535Y-87575763D01*
X257939118Y-87472623D01*
X257963129Y-87377893D01*
X257980463Y-87285130D01*
X257992016Y-87187894D01*
X257998680Y-87079742D01*
X258001352Y-86954233D01*
X258001504Y-86899089D01*
X258001186Y-86624583D01*
X258918164Y-86624583D01*
X258926141Y-86654349D01*
X258929138Y-86679749D01*
X258931203Y-86726744D01*
X258932382Y-86790490D01*
X258932723Y-86866142D01*
X258932274Y-86948854D01*
X258931083Y-87033783D01*
X258929197Y-87116083D01*
X258926663Y-87190909D01*
X258923531Y-87253417D01*
X258919847Y-87298762D01*
X258919789Y-87299271D01*
X258903341Y-87412271D01*
X258878706Y-87539872D01*
X258848083Y-87672338D01*
X258813667Y-87799934D01*
X258788536Y-87881016D01*
X258687498Y-88145553D01*
X258564513Y-88396277D01*
X258420777Y-88632195D01*
X258257487Y-88852320D01*
X258075838Y-89055660D01*
X257877026Y-89241227D01*
X257662247Y-89408030D01*
X257432698Y-89555079D01*
X257189573Y-89681385D01*
X256934070Y-89785958D01*
X256667383Y-89867808D01*
X256390709Y-89925945D01*
X256301875Y-89939162D01*
X256217107Y-89947618D01*
X256113118Y-89953437D01*
X255997009Y-89956618D01*
X255875887Y-89957161D01*
X255756854Y-89955066D01*
X255647014Y-89950334D01*
X255553472Y-89942963D01*
X255521354Y-89939162D01*
X255238706Y-89888241D01*
X254965614Y-89812795D01*
X254702714Y-89713081D01*
X254450637Y-89589354D01*
X254210017Y-89441872D01*
X254099218Y-89363048D01*
X253881723Y-89184770D01*
X253683344Y-88988767D01*
X253504882Y-88776402D01*
X253347133Y-88549041D01*
X253210897Y-88308047D01*
X253096971Y-88054787D01*
X253006153Y-87790623D01*
X252939241Y-87516921D01*
X252907813Y-87326120D01*
X252902490Y-87273646D01*
X252897930Y-87204782D01*
X252894212Y-87124419D01*
X252891413Y-87037450D01*
X252889612Y-86948764D01*
X252888887Y-86863255D01*
X252889315Y-86785813D01*
D12*
G04 #@! TO.C,SW1*
X242570000Y-163830000D02*
X247650000Y-163830000D01*
X242570000Y-153670000D02*
X247650000Y-153670000D01*
X242570000Y-163830000D02*
X242570000Y-153670000D01*
X247650000Y-153670000D02*
X247650000Y-163830000D01*
G04 #@! TO.C,D10*
X248730000Y-173010000D02*
X248886000Y-173010000D01*
X246414000Y-173010000D02*
X246570000Y-173010000D01*
X248729837Y-170408870D02*
G75*
G02*
X248730000Y-172490961I-1079837J-1041130D01*
G01*
X246570163Y-170408870D02*
G75*
G03*
X246570000Y-172490961I1079837J-1041130D01*
G01*
X248728608Y-169777665D02*
G75*
G02*
X248885516Y-173010000I-1078608J-1672335D01*
G01*
X246571392Y-169777665D02*
G75*
G03*
X246414484Y-173010000I1078608J-1672335D01*
G01*
G04 #@! TO.C,D9*
X248730000Y-149134000D02*
X248886000Y-149134000D01*
X246414000Y-149134000D02*
X246570000Y-149134000D01*
X248729837Y-146532870D02*
G75*
G02*
X248730000Y-148614961I-1079837J-1041130D01*
G01*
X246570163Y-146532870D02*
G75*
G03*
X246570000Y-148614961I1079837J-1041130D01*
G01*
X248728608Y-145901665D02*
G75*
G02*
X248885516Y-149134000I-1078608J-1672335D01*
G01*
X246571392Y-145901665D02*
G75*
G03*
X246414484Y-149134000I1078608J-1672335D01*
G01*
G04 #@! TO.C,D8*
X248730000Y-125004000D02*
X248886000Y-125004000D01*
X246414000Y-125004000D02*
X246570000Y-125004000D01*
X248729837Y-122402870D02*
G75*
G02*
X248730000Y-124484961I-1079837J-1041130D01*
G01*
X246570163Y-122402870D02*
G75*
G03*
X246570000Y-124484961I1079837J-1041130D01*
G01*
X248728608Y-121771665D02*
G75*
G02*
X248885516Y-125004000I-1078608J-1672335D01*
G01*
X246571392Y-121771665D02*
G75*
G03*
X246414484Y-125004000I1078608J-1672335D01*
G01*
G04 #@! TO.C,D7*
X246570000Y-97500000D02*
X246414000Y-97500000D01*
X248886000Y-97500000D02*
X248730000Y-97500000D01*
X246570163Y-100101130D02*
G75*
G02*
X246570000Y-98019039I1079837J1041130D01*
G01*
X248729837Y-100101130D02*
G75*
G03*
X248730000Y-98019039I-1079837J1041130D01*
G01*
X246571392Y-100732335D02*
G75*
G02*
X246414484Y-97500000I1078608J1672335D01*
G01*
X248728608Y-100732335D02*
G75*
G03*
X248885516Y-97500000I-1078608J1672335D01*
G01*
G04 #@! TO.C,J7*
X240610000Y-83260000D02*
X240610000Y-93760000D01*
X249610000Y-83260000D02*
X249610000Y-93760000D01*
X249610000Y-93760000D02*
X246110000Y-93760000D01*
X244110000Y-93760000D02*
X240610000Y-93760000D01*
X249610000Y-83260000D02*
X246010000Y-83260000D01*
X244210000Y-83260000D02*
X240610000Y-83260000D01*
X246910000Y-87760000D02*
G75*
G03*
X246910000Y-87760000I-1800000J0D01*
G01*
X244690000Y-82480000D02*
X244690000Y-83080000D01*
X245530000Y-82480000D02*
X245530000Y-83080000D01*
X243710000Y-80100000D02*
X243710000Y-81200000D01*
X243710000Y-80100000D02*
X245030000Y-80100000D01*
X243813737Y-85171423D02*
G75*
G03*
X245110000Y-90655000I1296263J-2588577D01*
G01*
X246406263Y-85171423D02*
G75*
G02*
X245110000Y-90655000I-1296263J-2588577D01*
G01*
G04 #@! TO.C,J6*
X240610000Y-107390000D02*
X240610000Y-117890000D01*
X249610000Y-107390000D02*
X249610000Y-117890000D01*
X249610000Y-117890000D02*
X246110000Y-117890000D01*
X244110000Y-117890000D02*
X240610000Y-117890000D01*
X249610000Y-107390000D02*
X246010000Y-107390000D01*
X244210000Y-107390000D02*
X240610000Y-107390000D01*
X246910000Y-111890000D02*
G75*
G03*
X246910000Y-111890000I-1800000J0D01*
G01*
X244690000Y-106610000D02*
X244690000Y-107210000D01*
X245530000Y-106610000D02*
X245530000Y-107210000D01*
X243710000Y-104230000D02*
X243710000Y-105330000D01*
X243710000Y-104230000D02*
X245030000Y-104230000D01*
X243813737Y-109301423D02*
G75*
G03*
X245110000Y-114785000I1296263J-2588577D01*
G01*
X246406263Y-109301423D02*
G75*
G02*
X245110000Y-114785000I-1296263J-2588577D01*
G01*
G04 #@! TO.C,J5*
X240610000Y-131550000D02*
X240610000Y-142050000D01*
X249610000Y-131550000D02*
X249610000Y-142050000D01*
X249610000Y-142050000D02*
X246110000Y-142050000D01*
X244110000Y-142050000D02*
X240610000Y-142050000D01*
X249610000Y-131550000D02*
X246010000Y-131550000D01*
X244210000Y-131550000D02*
X240610000Y-131550000D01*
X246910000Y-136050000D02*
G75*
G03*
X246910000Y-136050000I-1800000J0D01*
G01*
X244690000Y-130770000D02*
X244690000Y-131370000D01*
X245530000Y-130770000D02*
X245530000Y-131370000D01*
X243710000Y-128390000D02*
X243710000Y-129490000D01*
X243710000Y-128390000D02*
X245030000Y-128390000D01*
X243813737Y-133461423D02*
G75*
G03*
X245110000Y-138945000I1296263J-2588577D01*
G01*
X246406263Y-133461423D02*
G75*
G02*
X245110000Y-138945000I-1296263J-2588577D01*
G01*
G04 #@! TO.C,J4*
X249500000Y-167110000D02*
X249500000Y-177610000D01*
X258500000Y-167110000D02*
X258500000Y-177610000D01*
X258500000Y-177610000D02*
X255000000Y-177610000D01*
X253000000Y-177610000D02*
X249500000Y-177610000D01*
X258500000Y-167110000D02*
X254900000Y-167110000D01*
X253100000Y-167110000D02*
X249500000Y-167110000D01*
X255800000Y-171610000D02*
G75*
G03*
X255800000Y-171610000I-1800000J0D01*
G01*
X253580000Y-166330000D02*
X253580000Y-166930000D01*
X254420000Y-166330000D02*
X254420000Y-166930000D01*
X252600000Y-163950000D02*
X252600000Y-165050000D01*
X252600000Y-163950000D02*
X253920000Y-163950000D01*
X252703737Y-169021423D02*
G75*
G03*
X254000000Y-174505000I1296263J-2588577D01*
G01*
X255296263Y-169021423D02*
G75*
G02*
X254000000Y-174505000I-1296263J-2588577D01*
G01*
G04 #@! TO.C,J3*
X249500000Y-142980000D02*
X249500000Y-153480000D01*
X258500000Y-142980000D02*
X258500000Y-153480000D01*
X258500000Y-153480000D02*
X255000000Y-153480000D01*
X253000000Y-153480000D02*
X249500000Y-153480000D01*
X258500000Y-142980000D02*
X254900000Y-142980000D01*
X253100000Y-142980000D02*
X249500000Y-142980000D01*
X255800000Y-147480000D02*
G75*
G03*
X255800000Y-147480000I-1800000J0D01*
G01*
X253580000Y-142200000D02*
X253580000Y-142800000D01*
X254420000Y-142200000D02*
X254420000Y-142800000D01*
X252600000Y-139820000D02*
X252600000Y-140920000D01*
X252600000Y-139820000D02*
X253920000Y-139820000D01*
X252703737Y-144891423D02*
G75*
G03*
X254000000Y-150375000I1296263J-2588577D01*
G01*
X255296263Y-144891423D02*
G75*
G02*
X254000000Y-150375000I-1296263J-2588577D01*
G01*
G04 #@! TO.C,J2*
X249500000Y-118820000D02*
X249500000Y-129320000D01*
X258500000Y-118820000D02*
X258500000Y-129320000D01*
X258500000Y-129320000D02*
X255000000Y-129320000D01*
X253000000Y-129320000D02*
X249500000Y-129320000D01*
X258500000Y-118820000D02*
X254900000Y-118820000D01*
X253100000Y-118820000D02*
X249500000Y-118820000D01*
X255800000Y-123320000D02*
G75*
G03*
X255800000Y-123320000I-1800000J0D01*
G01*
X253580000Y-118040000D02*
X253580000Y-118640000D01*
X254420000Y-118040000D02*
X254420000Y-118640000D01*
X252600000Y-115660000D02*
X252600000Y-116760000D01*
X252600000Y-115660000D02*
X253920000Y-115660000D01*
X252703737Y-120731423D02*
G75*
G03*
X254000000Y-126215000I1296263J-2588577D01*
G01*
X255296263Y-120731423D02*
G75*
G02*
X254000000Y-126215000I-1296263J-2588577D01*
G01*
G04 #@! TO.C,J1*
X252600000Y-91530000D02*
X253920000Y-91530000D01*
X252600000Y-91530000D02*
X252600000Y-92630000D01*
X254420000Y-93910000D02*
X254420000Y-94510000D01*
X253580000Y-93910000D02*
X253580000Y-94510000D01*
X255800000Y-99190000D02*
G75*
G03*
X255800000Y-99190000I-1800000J0D01*
G01*
X253100000Y-94690000D02*
X249500000Y-94690000D01*
X258500000Y-94690000D02*
X254900000Y-94690000D01*
X253000000Y-105190000D02*
X249500000Y-105190000D01*
X258500000Y-105190000D02*
X255000000Y-105190000D01*
X258500000Y-94690000D02*
X258500000Y-105190000D01*
X249500000Y-94690000D02*
X249500000Y-105190000D01*
X252703737Y-96601423D02*
G75*
G03*
X254000000Y-102085000I1296263J-2588577D01*
G01*
X255296263Y-96601423D02*
G75*
G02*
X254000000Y-102085000I-1296263J-2588577D01*
G01*
G04 #@! TD*
M02*
