M48
; DRILL file {KiCad (5.1.9)-1} date 08/04/21 02:23:00
; FORMAT={-:-/ absolute / metric / decimal}
; #@! TF.CreationDate,2021-08-04T02:23:00+02:00
; #@! TF.GenerationSoftware,Kicad,Pcbnew,(5.1.9)-1
FMAT,2
METRIC
T1C0.400
T2C0.900
T3C1.000
T4C1.300
%
G90
G05
T1
X240.792Y-100.203
X241.046Y-149.352
X241.046Y-150.368
X241.046Y-151.384
X241.808Y-127.127
X241.808Y-129.032
X242.062Y-149.86
X242.062Y-150.876
X242.062Y-151.892
X242.57Y-96.139
X242.951Y-127.254
X242.951Y-128.841
X245.364Y-150.876
X245.364Y-152.527
X247.142Y-104.902
X247.396Y-130.048
X247.396Y-131.064
X247.904Y-110.871
X249.047Y-127.0
X249.047Y-129.032
X250.571Y-110.236
X251.714Y-138.938
X252.73Y-138.811
X252.984Y-161.29
X253.238Y-113.792
X253.492Y-85.344
X254.762Y-113.792
X255.143Y-155.194
X256.562Y-121.136
X256.794Y-155.194
X257.175Y-87.503
X257.175Y-90.17
X257.683Y-113.665
X257.683Y-114.935
X258.064Y-122.638
T2
X247.65Y-97.79
X247.65Y-100.33
X247.65Y-122.174
X247.65Y-124.714
X247.65Y-146.304
X247.65Y-148.844
X247.65Y-170.18
X247.65Y-172.72
T3
X242.57Y-166.37
X242.57Y-168.91
X242.57Y-171.45
X242.57Y-173.99
X242.57Y-176.53
X245.11Y-81.28
X245.11Y-84.38
X245.11Y-92.68
X245.11Y-105.41
X245.11Y-108.51
X245.11Y-116.81
X245.11Y-129.57
X245.11Y-132.67
X245.11Y-140.97
X245.11Y-166.37
X245.11Y-168.91
X245.11Y-171.45
X245.11Y-173.99
X245.11Y-176.53
X254.0Y-92.71
X254.0Y-95.81
X254.0Y-104.11
X254.0Y-116.84
X254.0Y-119.94
X254.0Y-128.24
X254.0Y-141.0
X254.0Y-144.1
X254.0Y-152.4
X254.0Y-165.13
X254.0Y-168.23
X254.0Y-176.53
T4
X245.34Y-156.21
X245.34Y-158.67
X245.34Y-161.29
T0
M30
